%TF.GenerationSoftware,KiCad,Pcbnew,9.0.3-9.0.3-0~ubuntu24.04.1*%
%TF.CreationDate,2025-07-14T18:48:30-05:00*%
%TF.ProjectId,ESP32_LogicAnalyzer,45535033-325f-44c6-9f67-6963416e616c,rev?*%
%TF.SameCoordinates,Original*%
%TF.FileFunction,Copper,L2,Bot*%
%TF.FilePolarity,Positive*%
%FSLAX46Y46*%
G04 Gerber Fmt 4.6, Leading zero omitted, Abs format (unit mm)*
G04 Created by KiCad (PCBNEW 9.0.3-9.0.3-0~ubuntu24.04.1) date 2025-07-14 18:48:30*
%MOMM*%
%LPD*%
G01*
G04 APERTURE LIST*
%TA.AperFunction,ComponentPad*%
%ADD10R,1.700000X1.700000*%
%TD*%
%TA.AperFunction,ComponentPad*%
%ADD11C,1.700000*%
%TD*%
%TA.AperFunction,ViaPad*%
%ADD12C,0.600000*%
%TD*%
%TA.AperFunction,Conductor*%
%ADD13C,0.200000*%
%TD*%
G04 APERTURE END LIST*
D10*
%TO.P,J5,1,Pin_1*%
%TO.N,/ESP32_TX2*%
X164483000Y-82724900D03*
D11*
%TO.P,J5,2,Pin_2*%
%TO.N,/ESP32_RX2*%
X167023000Y-82724900D03*
%TO.P,J5,3,Pin_3*%
%TO.N,GND*%
X169563000Y-82724900D03*
%TD*%
%TO.P,J1,15,Pin_15*%
%TO.N,unconnected-(J1-Pin_15-Pad15)*%
X131979000Y-115017600D03*
%TO.P,J1,14,Pin_14*%
%TO.N,GND*%
X131979000Y-112477600D03*
%TO.P,J1,13,Pin_13*%
%TO.N,Net-(J1-Pin_13)*%
X131979000Y-109937600D03*
%TO.P,J1,12,Pin_12*%
%TO.N,Net-(J1-Pin_12)*%
X131979000Y-107397600D03*
%TO.P,J1,11,Pin_11*%
%TO.N,Net-(J1-Pin_11)*%
X131979000Y-104857600D03*
%TO.P,J1,10,Pin_10*%
%TO.N,Net-(J1-Pin_10)*%
X131979000Y-102317600D03*
%TO.P,J1,9,Pin_9*%
%TO.N,Net-(J1-Pin_9)*%
X131979000Y-99777600D03*
%TO.P,J1,8,Pin_8*%
%TO.N,Net-(J1-Pin_8)*%
X131979000Y-97237600D03*
%TO.P,J1,7,Pin_7*%
%TO.N,Net-(J1-Pin_7)*%
X131979000Y-94697600D03*
%TO.P,J1,6,Pin_6*%
%TO.N,Net-(J1-Pin_6)*%
X131979000Y-92157600D03*
%TO.P,J1,5,Pin_5*%
%TO.N,Net-(J1-Pin_5)*%
X131979000Y-89617600D03*
%TO.P,J1,4,Pin_4*%
%TO.N,Net-(J1-Pin_4)*%
X131979000Y-87077600D03*
%TO.P,J1,3,Pin_3*%
%TO.N,unconnected-(J1-Pin_3-Pad3)*%
X131979000Y-84537600D03*
%TO.P,J1,2,Pin_2*%
%TO.N,unconnected-(J1-Pin_2-Pad2)*%
X131979000Y-81997600D03*
D10*
%TO.P,J1,1,Pin_1*%
%TO.N,unconnected-(J1-Pin_1-Pad1)*%
X131979000Y-79457600D03*
%TD*%
%TO.P,J6,1,Pin_1*%
%TO.N,/CH0*%
X165973000Y-90616000D03*
D11*
%TO.P,J6,2,Pin_2*%
%TO.N,/CH15*%
X168513000Y-90616000D03*
%TO.P,J6,3,Pin_3*%
%TO.N,/CH1*%
X165973000Y-93156000D03*
%TO.P,J6,4,Pin_4*%
%TO.N,/CH14*%
X168513000Y-93156000D03*
%TO.P,J6,5,Pin_5*%
%TO.N,/CH2*%
X165973000Y-95696000D03*
%TO.P,J6,6,Pin_6*%
%TO.N,/CH13*%
X168513000Y-95696000D03*
%TO.P,J6,7,Pin_7*%
%TO.N,/CH3*%
X165973000Y-98236000D03*
%TO.P,J6,8,Pin_8*%
%TO.N,/CH12*%
X168513000Y-98236000D03*
%TO.P,J6,9,Pin_9*%
%TO.N,/CH4*%
X165973000Y-100776000D03*
%TO.P,J6,10,Pin_10*%
%TO.N,/CH11*%
X168513000Y-100776000D03*
%TO.P,J6,11,Pin_11*%
%TO.N,/CH5*%
X165973000Y-103316000D03*
%TO.P,J6,12,Pin_12*%
%TO.N,/CH10*%
X168513000Y-103316000D03*
%TO.P,J6,13,Pin_13*%
%TO.N,/CH6*%
X165973000Y-105856000D03*
%TO.P,J6,14,Pin_14*%
%TO.N,/CH9*%
X168513000Y-105856000D03*
%TO.P,J6,15,Pin_15*%
%TO.N,/CH7*%
X165973000Y-108396000D03*
%TO.P,J6,16,Pin_16*%
%TO.N,/CH8*%
X168513000Y-108396000D03*
%TO.P,J6,17,Pin_17*%
%TO.N,GND*%
X165973000Y-110936000D03*
%TO.P,J6,18,Pin_18*%
X168513000Y-110936000D03*
%TO.P,J6,19,Pin_19*%
X165973000Y-113476000D03*
%TO.P,J6,20,Pin_20*%
X168513000Y-113476000D03*
%TD*%
%TO.P,J2,15,Pin_15*%
%TO.N,+3.3V*%
X157379000Y-115017600D03*
%TO.P,J2,14,Pin_14*%
%TO.N,GND*%
X157379000Y-112477600D03*
%TO.P,J2,13,Pin_13*%
%TO.N,Net-(J2-Pin_13)*%
X157379000Y-109937600D03*
%TO.P,J2,12,Pin_12*%
%TO.N,unconnected-(J2-Pin_12-Pad12)*%
X157379000Y-107397600D03*
%TO.P,J2,11,Pin_11*%
%TO.N,Net-(J2-Pin_11)*%
X157379000Y-104857600D03*
%TO.P,J2,10,Pin_10*%
%TO.N,/ESP32_RX2*%
X157379000Y-102317600D03*
%TO.P,J2,9,Pin_9*%
%TO.N,/ESP32_TX2*%
X157379000Y-99777600D03*
%TO.P,J2,8,Pin_8*%
%TO.N,Net-(J2-Pin_8)*%
X157379000Y-97237600D03*
%TO.P,J2,7,Pin_7*%
%TO.N,Net-(J2-Pin_7)*%
X157379000Y-94697600D03*
%TO.P,J2,6,Pin_6*%
%TO.N,Net-(J2-Pin_6)*%
X157379000Y-92157600D03*
%TO.P,J2,5,Pin_5*%
%TO.N,Net-(J2-Pin_5)*%
X157379000Y-89617600D03*
%TO.P,J2,4,Pin_4*%
%TO.N,unconnected-(J2-Pin_4-Pad4)*%
X157379000Y-87077600D03*
%TO.P,J2,3,Pin_3*%
%TO.N,unconnected-(J2-Pin_3-Pad3)*%
X157379000Y-84537600D03*
%TO.P,J2,2,Pin_2*%
%TO.N,Net-(J2-Pin_1)*%
X157379000Y-81997600D03*
D10*
%TO.P,J2,1,Pin_1*%
X157379000Y-79457600D03*
%TD*%
D12*
%TO.N,/CH11*%
X166349000Y-89154800D03*
%TO.N,/CH14*%
X149991700Y-88967300D03*
%TO.N,Net-(J2-Pin_11)*%
X154428728Y-109096900D03*
%TO.N,/CH8*%
X146698200Y-97500000D03*
%TO.N,/CH9*%
X149000000Y-101608100D03*
%TO.N,/CH13*%
X145201200Y-93951200D03*
%TO.N,/CH11*%
X148467700Y-91613300D03*
%TO.N,/CH15*%
X148589500Y-87607800D03*
%TO.N,/CH10*%
X146382300Y-102855700D03*
%TO.N,/CH12*%
X149740800Y-99945300D03*
%TO.N,/CH3*%
X145330300Y-113128500D03*
X166156350Y-115656350D03*
%TO.N,/CH4*%
X147984100Y-104041100D03*
%TO.N,/CH2*%
X155507400Y-109442100D03*
X144653800Y-109512800D03*
%TO.N,/CH5*%
X149067400Y-107959800D03*
%TO.N,/CH1*%
X144403300Y-107289000D03*
%TO.N,/CH0*%
X144418600Y-104914800D03*
X154500000Y-104933600D03*
%TO.N,Net-(J2-Pin_8)*%
X142942600Y-105951300D03*
%TO.N,Net-(J2-Pin_11)*%
X142474200Y-107164700D03*
%TO.N,Net-(J2-Pin_5)*%
X139585100Y-97536500D03*
%TO.N,Net-(J2-Pin_6)*%
X143583300Y-90648300D03*
X154864400Y-89033200D03*
%TO.N,Net-(J2-Pin_13)*%
X142027600Y-108199000D03*
%TO.N,Net-(J2-Pin_7)*%
X142712600Y-104494600D03*
%TO.N,Net-(J1-Pin_12)*%
X137852600Y-109223400D03*
%TO.N,GND*%
X140687900Y-112477600D03*
%TD*%
D13*
%TO.N,/CH8*%
X146698200Y-97500000D02*
X146698200Y-99084900D01*
X146698200Y-99084900D02*
X141419800Y-104363300D01*
X141419800Y-104363300D02*
X141419800Y-108465700D01*
X141419800Y-108465700D02*
X144045600Y-111091500D01*
X144045600Y-111091500D02*
X159681500Y-111091500D01*
X159681500Y-111091500D02*
X161107000Y-109666000D01*
X161107000Y-109666000D02*
X167243000Y-109666000D01*
X167243000Y-109666000D02*
X168513000Y-108396000D01*
%TO.N,/CH9*%
X169699500Y-104669500D02*
X168513000Y-105856000D01*
X149000000Y-101608100D02*
X150870700Y-103478800D01*
X169699500Y-102807600D02*
X169699500Y-104669500D01*
X150870700Y-103478800D02*
X159532200Y-103478800D01*
X159532200Y-103478800D02*
X160872800Y-102138200D01*
X160872800Y-102138200D02*
X169030100Y-102138200D01*
X169030100Y-102138200D02*
X169699500Y-102807600D01*
%TO.N,/CH4*%
X165973000Y-100776000D02*
X165814300Y-100934700D01*
X165814300Y-100934700D02*
X148565300Y-100934700D01*
X148565300Y-100934700D02*
X147984100Y-101515900D01*
X147984100Y-101515900D02*
X147984100Y-104041100D01*
%TO.N,/CH3*%
X166156350Y-115656350D02*
X165594200Y-116218500D01*
X165594200Y-116218500D02*
X148420300Y-116218500D01*
X148420300Y-116218500D02*
X145330300Y-113128500D01*
%TO.N,/CH0*%
X146298900Y-102088000D02*
X144844800Y-103542100D01*
X144844800Y-103542100D02*
X144844800Y-104488600D01*
X146574000Y-102088000D02*
X146298900Y-102088000D01*
X147004400Y-102518400D02*
X146574000Y-102088000D01*
X144844800Y-104488600D02*
X144418600Y-104914800D01*
X148025600Y-104933600D02*
X147004400Y-103912400D01*
X154500000Y-104933600D02*
X148025600Y-104933600D01*
X147004400Y-103912400D02*
X147004400Y-102518400D01*
%TO.N,/CH13*%
X145625000Y-93527400D02*
X145201200Y-93951200D01*
X161009200Y-93527400D02*
X145625000Y-93527400D01*
X162532300Y-92004300D02*
X161009200Y-93527400D01*
X166450100Y-92004300D02*
X162532300Y-92004300D01*
X167124700Y-92678900D02*
X166450100Y-92004300D01*
X167124700Y-94307700D02*
X167124700Y-92678900D01*
X168513000Y-95696000D02*
X167124700Y-94307700D01*
%TO.N,/CH12*%
X151087900Y-98598200D02*
X149740800Y-99945300D01*
X160951300Y-98598200D02*
X151087900Y-98598200D01*
X161740800Y-99387700D02*
X160951300Y-98598200D01*
X167361300Y-99387700D02*
X161740800Y-99387700D01*
X168513000Y-98236000D02*
X167361300Y-99387700D01*
%TO.N,/CH2*%
X144878500Y-109737500D02*
X144653800Y-109512800D01*
X155212000Y-109737500D02*
X144878500Y-109737500D01*
X155507400Y-109442100D02*
X155212000Y-109737500D01*
%TO.N,/CH5*%
X161548300Y-103316000D02*
X165973000Y-103316000D01*
X158636800Y-106227500D02*
X161548300Y-103316000D01*
X150799700Y-106227500D02*
X158636800Y-106227500D01*
X149067400Y-107959800D02*
X150799700Y-106227500D01*
%TO.N,Net-(J2-Pin_8)*%
X143796300Y-105097600D02*
X142942600Y-105951300D01*
X143796300Y-104590600D02*
X143796300Y-105097600D01*
X144401800Y-103985100D02*
X143796300Y-104590600D01*
X144401800Y-103417100D02*
X144401800Y-103985100D01*
X146132600Y-101686300D02*
X144401800Y-103417100D01*
X146700600Y-101686300D02*
X146132600Y-101686300D01*
X151149300Y-97237600D02*
X146700600Y-101686300D01*
X157379000Y-97237600D02*
X151149300Y-97237600D01*
%TO.N,Net-(J2-Pin_5)*%
X156977300Y-90019300D02*
X157379000Y-89617600D01*
X147102300Y-90019300D02*
X156977300Y-90019300D01*
X139585100Y-97536500D02*
X147102300Y-90019300D01*
%TO.N,Net-(J2-Pin_6)*%
X144614100Y-89617500D02*
X143583300Y-90648300D01*
X154280100Y-89617500D02*
X144614100Y-89617500D01*
X154864400Y-89033200D02*
X154280100Y-89617500D01*
X143583300Y-90648300D02*
X143582600Y-90648300D01*
X143582600Y-90648300D02*
X143583300Y-90648300D01*
%TO.N,Net-(J2-Pin_13)*%
X157127900Y-110188700D02*
X157379000Y-109937600D01*
X144017300Y-110188700D02*
X157127900Y-110188700D01*
X142027600Y-108199000D02*
X144017300Y-110188700D01*
%TO.N,Net-(J2-Pin_7)*%
X142712600Y-103970300D02*
X142712600Y-104494600D01*
X151985300Y-94697600D02*
X142712600Y-103970300D01*
X157379000Y-94697600D02*
X151985300Y-94697600D01*
%TO.N,Net-(J1-Pin_12)*%
X136026800Y-107397600D02*
X131979000Y-107397600D01*
X137852600Y-109223400D02*
X136026800Y-107397600D01*
%TO.N,GND*%
X164974600Y-112477600D02*
X165973000Y-113476000D01*
X157379000Y-112477600D02*
X164974600Y-112477600D01*
X168513000Y-113476000D02*
X165973000Y-113476000D01*
X165973000Y-110936000D02*
X168513000Y-110936000D01*
X131979000Y-112477600D02*
X140687900Y-112477600D01*
X140687900Y-112477600D02*
X157379000Y-112477600D01*
%TO.N,/CH1*%
X142679400Y-105349500D02*
X142283600Y-105745300D01*
X142761100Y-105349500D02*
X142679400Y-105349500D01*
X146463300Y-101284600D02*
X145966300Y-101284600D01*
X144470900Y-102780000D02*
X144000100Y-103250800D01*
X142606800Y-106563000D02*
X143677300Y-106563000D01*
X143394600Y-104716000D02*
X142761100Y-105349500D01*
X142283600Y-105745300D02*
X142283600Y-106239800D01*
X144000100Y-103250800D02*
X144000100Y-103747800D01*
X145966300Y-101284600D02*
X145730900Y-101520000D01*
X151898600Y-95849300D02*
X146463300Y-101284600D01*
X143394600Y-104353300D02*
X143394600Y-104716000D01*
X163279700Y-95849300D02*
X151898600Y-95849300D01*
X144000100Y-103747800D02*
X143394600Y-104353300D01*
X145730900Y-101520000D02*
X144470900Y-102780000D01*
X165973000Y-93156000D02*
X163279700Y-95849300D01*
X143677300Y-106563000D02*
X144403300Y-107289000D01*
X142283600Y-106239800D02*
X142606800Y-106563000D01*
%TO.N,Net-(J2-Pin_11)*%
X145090500Y-109098600D02*
X143156600Y-107164700D01*
X154427028Y-109098600D02*
X145090500Y-109098600D01*
X143156600Y-107164700D02*
X142474200Y-107164700D01*
X154428728Y-109096900D02*
X154427028Y-109098600D01*
%TO.N,/CH10*%
X148743500Y-108561500D02*
X146382300Y-106200300D01*
X154114185Y-108561500D02*
X148743500Y-108561500D01*
X154685000Y-108500000D02*
X154681771Y-108500000D01*
X146382300Y-106200300D02*
X146382300Y-102855700D01*
X154677671Y-108495900D02*
X154179785Y-108495900D01*
X154746500Y-108561500D02*
X154685000Y-108500000D01*
X158057700Y-108561500D02*
X154746500Y-108561500D01*
X161914900Y-104704300D02*
X158057700Y-108561500D01*
X154179785Y-108495900D02*
X154114185Y-108561500D01*
X167124700Y-104704300D02*
X161914900Y-104704300D01*
X154681771Y-108500000D02*
X154677671Y-108495900D01*
X168513000Y-103316000D02*
X167124700Y-104704300D01*
%TO.N,/CH11*%
X163574700Y-90887600D02*
X165307500Y-89154800D01*
X148466100Y-91613300D02*
X148467700Y-91613300D01*
X165307500Y-89154800D02*
X166349000Y-89154800D01*
X149191800Y-90887600D02*
X163574700Y-90887600D01*
X148466100Y-91613300D02*
X149191800Y-90887600D01*
%TO.N,/CH14*%
X168513000Y-93156000D02*
X167243000Y-91886000D01*
X167243000Y-91886000D02*
X167243000Y-89628800D01*
X166950700Y-88905600D02*
X166598200Y-88553100D01*
X166598200Y-88553100D02*
X166167300Y-88553100D01*
X167243000Y-89628800D02*
X166950700Y-89336500D01*
X166045700Y-88431500D02*
X150527500Y-88431500D01*
X166950700Y-89336500D02*
X166950700Y-88905600D01*
X166167300Y-88553100D02*
X166045700Y-88431500D01*
X150527500Y-88431500D02*
X149991700Y-88967300D01*
%TO.N,/CH15*%
X168513000Y-90616000D02*
X168513000Y-89899900D01*
X168513000Y-89899900D02*
X164518900Y-85905800D01*
X164518900Y-85905800D02*
X150291500Y-85905800D01*
X150291500Y-85905800D02*
X148589500Y-87607800D01*
%TD*%
%TA.AperFunction,Conductor*%
%TO.N,GND*%
G36*
X164667427Y-110286185D02*
G01*
X164713182Y-110338989D01*
X164723126Y-110408147D01*
X164718319Y-110428818D01*
X164656242Y-110619869D01*
X164656242Y-110619872D01*
X164623000Y-110829753D01*
X164623000Y-111042246D01*
X164656242Y-111252127D01*
X164656242Y-111252130D01*
X164721904Y-111454217D01*
X164818375Y-111643550D01*
X164857728Y-111697716D01*
X165490036Y-111065407D01*
X165507075Y-111128993D01*
X165572901Y-111243007D01*
X165665993Y-111336099D01*
X165780007Y-111401925D01*
X165843590Y-111418962D01*
X165211282Y-112051269D01*
X165211282Y-112051270D01*
X165265452Y-112090626D01*
X165275048Y-112095516D01*
X165325844Y-112143491D01*
X165342638Y-112211312D01*
X165320100Y-112277447D01*
X165275051Y-112316483D01*
X165265440Y-112321380D01*
X165211282Y-112360727D01*
X165211282Y-112360728D01*
X165843591Y-112993037D01*
X165780007Y-113010075D01*
X165665993Y-113075901D01*
X165572901Y-113168993D01*
X165507075Y-113283007D01*
X165490037Y-113346591D01*
X164857728Y-112714282D01*
X164857727Y-112714282D01*
X164818380Y-112768439D01*
X164721904Y-112957782D01*
X164656242Y-113159869D01*
X164656242Y-113159872D01*
X164623000Y-113369753D01*
X164623000Y-113582246D01*
X164656242Y-113792127D01*
X164656242Y-113792130D01*
X164721904Y-113994217D01*
X164818375Y-114183550D01*
X164857728Y-114237716D01*
X165490037Y-113605408D01*
X165507075Y-113668993D01*
X165572901Y-113783007D01*
X165665993Y-113876099D01*
X165780007Y-113941925D01*
X165843590Y-113958962D01*
X165211282Y-114591269D01*
X165211282Y-114591270D01*
X165265449Y-114630624D01*
X165454782Y-114727095D01*
X165649941Y-114790506D01*
X165707616Y-114829943D01*
X165734815Y-114894302D01*
X165722900Y-114963148D01*
X165680515Y-115011538D01*
X165646063Y-115034558D01*
X165646057Y-115034563D01*
X165534563Y-115146057D01*
X165534560Y-115146061D01*
X165446959Y-115277164D01*
X165446952Y-115277177D01*
X165386614Y-115422848D01*
X165386611Y-115422858D01*
X165367648Y-115518192D01*
X165335263Y-115580103D01*
X165274547Y-115614677D01*
X165246031Y-115618000D01*
X158774589Y-115618000D01*
X158707550Y-115598315D01*
X158661795Y-115545511D01*
X158651851Y-115476353D01*
X158656658Y-115455682D01*
X158667326Y-115422848D01*
X158696246Y-115333843D01*
X158729500Y-115123887D01*
X158729500Y-114911313D01*
X158696246Y-114701357D01*
X158630557Y-114499188D01*
X158534051Y-114309784D01*
X158534049Y-114309781D01*
X158534048Y-114309779D01*
X158409109Y-114137813D01*
X158258786Y-113987490D01*
X158086817Y-113862549D01*
X158077504Y-113857804D01*
X158026707Y-113809830D01*
X158009912Y-113742009D01*
X158032449Y-113675874D01*
X158077507Y-113636832D01*
X158086555Y-113632222D01*
X158140716Y-113592870D01*
X158140717Y-113592870D01*
X157508408Y-112960562D01*
X157571993Y-112943525D01*
X157686007Y-112877699D01*
X157779099Y-112784607D01*
X157844925Y-112670593D01*
X157861962Y-112607009D01*
X158494270Y-113239317D01*
X158494270Y-113239316D01*
X158533622Y-113185154D01*
X158630095Y-112995817D01*
X158695757Y-112793730D01*
X158695757Y-112793727D01*
X158729000Y-112583846D01*
X158729000Y-112371353D01*
X158695757Y-112161472D01*
X158695757Y-112161469D01*
X158658629Y-112047201D01*
X158581839Y-111863916D01*
X158578455Y-111833604D01*
X158572826Y-111803626D01*
X158574617Y-111799212D01*
X158574089Y-111794478D01*
X158587629Y-111767150D01*
X158599102Y-111738885D01*
X158602996Y-111736139D01*
X158605111Y-111731872D01*
X158631276Y-111716203D01*
X158656209Y-111698628D01*
X158662318Y-111697615D01*
X158665055Y-111695977D01*
X158671059Y-111696167D01*
X158696207Y-111692000D01*
X159594831Y-111692000D01*
X159594847Y-111692001D01*
X159602443Y-111692001D01*
X159760554Y-111692001D01*
X159760557Y-111692001D01*
X159913285Y-111651077D01*
X159963404Y-111622139D01*
X160050216Y-111572020D01*
X160162020Y-111460216D01*
X160162020Y-111460214D01*
X160172228Y-111450007D01*
X160172229Y-111450004D01*
X161319416Y-110302819D01*
X161380739Y-110269334D01*
X161407097Y-110266500D01*
X164600388Y-110266500D01*
X164667427Y-110286185D01*
G37*
%TD.AperFunction*%
%TA.AperFunction,Conductor*%
G36*
X168047075Y-111128993D02*
G01*
X168112901Y-111243007D01*
X168205993Y-111336099D01*
X168320007Y-111401925D01*
X168383590Y-111418962D01*
X167751282Y-112051269D01*
X167751282Y-112051270D01*
X167805452Y-112090626D01*
X167815048Y-112095516D01*
X167865844Y-112143491D01*
X167882638Y-112211312D01*
X167860100Y-112277447D01*
X167815051Y-112316483D01*
X167805440Y-112321380D01*
X167751282Y-112360727D01*
X167751282Y-112360728D01*
X168383591Y-112993037D01*
X168320007Y-113010075D01*
X168205993Y-113075901D01*
X168112901Y-113168993D01*
X168047075Y-113283007D01*
X168030037Y-113346591D01*
X167397728Y-112714282D01*
X167397727Y-112714282D01*
X167358380Y-112768440D01*
X167353483Y-112778051D01*
X167305506Y-112828845D01*
X167237684Y-112845638D01*
X167171550Y-112823098D01*
X167132516Y-112778048D01*
X167127626Y-112768452D01*
X167088270Y-112714282D01*
X167088269Y-112714282D01*
X166455962Y-113346590D01*
X166438925Y-113283007D01*
X166373099Y-113168993D01*
X166280007Y-113075901D01*
X166165993Y-113010075D01*
X166102409Y-112993037D01*
X166734716Y-112360728D01*
X166680550Y-112321375D01*
X166670954Y-112316486D01*
X166620157Y-112268512D01*
X166603361Y-112200692D01*
X166624288Y-112136895D01*
X166703027Y-112019581D01*
X166102408Y-111418962D01*
X166165993Y-111401925D01*
X166280007Y-111336099D01*
X166373099Y-111243007D01*
X166438925Y-111128993D01*
X166455962Y-111065409D01*
X167088270Y-111697717D01*
X167088270Y-111697716D01*
X167127622Y-111643554D01*
X167132514Y-111633954D01*
X167180488Y-111583157D01*
X167248308Y-111566361D01*
X167314444Y-111588897D01*
X167353486Y-111633954D01*
X167358375Y-111643550D01*
X167397728Y-111697716D01*
X168030037Y-111065408D01*
X168047075Y-111128993D01*
G37*
%TD.AperFunction*%
%TA.AperFunction,Conductor*%
G36*
X173032736Y-70016846D02*
G01*
X173322795Y-70034391D01*
X173337656Y-70036195D01*
X173619799Y-70087900D01*
X173634324Y-70091481D01*
X173908179Y-70176818D01*
X173922153Y-70182117D01*
X174183749Y-70299852D01*
X174196973Y-70306793D01*
X174442459Y-70455195D01*
X174454777Y-70463698D01*
X174490073Y-70491351D01*
X174501280Y-70501280D01*
X175043815Y-71043815D01*
X175053745Y-71055023D01*
X175081414Y-71090340D01*
X175089920Y-71102664D01*
X175238301Y-71348120D01*
X175245260Y-71361378D01*
X175362979Y-71622942D01*
X175368289Y-71636943D01*
X175453622Y-71910791D01*
X175457205Y-71925330D01*
X175497969Y-72147774D01*
X175500000Y-72170125D01*
X175500000Y-118619584D01*
X175497969Y-118641935D01*
X175457224Y-118864277D01*
X175453641Y-118878816D01*
X175368309Y-119152661D01*
X175362999Y-119166662D01*
X175245280Y-119428226D01*
X175238321Y-119441485D01*
X175089933Y-119686950D01*
X175081427Y-119699273D01*
X174904535Y-119925062D01*
X174894606Y-119936270D01*
X174691783Y-120139095D01*
X174680574Y-120149025D01*
X174454787Y-120325919D01*
X174442464Y-120334425D01*
X174196996Y-120482816D01*
X174183738Y-120489774D01*
X173922177Y-120607494D01*
X173908184Y-120612801D01*
X173634399Y-120698116D01*
X173634338Y-120698135D01*
X173619800Y-120701718D01*
X173337661Y-120753423D01*
X173322796Y-120755228D01*
X173033067Y-120772754D01*
X173025580Y-120772980D01*
X131032751Y-120772980D01*
X131025264Y-120772754D01*
X130735206Y-120755208D01*
X130720341Y-120753403D01*
X130438207Y-120701700D01*
X130423668Y-120698116D01*
X130149826Y-120612783D01*
X130135837Y-120607478D01*
X129874256Y-120489749D01*
X129861020Y-120482802D01*
X129615544Y-120334406D01*
X129603223Y-120325902D01*
X129377438Y-120149010D01*
X129366229Y-120139080D01*
X129163408Y-119936257D01*
X129153479Y-119925049D01*
X128976585Y-119699259D01*
X128968079Y-119686935D01*
X128819698Y-119441479D01*
X128812739Y-119428221D01*
X128695020Y-119166657D01*
X128689710Y-119152656D01*
X128657501Y-119049292D01*
X128604376Y-118878805D01*
X128600794Y-118864269D01*
X128586767Y-118787726D01*
X128549093Y-118582139D01*
X128547289Y-118567278D01*
X128539920Y-118445445D01*
X128529726Y-118276887D01*
X128529500Y-118269401D01*
X128529501Y-118207591D01*
X128529500Y-118207587D01*
X128529500Y-78559735D01*
X130628500Y-78559735D01*
X130628500Y-80355470D01*
X130628501Y-80355476D01*
X130634908Y-80415083D01*
X130685202Y-80549928D01*
X130685206Y-80549935D01*
X130771452Y-80665144D01*
X130771455Y-80665147D01*
X130886664Y-80751393D01*
X130886671Y-80751397D01*
X131018082Y-80800410D01*
X131074016Y-80842281D01*
X131098433Y-80907745D01*
X131083582Y-80976018D01*
X131062431Y-81004273D01*
X130948889Y-81117815D01*
X130823951Y-81289779D01*
X130727444Y-81479185D01*
X130661753Y-81681360D01*
X130628500Y-81891313D01*
X130628500Y-82103886D01*
X130653063Y-82258975D01*
X130661754Y-82313843D01*
X130692598Y-82408772D01*
X130727444Y-82516014D01*
X130823951Y-82705420D01*
X130948890Y-82877386D01*
X131099213Y-83027709D01*
X131271182Y-83152650D01*
X131279946Y-83157116D01*
X131330742Y-83205091D01*
X131347536Y-83272912D01*
X131324998Y-83339047D01*
X131279946Y-83378084D01*
X131271182Y-83382549D01*
X131099213Y-83507490D01*
X130948890Y-83657813D01*
X130823951Y-83829779D01*
X130727444Y-84019185D01*
X130661753Y-84221360D01*
X130628500Y-84431313D01*
X130628500Y-84643886D01*
X130661753Y-84853839D01*
X130727444Y-85056014D01*
X130823951Y-85245420D01*
X130948890Y-85417386D01*
X131099213Y-85567709D01*
X131271182Y-85692650D01*
X131279946Y-85697116D01*
X131330742Y-85745091D01*
X131347536Y-85812912D01*
X131324998Y-85879047D01*
X131279946Y-85918084D01*
X131271182Y-85922549D01*
X131099213Y-86047490D01*
X130948890Y-86197813D01*
X130823951Y-86369779D01*
X130727444Y-86559185D01*
X130661753Y-86761360D01*
X130628500Y-86971313D01*
X130628500Y-87183886D01*
X130661753Y-87393839D01*
X130727444Y-87596014D01*
X130823951Y-87785420D01*
X130948890Y-87957386D01*
X131099213Y-88107709D01*
X131271182Y-88232650D01*
X131279946Y-88237116D01*
X131330742Y-88285091D01*
X131347536Y-88352912D01*
X131324998Y-88419047D01*
X131279946Y-88458084D01*
X131271182Y-88462549D01*
X131099213Y-88587490D01*
X130948890Y-88737813D01*
X130823951Y-88909779D01*
X130727444Y-89099185D01*
X130661753Y-89301360D01*
X130628500Y-89511313D01*
X130628500Y-89723887D01*
X130630452Y-89736213D01*
X130661753Y-89933839D01*
X130661753Y-89933841D01*
X130661754Y-89933843D01*
X130714958Y-90097588D01*
X130727444Y-90136014D01*
X130823951Y-90325420D01*
X130948890Y-90497386D01*
X131099213Y-90647709D01*
X131271182Y-90772650D01*
X131279946Y-90777116D01*
X131330742Y-90825091D01*
X131347536Y-90892912D01*
X131324998Y-90959047D01*
X131279946Y-90998084D01*
X131271182Y-91002549D01*
X131099213Y-91127490D01*
X130948890Y-91277813D01*
X130823951Y-91449779D01*
X130727444Y-91639185D01*
X130661753Y-91841360D01*
X130628500Y-92051313D01*
X130628500Y-92263887D01*
X130661754Y-92473843D01*
X130714958Y-92637588D01*
X130727444Y-92676014D01*
X130823951Y-92865420D01*
X130948890Y-93037386D01*
X131099213Y-93187709D01*
X131271182Y-93312650D01*
X131279946Y-93317116D01*
X131330742Y-93365091D01*
X131347536Y-93432912D01*
X131324998Y-93499047D01*
X131279946Y-93538084D01*
X131271182Y-93542549D01*
X131099213Y-93667490D01*
X130948890Y-93817813D01*
X130823951Y-93989779D01*
X130727444Y-94179185D01*
X130727443Y-94179187D01*
X130727443Y-94179188D01*
X130715131Y-94217080D01*
X130661753Y-94381360D01*
X130631403Y-94572986D01*
X130628500Y-94591313D01*
X130628500Y-94803887D01*
X130630452Y-94816213D01*
X130661753Y-95013839D01*
X130661753Y-95013841D01*
X130661754Y-95013843D01*
X130714958Y-95177588D01*
X130727444Y-95216014D01*
X130823951Y-95405420D01*
X130948890Y-95577386D01*
X131099213Y-95727709D01*
X131271182Y-95852650D01*
X131279946Y-95857116D01*
X131330742Y-95905091D01*
X131347536Y-95972912D01*
X131324998Y-96039047D01*
X131279946Y-96078084D01*
X131271182Y-96082549D01*
X131099213Y-96207490D01*
X130948890Y-96357813D01*
X130823951Y-96529779D01*
X130727444Y-96719185D01*
X130727443Y-96719187D01*
X130727443Y-96719188D01*
X130723844Y-96730264D01*
X130661753Y-96921360D01*
X130630163Y-97120814D01*
X130628500Y-97131313D01*
X130628500Y-97343887D01*
X130630452Y-97356213D01*
X130659077Y-97536946D01*
X130661754Y-97553843D01*
X130720127Y-97733497D01*
X130727444Y-97756014D01*
X130823951Y-97945420D01*
X130948890Y-98117386D01*
X131099213Y-98267709D01*
X131271182Y-98392650D01*
X131279946Y-98397116D01*
X131330742Y-98445091D01*
X131347536Y-98512912D01*
X131324998Y-98579047D01*
X131279946Y-98618084D01*
X131271182Y-98622549D01*
X131099213Y-98747490D01*
X130948890Y-98897813D01*
X130823951Y-99069779D01*
X130727444Y-99259185D01*
X130661753Y-99461360D01*
X130628500Y-99671313D01*
X130628500Y-99883887D01*
X130630452Y-99896213D01*
X130656898Y-100063188D01*
X130661754Y-100093843D01*
X130717725Y-100266104D01*
X130727444Y-100296014D01*
X130823951Y-100485420D01*
X130948890Y-100657386D01*
X131099213Y-100807709D01*
X131271182Y-100932650D01*
X131279946Y-100937116D01*
X131330742Y-100985091D01*
X131347536Y-101052912D01*
X131324998Y-101119047D01*
X131279946Y-101158084D01*
X131271182Y-101162549D01*
X131099213Y-101287490D01*
X130948890Y-101437813D01*
X130823951Y-101609779D01*
X130727444Y-101799185D01*
X130661753Y-102001360D01*
X130628500Y-102211313D01*
X130628500Y-102423887D01*
X130661754Y-102633843D01*
X130714958Y-102797588D01*
X130727444Y-102836014D01*
X130823951Y-103025420D01*
X130948890Y-103197386D01*
X131099213Y-103347709D01*
X131271182Y-103472650D01*
X131279946Y-103477116D01*
X131330742Y-103525091D01*
X131347536Y-103592912D01*
X131324998Y-103659047D01*
X131279946Y-103698084D01*
X131271182Y-103702549D01*
X131099213Y-103827490D01*
X130948890Y-103977813D01*
X130823951Y-104149779D01*
X130727444Y-104339185D01*
X130661753Y-104541360D01*
X130630286Y-104740035D01*
X130628500Y-104751313D01*
X130628500Y-104963887D01*
X130633213Y-104993642D01*
X130660685Y-105167097D01*
X130661754Y-105173843D01*
X130725969Y-105371476D01*
X130727444Y-105376014D01*
X130823951Y-105565420D01*
X130948890Y-105737386D01*
X131099213Y-105887709D01*
X131271182Y-106012650D01*
X131279946Y-106017116D01*
X131330742Y-106065091D01*
X131347536Y-106132912D01*
X131324998Y-106199047D01*
X131279946Y-106238084D01*
X131271182Y-106242549D01*
X131099213Y-106367490D01*
X130948890Y-106517813D01*
X130823951Y-106689779D01*
X130727444Y-106879185D01*
X130661753Y-107081360D01*
X130634980Y-107250402D01*
X130628500Y-107291313D01*
X130628500Y-107503887D01*
X130630452Y-107516213D01*
X130661753Y-107713839D01*
X130661753Y-107713841D01*
X130661754Y-107713843D01*
X130724610Y-107907294D01*
X130727444Y-107916014D01*
X130823951Y-108105420D01*
X130948890Y-108277386D01*
X131099213Y-108427709D01*
X131271182Y-108552650D01*
X131279946Y-108557116D01*
X131330742Y-108605091D01*
X131347536Y-108672912D01*
X131324998Y-108739047D01*
X131279946Y-108778084D01*
X131271182Y-108782549D01*
X131099213Y-108907490D01*
X130948890Y-109057813D01*
X130823951Y-109229779D01*
X130727444Y-109419185D01*
X130727443Y-109419187D01*
X130727443Y-109419188D01*
X130715191Y-109456897D01*
X130661753Y-109621360D01*
X130628500Y-109831313D01*
X130628500Y-110043886D01*
X130661753Y-110253839D01*
X130661753Y-110253841D01*
X130661754Y-110253843D01*
X130715021Y-110417782D01*
X130727444Y-110456014D01*
X130823951Y-110645420D01*
X130948890Y-110817386D01*
X131099213Y-110967709D01*
X131271179Y-111092648D01*
X131271181Y-111092649D01*
X131271184Y-111092651D01*
X131280493Y-111097394D01*
X131331290Y-111145366D01*
X131348087Y-111213187D01*
X131325552Y-111279322D01*
X131280505Y-111318360D01*
X131271446Y-111322976D01*
X131271440Y-111322980D01*
X131217282Y-111362327D01*
X131217282Y-111362328D01*
X131849591Y-111994637D01*
X131786007Y-112011675D01*
X131671993Y-112077501D01*
X131578901Y-112170593D01*
X131513075Y-112284607D01*
X131496037Y-112348191D01*
X130863728Y-111715882D01*
X130863727Y-111715882D01*
X130824380Y-111770039D01*
X130727904Y-111959382D01*
X130662242Y-112161469D01*
X130662242Y-112161472D01*
X130629000Y-112371353D01*
X130629000Y-112583846D01*
X130662242Y-112793727D01*
X130662242Y-112793730D01*
X130727904Y-112995817D01*
X130824375Y-113185150D01*
X130863728Y-113239316D01*
X131496037Y-112607008D01*
X131513075Y-112670593D01*
X131578901Y-112784607D01*
X131671993Y-112877699D01*
X131786007Y-112943525D01*
X131849590Y-112960562D01*
X131217282Y-113592869D01*
X131217282Y-113592870D01*
X131271452Y-113632226D01*
X131271451Y-113632226D01*
X131280495Y-113636834D01*
X131331292Y-113684808D01*
X131348087Y-113752629D01*
X131325550Y-113818764D01*
X131280499Y-113857802D01*
X131271182Y-113862549D01*
X131099213Y-113987490D01*
X130948890Y-114137813D01*
X130823951Y-114309779D01*
X130727444Y-114499185D01*
X130661753Y-114701360D01*
X130632412Y-114886613D01*
X130628500Y-114911313D01*
X130628500Y-115123887D01*
X130632012Y-115146061D01*
X130661753Y-115333839D01*
X130661753Y-115333841D01*
X130661754Y-115333843D01*
X130690675Y-115422853D01*
X130727444Y-115536014D01*
X130823951Y-115725420D01*
X130948890Y-115897386D01*
X131099213Y-116047709D01*
X131271179Y-116172648D01*
X131271181Y-116172649D01*
X131271184Y-116172651D01*
X131460588Y-116269157D01*
X131662757Y-116334846D01*
X131872713Y-116368100D01*
X131872714Y-116368100D01*
X132085286Y-116368100D01*
X132085287Y-116368100D01*
X132295243Y-116334846D01*
X132497412Y-116269157D01*
X132686816Y-116172651D01*
X132708789Y-116156686D01*
X132858786Y-116047709D01*
X132858788Y-116047706D01*
X132858792Y-116047704D01*
X133009104Y-115897392D01*
X133009106Y-115897388D01*
X133009109Y-115897386D01*
X133134048Y-115725420D01*
X133134047Y-115725420D01*
X133134051Y-115725416D01*
X133230557Y-115536012D01*
X133296246Y-115333843D01*
X133329500Y-115123887D01*
X133329500Y-114911313D01*
X133296246Y-114701357D01*
X133230557Y-114499188D01*
X133134051Y-114309784D01*
X133134049Y-114309781D01*
X133134048Y-114309779D01*
X133009109Y-114137813D01*
X132858786Y-113987490D01*
X132686817Y-113862549D01*
X132677504Y-113857804D01*
X132626707Y-113809830D01*
X132609912Y-113742009D01*
X132632449Y-113675874D01*
X132677507Y-113636832D01*
X132686555Y-113632222D01*
X132740716Y-113592870D01*
X132740717Y-113592870D01*
X132108408Y-112960562D01*
X132171993Y-112943525D01*
X132286007Y-112877699D01*
X132379099Y-112784607D01*
X132444925Y-112670593D01*
X132461962Y-112607008D01*
X133094270Y-113239317D01*
X133094270Y-113239316D01*
X133133622Y-113185154D01*
X133230095Y-112995818D01*
X133230095Y-112995815D01*
X133295757Y-112793730D01*
X133295757Y-112793727D01*
X133329000Y-112583846D01*
X133329000Y-112371353D01*
X133295757Y-112161472D01*
X133295757Y-112161469D01*
X133230095Y-111959382D01*
X133133624Y-111770049D01*
X133094270Y-111715882D01*
X133094269Y-111715882D01*
X132461962Y-112348190D01*
X132444925Y-112284607D01*
X132379099Y-112170593D01*
X132286007Y-112077501D01*
X132171993Y-112011675D01*
X132108409Y-111994637D01*
X132740716Y-111362328D01*
X132686547Y-111322973D01*
X132686547Y-111322972D01*
X132677500Y-111318363D01*
X132626706Y-111270388D01*
X132609912Y-111202566D01*
X132632451Y-111136432D01*
X132677508Y-111097393D01*
X132686816Y-111092651D01*
X132811827Y-111001826D01*
X132858786Y-110967709D01*
X132858788Y-110967706D01*
X132858792Y-110967704D01*
X133009104Y-110817392D01*
X133009106Y-110817388D01*
X133009109Y-110817386D01*
X133134048Y-110645420D01*
X133134047Y-110645420D01*
X133134051Y-110645416D01*
X133230557Y-110456012D01*
X133296246Y-110253843D01*
X133329500Y-110043887D01*
X133329500Y-109831313D01*
X133296246Y-109621357D01*
X133230557Y-109419188D01*
X133134051Y-109229784D01*
X133134049Y-109229781D01*
X133134048Y-109229779D01*
X133009109Y-109057813D01*
X132858786Y-108907490D01*
X132686820Y-108782551D01*
X132686115Y-108782191D01*
X132678054Y-108778085D01*
X132627259Y-108730112D01*
X132610463Y-108662292D01*
X132632999Y-108596156D01*
X132678054Y-108557115D01*
X132686816Y-108552651D01*
X132761900Y-108498100D01*
X132858786Y-108427709D01*
X132858788Y-108427706D01*
X132858792Y-108427704D01*
X133009104Y-108277392D01*
X133009106Y-108277388D01*
X133009109Y-108277386D01*
X133121265Y-108123014D01*
X133134051Y-108105416D01*
X133134349Y-108104830D01*
X133154235Y-108065805D01*
X133202209Y-108015009D01*
X133264719Y-107998100D01*
X135726703Y-107998100D01*
X135793742Y-108017785D01*
X135814384Y-108034419D01*
X137018025Y-109238060D01*
X137051510Y-109299383D01*
X137051961Y-109301549D01*
X137082861Y-109456891D01*
X137082864Y-109456901D01*
X137143202Y-109602572D01*
X137143209Y-109602585D01*
X137230810Y-109733688D01*
X137230813Y-109733692D01*
X137342307Y-109845186D01*
X137342311Y-109845189D01*
X137473414Y-109932790D01*
X137473427Y-109932797D01*
X137619098Y-109993135D01*
X137619103Y-109993137D01*
X137773753Y-110023899D01*
X137773756Y-110023900D01*
X137773758Y-110023900D01*
X137931444Y-110023900D01*
X137931445Y-110023899D01*
X138086097Y-109993137D01*
X138231779Y-109932794D01*
X138362889Y-109845189D01*
X138474389Y-109733689D01*
X138561994Y-109602579D01*
X138622337Y-109456897D01*
X138653100Y-109302242D01*
X138653100Y-109144558D01*
X138653100Y-109144555D01*
X138653099Y-109144553D01*
X138640325Y-109080334D01*
X138622337Y-108989903D01*
X138615345Y-108973023D01*
X138561997Y-108844227D01*
X138561990Y-108844214D01*
X138474389Y-108713111D01*
X138474386Y-108713107D01*
X138362892Y-108601613D01*
X138362888Y-108601610D01*
X138231785Y-108514009D01*
X138231772Y-108514002D01*
X138086101Y-108453664D01*
X138086091Y-108453661D01*
X137930749Y-108422761D01*
X137868838Y-108390376D01*
X137867260Y-108388825D01*
X136514390Y-107035955D01*
X136514388Y-107035952D01*
X136395517Y-106917081D01*
X136395516Y-106917080D01*
X136290714Y-106856573D01*
X136290713Y-106856572D01*
X136258583Y-106838022D01*
X136202681Y-106823043D01*
X136105857Y-106797099D01*
X135947743Y-106797099D01*
X135940147Y-106797099D01*
X135940131Y-106797100D01*
X133264719Y-106797100D01*
X133197680Y-106777415D01*
X133154235Y-106729395D01*
X133134052Y-106689785D01*
X133134051Y-106689784D01*
X133009109Y-106517813D01*
X132858786Y-106367490D01*
X132686820Y-106242551D01*
X132686115Y-106242191D01*
X132678054Y-106238085D01*
X132627259Y-106190112D01*
X132610463Y-106122292D01*
X132632999Y-106056156D01*
X132678054Y-106017115D01*
X132686816Y-106012651D01*
X132756138Y-105962286D01*
X132858786Y-105887709D01*
X132858788Y-105887706D01*
X132858792Y-105887704D01*
X133009104Y-105737392D01*
X133009106Y-105737388D01*
X133009109Y-105737386D01*
X133134048Y-105565420D01*
X133134047Y-105565420D01*
X133134051Y-105565416D01*
X133230557Y-105376012D01*
X133296246Y-105173843D01*
X133329500Y-104963887D01*
X133329500Y-104751313D01*
X133296246Y-104541357D01*
X133230557Y-104339188D01*
X133134051Y-104149784D01*
X133134049Y-104149781D01*
X133134048Y-104149779D01*
X133009109Y-103977813D01*
X132858786Y-103827490D01*
X132686820Y-103702551D01*
X132686115Y-103702191D01*
X132678054Y-103698085D01*
X132627259Y-103650112D01*
X132610463Y-103582292D01*
X132632999Y-103516156D01*
X132678054Y-103477115D01*
X132686816Y-103472651D01*
X132712026Y-103454335D01*
X132858786Y-103347709D01*
X132858788Y-103347706D01*
X132858792Y-103347704D01*
X133009104Y-103197392D01*
X133009106Y-103197388D01*
X133009109Y-103197386D01*
X133134048Y-103025420D01*
X133134047Y-103025420D01*
X133134051Y-103025416D01*
X133230557Y-102836012D01*
X133296246Y-102633843D01*
X133329500Y-102423887D01*
X133329500Y-102211313D01*
X133296246Y-102001357D01*
X133230557Y-101799188D01*
X133134051Y-101609784D01*
X133134049Y-101609781D01*
X133134048Y-101609779D01*
X133009109Y-101437813D01*
X132858786Y-101287490D01*
X132686820Y-101162551D01*
X132686115Y-101162191D01*
X132678054Y-101158085D01*
X132627259Y-101110112D01*
X132610463Y-101042292D01*
X132632999Y-100976156D01*
X132678054Y-100937115D01*
X132686816Y-100932651D01*
X132756138Y-100882286D01*
X132858786Y-100807709D01*
X132858788Y-100807706D01*
X132858792Y-100807704D01*
X133009104Y-100657392D01*
X133009106Y-100657388D01*
X133009109Y-100657386D01*
X133134048Y-100485420D01*
X133134047Y-100485420D01*
X133134051Y-100485416D01*
X133230557Y-100296012D01*
X133296246Y-100093843D01*
X133329500Y-99883887D01*
X133329500Y-99671313D01*
X133296246Y-99461357D01*
X133230557Y-99259188D01*
X133134051Y-99069784D01*
X133134049Y-99069781D01*
X133134048Y-99069779D01*
X133009109Y-98897813D01*
X132858786Y-98747490D01*
X132686820Y-98622551D01*
X132686115Y-98622191D01*
X132678054Y-98618085D01*
X132627259Y-98570112D01*
X132610463Y-98502292D01*
X132632999Y-98436156D01*
X132678054Y-98397115D01*
X132686816Y-98392651D01*
X132708789Y-98376686D01*
X132858786Y-98267709D01*
X132858788Y-98267706D01*
X132858792Y-98267704D01*
X133009104Y-98117392D01*
X133009106Y-98117388D01*
X133009109Y-98117386D01*
X133134048Y-97945420D01*
X133134047Y-97945420D01*
X133134051Y-97945416D01*
X133230557Y-97756012D01*
X133296246Y-97553843D01*
X133307659Y-97481780D01*
X133311481Y-97457653D01*
X138784600Y-97457653D01*
X138784600Y-97615346D01*
X138815361Y-97769989D01*
X138815364Y-97770001D01*
X138875702Y-97915672D01*
X138875709Y-97915685D01*
X138963310Y-98046788D01*
X138963313Y-98046792D01*
X139074807Y-98158286D01*
X139074811Y-98158289D01*
X139205914Y-98245890D01*
X139205927Y-98245897D01*
X139351598Y-98306235D01*
X139351603Y-98306237D01*
X139490648Y-98333895D01*
X139506253Y-98336999D01*
X139506256Y-98337000D01*
X139506258Y-98337000D01*
X139663944Y-98337000D01*
X139663945Y-98336999D01*
X139818597Y-98306237D01*
X139964279Y-98245894D01*
X140095389Y-98158289D01*
X140206889Y-98046789D01*
X140294494Y-97915679D01*
X140354837Y-97769997D01*
X140374213Y-97672585D01*
X140385738Y-97614650D01*
X140418123Y-97552739D01*
X140419618Y-97551216D01*
X144189019Y-93781816D01*
X144250342Y-93748331D01*
X144320034Y-93753315D01*
X144375967Y-93795187D01*
X144400384Y-93860651D01*
X144400700Y-93869497D01*
X144400700Y-94030046D01*
X144431461Y-94184689D01*
X144431464Y-94184701D01*
X144491802Y-94330372D01*
X144491809Y-94330385D01*
X144579410Y-94461488D01*
X144579413Y-94461492D01*
X144690907Y-94572986D01*
X144690911Y-94572989D01*
X144822014Y-94660590D01*
X144822027Y-94660597D01*
X144967698Y-94720935D01*
X144967703Y-94720937D01*
X145122353Y-94751699D01*
X145122356Y-94751700D01*
X145122358Y-94751700D01*
X145280044Y-94751700D01*
X145280045Y-94751699D01*
X145434697Y-94720937D01*
X145580379Y-94660594D01*
X145711489Y-94572989D01*
X145822989Y-94461489D01*
X145910594Y-94330379D01*
X145911213Y-94328886D01*
X145962756Y-94204448D01*
X146006596Y-94150044D01*
X146072890Y-94127979D01*
X146077317Y-94127900D01*
X151406402Y-94127900D01*
X151473441Y-94147585D01*
X151519196Y-94200389D01*
X151529140Y-94269547D01*
X151500115Y-94333103D01*
X151494083Y-94339581D01*
X147510381Y-98323283D01*
X147490944Y-98333895D01*
X147474211Y-98348396D01*
X147460879Y-98350312D01*
X147449058Y-98356768D01*
X147426971Y-98355188D01*
X147405053Y-98358340D01*
X147392801Y-98352744D01*
X147379366Y-98351784D01*
X147361639Y-98338513D01*
X147341497Y-98329315D01*
X147334214Y-98317983D01*
X147323433Y-98309912D01*
X147315695Y-98289166D01*
X147303723Y-98270537D01*
X147300571Y-98248618D01*
X147299016Y-98244448D01*
X147298700Y-98235602D01*
X147298700Y-98079765D01*
X147318385Y-98012726D01*
X147319598Y-98010874D01*
X147407590Y-97879185D01*
X147407590Y-97879184D01*
X147407594Y-97879179D01*
X147467937Y-97733497D01*
X147498700Y-97578842D01*
X147498700Y-97421158D01*
X147498700Y-97421155D01*
X147498699Y-97421153D01*
X147467937Y-97266503D01*
X147442833Y-97205896D01*
X147407597Y-97120827D01*
X147407590Y-97120814D01*
X147319989Y-96989711D01*
X147319986Y-96989707D01*
X147208492Y-96878213D01*
X147208488Y-96878210D01*
X147077385Y-96790609D01*
X147077372Y-96790602D01*
X146931701Y-96730264D01*
X146931689Y-96730261D01*
X146777045Y-96699500D01*
X146777042Y-96699500D01*
X146619358Y-96699500D01*
X146619355Y-96699500D01*
X146464710Y-96730261D01*
X146464698Y-96730264D01*
X146319027Y-96790602D01*
X146319014Y-96790609D01*
X146187911Y-96878210D01*
X146187907Y-96878213D01*
X146076413Y-96989707D01*
X146076410Y-96989711D01*
X145988809Y-97120814D01*
X145988802Y-97120827D01*
X145928464Y-97266498D01*
X145928461Y-97266510D01*
X145897700Y-97421153D01*
X145897700Y-97578846D01*
X145928461Y-97733489D01*
X145928464Y-97733501D01*
X145988802Y-97879172D01*
X145988809Y-97879185D01*
X146076802Y-98010874D01*
X146097680Y-98077551D01*
X146097700Y-98079765D01*
X146097700Y-98784802D01*
X146078015Y-98851841D01*
X146061381Y-98872483D01*
X140939281Y-103994582D01*
X140939279Y-103994584D01*
X140922403Y-104023816D01*
X140899112Y-104064158D01*
X140886543Y-104085928D01*
X140860223Y-104131514D01*
X140846581Y-104182424D01*
X140819299Y-104284243D01*
X140819299Y-104284245D01*
X140819299Y-104452346D01*
X140819300Y-104452359D01*
X140819300Y-108379030D01*
X140819299Y-108379048D01*
X140819299Y-108544754D01*
X140819298Y-108544754D01*
X140860224Y-108697489D01*
X140860225Y-108697490D01*
X140880557Y-108732705D01*
X140880558Y-108732707D01*
X140939275Y-108834409D01*
X140939281Y-108834417D01*
X141058149Y-108953285D01*
X141058155Y-108953290D01*
X143560739Y-111455874D01*
X143560749Y-111455885D01*
X143565079Y-111460215D01*
X143565080Y-111460216D01*
X143676884Y-111572020D01*
X143706117Y-111588897D01*
X143763695Y-111622139D01*
X143763697Y-111622141D01*
X143784158Y-111633954D01*
X143813815Y-111651077D01*
X143966543Y-111692001D01*
X143966546Y-111692001D01*
X144132253Y-111692001D01*
X144132269Y-111692000D01*
X156061793Y-111692000D01*
X156128832Y-111711685D01*
X156174587Y-111764489D01*
X156184531Y-111833647D01*
X156172278Y-111872295D01*
X156127904Y-111959382D01*
X156062242Y-112161469D01*
X156062242Y-112161472D01*
X156029000Y-112371353D01*
X156029000Y-112583846D01*
X156062242Y-112793727D01*
X156062242Y-112793730D01*
X156127904Y-112995817D01*
X156224375Y-113185150D01*
X156263728Y-113239316D01*
X156896036Y-112607007D01*
X156913075Y-112670593D01*
X156978901Y-112784607D01*
X157071993Y-112877699D01*
X157186007Y-112943525D01*
X157249590Y-112960562D01*
X156617282Y-113592869D01*
X156617282Y-113592870D01*
X156671452Y-113632226D01*
X156671451Y-113632226D01*
X156680495Y-113636834D01*
X156731292Y-113684808D01*
X156748087Y-113752629D01*
X156725550Y-113818764D01*
X156680499Y-113857802D01*
X156671182Y-113862549D01*
X156499213Y-113987490D01*
X156348890Y-114137813D01*
X156223951Y-114309779D01*
X156127444Y-114499185D01*
X156061753Y-114701360D01*
X156028500Y-114911313D01*
X156028500Y-115123886D01*
X156061753Y-115333840D01*
X156101342Y-115455682D01*
X156103337Y-115525523D01*
X156067257Y-115585356D01*
X156004556Y-115616184D01*
X155983411Y-115618000D01*
X148720397Y-115618000D01*
X148653358Y-115598315D01*
X148632716Y-115581681D01*
X146164874Y-113113839D01*
X146131389Y-113052516D01*
X146130938Y-113050349D01*
X146100038Y-112895010D01*
X146100037Y-112895003D01*
X146058089Y-112793730D01*
X146039697Y-112749327D01*
X146039690Y-112749314D01*
X145952089Y-112618211D01*
X145952086Y-112618207D01*
X145840592Y-112506713D01*
X145840588Y-112506710D01*
X145709485Y-112419109D01*
X145709472Y-112419102D01*
X145563801Y-112358764D01*
X145563789Y-112358761D01*
X145409145Y-112328000D01*
X145409142Y-112328000D01*
X145251458Y-112328000D01*
X145251455Y-112328000D01*
X145096810Y-112358761D01*
X145096798Y-112358764D01*
X144951127Y-112419102D01*
X144951114Y-112419109D01*
X144820011Y-112506710D01*
X144820007Y-112506713D01*
X144708513Y-112618207D01*
X144708510Y-112618211D01*
X144620909Y-112749314D01*
X144620902Y-112749327D01*
X144560564Y-112894998D01*
X144560561Y-112895010D01*
X144529800Y-113049653D01*
X144529800Y-113207346D01*
X144560561Y-113361989D01*
X144560564Y-113362001D01*
X144620902Y-113507672D01*
X144620909Y-113507685D01*
X144708510Y-113638788D01*
X144708513Y-113638792D01*
X144820007Y-113750286D01*
X144820011Y-113750289D01*
X144951114Y-113837890D01*
X144951127Y-113837897D01*
X145096798Y-113898235D01*
X145096803Y-113898237D01*
X145161447Y-113911095D01*
X145252149Y-113929138D01*
X145314060Y-113961523D01*
X145315639Y-113963074D01*
X147935439Y-116582874D01*
X147935449Y-116582885D01*
X147939779Y-116587215D01*
X147939780Y-116587216D01*
X148051584Y-116699020D01*
X148138395Y-116749139D01*
X148138397Y-116749141D01*
X148176451Y-116771111D01*
X148188515Y-116778077D01*
X148341243Y-116819001D01*
X148341246Y-116819001D01*
X148506953Y-116819001D01*
X148506969Y-116819000D01*
X165507531Y-116819000D01*
X165507547Y-116819001D01*
X165515143Y-116819001D01*
X165673254Y-116819001D01*
X165673257Y-116819001D01*
X165825985Y-116778077D01*
X165876104Y-116749139D01*
X165962916Y-116699020D01*
X166074720Y-116587216D01*
X166074720Y-116587214D01*
X166084928Y-116577007D01*
X166084930Y-116577004D01*
X166171012Y-116490922D01*
X166232334Y-116457438D01*
X166234501Y-116456987D01*
X166235190Y-116456850D01*
X166235192Y-116456850D01*
X166389847Y-116426087D01*
X166535529Y-116365744D01*
X166666639Y-116278139D01*
X166778139Y-116166639D01*
X166865744Y-116035529D01*
X166926087Y-115889847D01*
X166956850Y-115735192D01*
X166956850Y-115577508D01*
X166956850Y-115577505D01*
X166956849Y-115577503D01*
X166926088Y-115422860D01*
X166926088Y-115422858D01*
X166926087Y-115422853D01*
X166889217Y-115333840D01*
X166865747Y-115277177D01*
X166865740Y-115277164D01*
X166778139Y-115146061D01*
X166778136Y-115146057D01*
X166666642Y-115034563D01*
X166666638Y-115034560D01*
X166535535Y-114946959D01*
X166535528Y-114946955D01*
X166525574Y-114942832D01*
X166521578Y-114941177D01*
X166467175Y-114897337D01*
X166445109Y-114831043D01*
X166462387Y-114763344D01*
X166512735Y-114716131D01*
X166680554Y-114630622D01*
X166734716Y-114591270D01*
X166734717Y-114591270D01*
X166102408Y-113958962D01*
X166165993Y-113941925D01*
X166280007Y-113876099D01*
X166373099Y-113783007D01*
X166438925Y-113668993D01*
X166455962Y-113605408D01*
X167088270Y-114237717D01*
X167088270Y-114237716D01*
X167127622Y-114183554D01*
X167132514Y-114173954D01*
X167180488Y-114123157D01*
X167248308Y-114106361D01*
X167314444Y-114128897D01*
X167353486Y-114173954D01*
X167358375Y-114183550D01*
X167397728Y-114237716D01*
X168030037Y-113605408D01*
X168047075Y-113668993D01*
X168112901Y-113783007D01*
X168205993Y-113876099D01*
X168320007Y-113941925D01*
X168383590Y-113958962D01*
X167751282Y-114591269D01*
X167751282Y-114591270D01*
X167805449Y-114630624D01*
X167994782Y-114727095D01*
X168196870Y-114792757D01*
X168406754Y-114826000D01*
X168619246Y-114826000D01*
X168829127Y-114792757D01*
X168829130Y-114792757D01*
X169031217Y-114727095D01*
X169220554Y-114630622D01*
X169274716Y-114591270D01*
X169274717Y-114591270D01*
X168642408Y-113958962D01*
X168705993Y-113941925D01*
X168820007Y-113876099D01*
X168913099Y-113783007D01*
X168978925Y-113668993D01*
X168995962Y-113605408D01*
X169628270Y-114237717D01*
X169628270Y-114237716D01*
X169667622Y-114183554D01*
X169764095Y-113994217D01*
X169829757Y-113792130D01*
X169829757Y-113792127D01*
X169863000Y-113582246D01*
X169863000Y-113369753D01*
X169829757Y-113159872D01*
X169829757Y-113159869D01*
X169764095Y-112957782D01*
X169667624Y-112768449D01*
X169628270Y-112714282D01*
X169628269Y-112714282D01*
X168995962Y-113346590D01*
X168978925Y-113283007D01*
X168913099Y-113168993D01*
X168820007Y-113075901D01*
X168705993Y-113010075D01*
X168642409Y-112993037D01*
X169274716Y-112360728D01*
X169220550Y-112321375D01*
X169210954Y-112316486D01*
X169160157Y-112268512D01*
X169143361Y-112200692D01*
X169165897Y-112134556D01*
X169210954Y-112095514D01*
X169220554Y-112090622D01*
X169274716Y-112051270D01*
X169274717Y-112051270D01*
X168642408Y-111418962D01*
X168705993Y-111401925D01*
X168820007Y-111336099D01*
X168913099Y-111243007D01*
X168978925Y-111128993D01*
X168995962Y-111065408D01*
X169628270Y-111697717D01*
X169628270Y-111697716D01*
X169667622Y-111643554D01*
X169764095Y-111454217D01*
X169829757Y-111252130D01*
X169829757Y-111252127D01*
X169863000Y-111042246D01*
X169863000Y-110829753D01*
X169829757Y-110619872D01*
X169829757Y-110619869D01*
X169764095Y-110417782D01*
X169667624Y-110228449D01*
X169628270Y-110174282D01*
X169628269Y-110174282D01*
X168995962Y-110806590D01*
X168978925Y-110743007D01*
X168913099Y-110628993D01*
X168820007Y-110535901D01*
X168705993Y-110470075D01*
X168642408Y-110453037D01*
X169274716Y-109820728D01*
X169220547Y-109781373D01*
X169220547Y-109781372D01*
X169211500Y-109776763D01*
X169160706Y-109728788D01*
X169143912Y-109660966D01*
X169166451Y-109594832D01*
X169211508Y-109555793D01*
X169220816Y-109551051D01*
X169300007Y-109493515D01*
X169392786Y-109426109D01*
X169392788Y-109426106D01*
X169392792Y-109426104D01*
X169543104Y-109275792D01*
X169543106Y-109275788D01*
X169543109Y-109275786D01*
X169668048Y-109103820D01*
X169668047Y-109103820D01*
X169668051Y-109103816D01*
X169764557Y-108914412D01*
X169830246Y-108712243D01*
X169863500Y-108502287D01*
X169863500Y-108289713D01*
X169830246Y-108079757D01*
X169764557Y-107877588D01*
X169668051Y-107688184D01*
X169668049Y-107688181D01*
X169668048Y-107688179D01*
X169543109Y-107516213D01*
X169392786Y-107365890D01*
X169220820Y-107240951D01*
X169220115Y-107240591D01*
X169212054Y-107236485D01*
X169161259Y-107188512D01*
X169144463Y-107120692D01*
X169166999Y-107054556D01*
X169212054Y-107015515D01*
X169220816Y-107011051D01*
X169350156Y-106917081D01*
X169392786Y-106886109D01*
X169392788Y-106886106D01*
X169392792Y-106886104D01*
X169543104Y-106735792D01*
X169543106Y-106735788D01*
X169543109Y-106735786D01*
X169668048Y-106563820D01*
X169668047Y-106563820D01*
X169668051Y-106563816D01*
X169764557Y-106374412D01*
X169830246Y-106172243D01*
X169863500Y-105962287D01*
X169863500Y-105749713D01*
X169830246Y-105539757D01*
X169816506Y-105497473D01*
X169814512Y-105427635D01*
X169846755Y-105371478D01*
X170058006Y-105160228D01*
X170058011Y-105160224D01*
X170068214Y-105150020D01*
X170068216Y-105150020D01*
X170180020Y-105038216D01*
X170259077Y-104901284D01*
X170299481Y-104750494D01*
X170299485Y-104750495D01*
X170299485Y-104750475D01*
X170300000Y-104748558D01*
X170300000Y-104590443D01*
X170300000Y-102896660D01*
X170300001Y-102896647D01*
X170300001Y-102728544D01*
X170296635Y-102715982D01*
X170259077Y-102575816D01*
X170183007Y-102444057D01*
X170180024Y-102438890D01*
X170180018Y-102438882D01*
X169556478Y-101815343D01*
X169522993Y-101754020D01*
X169527977Y-101684329D01*
X169543841Y-101654777D01*
X169549618Y-101646826D01*
X169668051Y-101483816D01*
X169764557Y-101294412D01*
X169830246Y-101092243D01*
X169863500Y-100882287D01*
X169863500Y-100669713D01*
X169830246Y-100459757D01*
X169764557Y-100257588D01*
X169668051Y-100068184D01*
X169668049Y-100068181D01*
X169668048Y-100068179D01*
X169543109Y-99896213D01*
X169392786Y-99745890D01*
X169220820Y-99620951D01*
X169220115Y-99620591D01*
X169212054Y-99616485D01*
X169161259Y-99568512D01*
X169144463Y-99500692D01*
X169166999Y-99434556D01*
X169212054Y-99395515D01*
X169220816Y-99391051D01*
X169358282Y-99291177D01*
X169392786Y-99266109D01*
X169392788Y-99266106D01*
X169392792Y-99266104D01*
X169543104Y-99115792D01*
X169543106Y-99115788D01*
X169543109Y-99115786D01*
X169668048Y-98943820D01*
X169668047Y-98943820D01*
X169668051Y-98943816D01*
X169764557Y-98754412D01*
X169830246Y-98552243D01*
X169863500Y-98342287D01*
X169863500Y-98129713D01*
X169830246Y-97919757D01*
X169764557Y-97717588D01*
X169668051Y-97528184D01*
X169668049Y-97528181D01*
X169668048Y-97528179D01*
X169543109Y-97356213D01*
X169392786Y-97205890D01*
X169220820Y-97080951D01*
X169220115Y-97080591D01*
X169212054Y-97076485D01*
X169161259Y-97028512D01*
X169144463Y-96960692D01*
X169166999Y-96894556D01*
X169212054Y-96855515D01*
X169220816Y-96851051D01*
X169304012Y-96790606D01*
X169392786Y-96726109D01*
X169392788Y-96726106D01*
X169392792Y-96726104D01*
X169543104Y-96575792D01*
X169543106Y-96575788D01*
X169543109Y-96575786D01*
X169668048Y-96403820D01*
X169668047Y-96403820D01*
X169668051Y-96403816D01*
X169764557Y-96214412D01*
X169830246Y-96012243D01*
X169863500Y-95802287D01*
X169863500Y-95589713D01*
X169830246Y-95379757D01*
X169764557Y-95177588D01*
X169668051Y-94988184D01*
X169668049Y-94988181D01*
X169668048Y-94988179D01*
X169543109Y-94816213D01*
X169392786Y-94665890D01*
X169220820Y-94540951D01*
X169220115Y-94540591D01*
X169212054Y-94536485D01*
X169161259Y-94488512D01*
X169144463Y-94420692D01*
X169166999Y-94354556D01*
X169212054Y-94315515D01*
X169220816Y-94311051D01*
X169277942Y-94269547D01*
X169392786Y-94186109D01*
X169392788Y-94186106D01*
X169392792Y-94186104D01*
X169543104Y-94035792D01*
X169543106Y-94035788D01*
X169543109Y-94035786D01*
X169661845Y-93872358D01*
X169668051Y-93863816D01*
X169764557Y-93674412D01*
X169830246Y-93472243D01*
X169863500Y-93262287D01*
X169863500Y-93049713D01*
X169830246Y-92839757D01*
X169764557Y-92637588D01*
X169668051Y-92448184D01*
X169668049Y-92448181D01*
X169668048Y-92448179D01*
X169543109Y-92276213D01*
X169392786Y-92125890D01*
X169220820Y-92000951D01*
X169220115Y-92000591D01*
X169212054Y-91996485D01*
X169161259Y-91948512D01*
X169144463Y-91880692D01*
X169166999Y-91814556D01*
X169212054Y-91775515D01*
X169220816Y-91771051D01*
X169242789Y-91755086D01*
X169392786Y-91646109D01*
X169392788Y-91646106D01*
X169392792Y-91646104D01*
X169543104Y-91495792D01*
X169543106Y-91495788D01*
X169543109Y-91495786D01*
X169668048Y-91323820D01*
X169668047Y-91323820D01*
X169668051Y-91323816D01*
X169764557Y-91134412D01*
X169830246Y-90932243D01*
X169863500Y-90722287D01*
X169863500Y-90509713D01*
X169830246Y-90299757D01*
X169764557Y-90097588D01*
X169668051Y-89908184D01*
X169668049Y-89908181D01*
X169668048Y-89908179D01*
X169543109Y-89736213D01*
X169392786Y-89585890D01*
X169220820Y-89460951D01*
X169031414Y-89364444D01*
X169031413Y-89364443D01*
X169031412Y-89364443D01*
X168930327Y-89331598D01*
X168829241Y-89298753D01*
X168788052Y-89292229D01*
X168724918Y-89262298D01*
X168719772Y-89257437D01*
X165006490Y-85544155D01*
X165006488Y-85544152D01*
X164887617Y-85425281D01*
X164887616Y-85425280D01*
X164800804Y-85375160D01*
X164800804Y-85375159D01*
X164800800Y-85375158D01*
X164750685Y-85346223D01*
X164597957Y-85305299D01*
X164439843Y-85305299D01*
X164432247Y-85305299D01*
X164432231Y-85305300D01*
X158705888Y-85305300D01*
X158638849Y-85285615D01*
X158593094Y-85232811D01*
X158583150Y-85163653D01*
X158595403Y-85125005D01*
X158630557Y-85056012D01*
X158696246Y-84853843D01*
X158729500Y-84643887D01*
X158729500Y-84431313D01*
X158696246Y-84221357D01*
X158630557Y-84019188D01*
X158534051Y-83829784D01*
X158534049Y-83829781D01*
X158534048Y-83829779D01*
X158409109Y-83657813D01*
X158258786Y-83507490D01*
X158086820Y-83382551D01*
X158086115Y-83382191D01*
X158078054Y-83378085D01*
X158027259Y-83330112D01*
X158010463Y-83262292D01*
X158032999Y-83196156D01*
X158078054Y-83157115D01*
X158086816Y-83152651D01*
X158124876Y-83124999D01*
X158258786Y-83027709D01*
X158258788Y-83027706D01*
X158258792Y-83027704D01*
X158409104Y-82877392D01*
X158409106Y-82877388D01*
X158409109Y-82877386D01*
X158534048Y-82705420D01*
X158534047Y-82705420D01*
X158534051Y-82705416D01*
X158630557Y-82516012D01*
X158696246Y-82313843D01*
X158729500Y-82103887D01*
X158729500Y-81891313D01*
X158719319Y-81827035D01*
X163132500Y-81827035D01*
X163132500Y-83622770D01*
X163132501Y-83622776D01*
X163138908Y-83682383D01*
X163189202Y-83817228D01*
X163189206Y-83817235D01*
X163275452Y-83932444D01*
X163275455Y-83932447D01*
X163390664Y-84018693D01*
X163390671Y-84018697D01*
X163525517Y-84068991D01*
X163525516Y-84068991D01*
X163532444Y-84069735D01*
X163585127Y-84075400D01*
X165380872Y-84075399D01*
X165440483Y-84068991D01*
X165575331Y-84018696D01*
X165690546Y-83932446D01*
X165776796Y-83817231D01*
X165825810Y-83685816D01*
X165867681Y-83629884D01*
X165933145Y-83605466D01*
X166001418Y-83620317D01*
X166029673Y-83641469D01*
X166143213Y-83755009D01*
X166315179Y-83879948D01*
X166315181Y-83879949D01*
X166315184Y-83879951D01*
X166504588Y-83976457D01*
X166706757Y-84042146D01*
X166916713Y-84075400D01*
X166916714Y-84075400D01*
X167129286Y-84075400D01*
X167129287Y-84075400D01*
X167339243Y-84042146D01*
X167541412Y-83976457D01*
X167730816Y-83879951D01*
X167785572Y-83840169D01*
X167902786Y-83755009D01*
X167902788Y-83755006D01*
X167902792Y-83755004D01*
X168053104Y-83604692D01*
X168053106Y-83604688D01*
X168053109Y-83604686D01*
X168138890Y-83486617D01*
X168178051Y-83432716D01*
X168182793Y-83423408D01*
X168230763Y-83372611D01*
X168298583Y-83355811D01*
X168364719Y-83378345D01*
X168403763Y-83423400D01*
X168408373Y-83432447D01*
X168447728Y-83486616D01*
X169080037Y-82854308D01*
X169097075Y-82917893D01*
X169162901Y-83031907D01*
X169255993Y-83124999D01*
X169370007Y-83190825D01*
X169433590Y-83207862D01*
X168801282Y-83840169D01*
X168801282Y-83840170D01*
X168855449Y-83879524D01*
X169044782Y-83975995D01*
X169246870Y-84041657D01*
X169456754Y-84074900D01*
X169669246Y-84074900D01*
X169879127Y-84041657D01*
X169879130Y-84041657D01*
X170081217Y-83975995D01*
X170270554Y-83879522D01*
X170324716Y-83840170D01*
X170324717Y-83840170D01*
X169692408Y-83207862D01*
X169755993Y-83190825D01*
X169870007Y-83124999D01*
X169963099Y-83031907D01*
X170028925Y-82917893D01*
X170045962Y-82854308D01*
X170678270Y-83486617D01*
X170678270Y-83486616D01*
X170717622Y-83432454D01*
X170814095Y-83243117D01*
X170879757Y-83041030D01*
X170879757Y-83041027D01*
X170913000Y-82831146D01*
X170913000Y-82618653D01*
X170879757Y-82408772D01*
X170879757Y-82408769D01*
X170814095Y-82206682D01*
X170717624Y-82017349D01*
X170678270Y-81963182D01*
X170678269Y-81963182D01*
X170045962Y-82595490D01*
X170028925Y-82531907D01*
X169963099Y-82417893D01*
X169870007Y-82324801D01*
X169755993Y-82258975D01*
X169692409Y-82241937D01*
X170324716Y-81609628D01*
X170270550Y-81570275D01*
X170081217Y-81473804D01*
X169879129Y-81408142D01*
X169669246Y-81374900D01*
X169456754Y-81374900D01*
X169246872Y-81408142D01*
X169246869Y-81408142D01*
X169044782Y-81473804D01*
X168855439Y-81570280D01*
X168801282Y-81609627D01*
X168801282Y-81609628D01*
X169433591Y-82241937D01*
X169370007Y-82258975D01*
X169255993Y-82324801D01*
X169162901Y-82417893D01*
X169097075Y-82531907D01*
X169080037Y-82595491D01*
X168447728Y-81963182D01*
X168447727Y-81963182D01*
X168408380Y-82017340D01*
X168408376Y-82017346D01*
X168403760Y-82026405D01*
X168355781Y-82077197D01*
X168287959Y-82093987D01*
X168221826Y-82071443D01*
X168182794Y-82026393D01*
X168178051Y-82017084D01*
X168178049Y-82017081D01*
X168178048Y-82017079D01*
X168053109Y-81845113D01*
X167902786Y-81694790D01*
X167730820Y-81569851D01*
X167541414Y-81473344D01*
X167541413Y-81473343D01*
X167541412Y-81473343D01*
X167339243Y-81407654D01*
X167339241Y-81407653D01*
X167339240Y-81407653D01*
X167177957Y-81382108D01*
X167129287Y-81374400D01*
X166916713Y-81374400D01*
X166868042Y-81382108D01*
X166706760Y-81407653D01*
X166504585Y-81473344D01*
X166315179Y-81569851D01*
X166143215Y-81694789D01*
X166029673Y-81808331D01*
X165968350Y-81841815D01*
X165898658Y-81836831D01*
X165842725Y-81794959D01*
X165825810Y-81763982D01*
X165776797Y-81632571D01*
X165776793Y-81632564D01*
X165690547Y-81517355D01*
X165690544Y-81517352D01*
X165575335Y-81431106D01*
X165575328Y-81431102D01*
X165440482Y-81380808D01*
X165440483Y-81380808D01*
X165380883Y-81374401D01*
X165380881Y-81374400D01*
X165380873Y-81374400D01*
X165380864Y-81374400D01*
X163585129Y-81374400D01*
X163585123Y-81374401D01*
X163525516Y-81380808D01*
X163390671Y-81431102D01*
X163390664Y-81431106D01*
X163275455Y-81517352D01*
X163275452Y-81517355D01*
X163189206Y-81632564D01*
X163189202Y-81632571D01*
X163138908Y-81767417D01*
X163132501Y-81827016D01*
X163132500Y-81827035D01*
X158719319Y-81827035D01*
X158696246Y-81681357D01*
X158630557Y-81479188D01*
X158534051Y-81289784D01*
X158534049Y-81289781D01*
X158534048Y-81289779D01*
X158409109Y-81117813D01*
X158295569Y-81004273D01*
X158262084Y-80942950D01*
X158267068Y-80873258D01*
X158308940Y-80817325D01*
X158339915Y-80800410D01*
X158471331Y-80751396D01*
X158586546Y-80665146D01*
X158672796Y-80549931D01*
X158723091Y-80415083D01*
X158729500Y-80355473D01*
X158729499Y-78559728D01*
X158723091Y-78500117D01*
X158672796Y-78365269D01*
X158672795Y-78365268D01*
X158672793Y-78365264D01*
X158586547Y-78250055D01*
X158586544Y-78250052D01*
X158471335Y-78163806D01*
X158471328Y-78163802D01*
X158336482Y-78113508D01*
X158336483Y-78113508D01*
X158276883Y-78107101D01*
X158276881Y-78107100D01*
X158276873Y-78107100D01*
X158276864Y-78107100D01*
X156481129Y-78107100D01*
X156481123Y-78107101D01*
X156421516Y-78113508D01*
X156286671Y-78163802D01*
X156286664Y-78163806D01*
X156171455Y-78250052D01*
X156171452Y-78250055D01*
X156085206Y-78365264D01*
X156085202Y-78365271D01*
X156034908Y-78500117D01*
X156028501Y-78559716D01*
X156028501Y-78559723D01*
X156028500Y-78559735D01*
X156028500Y-80355470D01*
X156028501Y-80355476D01*
X156034908Y-80415083D01*
X156085202Y-80549928D01*
X156085206Y-80549935D01*
X156171452Y-80665144D01*
X156171455Y-80665147D01*
X156286664Y-80751393D01*
X156286671Y-80751397D01*
X156418082Y-80800410D01*
X156474016Y-80842281D01*
X156498433Y-80907745D01*
X156483582Y-80976018D01*
X156462431Y-81004273D01*
X156348889Y-81117815D01*
X156223951Y-81289779D01*
X156127444Y-81479185D01*
X156061753Y-81681360D01*
X156028500Y-81891313D01*
X156028500Y-82103886D01*
X156053063Y-82258975D01*
X156061754Y-82313843D01*
X156092598Y-82408772D01*
X156127444Y-82516014D01*
X156223951Y-82705420D01*
X156348890Y-82877386D01*
X156499213Y-83027709D01*
X156671182Y-83152650D01*
X156679946Y-83157116D01*
X156730742Y-83205091D01*
X156747536Y-83272912D01*
X156724998Y-83339047D01*
X156679946Y-83378084D01*
X156671182Y-83382549D01*
X156499213Y-83507490D01*
X156348890Y-83657813D01*
X156223951Y-83829779D01*
X156127444Y-84019185D01*
X156061753Y-84221360D01*
X156028500Y-84431313D01*
X156028500Y-84643886D01*
X156061753Y-84853839D01*
X156127444Y-85056014D01*
X156162597Y-85125005D01*
X156175493Y-85193674D01*
X156149217Y-85258414D01*
X156092111Y-85298672D01*
X156052112Y-85305300D01*
X150212441Y-85305300D01*
X150177215Y-85314738D01*
X150177216Y-85314739D01*
X150059714Y-85346223D01*
X150059709Y-85346226D01*
X149922790Y-85425275D01*
X149922782Y-85425281D01*
X148574839Y-86773225D01*
X148513516Y-86806710D01*
X148511350Y-86807161D01*
X148356008Y-86838061D01*
X148355998Y-86838064D01*
X148210327Y-86898402D01*
X148210314Y-86898409D01*
X148079211Y-86986010D01*
X148079207Y-86986013D01*
X147967713Y-87097507D01*
X147967710Y-87097511D01*
X147880109Y-87228614D01*
X147880102Y-87228627D01*
X147819764Y-87374298D01*
X147819761Y-87374310D01*
X147789000Y-87528953D01*
X147789000Y-87686646D01*
X147819761Y-87841289D01*
X147819764Y-87841301D01*
X147880102Y-87986972D01*
X147880109Y-87986985D01*
X147967710Y-88118088D01*
X147967713Y-88118092D01*
X148079207Y-88229586D01*
X148079211Y-88229589D01*
X148210314Y-88317190D01*
X148210327Y-88317197D01*
X148355998Y-88377535D01*
X148356003Y-88377537D01*
X148510653Y-88408299D01*
X148510656Y-88408300D01*
X148510658Y-88408300D01*
X148668344Y-88408300D01*
X148668345Y-88408299D01*
X148822997Y-88377537D01*
X148968679Y-88317194D01*
X149099789Y-88229589D01*
X149211289Y-88118089D01*
X149298894Y-87986979D01*
X149359237Y-87841297D01*
X149378613Y-87743885D01*
X149390138Y-87685950D01*
X149422523Y-87624039D01*
X149424018Y-87622516D01*
X150503916Y-86542619D01*
X150565239Y-86509134D01*
X150591597Y-86506300D01*
X155973956Y-86506300D01*
X156040995Y-86525985D01*
X156086750Y-86578789D01*
X156096694Y-86647947D01*
X156091887Y-86668618D01*
X156061753Y-86761359D01*
X156028500Y-86971313D01*
X156028500Y-87183886D01*
X156061753Y-87393839D01*
X156127444Y-87596016D01*
X156155310Y-87650704D01*
X156168207Y-87719373D01*
X156141931Y-87784114D01*
X156084825Y-87824371D01*
X156044826Y-87831000D01*
X150614170Y-87831000D01*
X150614154Y-87830999D01*
X150606558Y-87830999D01*
X150448443Y-87830999D01*
X150372079Y-87851461D01*
X150295714Y-87871923D01*
X150295709Y-87871926D01*
X150158790Y-87950975D01*
X150158782Y-87950981D01*
X149977037Y-88132726D01*
X149915714Y-88166211D01*
X149913548Y-88166662D01*
X149758208Y-88197561D01*
X149758198Y-88197564D01*
X149612527Y-88257902D01*
X149612514Y-88257909D01*
X149481411Y-88345510D01*
X149481407Y-88345513D01*
X149369913Y-88457007D01*
X149369910Y-88457011D01*
X149282309Y-88588114D01*
X149282302Y-88588127D01*
X149221964Y-88733798D01*
X149221961Y-88733810D01*
X149191200Y-88888453D01*
X149191200Y-88893000D01*
X149171515Y-88960039D01*
X149118711Y-89005794D01*
X149067200Y-89017000D01*
X144535040Y-89017000D01*
X144494119Y-89027964D01*
X144494119Y-89027965D01*
X144456851Y-89037951D01*
X144382314Y-89057923D01*
X144382309Y-89057926D01*
X144245390Y-89136975D01*
X144245382Y-89136981D01*
X143568639Y-89813725D01*
X143507316Y-89847210D01*
X143505150Y-89847661D01*
X143349808Y-89878561D01*
X143349798Y-89878564D01*
X143204127Y-89938902D01*
X143204114Y-89938909D01*
X143073011Y-90026510D01*
X143073007Y-90026513D01*
X142961513Y-90138007D01*
X142961510Y-90138011D01*
X142873909Y-90269114D01*
X142873902Y-90269127D01*
X142813564Y-90414798D01*
X142813561Y-90414810D01*
X142782800Y-90569453D01*
X142782800Y-90727145D01*
X142813561Y-90881789D01*
X142813564Y-90881801D01*
X142873902Y-91027472D01*
X142873909Y-91027485D01*
X142961510Y-91158588D01*
X142961513Y-91158592D01*
X143073007Y-91270086D01*
X143073011Y-91270089D01*
X143204114Y-91357690D01*
X143204127Y-91357697D01*
X143349798Y-91418035D01*
X143349803Y-91418037D01*
X143504453Y-91448799D01*
X143504456Y-91448800D01*
X143504458Y-91448800D01*
X143662144Y-91448800D01*
X143662145Y-91448799D01*
X143816797Y-91418037D01*
X143962479Y-91357694D01*
X144093589Y-91270089D01*
X144205089Y-91158589D01*
X144292694Y-91027479D01*
X144353037Y-90881797D01*
X144372413Y-90784385D01*
X144383938Y-90726450D01*
X144416323Y-90664539D01*
X144417818Y-90663016D01*
X144826516Y-90254319D01*
X144887839Y-90220834D01*
X144914197Y-90218000D01*
X145755003Y-90218000D01*
X145822042Y-90237685D01*
X145867797Y-90290489D01*
X145877741Y-90359647D01*
X145848716Y-90423203D01*
X145842684Y-90429681D01*
X139570439Y-96701925D01*
X139509116Y-96735410D01*
X139506950Y-96735861D01*
X139351608Y-96766761D01*
X139351598Y-96766764D01*
X139205927Y-96827102D01*
X139205914Y-96827109D01*
X139074811Y-96914710D01*
X139074807Y-96914713D01*
X138963313Y-97026207D01*
X138963310Y-97026211D01*
X138875709Y-97157314D01*
X138875702Y-97157327D01*
X138815364Y-97302998D01*
X138815361Y-97303010D01*
X138784600Y-97457653D01*
X133311481Y-97457653D01*
X133315518Y-97432168D01*
X133315518Y-97432167D01*
X133329500Y-97343887D01*
X133329500Y-97131313D01*
X133312853Y-97026211D01*
X133296246Y-96921357D01*
X133230557Y-96719188D01*
X133134051Y-96529784D01*
X133134049Y-96529781D01*
X133134048Y-96529779D01*
X133009109Y-96357813D01*
X132858786Y-96207490D01*
X132686820Y-96082551D01*
X132686115Y-96082191D01*
X132678054Y-96078085D01*
X132627259Y-96030112D01*
X132610463Y-95962292D01*
X132632999Y-95896156D01*
X132678054Y-95857115D01*
X132686816Y-95852651D01*
X132756138Y-95802286D01*
X132858786Y-95727709D01*
X132858788Y-95727706D01*
X132858792Y-95727704D01*
X133009104Y-95577392D01*
X133009106Y-95577388D01*
X133009109Y-95577386D01*
X133134048Y-95405420D01*
X133134047Y-95405420D01*
X133134051Y-95405416D01*
X133230557Y-95216012D01*
X133296246Y-95013843D01*
X133329500Y-94803887D01*
X133329500Y-94591313D01*
X133296246Y-94381357D01*
X133230557Y-94179188D01*
X133134051Y-93989784D01*
X133134049Y-93989781D01*
X133134048Y-93989779D01*
X133009109Y-93817813D01*
X132858786Y-93667490D01*
X132686820Y-93542551D01*
X132686115Y-93542191D01*
X132678054Y-93538085D01*
X132627259Y-93490112D01*
X132610463Y-93422292D01*
X132632999Y-93356156D01*
X132678054Y-93317115D01*
X132686816Y-93312651D01*
X132756138Y-93262286D01*
X132858786Y-93187709D01*
X132858788Y-93187706D01*
X132858792Y-93187704D01*
X133009104Y-93037392D01*
X133009106Y-93037388D01*
X133009109Y-93037386D01*
X133134048Y-92865420D01*
X133134047Y-92865420D01*
X133134051Y-92865416D01*
X133230557Y-92676012D01*
X133296246Y-92473843D01*
X133329500Y-92263887D01*
X133329500Y-92051313D01*
X133296246Y-91841357D01*
X133230557Y-91639188D01*
X133134051Y-91449784D01*
X133134049Y-91449781D01*
X133134048Y-91449779D01*
X133009109Y-91277813D01*
X132858786Y-91127490D01*
X132686820Y-91002551D01*
X132686115Y-91002191D01*
X132678054Y-90998085D01*
X132627259Y-90950112D01*
X132610463Y-90882292D01*
X132632999Y-90816156D01*
X132678054Y-90777115D01*
X132686816Y-90772651D01*
X132756138Y-90722286D01*
X132858786Y-90647709D01*
X132858788Y-90647706D01*
X132858792Y-90647704D01*
X133009104Y-90497392D01*
X133009106Y-90497388D01*
X133009109Y-90497386D01*
X133134048Y-90325420D01*
X133134047Y-90325420D01*
X133134051Y-90325416D01*
X133230557Y-90136012D01*
X133296246Y-89933843D01*
X133329500Y-89723887D01*
X133329500Y-89511313D01*
X133296246Y-89301357D01*
X133230557Y-89099188D01*
X133134051Y-88909784D01*
X133134049Y-88909781D01*
X133134048Y-88909779D01*
X133009109Y-88737813D01*
X132858786Y-88587490D01*
X132686820Y-88462551D01*
X132686115Y-88462191D01*
X132678054Y-88458085D01*
X132627259Y-88410112D01*
X132610463Y-88342292D01*
X132632999Y-88276156D01*
X132678054Y-88237115D01*
X132686816Y-88232651D01*
X132708789Y-88216686D01*
X132858786Y-88107709D01*
X132858788Y-88107706D01*
X132858792Y-88107704D01*
X133009104Y-87957392D01*
X133009106Y-87957388D01*
X133009109Y-87957386D01*
X133134048Y-87785420D01*
X133134047Y-87785420D01*
X133134051Y-87785416D01*
X133230557Y-87596012D01*
X133296246Y-87393843D01*
X133329500Y-87183887D01*
X133329500Y-86971313D01*
X133296246Y-86761357D01*
X133230557Y-86559188D01*
X133134051Y-86369784D01*
X133134049Y-86369781D01*
X133134048Y-86369779D01*
X133009109Y-86197813D01*
X132858786Y-86047490D01*
X132686820Y-85922551D01*
X132686115Y-85922191D01*
X132678054Y-85918085D01*
X132627259Y-85870112D01*
X132610463Y-85802292D01*
X132632999Y-85736156D01*
X132678054Y-85697115D01*
X132686816Y-85692651D01*
X132708789Y-85676686D01*
X132858786Y-85567709D01*
X132858788Y-85567706D01*
X132858792Y-85567704D01*
X133009104Y-85417392D01*
X133009106Y-85417388D01*
X133009109Y-85417386D01*
X133134048Y-85245420D01*
X133134047Y-85245420D01*
X133134051Y-85245416D01*
X133230557Y-85056012D01*
X133296246Y-84853843D01*
X133329500Y-84643887D01*
X133329500Y-84431313D01*
X133296246Y-84221357D01*
X133230557Y-84019188D01*
X133134051Y-83829784D01*
X133134049Y-83829781D01*
X133134048Y-83829779D01*
X133009109Y-83657813D01*
X132858786Y-83507490D01*
X132686820Y-83382551D01*
X132686115Y-83382191D01*
X132678054Y-83378085D01*
X132627259Y-83330112D01*
X132610463Y-83262292D01*
X132632999Y-83196156D01*
X132678054Y-83157115D01*
X132686816Y-83152651D01*
X132724876Y-83124999D01*
X132858786Y-83027709D01*
X132858788Y-83027706D01*
X132858792Y-83027704D01*
X133009104Y-82877392D01*
X133009106Y-82877388D01*
X133009109Y-82877386D01*
X133134048Y-82705420D01*
X133134047Y-82705420D01*
X133134051Y-82705416D01*
X133230557Y-82516012D01*
X133296246Y-82313843D01*
X133329500Y-82103887D01*
X133329500Y-81891313D01*
X133296246Y-81681357D01*
X133230557Y-81479188D01*
X133134051Y-81289784D01*
X133134049Y-81289781D01*
X133134048Y-81289779D01*
X133009109Y-81117813D01*
X132895569Y-81004273D01*
X132862084Y-80942950D01*
X132867068Y-80873258D01*
X132908940Y-80817325D01*
X132939915Y-80800410D01*
X133071331Y-80751396D01*
X133186546Y-80665146D01*
X133272796Y-80549931D01*
X133323091Y-80415083D01*
X133329500Y-80355473D01*
X133329499Y-78559728D01*
X133323091Y-78500117D01*
X133272796Y-78365269D01*
X133272795Y-78365268D01*
X133272793Y-78365264D01*
X133186547Y-78250055D01*
X133186544Y-78250052D01*
X133071335Y-78163806D01*
X133071328Y-78163802D01*
X132936482Y-78113508D01*
X132936483Y-78113508D01*
X132876883Y-78107101D01*
X132876881Y-78107100D01*
X132876873Y-78107100D01*
X132876864Y-78107100D01*
X131081129Y-78107100D01*
X131081123Y-78107101D01*
X131021516Y-78113508D01*
X130886671Y-78163802D01*
X130886664Y-78163806D01*
X130771455Y-78250052D01*
X130771452Y-78250055D01*
X130685206Y-78365264D01*
X130685202Y-78365271D01*
X130634908Y-78500117D01*
X130628501Y-78559716D01*
X130628501Y-78559723D01*
X130628500Y-78559735D01*
X128529500Y-78559735D01*
X128529500Y-72582012D01*
X128529501Y-72582009D01*
X128529500Y-72519862D01*
X128529726Y-72512379D01*
X128539900Y-72344155D01*
X128547269Y-72222314D01*
X128549074Y-72207454D01*
X128555915Y-72170125D01*
X128600778Y-71925306D01*
X128604352Y-71910804D01*
X128689693Y-71636929D01*
X128695000Y-71622937D01*
X128812717Y-71361378D01*
X128812722Y-71361366D01*
X128819675Y-71348120D01*
X128968067Y-71102646D01*
X128976572Y-71090326D01*
X129033507Y-71017653D01*
X129153470Y-70864529D01*
X129163385Y-70853337D01*
X129366225Y-70650495D01*
X129377415Y-70640581D01*
X129603225Y-70463670D01*
X129615521Y-70455183D01*
X129861018Y-70306774D01*
X129874246Y-70299832D01*
X130135836Y-70182099D01*
X130149795Y-70176804D01*
X130423681Y-70091459D01*
X130438196Y-70087881D01*
X130720342Y-70036175D01*
X130735199Y-70034371D01*
X131024933Y-70016846D01*
X131032420Y-70016620D01*
X131094892Y-70016620D01*
X172963108Y-70016620D01*
X173025249Y-70016620D01*
X173032736Y-70016846D01*
G37*
%TD.AperFunction*%
%TD*%
M02*
