%TF.GenerationSoftware,KiCad,Pcbnew,9.0.3-9.0.3-0~ubuntu24.04.1*%
%TF.CreationDate,2025-07-14T18:48:31-05:00*%
%TF.ProjectId,ESP32_LogicAnalyzer,45535033-325f-44c6-9f67-6963416e616c,rev?*%
%TF.SameCoordinates,Original*%
%TF.FileFunction,Soldermask,Bot*%
%TF.FilePolarity,Negative*%
%FSLAX46Y46*%
G04 Gerber Fmt 4.6, Leading zero omitted, Abs format (unit mm)*
G04 Created by KiCad (PCBNEW 9.0.3-9.0.3-0~ubuntu24.04.1) date 2025-07-14 18:48:31*
%MOMM*%
%LPD*%
G01*
G04 APERTURE LIST*
%ADD10R,1.700000X1.700000*%
%ADD11C,1.700000*%
G04 APERTURE END LIST*
D10*
%TO.C,J5*%
X164483000Y-82724900D03*
D11*
X167023000Y-82724900D03*
X169563000Y-82724900D03*
%TD*%
%TO.C,J1*%
X131979000Y-115017600D03*
X131979000Y-112477600D03*
X131979000Y-109937600D03*
X131979000Y-107397600D03*
X131979000Y-104857600D03*
X131979000Y-102317600D03*
X131979000Y-99777600D03*
X131979000Y-97237600D03*
X131979000Y-94697600D03*
X131979000Y-92157600D03*
X131979000Y-89617600D03*
X131979000Y-87077600D03*
X131979000Y-84537600D03*
X131979000Y-81997600D03*
D10*
X131979000Y-79457600D03*
%TD*%
%TO.C,J6*%
X165973000Y-90616000D03*
D11*
X168513000Y-90616000D03*
X165973000Y-93156000D03*
X168513000Y-93156000D03*
X165973000Y-95696000D03*
X168513000Y-95696000D03*
X165973000Y-98236000D03*
X168513000Y-98236000D03*
X165973000Y-100776000D03*
X168513000Y-100776000D03*
X165973000Y-103316000D03*
X168513000Y-103316000D03*
X165973000Y-105856000D03*
X168513000Y-105856000D03*
X165973000Y-108396000D03*
X168513000Y-108396000D03*
X165973000Y-110936000D03*
X168513000Y-110936000D03*
X165973000Y-113476000D03*
X168513000Y-113476000D03*
%TD*%
%TO.C,J2*%
X157379000Y-115017600D03*
X157379000Y-112477600D03*
X157379000Y-109937600D03*
X157379000Y-107397600D03*
X157379000Y-104857600D03*
X157379000Y-102317600D03*
X157379000Y-99777600D03*
X157379000Y-97237600D03*
X157379000Y-94697600D03*
X157379000Y-92157600D03*
X157379000Y-89617600D03*
X157379000Y-87077600D03*
X157379000Y-84537600D03*
X157379000Y-81997600D03*
D10*
X157379000Y-79457600D03*
%TD*%
M02*
