%TF.GenerationSoftware,KiCad,Pcbnew,9.0.9-9.0.9~ubuntu24.04.1*%
%TF.CreationDate,2026-07-10T16:52:30-05:00*%
%TF.ProjectId,ESP32_LogicAnalyzer,45535033-325f-44c6-9f67-6963416e616c,rev?*%
%TF.SameCoordinates,Original*%
%TF.FileFunction,Copper,L2,Bot*%
%TF.FilePolarity,Positive*%
%FSLAX46Y46*%
G04 Gerber Fmt 4.6, Leading zero omitted, Abs format (unit mm)*
G04 Created by KiCad (PCBNEW 9.0.9-9.0.9~ubuntu24.04.1) date 2026-07-10 16:52:30*
%MOMM*%
%LPD*%
G01*
G04 APERTURE LIST*
%TA.AperFunction,ComponentPad*%
%ADD10R,1.700000X1.700000*%
%TD*%
%TA.AperFunction,ComponentPad*%
%ADD11C,1.700000*%
%TD*%
%TA.AperFunction,ViaPad*%
%ADD12C,0.600000*%
%TD*%
%TA.AperFunction,Conductor*%
%ADD13C,0.250000*%
%TD*%
G04 APERTURE END LIST*
D10*
%TO.P,J4,1,Pin_1*%
%TO.N,/ESP32_TX2*%
X164693000Y-82064900D03*
D11*
%TO.P,J4,2,Pin_2*%
%TO.N,/ESP32_RX2*%
X167233000Y-82064900D03*
%TO.P,J4,3,Pin_3*%
%TO.N,GND*%
X169773000Y-82064900D03*
%TD*%
D10*
%TO.P,J1,1,Pin_1*%
%TO.N,unconnected-(J1-Pin_1-Pad1)*%
X131979000Y-78977600D03*
D11*
%TO.P,J1,2,Pin_2*%
%TO.N,unconnected-(J1-Pin_2-Pad2)*%
X131979000Y-81517600D03*
%TO.P,J1,3,Pin_3*%
%TO.N,unconnected-(J1-Pin_3-Pad3)*%
X131979000Y-84057600D03*
%TO.P,J1,4,Pin_4*%
%TO.N,/CH15_A*%
X131979000Y-86597600D03*
%TO.P,J1,5,Pin_5*%
%TO.N,/CH14_A*%
X131979000Y-89137600D03*
%TO.P,J1,6,Pin_6*%
%TO.N,/CH13_A*%
X131979000Y-91677600D03*
%TO.P,J1,7,Pin_7*%
%TO.N,/CH12_A*%
X131979000Y-94217600D03*
%TO.P,J1,8,Pin_8*%
%TO.N,/CH11_A*%
X131979000Y-96757600D03*
%TO.P,J1,9,Pin_9*%
%TO.N,/CH10_A*%
X131979000Y-99297600D03*
%TO.P,J1,10,Pin_10*%
%TO.N,/CH9_A*%
X131979000Y-101837600D03*
%TO.P,J1,11,Pin_11*%
%TO.N,/CH8_A*%
X131979000Y-104377600D03*
%TO.P,J1,12,Pin_12*%
%TO.N,/CH7_A*%
X131979000Y-106917600D03*
%TO.P,J1,13,Pin_13*%
%TO.N,/CH6_A*%
X131979000Y-109457600D03*
%TO.P,J1,14,Pin_14*%
%TO.N,GND*%
X131979000Y-111997600D03*
%TO.P,J1,15,Pin_15*%
%TO.N,unconnected-(J1-Pin_15-Pad15)*%
X131979000Y-114537600D03*
%TD*%
D10*
%TO.P,J3,1,Pin_1*%
%TO.N,/CH14_B*%
X166173000Y-89176000D03*
D11*
%TO.P,J3,2,Pin_2*%
%TO.N,/CH15_B*%
X168713000Y-89176000D03*
%TO.P,J3,3,Pin_3*%
%TO.N,/CH12_B*%
X166173000Y-91716000D03*
%TO.P,J3,4,Pin_4*%
%TO.N,/CH13_B*%
X168713000Y-91716000D03*
%TO.P,J3,5,Pin_5*%
%TO.N,/CH10_B*%
X166173000Y-94256000D03*
%TO.P,J3,6,Pin_6*%
%TO.N,/CH11_B*%
X168713000Y-94256000D03*
%TO.P,J3,7,Pin_7*%
%TO.N,/CH8_B*%
X166173000Y-96796000D03*
%TO.P,J3,8,Pin_8*%
%TO.N,/CH9_B*%
X168713000Y-96796000D03*
%TO.P,J3,9,Pin_9*%
%TO.N,/CH6_B*%
X166173000Y-99336000D03*
%TO.P,J3,10,Pin_10*%
%TO.N,/CH7_B*%
X168713000Y-99336000D03*
%TO.P,J3,11,Pin_11*%
%TO.N,/CH4_B*%
X166173000Y-101876000D03*
%TO.P,J3,12,Pin_12*%
%TO.N,/CH5_B*%
X168713000Y-101876000D03*
%TO.P,J3,13,Pin_13*%
%TO.N,/CH2_B*%
X166173000Y-104416000D03*
%TO.P,J3,14,Pin_14*%
%TO.N,/CH3_B*%
X168713000Y-104416000D03*
%TO.P,J3,15,Pin_15*%
%TO.N,/CH0_B*%
X166173000Y-106956000D03*
%TO.P,J3,16,Pin_16*%
%TO.N,/CH1_B*%
X168713000Y-106956000D03*
%TO.P,J3,17,Pin_17*%
%TO.N,GND*%
X166173000Y-109496000D03*
%TO.P,J3,18,Pin_18*%
X168713000Y-109496000D03*
%TO.P,J3,19,Pin_19*%
X166173000Y-112036000D03*
%TO.P,J3,20,Pin_20*%
X168713000Y-112036000D03*
%TD*%
D10*
%TO.P,J2,1,Pin_1*%
%TO.N,Net-(J2-Pin_1)*%
X157379000Y-78977600D03*
D11*
%TO.P,J2,2,Pin_2*%
X157379000Y-81517600D03*
%TO.P,J2,3,Pin_3*%
%TO.N,unconnected-(J2-Pin_3-Pad3)*%
X157379000Y-84057600D03*
%TO.P,J2,4,Pin_4*%
%TO.N,unconnected-(J2-Pin_4-Pad4)*%
X157379000Y-86597600D03*
%TO.P,J2,5,Pin_5*%
%TO.N,/CH0_A*%
X157379000Y-89137600D03*
%TO.P,J2,6,Pin_6*%
%TO.N,/CH1_A*%
X157379000Y-91677600D03*
%TO.P,J2,7,Pin_7*%
%TO.N,/CH2_A*%
X157379000Y-94217600D03*
%TO.P,J2,8,Pin_8*%
%TO.N,/CH3_A*%
X157379000Y-96757600D03*
%TO.P,J2,9,Pin_9*%
%TO.N,/ESP32_TX2*%
X157379000Y-99297600D03*
%TO.P,J2,10,Pin_10*%
%TO.N,/ESP32_RX2*%
X157379000Y-101837600D03*
%TO.P,J2,11,Pin_11*%
%TO.N,/CH4_A*%
X157379000Y-104377600D03*
%TO.P,J2,12,Pin_12*%
%TO.N,unconnected-(J2-Pin_12-Pad12)*%
X157379000Y-106917600D03*
%TO.P,J2,13,Pin_13*%
%TO.N,/CH5_A*%
X157379000Y-109457600D03*
%TO.P,J2,14,Pin_14*%
%TO.N,GND*%
X157379000Y-111997600D03*
%TO.P,J2,15,Pin_15*%
%TO.N,+3.3V*%
X157379000Y-114537600D03*
%TD*%
D12*
%TO.N,+3.3V*%
X138500000Y-83425000D03*
%TO.N,/CH12_B*%
X161800000Y-73075000D03*
%TO.N,/CH10_B*%
X161000000Y-74475000D03*
%TO.N,/CH15_B*%
X172000000Y-71000000D03*
%TO.N,/CH11_B*%
X173600000Y-73800000D03*
%TO.N,/CH13_B*%
X172795000Y-72405000D03*
%TO.N,/CH14_B*%
X162600000Y-71625000D03*
%TO.N,/CH9_B*%
X174400000Y-75200000D03*
%TO.N,/CH8_B*%
X160200000Y-75875000D03*
%TO.N,/CH7_B*%
X174200000Y-120600000D03*
%TO.N,/CH6_B*%
X160200000Y-121325000D03*
%TO.N,/CH2_B*%
X161800000Y-118625000D03*
%TO.N,/CH5_B*%
X173400000Y-116600000D03*
%TO.N,/CH0_B*%
X162675000Y-119975000D03*
%TO.N,/CH1_B*%
X171800000Y-119400000D03*
%TO.N,/CH4_B*%
X161000000Y-117275000D03*
%TO.N,/CH3_B*%
X172600000Y-118000000D03*
%TD*%
D13*
%TO.N,+3.3V*%
X138500000Y-114537600D02*
X157379000Y-114537600D01*
X138500000Y-83425000D02*
X138500000Y-114537600D01*
%TO.N,/CH12_B*%
X161800000Y-73075000D02*
X161675000Y-73075000D01*
X165516000Y-91716000D02*
X166173000Y-91716000D01*
X161800000Y-88000000D02*
X165516000Y-91716000D01*
X161800000Y-73075000D02*
X161800000Y-88000000D01*
X161675000Y-73075000D02*
X161630000Y-73030000D01*
%TO.N,/CH10_B*%
X161000000Y-74475000D02*
X161000000Y-89083000D01*
X161000000Y-89083000D02*
X166173000Y-94256000D01*
%TO.N,/CH15_B*%
X172000000Y-71000000D02*
X172000000Y-85790000D01*
X168713000Y-89077000D02*
X168713000Y-89176000D01*
X172000000Y-85790000D02*
X168713000Y-89077000D01*
%TO.N,/CH11_B*%
X173600000Y-73800000D02*
X173600000Y-89369000D01*
X173600000Y-89369000D02*
X168713000Y-94256000D01*
%TO.N,/CH13_B*%
X172795000Y-72405000D02*
X172795000Y-74805000D01*
X172800000Y-87629000D02*
X168713000Y-91716000D01*
X172800000Y-74810000D02*
X172800000Y-87629000D01*
X172795000Y-74805000D02*
X172800000Y-74810000D01*
%TO.N,/CH14_B*%
X162600000Y-86200000D02*
X165576000Y-89176000D01*
X165576000Y-89176000D02*
X166173000Y-89176000D01*
X162600000Y-71625000D02*
X162600000Y-86200000D01*
%TO.N,/CH9_B*%
X174400000Y-91109000D02*
X168713000Y-96796000D01*
X174400000Y-75200000D02*
X174400000Y-91109000D01*
%TO.N,/CH8_B*%
X160200000Y-75875000D02*
X160200000Y-90800000D01*
X160200000Y-90800000D02*
X166173000Y-96773000D01*
X166173000Y-96773000D02*
X166173000Y-96796000D01*
%TO.N,/CH7_B*%
X174270139Y-104870139D02*
X168736000Y-99336000D01*
X174200000Y-120600000D02*
X174270139Y-120529861D01*
X174270139Y-120529861D02*
X174270139Y-104870139D01*
X168736000Y-99336000D02*
X168713000Y-99336000D01*
%TO.N,/CH6_B*%
X160200000Y-105309000D02*
X166173000Y-99336000D01*
X160200000Y-121325000D02*
X160200000Y-105309000D01*
%TO.N,/CH2_B*%
X161800000Y-108789000D02*
X166173000Y-104416000D01*
X161800000Y-118625000D02*
X161800000Y-108789000D01*
%TO.N,/CH5_B*%
X173400000Y-106563000D02*
X173400000Y-116600000D01*
X168713000Y-101876000D02*
X173400000Y-106563000D01*
%TO.N,/CH0_B*%
X162675000Y-110454000D02*
X166173000Y-106956000D01*
X162675000Y-119975000D02*
X162675000Y-110454000D01*
%TO.N,/CH1_B*%
X171800000Y-110043000D02*
X168713000Y-106956000D01*
X171800000Y-119400000D02*
X171800000Y-110043000D01*
%TO.N,/CH4_B*%
X161000000Y-117275000D02*
X161000000Y-107049000D01*
X161000000Y-107049000D02*
X166173000Y-101876000D01*
%TO.N,/CH3_B*%
X172600000Y-108303000D02*
X168713000Y-104416000D01*
X172600000Y-118000000D02*
X172600000Y-108303000D01*
%TD*%
%TA.AperFunction,Conductor*%
%TO.N,GND*%
G36*
X168247075Y-109688993D02*
G01*
X168312901Y-109803007D01*
X168405993Y-109896099D01*
X168520007Y-109961925D01*
X168583590Y-109978962D01*
X167951282Y-110611269D01*
X167951282Y-110611270D01*
X168005452Y-110650626D01*
X168015048Y-110655516D01*
X168065844Y-110703491D01*
X168082638Y-110771312D01*
X168060100Y-110837447D01*
X168015051Y-110876483D01*
X168005440Y-110881380D01*
X167951282Y-110920727D01*
X167951282Y-110920728D01*
X168583591Y-111553037D01*
X168520007Y-111570075D01*
X168405993Y-111635901D01*
X168312901Y-111728993D01*
X168247075Y-111843007D01*
X168230037Y-111906591D01*
X167597728Y-111274282D01*
X167597727Y-111274282D01*
X167558380Y-111328440D01*
X167553483Y-111338051D01*
X167505506Y-111388845D01*
X167437684Y-111405638D01*
X167371550Y-111383098D01*
X167332516Y-111338048D01*
X167327626Y-111328452D01*
X167288270Y-111274282D01*
X167288269Y-111274282D01*
X166655962Y-111906590D01*
X166638925Y-111843007D01*
X166573099Y-111728993D01*
X166480007Y-111635901D01*
X166365993Y-111570075D01*
X166302409Y-111553037D01*
X166934716Y-110920728D01*
X166880550Y-110881375D01*
X166870954Y-110876486D01*
X166820157Y-110828512D01*
X166803361Y-110760692D01*
X166824288Y-110696895D01*
X166903027Y-110579581D01*
X166302408Y-109978962D01*
X166365993Y-109961925D01*
X166480007Y-109896099D01*
X166573099Y-109803007D01*
X166638925Y-109688993D01*
X166655962Y-109625408D01*
X167288270Y-110257717D01*
X167288270Y-110257716D01*
X167327622Y-110203554D01*
X167332514Y-110193954D01*
X167380488Y-110143157D01*
X167448308Y-110126361D01*
X167514444Y-110148897D01*
X167553486Y-110193954D01*
X167558375Y-110203550D01*
X167597728Y-110257716D01*
X168230036Y-109625407D01*
X168247075Y-109688993D01*
G37*
%TD.AperFunction*%
%TA.AperFunction,Conductor*%
G36*
X173032736Y-70016846D02*
G01*
X173322796Y-70034391D01*
X173337659Y-70036196D01*
X173619797Y-70087900D01*
X173634334Y-70091483D01*
X173908182Y-70176818D01*
X173922163Y-70182120D01*
X174183734Y-70299844D01*
X174196987Y-70306800D01*
X174442458Y-70455191D01*
X174454779Y-70463695D01*
X174454781Y-70463697D01*
X174454783Y-70463698D01*
X174490052Y-70491330D01*
X174501259Y-70501259D01*
X175043860Y-71043860D01*
X175053789Y-71055067D01*
X175081420Y-71090335D01*
X175089927Y-71102659D01*
X175238319Y-71348131D01*
X175245277Y-71361389D01*
X175362994Y-71622943D01*
X175368304Y-71636945D01*
X175453635Y-71910784D01*
X175457219Y-71925322D01*
X175497969Y-72147681D01*
X175500000Y-72170033D01*
X175500000Y-120139475D01*
X175497969Y-120161827D01*
X175457201Y-120384289D01*
X175453617Y-120398828D01*
X175368286Y-120672663D01*
X175362976Y-120686664D01*
X175245255Y-120948227D01*
X175238297Y-120961484D01*
X175089912Y-121206946D01*
X175081406Y-121219270D01*
X174904510Y-121445060D01*
X174894580Y-121456268D01*
X174691768Y-121659080D01*
X174680560Y-121669010D01*
X174454770Y-121845906D01*
X174442446Y-121854412D01*
X174196984Y-122002797D01*
X174183727Y-122009755D01*
X173922164Y-122127476D01*
X173908163Y-122132786D01*
X173634328Y-122218117D01*
X173619788Y-122221701D01*
X173337657Y-122273403D01*
X173322793Y-122275208D01*
X173032736Y-122292754D01*
X173025249Y-122292980D01*
X131032754Y-122292980D01*
X131025266Y-122292754D01*
X130735206Y-122275206D01*
X130720342Y-122273401D01*
X130438207Y-122221698D01*
X130423668Y-122218114D01*
X130149828Y-122132781D01*
X130135827Y-122127471D01*
X129874269Y-122009752D01*
X129861011Y-122002794D01*
X129659949Y-121881248D01*
X129615541Y-121854402D01*
X129603221Y-121845898D01*
X129379905Y-121670940D01*
X129368697Y-121661010D01*
X129161468Y-121453781D01*
X129151538Y-121442573D01*
X129116206Y-121397475D01*
X129002645Y-121252525D01*
X159649500Y-121252525D01*
X159649500Y-121397475D01*
X159665254Y-121456268D01*
X159687017Y-121537488D01*
X159759488Y-121663011D01*
X159759490Y-121663013D01*
X159759491Y-121663015D01*
X159861985Y-121765509D01*
X159861986Y-121765510D01*
X159861988Y-121765511D01*
X159987511Y-121837982D01*
X159987512Y-121837982D01*
X159987515Y-121837984D01*
X160127525Y-121875500D01*
X160127528Y-121875500D01*
X160272472Y-121875500D01*
X160272475Y-121875500D01*
X160412485Y-121837984D01*
X160538015Y-121765509D01*
X160640509Y-121663015D01*
X160712984Y-121537485D01*
X160750500Y-121397475D01*
X160750500Y-121252525D01*
X160712984Y-121112515D01*
X160671412Y-121040511D01*
X160640511Y-120986988D01*
X160640506Y-120986982D01*
X160611819Y-120958295D01*
X160578334Y-120896972D01*
X160575500Y-120870614D01*
X160575500Y-117880351D01*
X160595185Y-117813312D01*
X160647989Y-117767557D01*
X160717147Y-117757613D01*
X160761500Y-117772964D01*
X160787515Y-117787984D01*
X160927525Y-117825500D01*
X160927528Y-117825500D01*
X161072472Y-117825500D01*
X161072475Y-117825500D01*
X161212485Y-117787984D01*
X161238499Y-117772964D01*
X161306398Y-117756491D01*
X161372425Y-117779342D01*
X161415617Y-117834263D01*
X161424500Y-117880351D01*
X161424500Y-118170614D01*
X161404815Y-118237653D01*
X161388181Y-118258295D01*
X161359493Y-118286982D01*
X161359488Y-118286988D01*
X161287017Y-118412511D01*
X161287016Y-118412515D01*
X161249500Y-118552525D01*
X161249500Y-118697475D01*
X161287016Y-118837485D01*
X161287017Y-118837488D01*
X161359488Y-118963011D01*
X161359490Y-118963013D01*
X161359491Y-118963015D01*
X161461985Y-119065509D01*
X161461986Y-119065510D01*
X161461988Y-119065511D01*
X161587511Y-119137982D01*
X161587512Y-119137982D01*
X161587515Y-119137984D01*
X161727525Y-119175500D01*
X161727528Y-119175500D01*
X161872472Y-119175500D01*
X161872475Y-119175500D01*
X162012485Y-119137984D01*
X162012487Y-119137982D01*
X162012489Y-119137982D01*
X162012490Y-119137981D01*
X162113500Y-119079662D01*
X162181399Y-119063189D01*
X162247426Y-119086041D01*
X162290617Y-119140962D01*
X162299500Y-119187049D01*
X162299500Y-119520614D01*
X162279815Y-119587653D01*
X162263181Y-119608295D01*
X162234493Y-119636982D01*
X162234488Y-119636988D01*
X162162017Y-119762511D01*
X162162016Y-119762515D01*
X162124500Y-119902525D01*
X162124500Y-120047475D01*
X162149966Y-120142514D01*
X162162017Y-120187488D01*
X162234488Y-120313011D01*
X162234490Y-120313013D01*
X162234491Y-120313015D01*
X162336985Y-120415509D01*
X162336986Y-120415510D01*
X162336988Y-120415511D01*
X162462511Y-120487982D01*
X162462512Y-120487982D01*
X162462515Y-120487984D01*
X162602525Y-120525500D01*
X162602528Y-120525500D01*
X162747472Y-120525500D01*
X162747475Y-120525500D01*
X162887485Y-120487984D01*
X163013015Y-120415509D01*
X163115509Y-120313015D01*
X163187984Y-120187485D01*
X163225500Y-120047475D01*
X163225500Y-119902525D01*
X163187984Y-119762515D01*
X163167830Y-119727608D01*
X163115511Y-119636988D01*
X163115506Y-119636982D01*
X163086819Y-119608295D01*
X163053334Y-119546972D01*
X163050500Y-119520614D01*
X163050500Y-110660898D01*
X163059144Y-110631457D01*
X163065668Y-110601471D01*
X163069422Y-110596455D01*
X163070185Y-110593859D01*
X163086814Y-110573222D01*
X164672034Y-108988002D01*
X164733354Y-108954519D01*
X164803046Y-108959503D01*
X164858979Y-109001375D01*
X164883396Y-109066839D01*
X164877644Y-109114001D01*
X164856242Y-109179872D01*
X164823000Y-109389753D01*
X164823000Y-109602246D01*
X164856242Y-109812127D01*
X164856242Y-109812130D01*
X164921904Y-110014217D01*
X165018375Y-110203550D01*
X165057728Y-110257716D01*
X165690037Y-109625408D01*
X165707075Y-109688993D01*
X165772901Y-109803007D01*
X165865993Y-109896099D01*
X165980007Y-109961925D01*
X166043590Y-109978962D01*
X165411282Y-110611269D01*
X165411282Y-110611270D01*
X165465452Y-110650626D01*
X165475048Y-110655516D01*
X165525844Y-110703491D01*
X165542638Y-110771312D01*
X165520100Y-110837447D01*
X165475051Y-110876483D01*
X165465440Y-110881380D01*
X165411282Y-110920727D01*
X165411282Y-110920728D01*
X166043591Y-111553037D01*
X165980007Y-111570075D01*
X165865993Y-111635901D01*
X165772901Y-111728993D01*
X165707075Y-111843007D01*
X165690037Y-111906591D01*
X165057728Y-111274282D01*
X165057727Y-111274282D01*
X165018380Y-111328439D01*
X164921904Y-111517782D01*
X164856242Y-111719869D01*
X164856242Y-111719872D01*
X164823000Y-111929753D01*
X164823000Y-112142246D01*
X164856242Y-112352127D01*
X164856242Y-112352130D01*
X164921904Y-112554217D01*
X165018375Y-112743550D01*
X165057728Y-112797716D01*
X165690037Y-112165408D01*
X165707075Y-112228993D01*
X165772901Y-112343007D01*
X165865993Y-112436099D01*
X165980007Y-112501925D01*
X166043590Y-112518962D01*
X165411282Y-113151269D01*
X165411282Y-113151270D01*
X165465449Y-113190624D01*
X165654782Y-113287095D01*
X165856870Y-113352757D01*
X166066754Y-113386000D01*
X166279246Y-113386000D01*
X166489127Y-113352757D01*
X166489130Y-113352757D01*
X166691217Y-113287095D01*
X166880554Y-113190622D01*
X166934716Y-113151270D01*
X166934717Y-113151270D01*
X166302408Y-112518962D01*
X166365993Y-112501925D01*
X166480007Y-112436099D01*
X166573099Y-112343007D01*
X166638925Y-112228993D01*
X166655962Y-112165408D01*
X167288270Y-112797717D01*
X167288270Y-112797716D01*
X167327622Y-112743554D01*
X167332514Y-112733954D01*
X167380488Y-112683157D01*
X167448308Y-112666361D01*
X167514444Y-112688897D01*
X167553486Y-112733954D01*
X167558375Y-112743550D01*
X167597728Y-112797716D01*
X168230036Y-112165407D01*
X168247075Y-112228993D01*
X168312901Y-112343007D01*
X168405993Y-112436099D01*
X168520007Y-112501925D01*
X168583590Y-112518962D01*
X167951282Y-113151269D01*
X167951282Y-113151270D01*
X168005449Y-113190624D01*
X168194782Y-113287095D01*
X168396870Y-113352757D01*
X168606754Y-113386000D01*
X168819246Y-113386000D01*
X169029127Y-113352757D01*
X169029130Y-113352757D01*
X169231217Y-113287095D01*
X169420554Y-113190622D01*
X169474716Y-113151270D01*
X169474717Y-113151270D01*
X168842408Y-112518962D01*
X168905993Y-112501925D01*
X169020007Y-112436099D01*
X169113099Y-112343007D01*
X169178925Y-112228993D01*
X169195962Y-112165408D01*
X169828270Y-112797717D01*
X169828270Y-112797716D01*
X169867622Y-112743554D01*
X169964095Y-112554217D01*
X170029757Y-112352130D01*
X170029757Y-112352127D01*
X170063000Y-112142246D01*
X170063000Y-111929753D01*
X170029757Y-111719872D01*
X170029757Y-111719869D01*
X169964095Y-111517782D01*
X169867624Y-111328449D01*
X169828270Y-111274282D01*
X169828269Y-111274282D01*
X169195962Y-111906590D01*
X169178925Y-111843007D01*
X169113099Y-111728993D01*
X169020007Y-111635901D01*
X168905993Y-111570075D01*
X168842409Y-111553037D01*
X169474716Y-110920728D01*
X169420550Y-110881375D01*
X169410954Y-110876486D01*
X169360157Y-110828512D01*
X169343361Y-110760692D01*
X169365897Y-110694556D01*
X169410954Y-110655514D01*
X169420554Y-110650622D01*
X169474716Y-110611270D01*
X169474717Y-110611270D01*
X168842408Y-109978962D01*
X168905993Y-109961925D01*
X169020007Y-109896099D01*
X169113099Y-109803007D01*
X169178925Y-109688993D01*
X169195962Y-109625408D01*
X169828270Y-110257717D01*
X169828270Y-110257716D01*
X169867622Y-110203554D01*
X169964095Y-110014217D01*
X170029757Y-109812130D01*
X170029757Y-109812127D01*
X170063000Y-109602246D01*
X170063000Y-109389753D01*
X170029757Y-109179872D01*
X170029757Y-109179869D01*
X170008356Y-109114004D01*
X170006361Y-109044163D01*
X170042441Y-108984330D01*
X170105142Y-108953502D01*
X170174556Y-108961467D01*
X170213968Y-108988005D01*
X171388181Y-110162218D01*
X171421666Y-110223541D01*
X171424500Y-110249899D01*
X171424500Y-118945614D01*
X171404815Y-119012653D01*
X171388181Y-119033295D01*
X171359493Y-119061982D01*
X171359488Y-119061988D01*
X171287017Y-119187511D01*
X171287016Y-119187515D01*
X171249500Y-119327525D01*
X171249500Y-119472475D01*
X171283755Y-119600314D01*
X171287017Y-119612488D01*
X171359488Y-119738011D01*
X171359490Y-119738013D01*
X171359491Y-119738015D01*
X171461985Y-119840509D01*
X171461986Y-119840510D01*
X171461988Y-119840511D01*
X171587511Y-119912982D01*
X171587512Y-119912982D01*
X171587515Y-119912984D01*
X171727525Y-119950500D01*
X171727528Y-119950500D01*
X171872472Y-119950500D01*
X171872475Y-119950500D01*
X172012485Y-119912984D01*
X172138015Y-119840509D01*
X172240509Y-119738015D01*
X172312984Y-119612485D01*
X172350500Y-119472475D01*
X172350500Y-119327525D01*
X172312984Y-119187515D01*
X172284385Y-119137981D01*
X172240511Y-119061988D01*
X172240506Y-119061982D01*
X172211819Y-119033295D01*
X172178334Y-118971972D01*
X172175500Y-118945614D01*
X172175500Y-118605351D01*
X172195185Y-118538312D01*
X172247989Y-118492557D01*
X172317147Y-118482613D01*
X172361500Y-118497964D01*
X172387515Y-118512984D01*
X172527525Y-118550500D01*
X172527528Y-118550500D01*
X172672472Y-118550500D01*
X172672475Y-118550500D01*
X172812485Y-118512984D01*
X172938015Y-118440509D01*
X173040509Y-118338015D01*
X173112984Y-118212485D01*
X173150500Y-118072475D01*
X173150500Y-117927525D01*
X173112984Y-117787515D01*
X173108265Y-117779342D01*
X173040511Y-117661988D01*
X173040506Y-117661982D01*
X173011819Y-117633295D01*
X172978334Y-117571972D01*
X172975500Y-117545614D01*
X172975500Y-117205351D01*
X172995185Y-117138312D01*
X173047989Y-117092557D01*
X173117147Y-117082613D01*
X173161500Y-117097964D01*
X173187515Y-117112984D01*
X173327525Y-117150500D01*
X173327528Y-117150500D01*
X173472472Y-117150500D01*
X173472475Y-117150500D01*
X173612485Y-117112984D01*
X173708640Y-117057468D01*
X173776538Y-117040996D01*
X173842565Y-117063848D01*
X173885756Y-117118769D01*
X173894639Y-117164856D01*
X173894639Y-120075475D01*
X173874954Y-120142514D01*
X173858320Y-120163156D01*
X173759493Y-120261982D01*
X173759488Y-120261988D01*
X173687017Y-120387511D01*
X173687016Y-120387515D01*
X173649500Y-120527525D01*
X173649500Y-120672475D01*
X173687016Y-120812485D01*
X173687017Y-120812488D01*
X173759488Y-120938011D01*
X173759490Y-120938013D01*
X173759491Y-120938015D01*
X173861985Y-121040509D01*
X173861986Y-121040510D01*
X173861988Y-121040511D01*
X173987511Y-121112982D01*
X173987512Y-121112982D01*
X173987515Y-121112984D01*
X174127525Y-121150500D01*
X174127528Y-121150500D01*
X174272472Y-121150500D01*
X174272475Y-121150500D01*
X174412485Y-121112984D01*
X174538015Y-121040509D01*
X174640509Y-120938015D01*
X174712984Y-120812485D01*
X174750500Y-120672475D01*
X174750500Y-120527525D01*
X174712984Y-120387515D01*
X174712982Y-120387511D01*
X174662252Y-120299644D01*
X174645639Y-120237644D01*
X174645639Y-104820704D01*
X174644455Y-104816285D01*
X174640103Y-104800045D01*
X174640102Y-104800041D01*
X174624274Y-104740968D01*
X174620049Y-104725203D01*
X174620049Y-104725202D01*
X174620049Y-104725201D01*
X174570614Y-104639577D01*
X174500701Y-104569664D01*
X169775963Y-99844926D01*
X169742478Y-99783603D01*
X169745713Y-99718927D01*
X169786402Y-99593701D01*
X169813500Y-99422611D01*
X169813500Y-99249389D01*
X169786402Y-99078299D01*
X169732873Y-98913555D01*
X169654232Y-98759212D01*
X169552414Y-98619072D01*
X169429928Y-98496586D01*
X169289788Y-98394768D01*
X169135445Y-98316127D01*
X168970701Y-98262598D01*
X168970699Y-98262597D01*
X168970698Y-98262597D01*
X168839271Y-98241781D01*
X168799611Y-98235500D01*
X168626389Y-98235500D01*
X168586728Y-98241781D01*
X168455302Y-98262597D01*
X168290552Y-98316128D01*
X168136211Y-98394768D01*
X168056256Y-98452859D01*
X167996072Y-98496586D01*
X167996070Y-98496588D01*
X167996069Y-98496588D01*
X167873588Y-98619069D01*
X167873588Y-98619070D01*
X167873586Y-98619072D01*
X167829859Y-98679256D01*
X167771768Y-98759211D01*
X167693128Y-98913552D01*
X167639597Y-99078302D01*
X167618582Y-99210989D01*
X167612500Y-99249389D01*
X167612500Y-99422611D01*
X167639598Y-99593701D01*
X167693127Y-99758445D01*
X167771768Y-99912788D01*
X167873586Y-100052928D01*
X167996072Y-100175414D01*
X168136212Y-100277232D01*
X168290555Y-100355873D01*
X168455299Y-100409402D01*
X168626389Y-100436500D01*
X168626390Y-100436500D01*
X168799610Y-100436500D01*
X168799611Y-100436500D01*
X168970701Y-100409402D01*
X169130650Y-100357430D01*
X169200485Y-100355435D01*
X169256644Y-100387681D01*
X173858320Y-104989357D01*
X173891805Y-105050680D01*
X173894639Y-105077038D01*
X173894639Y-106227240D01*
X173874954Y-106294279D01*
X173822150Y-106340034D01*
X173752992Y-106349978D01*
X173689436Y-106320953D01*
X173682958Y-106314921D01*
X169770322Y-102402285D01*
X169736837Y-102340962D01*
X169740071Y-102276289D01*
X169786402Y-102133701D01*
X169813500Y-101962611D01*
X169813500Y-101789389D01*
X169786402Y-101618299D01*
X169732873Y-101453555D01*
X169654232Y-101299212D01*
X169552414Y-101159072D01*
X169429928Y-101036586D01*
X169289788Y-100934768D01*
X169135445Y-100856127D01*
X168970701Y-100802598D01*
X168970699Y-100802597D01*
X168970698Y-100802597D01*
X168839271Y-100781781D01*
X168799611Y-100775500D01*
X168626389Y-100775500D01*
X168586728Y-100781781D01*
X168455302Y-100802597D01*
X168290552Y-100856128D01*
X168136211Y-100934768D01*
X168056256Y-100992859D01*
X167996072Y-101036586D01*
X167996070Y-101036588D01*
X167996069Y-101036588D01*
X167873588Y-101159069D01*
X167873588Y-101159070D01*
X167873586Y-101159072D01*
X167829859Y-101219256D01*
X167771768Y-101299211D01*
X167693128Y-101453552D01*
X167639597Y-101618302D01*
X167618582Y-101750989D01*
X167612500Y-101789389D01*
X167612500Y-101962611D01*
X167639598Y-102133701D01*
X167693127Y-102298445D01*
X167771768Y-102452788D01*
X167873586Y-102592928D01*
X167996072Y-102715414D01*
X168136212Y-102817232D01*
X168290555Y-102895873D01*
X168455299Y-102949402D01*
X168626389Y-102976500D01*
X168626390Y-102976500D01*
X168799610Y-102976500D01*
X168799611Y-102976500D01*
X168970701Y-102949402D01*
X169113289Y-102903071D01*
X169183126Y-102901077D01*
X169239285Y-102933322D01*
X172988181Y-106682218D01*
X173021666Y-106743541D01*
X173024500Y-106769899D01*
X173024500Y-107897101D01*
X173004815Y-107964140D01*
X172952011Y-108009895D01*
X172882853Y-108019839D01*
X172819297Y-107990814D01*
X172812819Y-107984782D01*
X169770322Y-104942285D01*
X169736837Y-104880962D01*
X169740071Y-104816289D01*
X169786402Y-104673701D01*
X169813500Y-104502611D01*
X169813500Y-104329389D01*
X169786402Y-104158299D01*
X169732873Y-103993555D01*
X169654232Y-103839212D01*
X169552414Y-103699072D01*
X169429928Y-103576586D01*
X169289788Y-103474768D01*
X169135445Y-103396127D01*
X168970701Y-103342598D01*
X168970699Y-103342597D01*
X168970698Y-103342597D01*
X168839271Y-103321781D01*
X168799611Y-103315500D01*
X168626389Y-103315500D01*
X168586728Y-103321781D01*
X168455302Y-103342597D01*
X168290552Y-103396128D01*
X168136211Y-103474768D01*
X168056256Y-103532859D01*
X167996072Y-103576586D01*
X167996070Y-103576588D01*
X167996069Y-103576588D01*
X167873588Y-103699069D01*
X167873588Y-103699070D01*
X167873586Y-103699072D01*
X167829859Y-103759256D01*
X167771768Y-103839211D01*
X167693128Y-103993552D01*
X167639597Y-104158302D01*
X167618582Y-104290989D01*
X167612500Y-104329389D01*
X167612500Y-104502611D01*
X167639598Y-104673701D01*
X167693127Y-104838445D01*
X167771768Y-104992788D01*
X167873586Y-105132928D01*
X167996072Y-105255414D01*
X168136212Y-105357232D01*
X168290555Y-105435873D01*
X168455299Y-105489402D01*
X168626389Y-105516500D01*
X168626390Y-105516500D01*
X168799610Y-105516500D01*
X168799611Y-105516500D01*
X168970701Y-105489402D01*
X169113289Y-105443071D01*
X169183126Y-105441077D01*
X169239285Y-105473322D01*
X172188181Y-108422218D01*
X172221666Y-108483541D01*
X172224500Y-108509899D01*
X172224500Y-109637101D01*
X172204815Y-109704140D01*
X172152011Y-109749895D01*
X172082853Y-109759839D01*
X172019297Y-109730814D01*
X172012819Y-109724782D01*
X169770322Y-107482285D01*
X169736837Y-107420962D01*
X169740071Y-107356289D01*
X169786402Y-107213701D01*
X169813500Y-107042611D01*
X169813500Y-106869389D01*
X169786402Y-106698299D01*
X169732873Y-106533555D01*
X169654232Y-106379212D01*
X169552414Y-106239072D01*
X169429928Y-106116586D01*
X169289788Y-106014768D01*
X169135445Y-105936127D01*
X168970701Y-105882598D01*
X168970699Y-105882597D01*
X168970698Y-105882597D01*
X168839271Y-105861781D01*
X168799611Y-105855500D01*
X168626389Y-105855500D01*
X168586728Y-105861781D01*
X168455302Y-105882597D01*
X168290552Y-105936128D01*
X168136211Y-106014768D01*
X168056256Y-106072859D01*
X167996072Y-106116586D01*
X167996070Y-106116588D01*
X167996069Y-106116588D01*
X167873588Y-106239069D01*
X167873588Y-106239070D01*
X167873586Y-106239072D01*
X167833476Y-106294279D01*
X167771768Y-106379211D01*
X167693128Y-106533552D01*
X167639597Y-106698302D01*
X167612500Y-106869389D01*
X167612500Y-107042610D01*
X167638146Y-107204537D01*
X167639598Y-107213701D01*
X167693127Y-107378445D01*
X167771768Y-107532788D01*
X167873586Y-107672928D01*
X167996072Y-107795414D01*
X168136212Y-107897232D01*
X168290555Y-107975873D01*
X168293708Y-107976897D01*
X168294752Y-107977611D01*
X168295048Y-107977734D01*
X168295022Y-107977795D01*
X168351383Y-108016330D01*
X168378585Y-108080688D01*
X168366674Y-108149535D01*
X168319433Y-108201013D01*
X168293712Y-108212760D01*
X168194783Y-108244904D01*
X168005439Y-108341380D01*
X167951282Y-108380727D01*
X167951282Y-108380728D01*
X168583591Y-109013037D01*
X168520007Y-109030075D01*
X168405993Y-109095901D01*
X168312901Y-109188993D01*
X168247075Y-109303007D01*
X168230037Y-109366591D01*
X167597728Y-108734282D01*
X167597727Y-108734282D01*
X167558380Y-108788440D01*
X167553483Y-108798051D01*
X167505506Y-108848845D01*
X167437684Y-108865638D01*
X167371550Y-108843098D01*
X167332516Y-108798048D01*
X167327626Y-108788452D01*
X167288270Y-108734282D01*
X167288269Y-108734282D01*
X166655962Y-109366590D01*
X166638925Y-109303007D01*
X166573099Y-109188993D01*
X166480007Y-109095901D01*
X166365993Y-109030075D01*
X166302408Y-109013037D01*
X166934716Y-108380728D01*
X166880550Y-108341375D01*
X166691217Y-108244904D01*
X166592287Y-108212760D01*
X166534611Y-108173323D01*
X166507413Y-108108964D01*
X166519328Y-108040118D01*
X166566572Y-107988642D01*
X166592290Y-107976897D01*
X166595445Y-107975873D01*
X166749788Y-107897232D01*
X166889928Y-107795414D01*
X167012414Y-107672928D01*
X167114232Y-107532788D01*
X167192873Y-107378445D01*
X167246402Y-107213701D01*
X167273500Y-107042611D01*
X167273500Y-106869389D01*
X167246402Y-106698299D01*
X167192873Y-106533555D01*
X167114232Y-106379212D01*
X167012414Y-106239072D01*
X166889928Y-106116586D01*
X166749788Y-106014768D01*
X166595445Y-105936127D01*
X166430701Y-105882598D01*
X166430699Y-105882597D01*
X166430698Y-105882597D01*
X166299271Y-105861781D01*
X166259611Y-105855500D01*
X166086389Y-105855500D01*
X166046728Y-105861781D01*
X165915302Y-105882597D01*
X165750552Y-105936128D01*
X165596211Y-106014768D01*
X165516256Y-106072859D01*
X165456072Y-106116586D01*
X165456070Y-106116588D01*
X165456069Y-106116588D01*
X165333588Y-106239069D01*
X165333588Y-106239070D01*
X165333586Y-106239072D01*
X165293476Y-106294279D01*
X165231768Y-106379211D01*
X165153128Y-106533552D01*
X165099597Y-106698302D01*
X165072500Y-106869389D01*
X165072500Y-107042610D01*
X165099597Y-107213697D01*
X165145927Y-107356285D01*
X165147922Y-107426126D01*
X165115677Y-107482284D01*
X162444438Y-110153525D01*
X162387181Y-110210782D01*
X162325858Y-110244267D01*
X162256166Y-110239283D01*
X162200233Y-110197411D01*
X162175816Y-110131947D01*
X162175500Y-110123101D01*
X162175500Y-108995898D01*
X162195185Y-108928859D01*
X162211814Y-108908222D01*
X165646715Y-105473320D01*
X165708036Y-105439837D01*
X165772710Y-105443071D01*
X165915299Y-105489402D01*
X166086389Y-105516500D01*
X166086390Y-105516500D01*
X166259610Y-105516500D01*
X166259611Y-105516500D01*
X166430701Y-105489402D01*
X166595445Y-105435873D01*
X166749788Y-105357232D01*
X166889928Y-105255414D01*
X167012414Y-105132928D01*
X167114232Y-104992788D01*
X167192873Y-104838445D01*
X167246402Y-104673701D01*
X167273500Y-104502611D01*
X167273500Y-104329389D01*
X167246402Y-104158299D01*
X167192873Y-103993555D01*
X167114232Y-103839212D01*
X167012414Y-103699072D01*
X166889928Y-103576586D01*
X166749788Y-103474768D01*
X166595445Y-103396127D01*
X166430701Y-103342598D01*
X166430699Y-103342597D01*
X166430698Y-103342597D01*
X166299271Y-103321781D01*
X166259611Y-103315500D01*
X166086389Y-103315500D01*
X166046728Y-103321781D01*
X165915302Y-103342597D01*
X165750552Y-103396128D01*
X165596211Y-103474768D01*
X165516256Y-103532859D01*
X165456072Y-103576586D01*
X165456070Y-103576588D01*
X165456069Y-103576588D01*
X165333588Y-103699069D01*
X165333588Y-103699070D01*
X165333586Y-103699072D01*
X165289859Y-103759256D01*
X165231768Y-103839211D01*
X165153128Y-103993552D01*
X165099597Y-104158302D01*
X165078582Y-104290989D01*
X165072500Y-104329389D01*
X165072500Y-104502611D01*
X165099598Y-104673701D01*
X165140651Y-104800047D01*
X165145927Y-104816285D01*
X165147922Y-104886126D01*
X165115677Y-104942284D01*
X161587181Y-108470781D01*
X161525858Y-108504266D01*
X161456166Y-108499282D01*
X161400233Y-108457410D01*
X161375816Y-108391946D01*
X161375500Y-108383100D01*
X161375500Y-107255899D01*
X161395185Y-107188860D01*
X161411819Y-107168218D01*
X163502999Y-105077038D01*
X165646716Y-102933320D01*
X165708037Y-102899837D01*
X165772710Y-102903071D01*
X165915299Y-102949402D01*
X166086389Y-102976500D01*
X166086390Y-102976500D01*
X166259610Y-102976500D01*
X166259611Y-102976500D01*
X166430701Y-102949402D01*
X166595445Y-102895873D01*
X166749788Y-102817232D01*
X166889928Y-102715414D01*
X167012414Y-102592928D01*
X167114232Y-102452788D01*
X167192873Y-102298445D01*
X167246402Y-102133701D01*
X167273500Y-101962611D01*
X167273500Y-101789389D01*
X167246402Y-101618299D01*
X167192873Y-101453555D01*
X167114232Y-101299212D01*
X167012414Y-101159072D01*
X166889928Y-101036586D01*
X166749788Y-100934768D01*
X166595445Y-100856127D01*
X166430701Y-100802598D01*
X166430699Y-100802597D01*
X166430698Y-100802597D01*
X166299271Y-100781781D01*
X166259611Y-100775500D01*
X166086389Y-100775500D01*
X166046728Y-100781781D01*
X165915302Y-100802597D01*
X165750552Y-100856128D01*
X165596211Y-100934768D01*
X165516256Y-100992859D01*
X165456072Y-101036586D01*
X165456070Y-101036588D01*
X165456069Y-101036588D01*
X165333588Y-101159069D01*
X165333588Y-101159070D01*
X165333586Y-101159072D01*
X165289859Y-101219256D01*
X165231768Y-101299211D01*
X165153128Y-101453552D01*
X165099597Y-101618302D01*
X165078582Y-101750989D01*
X165072500Y-101789389D01*
X165072500Y-101962611D01*
X165099598Y-102133701D01*
X165145927Y-102276285D01*
X165147922Y-102346125D01*
X165115677Y-102402283D01*
X160787181Y-106730781D01*
X160725858Y-106764266D01*
X160656166Y-106759282D01*
X160600233Y-106717410D01*
X160575816Y-106651946D01*
X160575500Y-106643100D01*
X160575500Y-105515898D01*
X160595185Y-105448859D01*
X160611814Y-105428222D01*
X165646715Y-100393320D01*
X165708036Y-100359837D01*
X165772710Y-100363071D01*
X165915299Y-100409402D01*
X166086389Y-100436500D01*
X166086390Y-100436500D01*
X166259610Y-100436500D01*
X166259611Y-100436500D01*
X166430701Y-100409402D01*
X166595445Y-100355873D01*
X166749788Y-100277232D01*
X166889928Y-100175414D01*
X167012414Y-100052928D01*
X167114232Y-99912788D01*
X167192873Y-99758445D01*
X167246402Y-99593701D01*
X167273500Y-99422611D01*
X167273500Y-99249389D01*
X167246402Y-99078299D01*
X167192873Y-98913555D01*
X167114232Y-98759212D01*
X167012414Y-98619072D01*
X166889928Y-98496586D01*
X166749788Y-98394768D01*
X166595445Y-98316127D01*
X166430701Y-98262598D01*
X166430699Y-98262597D01*
X166430698Y-98262597D01*
X166299271Y-98241781D01*
X166259611Y-98235500D01*
X166086389Y-98235500D01*
X166046728Y-98241781D01*
X165915302Y-98262597D01*
X165750552Y-98316128D01*
X165596211Y-98394768D01*
X165516256Y-98452859D01*
X165456072Y-98496586D01*
X165456070Y-98496588D01*
X165456069Y-98496588D01*
X165333588Y-98619069D01*
X165333588Y-98619070D01*
X165333586Y-98619072D01*
X165289859Y-98679256D01*
X165231768Y-98759211D01*
X165153128Y-98913552D01*
X165099597Y-99078302D01*
X165072500Y-99249389D01*
X165072500Y-99422610D01*
X165099597Y-99593697D01*
X165145927Y-99736285D01*
X165147922Y-99806126D01*
X165115677Y-99862284D01*
X159969438Y-105008525D01*
X159899527Y-105078435D01*
X159899525Y-105078437D01*
X159899525Y-105078438D01*
X159890235Y-105094529D01*
X159850091Y-105164060D01*
X159850090Y-105164062D01*
X159835903Y-105217011D01*
X159835902Y-105217014D01*
X159824500Y-105259562D01*
X159824500Y-120870614D01*
X159804815Y-120937653D01*
X159788181Y-120958295D01*
X159759493Y-120986982D01*
X159759488Y-120986988D01*
X159687017Y-121112511D01*
X159687016Y-121112515D01*
X159649500Y-121252525D01*
X129002645Y-121252525D01*
X128976577Y-121219252D01*
X128968079Y-121206941D01*
X128819681Y-120961460D01*
X128812731Y-120948218D01*
X128695005Y-120686645D01*
X128689700Y-120672658D01*
X128604363Y-120398804D01*
X128600781Y-120384272D01*
X128586757Y-120307747D01*
X128549077Y-120102135D01*
X128547273Y-120087273D01*
X128544865Y-120047475D01*
X128529726Y-119797213D01*
X128529500Y-119789725D01*
X128529500Y-111891353D01*
X130629000Y-111891353D01*
X130629000Y-112103846D01*
X130662242Y-112313727D01*
X130662242Y-112313730D01*
X130727904Y-112515817D01*
X130824375Y-112705150D01*
X130863728Y-112759316D01*
X131496037Y-112127008D01*
X131513075Y-112190593D01*
X131578901Y-112304607D01*
X131671993Y-112397699D01*
X131786007Y-112463525D01*
X131849590Y-112480562D01*
X131217282Y-113112869D01*
X131217282Y-113112870D01*
X131271449Y-113152224D01*
X131460784Y-113248696D01*
X131559711Y-113280839D01*
X131617387Y-113320276D01*
X131644586Y-113384634D01*
X131632672Y-113453481D01*
X131585428Y-113504957D01*
X131559722Y-113516697D01*
X131558522Y-113517087D01*
X131556550Y-113517728D01*
X131402211Y-113596368D01*
X131322256Y-113654459D01*
X131262072Y-113698186D01*
X131262070Y-113698188D01*
X131262069Y-113698188D01*
X131139588Y-113820669D01*
X131139588Y-113820670D01*
X131139586Y-113820672D01*
X131095859Y-113880856D01*
X131037768Y-113960811D01*
X130959128Y-114115152D01*
X130905597Y-114279902D01*
X130878500Y-114450989D01*
X130878500Y-114624210D01*
X130901299Y-114768163D01*
X130905598Y-114795301D01*
X130959127Y-114960045D01*
X131037768Y-115114388D01*
X131139586Y-115254528D01*
X131262072Y-115377014D01*
X131402212Y-115478832D01*
X131556555Y-115557473D01*
X131721299Y-115611002D01*
X131892389Y-115638100D01*
X131892390Y-115638100D01*
X132065610Y-115638100D01*
X132065611Y-115638100D01*
X132236701Y-115611002D01*
X132401445Y-115557473D01*
X132555788Y-115478832D01*
X132695928Y-115377014D01*
X132818414Y-115254528D01*
X132920232Y-115114388D01*
X132998873Y-114960045D01*
X133052402Y-114795301D01*
X133079500Y-114624211D01*
X133079500Y-114450989D01*
X133052402Y-114279899D01*
X132998873Y-114115155D01*
X132920232Y-113960812D01*
X132818414Y-113820672D01*
X132695928Y-113698186D01*
X132555788Y-113596368D01*
X132401446Y-113517727D01*
X132398284Y-113516700D01*
X132397236Y-113515983D01*
X132396952Y-113515866D01*
X132396976Y-113515806D01*
X132340609Y-113477261D01*
X132313413Y-113412902D01*
X132325329Y-113344056D01*
X132372574Y-113292581D01*
X132398288Y-113280839D01*
X132497215Y-113248696D01*
X132686554Y-113152222D01*
X132740716Y-113112870D01*
X132740717Y-113112870D01*
X132108408Y-112480562D01*
X132171993Y-112463525D01*
X132286007Y-112397699D01*
X132379099Y-112304607D01*
X132444925Y-112190593D01*
X132461962Y-112127008D01*
X133094270Y-112759317D01*
X133094270Y-112759316D01*
X133133622Y-112705154D01*
X133230095Y-112515817D01*
X133295757Y-112313730D01*
X133295757Y-112313727D01*
X133329000Y-112103846D01*
X133329000Y-111891353D01*
X133295757Y-111681472D01*
X133295757Y-111681469D01*
X133230095Y-111479382D01*
X133133624Y-111290049D01*
X133094270Y-111235882D01*
X133094269Y-111235882D01*
X132461962Y-111868190D01*
X132444925Y-111804607D01*
X132379099Y-111690593D01*
X132286007Y-111597501D01*
X132171993Y-111531675D01*
X132108409Y-111514637D01*
X132740716Y-110882328D01*
X132686550Y-110842975D01*
X132497217Y-110746504D01*
X132398287Y-110714360D01*
X132340611Y-110674923D01*
X132313413Y-110610564D01*
X132325328Y-110541718D01*
X132372572Y-110490242D01*
X132398290Y-110478497D01*
X132401445Y-110477473D01*
X132555788Y-110398832D01*
X132695928Y-110297014D01*
X132818414Y-110174528D01*
X132920232Y-110034388D01*
X132998873Y-109880045D01*
X133052402Y-109715301D01*
X133079500Y-109544211D01*
X133079500Y-109370989D01*
X133052402Y-109199899D01*
X132998873Y-109035155D01*
X132920232Y-108880812D01*
X132818414Y-108740672D01*
X132695928Y-108618186D01*
X132555788Y-108516368D01*
X132401445Y-108437727D01*
X132236701Y-108384198D01*
X132236699Y-108384197D01*
X132236698Y-108384197D01*
X132105271Y-108363381D01*
X132065611Y-108357100D01*
X131892389Y-108357100D01*
X131852728Y-108363381D01*
X131721302Y-108384197D01*
X131556552Y-108437728D01*
X131402211Y-108516368D01*
X131344308Y-108558438D01*
X131262072Y-108618186D01*
X131262070Y-108618188D01*
X131262069Y-108618188D01*
X131139588Y-108740669D01*
X131139588Y-108740670D01*
X131139586Y-108740672D01*
X131104872Y-108788452D01*
X131037768Y-108880811D01*
X130959128Y-109035152D01*
X130905597Y-109199902D01*
X130889267Y-109303007D01*
X130878500Y-109370989D01*
X130878500Y-109544211D01*
X130905598Y-109715301D01*
X130959127Y-109880045D01*
X131037768Y-110034388D01*
X131139586Y-110174528D01*
X131262072Y-110297014D01*
X131402212Y-110398832D01*
X131556555Y-110477473D01*
X131559708Y-110478497D01*
X131560752Y-110479211D01*
X131561048Y-110479334D01*
X131561022Y-110479395D01*
X131617383Y-110517930D01*
X131644585Y-110582288D01*
X131632674Y-110651135D01*
X131585433Y-110702613D01*
X131559712Y-110714360D01*
X131460783Y-110746504D01*
X131271439Y-110842980D01*
X131217282Y-110882327D01*
X131217282Y-110882328D01*
X131849591Y-111514637D01*
X131786007Y-111531675D01*
X131671993Y-111597501D01*
X131578901Y-111690593D01*
X131513075Y-111804607D01*
X131496037Y-111868191D01*
X130863728Y-111235882D01*
X130863727Y-111235882D01*
X130824380Y-111290039D01*
X130727904Y-111479382D01*
X130662242Y-111681469D01*
X130662242Y-111681472D01*
X130629000Y-111891353D01*
X128529500Y-111891353D01*
X128529500Y-106830989D01*
X130878500Y-106830989D01*
X130878500Y-107004211D01*
X130905598Y-107175301D01*
X130959127Y-107340045D01*
X131037768Y-107494388D01*
X131139586Y-107634528D01*
X131262072Y-107757014D01*
X131402212Y-107858832D01*
X131556555Y-107937473D01*
X131721299Y-107991002D01*
X131892389Y-108018100D01*
X131892390Y-108018100D01*
X132065610Y-108018100D01*
X132065611Y-108018100D01*
X132236701Y-107991002D01*
X132401445Y-107937473D01*
X132555788Y-107858832D01*
X132695928Y-107757014D01*
X132818414Y-107634528D01*
X132920232Y-107494388D01*
X132998873Y-107340045D01*
X133052402Y-107175301D01*
X133079500Y-107004211D01*
X133079500Y-106830989D01*
X133052402Y-106659899D01*
X132998873Y-106495155D01*
X132920232Y-106340812D01*
X132818414Y-106200672D01*
X132695928Y-106078186D01*
X132555788Y-105976368D01*
X132401445Y-105897727D01*
X132236701Y-105844198D01*
X132236699Y-105844197D01*
X132236698Y-105844197D01*
X132105271Y-105823381D01*
X132065611Y-105817100D01*
X131892389Y-105817100D01*
X131852728Y-105823381D01*
X131721302Y-105844197D01*
X131556552Y-105897728D01*
X131402211Y-105976368D01*
X131349359Y-106014768D01*
X131262072Y-106078186D01*
X131262070Y-106078188D01*
X131262069Y-106078188D01*
X131139588Y-106200669D01*
X131139588Y-106200670D01*
X131139586Y-106200672D01*
X131120283Y-106227240D01*
X131037768Y-106340811D01*
X130959128Y-106495152D01*
X130905597Y-106659902D01*
X130894371Y-106730781D01*
X130878500Y-106830989D01*
X128529500Y-106830989D01*
X128529500Y-104290989D01*
X130878500Y-104290989D01*
X130878500Y-104464211D01*
X130905598Y-104635301D01*
X130959127Y-104800045D01*
X131037768Y-104954388D01*
X131139586Y-105094528D01*
X131262072Y-105217014D01*
X131402212Y-105318832D01*
X131556555Y-105397473D01*
X131721299Y-105451002D01*
X131892389Y-105478100D01*
X131892390Y-105478100D01*
X132065610Y-105478100D01*
X132065611Y-105478100D01*
X132236701Y-105451002D01*
X132401445Y-105397473D01*
X132555788Y-105318832D01*
X132695928Y-105217014D01*
X132818414Y-105094528D01*
X132920232Y-104954388D01*
X132998873Y-104800045D01*
X133052402Y-104635301D01*
X133079500Y-104464211D01*
X133079500Y-104290989D01*
X133052402Y-104119899D01*
X132998873Y-103955155D01*
X132920232Y-103800812D01*
X132818414Y-103660672D01*
X132695928Y-103538186D01*
X132555788Y-103436368D01*
X132401445Y-103357727D01*
X132236701Y-103304198D01*
X132236699Y-103304197D01*
X132236698Y-103304197D01*
X132105271Y-103283381D01*
X132065611Y-103277100D01*
X131892389Y-103277100D01*
X131852728Y-103283381D01*
X131721302Y-103304197D01*
X131556552Y-103357728D01*
X131402211Y-103436368D01*
X131349359Y-103474768D01*
X131262072Y-103538186D01*
X131262070Y-103538188D01*
X131262069Y-103538188D01*
X131139588Y-103660669D01*
X131139588Y-103660670D01*
X131139586Y-103660672D01*
X131111689Y-103699069D01*
X131037768Y-103800811D01*
X130959128Y-103955152D01*
X130905597Y-104119902D01*
X130878500Y-104290989D01*
X128529500Y-104290989D01*
X128529500Y-101750989D01*
X130878500Y-101750989D01*
X130878500Y-101924211D01*
X130905598Y-102095301D01*
X130959127Y-102260045D01*
X131037768Y-102414388D01*
X131139586Y-102554528D01*
X131262072Y-102677014D01*
X131402212Y-102778832D01*
X131556555Y-102857473D01*
X131721299Y-102911002D01*
X131892389Y-102938100D01*
X131892390Y-102938100D01*
X132065610Y-102938100D01*
X132065611Y-102938100D01*
X132236701Y-102911002D01*
X132401445Y-102857473D01*
X132555788Y-102778832D01*
X132695928Y-102677014D01*
X132818414Y-102554528D01*
X132920232Y-102414388D01*
X132998873Y-102260045D01*
X133052402Y-102095301D01*
X133079500Y-101924211D01*
X133079500Y-101750989D01*
X133052402Y-101579899D01*
X132998873Y-101415155D01*
X132920232Y-101260812D01*
X132818414Y-101120672D01*
X132695928Y-100998186D01*
X132555788Y-100896368D01*
X132401445Y-100817727D01*
X132236701Y-100764198D01*
X132236699Y-100764197D01*
X132236698Y-100764197D01*
X132105271Y-100743381D01*
X132065611Y-100737100D01*
X131892389Y-100737100D01*
X131852728Y-100743381D01*
X131721302Y-100764197D01*
X131556552Y-100817728D01*
X131402211Y-100896368D01*
X131349359Y-100934768D01*
X131262072Y-100998186D01*
X131262070Y-100998188D01*
X131262069Y-100998188D01*
X131139588Y-101120669D01*
X131139588Y-101120670D01*
X131139586Y-101120672D01*
X131111689Y-101159069D01*
X131037768Y-101260811D01*
X130959128Y-101415152D01*
X130905597Y-101579902D01*
X130878500Y-101750989D01*
X128529500Y-101750989D01*
X128529500Y-99210989D01*
X130878500Y-99210989D01*
X130878500Y-99384211D01*
X130905598Y-99555301D01*
X130959127Y-99720045D01*
X131037768Y-99874388D01*
X131139586Y-100014528D01*
X131262072Y-100137014D01*
X131402212Y-100238832D01*
X131556555Y-100317473D01*
X131721299Y-100371002D01*
X131892389Y-100398100D01*
X131892390Y-100398100D01*
X132065610Y-100398100D01*
X132065611Y-100398100D01*
X132236701Y-100371002D01*
X132401445Y-100317473D01*
X132555788Y-100238832D01*
X132695928Y-100137014D01*
X132818414Y-100014528D01*
X132920232Y-99874388D01*
X132998873Y-99720045D01*
X133052402Y-99555301D01*
X133079500Y-99384211D01*
X133079500Y-99210989D01*
X133052402Y-99039899D01*
X132998873Y-98875155D01*
X132920232Y-98720812D01*
X132818414Y-98580672D01*
X132695928Y-98458186D01*
X132555788Y-98356368D01*
X132401445Y-98277727D01*
X132236701Y-98224198D01*
X132236699Y-98224197D01*
X132236698Y-98224197D01*
X132105271Y-98203381D01*
X132065611Y-98197100D01*
X131892389Y-98197100D01*
X131852728Y-98203381D01*
X131721302Y-98224197D01*
X131556552Y-98277728D01*
X131402211Y-98356368D01*
X131349359Y-98394768D01*
X131262072Y-98458186D01*
X131262070Y-98458188D01*
X131262069Y-98458188D01*
X131139588Y-98580669D01*
X131139588Y-98580670D01*
X131139586Y-98580672D01*
X131111689Y-98619069D01*
X131037768Y-98720811D01*
X130959128Y-98875152D01*
X130905597Y-99039902D01*
X130878500Y-99210989D01*
X128529500Y-99210989D01*
X128529500Y-96670989D01*
X130878500Y-96670989D01*
X130878500Y-96844211D01*
X130905598Y-97015301D01*
X130959127Y-97180045D01*
X131037768Y-97334388D01*
X131139586Y-97474528D01*
X131262072Y-97597014D01*
X131402212Y-97698832D01*
X131556555Y-97777473D01*
X131721299Y-97831002D01*
X131892389Y-97858100D01*
X131892390Y-97858100D01*
X132065610Y-97858100D01*
X132065611Y-97858100D01*
X132236701Y-97831002D01*
X132401445Y-97777473D01*
X132555788Y-97698832D01*
X132695928Y-97597014D01*
X132818414Y-97474528D01*
X132920232Y-97334388D01*
X132998873Y-97180045D01*
X133052402Y-97015301D01*
X133079500Y-96844211D01*
X133079500Y-96670989D01*
X133052402Y-96499899D01*
X132998873Y-96335155D01*
X132920232Y-96180812D01*
X132818414Y-96040672D01*
X132695928Y-95918186D01*
X132555788Y-95816368D01*
X132451610Y-95763287D01*
X132401447Y-95737728D01*
X132401446Y-95737727D01*
X132401445Y-95737727D01*
X132236701Y-95684198D01*
X132236699Y-95684197D01*
X132236698Y-95684197D01*
X132105271Y-95663381D01*
X132065611Y-95657100D01*
X131892389Y-95657100D01*
X131852728Y-95663381D01*
X131721302Y-95684197D01*
X131556552Y-95737728D01*
X131402211Y-95816368D01*
X131349359Y-95854768D01*
X131262072Y-95918186D01*
X131262070Y-95918188D01*
X131262069Y-95918188D01*
X131139588Y-96040669D01*
X131139588Y-96040670D01*
X131139586Y-96040672D01*
X131111689Y-96079069D01*
X131037768Y-96180811D01*
X130959128Y-96335152D01*
X130905597Y-96499902D01*
X130878500Y-96670989D01*
X128529500Y-96670989D01*
X128529500Y-94130989D01*
X130878500Y-94130989D01*
X130878500Y-94304211D01*
X130905598Y-94475301D01*
X130959127Y-94640045D01*
X131037768Y-94794388D01*
X131139586Y-94934528D01*
X131262072Y-95057014D01*
X131402212Y-95158832D01*
X131556555Y-95237473D01*
X131721299Y-95291002D01*
X131892389Y-95318100D01*
X131892390Y-95318100D01*
X132065610Y-95318100D01*
X132065611Y-95318100D01*
X132236701Y-95291002D01*
X132401445Y-95237473D01*
X132555788Y-95158832D01*
X132695928Y-95057014D01*
X132818414Y-94934528D01*
X132920232Y-94794388D01*
X132998873Y-94640045D01*
X133052402Y-94475301D01*
X133079500Y-94304211D01*
X133079500Y-94130989D01*
X133052402Y-93959899D01*
X132998873Y-93795155D01*
X132920232Y-93640812D01*
X132818414Y-93500672D01*
X132695928Y-93378186D01*
X132555788Y-93276368D01*
X132462679Y-93228927D01*
X132401447Y-93197728D01*
X132401446Y-93197727D01*
X132401445Y-93197727D01*
X132236701Y-93144198D01*
X132236699Y-93144197D01*
X132236698Y-93144197D01*
X132105271Y-93123381D01*
X132065611Y-93117100D01*
X131892389Y-93117100D01*
X131852728Y-93123381D01*
X131721302Y-93144197D01*
X131556552Y-93197728D01*
X131402211Y-93276368D01*
X131349359Y-93314768D01*
X131262072Y-93378186D01*
X131262070Y-93378188D01*
X131262069Y-93378188D01*
X131139588Y-93500669D01*
X131139588Y-93500670D01*
X131139586Y-93500672D01*
X131111689Y-93539069D01*
X131037768Y-93640811D01*
X130959128Y-93795152D01*
X130905597Y-93959902D01*
X130878500Y-94130989D01*
X128529500Y-94130989D01*
X128529500Y-91590989D01*
X130878500Y-91590989D01*
X130878500Y-91764211D01*
X130905598Y-91935301D01*
X130959127Y-92100045D01*
X131037768Y-92254388D01*
X131139586Y-92394528D01*
X131262072Y-92517014D01*
X131402212Y-92618832D01*
X131556555Y-92697473D01*
X131721299Y-92751002D01*
X131892389Y-92778100D01*
X131892390Y-92778100D01*
X132065610Y-92778100D01*
X132065611Y-92778100D01*
X132236701Y-92751002D01*
X132401445Y-92697473D01*
X132555788Y-92618832D01*
X132695928Y-92517014D01*
X132818414Y-92394528D01*
X132920232Y-92254388D01*
X132998873Y-92100045D01*
X133052402Y-91935301D01*
X133079500Y-91764211D01*
X133079500Y-91590989D01*
X133052402Y-91419899D01*
X132998873Y-91255155D01*
X132920232Y-91100812D01*
X132818414Y-90960672D01*
X132695928Y-90838186D01*
X132555788Y-90736368D01*
X132446693Y-90680782D01*
X132401447Y-90657728D01*
X132401446Y-90657727D01*
X132401445Y-90657727D01*
X132236701Y-90604198D01*
X132236699Y-90604197D01*
X132236698Y-90604197D01*
X132105271Y-90583381D01*
X132065611Y-90577100D01*
X131892389Y-90577100D01*
X131852728Y-90583381D01*
X131721302Y-90604197D01*
X131556552Y-90657728D01*
X131402211Y-90736368D01*
X131349359Y-90774768D01*
X131262072Y-90838186D01*
X131262070Y-90838188D01*
X131262069Y-90838188D01*
X131139588Y-90960669D01*
X131139588Y-90960670D01*
X131139586Y-90960672D01*
X131118437Y-90989781D01*
X131037768Y-91100811D01*
X130959128Y-91255152D01*
X130905597Y-91419902D01*
X130878500Y-91590989D01*
X128529500Y-91590989D01*
X128529500Y-89050989D01*
X130878500Y-89050989D01*
X130878500Y-89224210D01*
X130905579Y-89395186D01*
X130905598Y-89395301D01*
X130959127Y-89560045D01*
X131037768Y-89714388D01*
X131139586Y-89854528D01*
X131262072Y-89977014D01*
X131402212Y-90078832D01*
X131556555Y-90157473D01*
X131721299Y-90211002D01*
X131892389Y-90238100D01*
X131892390Y-90238100D01*
X132065610Y-90238100D01*
X132065611Y-90238100D01*
X132236701Y-90211002D01*
X132401445Y-90157473D01*
X132555788Y-90078832D01*
X132695928Y-89977014D01*
X132818414Y-89854528D01*
X132920232Y-89714388D01*
X132998873Y-89560045D01*
X133052402Y-89395301D01*
X133079500Y-89224211D01*
X133079500Y-89050989D01*
X133052402Y-88879899D01*
X132998873Y-88715155D01*
X132920232Y-88560812D01*
X132818414Y-88420672D01*
X132695928Y-88298186D01*
X132555788Y-88196368D01*
X132401445Y-88117727D01*
X132236701Y-88064198D01*
X132236699Y-88064197D01*
X132236698Y-88064197D01*
X132105271Y-88043381D01*
X132065611Y-88037100D01*
X131892389Y-88037100D01*
X131852728Y-88043381D01*
X131721302Y-88064197D01*
X131556552Y-88117728D01*
X131402211Y-88196368D01*
X131349359Y-88234768D01*
X131262072Y-88298186D01*
X131262070Y-88298188D01*
X131262069Y-88298188D01*
X131139588Y-88420669D01*
X131139588Y-88420670D01*
X131139586Y-88420672D01*
X131111689Y-88459069D01*
X131037768Y-88560811D01*
X130959128Y-88715152D01*
X130905597Y-88879902D01*
X130878500Y-89050989D01*
X128529500Y-89050989D01*
X128529500Y-86510989D01*
X130878500Y-86510989D01*
X130878500Y-86684211D01*
X130905598Y-86855301D01*
X130959127Y-87020045D01*
X131037768Y-87174388D01*
X131139586Y-87314528D01*
X131262072Y-87437014D01*
X131402212Y-87538832D01*
X131556555Y-87617473D01*
X131721299Y-87671002D01*
X131892389Y-87698100D01*
X131892390Y-87698100D01*
X132065610Y-87698100D01*
X132065611Y-87698100D01*
X132236701Y-87671002D01*
X132401445Y-87617473D01*
X132555788Y-87538832D01*
X132695928Y-87437014D01*
X132818414Y-87314528D01*
X132920232Y-87174388D01*
X132998873Y-87020045D01*
X133052402Y-86855301D01*
X133079500Y-86684211D01*
X133079500Y-86510989D01*
X133052402Y-86339899D01*
X132998873Y-86175155D01*
X132920232Y-86020812D01*
X132818414Y-85880672D01*
X132695928Y-85758186D01*
X132555788Y-85656368D01*
X132401445Y-85577727D01*
X132236701Y-85524198D01*
X132236699Y-85524197D01*
X132236698Y-85524197D01*
X132105271Y-85503381D01*
X132065611Y-85497100D01*
X131892389Y-85497100D01*
X131852728Y-85503381D01*
X131721302Y-85524197D01*
X131556552Y-85577728D01*
X131402211Y-85656368D01*
X131382374Y-85670781D01*
X131262072Y-85758186D01*
X131262070Y-85758188D01*
X131262069Y-85758188D01*
X131139588Y-85880669D01*
X131139588Y-85880670D01*
X131139586Y-85880672D01*
X131100159Y-85934938D01*
X131037768Y-86020811D01*
X130959128Y-86175152D01*
X130905597Y-86339902D01*
X130878500Y-86510989D01*
X128529500Y-86510989D01*
X128529500Y-83970989D01*
X130878500Y-83970989D01*
X130878500Y-84144211D01*
X130905598Y-84315301D01*
X130959127Y-84480045D01*
X131037768Y-84634388D01*
X131139586Y-84774528D01*
X131262072Y-84897014D01*
X131402212Y-84998832D01*
X131556555Y-85077473D01*
X131721299Y-85131002D01*
X131892389Y-85158100D01*
X131892390Y-85158100D01*
X132065610Y-85158100D01*
X132065611Y-85158100D01*
X132236701Y-85131002D01*
X132401445Y-85077473D01*
X132555788Y-84998832D01*
X132695928Y-84897014D01*
X132818414Y-84774528D01*
X132920232Y-84634388D01*
X132998873Y-84480045D01*
X133052402Y-84315301D01*
X133079500Y-84144211D01*
X133079500Y-83970989D01*
X133052402Y-83799899D01*
X132998873Y-83635155D01*
X132920232Y-83480812D01*
X132827026Y-83352525D01*
X137949500Y-83352525D01*
X137949500Y-83497475D01*
X137986391Y-83635152D01*
X137987017Y-83637488D01*
X138059488Y-83763011D01*
X138059493Y-83763017D01*
X138088181Y-83791705D01*
X138121666Y-83853028D01*
X138124500Y-83879386D01*
X138124500Y-114587035D01*
X138150090Y-114682538D01*
X138199525Y-114768162D01*
X138269438Y-114838075D01*
X138355062Y-114887510D01*
X138450565Y-114913100D01*
X138549435Y-114913100D01*
X156259220Y-114913100D01*
X156326259Y-114932785D01*
X156369705Y-114980806D01*
X156437766Y-115114386D01*
X156468357Y-115156490D01*
X156539586Y-115254528D01*
X156662072Y-115377014D01*
X156802212Y-115478832D01*
X156956555Y-115557473D01*
X157121299Y-115611002D01*
X157292389Y-115638100D01*
X157292390Y-115638100D01*
X157465610Y-115638100D01*
X157465611Y-115638100D01*
X157636701Y-115611002D01*
X157801445Y-115557473D01*
X157955788Y-115478832D01*
X158095928Y-115377014D01*
X158218414Y-115254528D01*
X158320232Y-115114388D01*
X158398873Y-114960045D01*
X158452402Y-114795301D01*
X158479500Y-114624211D01*
X158479500Y-114450989D01*
X158452402Y-114279899D01*
X158398873Y-114115155D01*
X158320232Y-113960812D01*
X158218414Y-113820672D01*
X158095928Y-113698186D01*
X157955788Y-113596368D01*
X157801446Y-113517727D01*
X157798284Y-113516700D01*
X157797236Y-113515983D01*
X157796952Y-113515866D01*
X157796976Y-113515806D01*
X157740609Y-113477261D01*
X157713413Y-113412902D01*
X157725329Y-113344056D01*
X157772574Y-113292581D01*
X157798288Y-113280839D01*
X157897215Y-113248696D01*
X158086554Y-113152222D01*
X158140716Y-113112870D01*
X158140717Y-113112870D01*
X157508408Y-112480562D01*
X157571993Y-112463525D01*
X157686007Y-112397699D01*
X157779099Y-112304607D01*
X157844925Y-112190593D01*
X157861962Y-112127008D01*
X158494270Y-112759317D01*
X158494270Y-112759316D01*
X158533622Y-112705154D01*
X158630095Y-112515817D01*
X158695757Y-112313730D01*
X158695757Y-112313727D01*
X158729000Y-112103846D01*
X158729000Y-111891353D01*
X158695757Y-111681472D01*
X158695757Y-111681469D01*
X158630095Y-111479382D01*
X158533624Y-111290049D01*
X158494270Y-111235882D01*
X158494269Y-111235882D01*
X157861962Y-111868190D01*
X157844925Y-111804607D01*
X157779099Y-111690593D01*
X157686007Y-111597501D01*
X157571993Y-111531675D01*
X157508409Y-111514637D01*
X158140716Y-110882328D01*
X158086550Y-110842975D01*
X157897217Y-110746504D01*
X157798287Y-110714360D01*
X157740611Y-110674923D01*
X157713413Y-110610564D01*
X157725328Y-110541718D01*
X157772572Y-110490242D01*
X157798290Y-110478497D01*
X157801445Y-110477473D01*
X157955788Y-110398832D01*
X158095928Y-110297014D01*
X158218414Y-110174528D01*
X158320232Y-110034388D01*
X158398873Y-109880045D01*
X158452402Y-109715301D01*
X158479500Y-109544211D01*
X158479500Y-109370989D01*
X158452402Y-109199899D01*
X158398873Y-109035155D01*
X158320232Y-108880812D01*
X158218414Y-108740672D01*
X158095928Y-108618186D01*
X157955788Y-108516368D01*
X157801445Y-108437727D01*
X157636701Y-108384198D01*
X157636699Y-108384197D01*
X157636698Y-108384197D01*
X157505271Y-108363381D01*
X157465611Y-108357100D01*
X157292389Y-108357100D01*
X157252728Y-108363381D01*
X157121302Y-108384197D01*
X156956552Y-108437728D01*
X156802211Y-108516368D01*
X156744308Y-108558438D01*
X156662072Y-108618186D01*
X156662070Y-108618188D01*
X156662069Y-108618188D01*
X156539588Y-108740669D01*
X156539588Y-108740670D01*
X156539586Y-108740672D01*
X156504872Y-108788452D01*
X156437768Y-108880811D01*
X156359128Y-109035152D01*
X156305597Y-109199902D01*
X156289267Y-109303007D01*
X156278500Y-109370989D01*
X156278500Y-109544211D01*
X156305598Y-109715301D01*
X156359127Y-109880045D01*
X156437768Y-110034388D01*
X156539586Y-110174528D01*
X156662072Y-110297014D01*
X156802212Y-110398832D01*
X156956555Y-110477473D01*
X156959708Y-110478497D01*
X156960752Y-110479211D01*
X156961048Y-110479334D01*
X156961022Y-110479395D01*
X157017383Y-110517930D01*
X157044585Y-110582288D01*
X157032674Y-110651135D01*
X156985433Y-110702613D01*
X156959712Y-110714360D01*
X156860783Y-110746504D01*
X156671439Y-110842980D01*
X156617282Y-110882327D01*
X156617282Y-110882328D01*
X157249591Y-111514637D01*
X157186007Y-111531675D01*
X157071993Y-111597501D01*
X156978901Y-111690593D01*
X156913075Y-111804607D01*
X156896037Y-111868191D01*
X156263728Y-111235882D01*
X156263727Y-111235882D01*
X156224380Y-111290039D01*
X156127904Y-111479382D01*
X156062242Y-111681469D01*
X156062242Y-111681472D01*
X156029000Y-111891353D01*
X156029000Y-112103846D01*
X156062242Y-112313727D01*
X156062242Y-112313730D01*
X156127904Y-112515817D01*
X156224375Y-112705150D01*
X156263728Y-112759316D01*
X156896037Y-112127008D01*
X156913075Y-112190593D01*
X156978901Y-112304607D01*
X157071993Y-112397699D01*
X157186007Y-112463525D01*
X157249590Y-112480562D01*
X156617282Y-113112869D01*
X156617282Y-113112870D01*
X156671449Y-113152224D01*
X156860784Y-113248696D01*
X156959711Y-113280839D01*
X157017387Y-113320276D01*
X157044586Y-113384634D01*
X157032672Y-113453481D01*
X156985428Y-113504957D01*
X156959722Y-113516697D01*
X156958522Y-113517087D01*
X156956550Y-113517728D01*
X156802211Y-113596368D01*
X156722256Y-113654459D01*
X156662072Y-113698186D01*
X156662070Y-113698188D01*
X156662069Y-113698188D01*
X156539588Y-113820669D01*
X156539588Y-113820670D01*
X156539586Y-113820672D01*
X156508996Y-113862774D01*
X156437766Y-113960813D01*
X156369705Y-114094394D01*
X156321731Y-114145191D01*
X156259220Y-114162100D01*
X138999500Y-114162100D01*
X138932461Y-114142415D01*
X138886706Y-114089611D01*
X138875500Y-114038100D01*
X138875500Y-106830989D01*
X156278500Y-106830989D01*
X156278500Y-107004211D01*
X156305598Y-107175301D01*
X156359127Y-107340045D01*
X156437768Y-107494388D01*
X156539586Y-107634528D01*
X156662072Y-107757014D01*
X156802212Y-107858832D01*
X156956555Y-107937473D01*
X157121299Y-107991002D01*
X157292389Y-108018100D01*
X157292390Y-108018100D01*
X157465610Y-108018100D01*
X157465611Y-108018100D01*
X157636701Y-107991002D01*
X157801445Y-107937473D01*
X157955788Y-107858832D01*
X158095928Y-107757014D01*
X158218414Y-107634528D01*
X158320232Y-107494388D01*
X158398873Y-107340045D01*
X158452402Y-107175301D01*
X158479500Y-107004211D01*
X158479500Y-106830989D01*
X158452402Y-106659899D01*
X158398873Y-106495155D01*
X158320232Y-106340812D01*
X158218414Y-106200672D01*
X158095928Y-106078186D01*
X157955788Y-105976368D01*
X157801445Y-105897727D01*
X157636701Y-105844198D01*
X157636699Y-105844197D01*
X157636698Y-105844197D01*
X157505271Y-105823381D01*
X157465611Y-105817100D01*
X157292389Y-105817100D01*
X157252728Y-105823381D01*
X157121302Y-105844197D01*
X156956552Y-105897728D01*
X156802211Y-105976368D01*
X156749359Y-106014768D01*
X156662072Y-106078186D01*
X156662070Y-106078188D01*
X156662069Y-106078188D01*
X156539588Y-106200669D01*
X156539588Y-106200670D01*
X156539586Y-106200672D01*
X156520283Y-106227240D01*
X156437768Y-106340811D01*
X156359128Y-106495152D01*
X156305597Y-106659902D01*
X156294371Y-106730781D01*
X156278500Y-106830989D01*
X138875500Y-106830989D01*
X138875500Y-104290989D01*
X156278500Y-104290989D01*
X156278500Y-104464211D01*
X156305598Y-104635301D01*
X156359127Y-104800045D01*
X156437768Y-104954388D01*
X156539586Y-105094528D01*
X156662072Y-105217014D01*
X156802212Y-105318832D01*
X156956555Y-105397473D01*
X157121299Y-105451002D01*
X157292389Y-105478100D01*
X157292390Y-105478100D01*
X157465610Y-105478100D01*
X157465611Y-105478100D01*
X157636701Y-105451002D01*
X157801445Y-105397473D01*
X157955788Y-105318832D01*
X158095928Y-105217014D01*
X158218414Y-105094528D01*
X158320232Y-104954388D01*
X158398873Y-104800045D01*
X158452402Y-104635301D01*
X158479500Y-104464211D01*
X158479500Y-104290989D01*
X158452402Y-104119899D01*
X158398873Y-103955155D01*
X158320232Y-103800812D01*
X158218414Y-103660672D01*
X158095928Y-103538186D01*
X157955788Y-103436368D01*
X157801445Y-103357727D01*
X157636701Y-103304198D01*
X157636699Y-103304197D01*
X157636698Y-103304197D01*
X157505271Y-103283381D01*
X157465611Y-103277100D01*
X157292389Y-103277100D01*
X157252728Y-103283381D01*
X157121302Y-103304197D01*
X156956552Y-103357728D01*
X156802211Y-103436368D01*
X156749359Y-103474768D01*
X156662072Y-103538186D01*
X156662070Y-103538188D01*
X156662069Y-103538188D01*
X156539588Y-103660669D01*
X156539588Y-103660670D01*
X156539586Y-103660672D01*
X156511689Y-103699069D01*
X156437768Y-103800811D01*
X156359128Y-103955152D01*
X156305597Y-104119902D01*
X156278500Y-104290989D01*
X138875500Y-104290989D01*
X138875500Y-101750989D01*
X156278500Y-101750989D01*
X156278500Y-101924211D01*
X156305598Y-102095301D01*
X156359127Y-102260045D01*
X156437768Y-102414388D01*
X156539586Y-102554528D01*
X156662072Y-102677014D01*
X156802212Y-102778832D01*
X156956555Y-102857473D01*
X157121299Y-102911002D01*
X157292389Y-102938100D01*
X157292390Y-102938100D01*
X157465610Y-102938100D01*
X157465611Y-102938100D01*
X157636701Y-102911002D01*
X157801445Y-102857473D01*
X157955788Y-102778832D01*
X158095928Y-102677014D01*
X158218414Y-102554528D01*
X158320232Y-102414388D01*
X158398873Y-102260045D01*
X158452402Y-102095301D01*
X158479500Y-101924211D01*
X158479500Y-101750989D01*
X158452402Y-101579899D01*
X158398873Y-101415155D01*
X158320232Y-101260812D01*
X158218414Y-101120672D01*
X158095928Y-100998186D01*
X157955788Y-100896368D01*
X157801445Y-100817727D01*
X157636701Y-100764198D01*
X157636699Y-100764197D01*
X157636698Y-100764197D01*
X157505271Y-100743381D01*
X157465611Y-100737100D01*
X157292389Y-100737100D01*
X157252728Y-100743381D01*
X157121302Y-100764197D01*
X156956552Y-100817728D01*
X156802211Y-100896368D01*
X156749359Y-100934768D01*
X156662072Y-100998186D01*
X156662070Y-100998188D01*
X156662069Y-100998188D01*
X156539588Y-101120669D01*
X156539588Y-101120670D01*
X156539586Y-101120672D01*
X156511689Y-101159069D01*
X156437768Y-101260811D01*
X156359128Y-101415152D01*
X156305597Y-101579902D01*
X156278500Y-101750989D01*
X138875500Y-101750989D01*
X138875500Y-99210989D01*
X156278500Y-99210989D01*
X156278500Y-99384211D01*
X156305598Y-99555301D01*
X156359127Y-99720045D01*
X156437768Y-99874388D01*
X156539586Y-100014528D01*
X156662072Y-100137014D01*
X156802212Y-100238832D01*
X156956555Y-100317473D01*
X157121299Y-100371002D01*
X157292389Y-100398100D01*
X157292390Y-100398100D01*
X157465610Y-100398100D01*
X157465611Y-100398100D01*
X157636701Y-100371002D01*
X157801445Y-100317473D01*
X157955788Y-100238832D01*
X158095928Y-100137014D01*
X158218414Y-100014528D01*
X158320232Y-99874388D01*
X158398873Y-99720045D01*
X158452402Y-99555301D01*
X158479500Y-99384211D01*
X158479500Y-99210989D01*
X158452402Y-99039899D01*
X158398873Y-98875155D01*
X158320232Y-98720812D01*
X158218414Y-98580672D01*
X158095928Y-98458186D01*
X157955788Y-98356368D01*
X157801445Y-98277727D01*
X157636701Y-98224198D01*
X157636699Y-98224197D01*
X157636698Y-98224197D01*
X157505271Y-98203381D01*
X157465611Y-98197100D01*
X157292389Y-98197100D01*
X157252728Y-98203381D01*
X157121302Y-98224197D01*
X156956552Y-98277728D01*
X156802211Y-98356368D01*
X156749359Y-98394768D01*
X156662072Y-98458186D01*
X156662070Y-98458188D01*
X156662069Y-98458188D01*
X156539588Y-98580669D01*
X156539588Y-98580670D01*
X156539586Y-98580672D01*
X156511689Y-98619069D01*
X156437768Y-98720811D01*
X156359128Y-98875152D01*
X156305597Y-99039902D01*
X156278500Y-99210989D01*
X138875500Y-99210989D01*
X138875500Y-96670989D01*
X156278500Y-96670989D01*
X156278500Y-96844211D01*
X156305598Y-97015301D01*
X156359127Y-97180045D01*
X156437768Y-97334388D01*
X156539586Y-97474528D01*
X156662072Y-97597014D01*
X156802212Y-97698832D01*
X156956555Y-97777473D01*
X157121299Y-97831002D01*
X157292389Y-97858100D01*
X157292390Y-97858100D01*
X157465610Y-97858100D01*
X157465611Y-97858100D01*
X157636701Y-97831002D01*
X157801445Y-97777473D01*
X157955788Y-97698832D01*
X158095928Y-97597014D01*
X158218414Y-97474528D01*
X158320232Y-97334388D01*
X158398873Y-97180045D01*
X158452402Y-97015301D01*
X158479500Y-96844211D01*
X158479500Y-96670989D01*
X158452402Y-96499899D01*
X158398873Y-96335155D01*
X158320232Y-96180812D01*
X158218414Y-96040672D01*
X158095928Y-95918186D01*
X157955788Y-95816368D01*
X157851610Y-95763287D01*
X157801447Y-95737728D01*
X157801446Y-95737727D01*
X157801445Y-95737727D01*
X157636701Y-95684198D01*
X157636699Y-95684197D01*
X157636698Y-95684197D01*
X157505271Y-95663381D01*
X157465611Y-95657100D01*
X157292389Y-95657100D01*
X157252728Y-95663381D01*
X157121302Y-95684197D01*
X156956552Y-95737728D01*
X156802211Y-95816368D01*
X156749359Y-95854768D01*
X156662072Y-95918186D01*
X156662070Y-95918188D01*
X156662069Y-95918188D01*
X156539588Y-96040669D01*
X156539588Y-96040670D01*
X156539586Y-96040672D01*
X156511689Y-96079069D01*
X156437768Y-96180811D01*
X156359128Y-96335152D01*
X156305597Y-96499902D01*
X156278500Y-96670989D01*
X138875500Y-96670989D01*
X138875500Y-94130989D01*
X156278500Y-94130989D01*
X156278500Y-94304211D01*
X156305598Y-94475301D01*
X156359127Y-94640045D01*
X156437768Y-94794388D01*
X156539586Y-94934528D01*
X156662072Y-95057014D01*
X156802212Y-95158832D01*
X156956555Y-95237473D01*
X157121299Y-95291002D01*
X157292389Y-95318100D01*
X157292390Y-95318100D01*
X157465610Y-95318100D01*
X157465611Y-95318100D01*
X157636701Y-95291002D01*
X157801445Y-95237473D01*
X157955788Y-95158832D01*
X158095928Y-95057014D01*
X158218414Y-94934528D01*
X158320232Y-94794388D01*
X158398873Y-94640045D01*
X158452402Y-94475301D01*
X158479500Y-94304211D01*
X158479500Y-94130989D01*
X158452402Y-93959899D01*
X158398873Y-93795155D01*
X158320232Y-93640812D01*
X158218414Y-93500672D01*
X158095928Y-93378186D01*
X157955788Y-93276368D01*
X157862679Y-93228927D01*
X157801447Y-93197728D01*
X157801446Y-93197727D01*
X157801445Y-93197727D01*
X157636701Y-93144198D01*
X157636699Y-93144197D01*
X157636698Y-93144197D01*
X157505271Y-93123381D01*
X157465611Y-93117100D01*
X157292389Y-93117100D01*
X157252728Y-93123381D01*
X157121302Y-93144197D01*
X156956552Y-93197728D01*
X156802211Y-93276368D01*
X156749359Y-93314768D01*
X156662072Y-93378186D01*
X156662070Y-93378188D01*
X156662069Y-93378188D01*
X156539588Y-93500669D01*
X156539588Y-93500670D01*
X156539586Y-93500672D01*
X156511689Y-93539069D01*
X156437768Y-93640811D01*
X156359128Y-93795152D01*
X156305597Y-93959902D01*
X156278500Y-94130989D01*
X138875500Y-94130989D01*
X138875500Y-91590989D01*
X156278500Y-91590989D01*
X156278500Y-91764211D01*
X156305598Y-91935301D01*
X156359127Y-92100045D01*
X156437768Y-92254388D01*
X156539586Y-92394528D01*
X156662072Y-92517014D01*
X156802212Y-92618832D01*
X156956555Y-92697473D01*
X157121299Y-92751002D01*
X157292389Y-92778100D01*
X157292390Y-92778100D01*
X157465610Y-92778100D01*
X157465611Y-92778100D01*
X157636701Y-92751002D01*
X157801445Y-92697473D01*
X157955788Y-92618832D01*
X158095928Y-92517014D01*
X158218414Y-92394528D01*
X158320232Y-92254388D01*
X158398873Y-92100045D01*
X158452402Y-91935301D01*
X158479500Y-91764211D01*
X158479500Y-91590989D01*
X158452402Y-91419899D01*
X158398873Y-91255155D01*
X158320232Y-91100812D01*
X158218414Y-90960672D01*
X158095928Y-90838186D01*
X157955788Y-90736368D01*
X157846693Y-90680782D01*
X157801447Y-90657728D01*
X157801446Y-90657727D01*
X157801445Y-90657727D01*
X157636701Y-90604198D01*
X157636699Y-90604197D01*
X157636698Y-90604197D01*
X157505271Y-90583381D01*
X157465611Y-90577100D01*
X157292389Y-90577100D01*
X157252728Y-90583381D01*
X157121302Y-90604197D01*
X156956552Y-90657728D01*
X156802211Y-90736368D01*
X156749359Y-90774768D01*
X156662072Y-90838186D01*
X156662070Y-90838188D01*
X156662069Y-90838188D01*
X156539588Y-90960669D01*
X156539588Y-90960670D01*
X156539586Y-90960672D01*
X156518437Y-90989781D01*
X156437768Y-91100811D01*
X156359128Y-91255152D01*
X156305597Y-91419902D01*
X156278500Y-91590989D01*
X138875500Y-91590989D01*
X138875500Y-89050989D01*
X156278500Y-89050989D01*
X156278500Y-89224210D01*
X156305579Y-89395186D01*
X156305598Y-89395301D01*
X156359127Y-89560045D01*
X156437768Y-89714388D01*
X156539586Y-89854528D01*
X156662072Y-89977014D01*
X156802212Y-90078832D01*
X156956555Y-90157473D01*
X157121299Y-90211002D01*
X157292389Y-90238100D01*
X157292390Y-90238100D01*
X157465610Y-90238100D01*
X157465611Y-90238100D01*
X157636701Y-90211002D01*
X157801445Y-90157473D01*
X157955788Y-90078832D01*
X158095928Y-89977014D01*
X158218414Y-89854528D01*
X158320232Y-89714388D01*
X158398873Y-89560045D01*
X158452402Y-89395301D01*
X158479500Y-89224211D01*
X158479500Y-89050989D01*
X158452402Y-88879899D01*
X158398873Y-88715155D01*
X158320232Y-88560812D01*
X158218414Y-88420672D01*
X158095928Y-88298186D01*
X157955788Y-88196368D01*
X157801445Y-88117727D01*
X157636701Y-88064198D01*
X157636699Y-88064197D01*
X157636698Y-88064197D01*
X157505271Y-88043381D01*
X157465611Y-88037100D01*
X157292389Y-88037100D01*
X157252728Y-88043381D01*
X157121302Y-88064197D01*
X156956552Y-88117728D01*
X156802211Y-88196368D01*
X156749359Y-88234768D01*
X156662072Y-88298186D01*
X156662070Y-88298188D01*
X156662069Y-88298188D01*
X156539588Y-88420669D01*
X156539588Y-88420670D01*
X156539586Y-88420672D01*
X156511689Y-88459069D01*
X156437768Y-88560811D01*
X156359128Y-88715152D01*
X156305597Y-88879902D01*
X156278500Y-89050989D01*
X138875500Y-89050989D01*
X138875500Y-86510989D01*
X156278500Y-86510989D01*
X156278500Y-86684211D01*
X156305598Y-86855301D01*
X156359127Y-87020045D01*
X156437768Y-87174388D01*
X156539586Y-87314528D01*
X156662072Y-87437014D01*
X156802212Y-87538832D01*
X156956555Y-87617473D01*
X157121299Y-87671002D01*
X157292389Y-87698100D01*
X157292390Y-87698100D01*
X157465610Y-87698100D01*
X157465611Y-87698100D01*
X157636701Y-87671002D01*
X157801445Y-87617473D01*
X157955788Y-87538832D01*
X158095928Y-87437014D01*
X158218414Y-87314528D01*
X158320232Y-87174388D01*
X158398873Y-87020045D01*
X158452402Y-86855301D01*
X158479500Y-86684211D01*
X158479500Y-86510989D01*
X158452402Y-86339899D01*
X158398873Y-86175155D01*
X158320232Y-86020812D01*
X158218414Y-85880672D01*
X158095928Y-85758186D01*
X157955788Y-85656368D01*
X157801445Y-85577727D01*
X157636701Y-85524198D01*
X157636699Y-85524197D01*
X157636698Y-85524197D01*
X157505271Y-85503381D01*
X157465611Y-85497100D01*
X157292389Y-85497100D01*
X157252728Y-85503381D01*
X157121302Y-85524197D01*
X156956552Y-85577728D01*
X156802211Y-85656368D01*
X156782374Y-85670781D01*
X156662072Y-85758186D01*
X156662070Y-85758188D01*
X156662069Y-85758188D01*
X156539588Y-85880669D01*
X156539588Y-85880670D01*
X156539586Y-85880672D01*
X156500159Y-85934938D01*
X156437768Y-86020811D01*
X156359128Y-86175152D01*
X156305597Y-86339902D01*
X156278500Y-86510989D01*
X138875500Y-86510989D01*
X138875500Y-83970989D01*
X156278500Y-83970989D01*
X156278500Y-84144211D01*
X156305598Y-84315301D01*
X156359127Y-84480045D01*
X156437768Y-84634388D01*
X156539586Y-84774528D01*
X156662072Y-84897014D01*
X156802212Y-84998832D01*
X156956555Y-85077473D01*
X157121299Y-85131002D01*
X157292389Y-85158100D01*
X157292390Y-85158100D01*
X157465610Y-85158100D01*
X157465611Y-85158100D01*
X157636701Y-85131002D01*
X157801445Y-85077473D01*
X157955788Y-84998832D01*
X158095928Y-84897014D01*
X158218414Y-84774528D01*
X158320232Y-84634388D01*
X158398873Y-84480045D01*
X158452402Y-84315301D01*
X158479500Y-84144211D01*
X158479500Y-83970989D01*
X158452402Y-83799899D01*
X158398873Y-83635155D01*
X158320232Y-83480812D01*
X158218414Y-83340672D01*
X158095928Y-83218186D01*
X157955788Y-83116368D01*
X157801445Y-83037727D01*
X157636701Y-82984198D01*
X157636699Y-82984197D01*
X157636698Y-82984197D01*
X157505271Y-82963381D01*
X157465611Y-82957100D01*
X157292389Y-82957100D01*
X157252728Y-82963381D01*
X157121302Y-82984197D01*
X156956552Y-83037728D01*
X156802211Y-83116368D01*
X156754728Y-83150867D01*
X156662072Y-83218186D01*
X156662070Y-83218188D01*
X156662069Y-83218188D01*
X156539588Y-83340669D01*
X156539588Y-83340670D01*
X156539586Y-83340672D01*
X156530973Y-83352527D01*
X156437768Y-83480811D01*
X156359128Y-83635152D01*
X156305597Y-83799902D01*
X156303626Y-83812347D01*
X156278500Y-83970989D01*
X138875500Y-83970989D01*
X138875500Y-83879386D01*
X138895185Y-83812347D01*
X138911819Y-83791705D01*
X138940509Y-83763015D01*
X139012984Y-83637485D01*
X139050500Y-83497475D01*
X139050500Y-83352525D01*
X139012984Y-83212515D01*
X138985781Y-83165399D01*
X138940511Y-83086988D01*
X138940506Y-83086982D01*
X138838017Y-82984493D01*
X138838011Y-82984488D01*
X138712488Y-82912017D01*
X138712489Y-82912017D01*
X138683741Y-82904314D01*
X138572475Y-82874500D01*
X138427525Y-82874500D01*
X138316259Y-82904314D01*
X138287511Y-82912017D01*
X138161988Y-82984488D01*
X138161982Y-82984493D01*
X138059493Y-83086982D01*
X138059488Y-83086988D01*
X137987017Y-83212511D01*
X137987016Y-83212515D01*
X137949500Y-83352525D01*
X132827026Y-83352525D01*
X132818414Y-83340672D01*
X132695928Y-83218186D01*
X132555788Y-83116368D01*
X132401445Y-83037727D01*
X132236701Y-82984198D01*
X132236699Y-82984197D01*
X132236698Y-82984197D01*
X132105271Y-82963381D01*
X132065611Y-82957100D01*
X131892389Y-82957100D01*
X131852728Y-82963381D01*
X131721302Y-82984197D01*
X131556552Y-83037728D01*
X131402211Y-83116368D01*
X131354728Y-83150867D01*
X131262072Y-83218186D01*
X131262070Y-83218188D01*
X131262069Y-83218188D01*
X131139588Y-83340669D01*
X131139588Y-83340670D01*
X131139586Y-83340672D01*
X131130973Y-83352527D01*
X131037768Y-83480811D01*
X130959128Y-83635152D01*
X130905597Y-83799902D01*
X130903626Y-83812347D01*
X130878500Y-83970989D01*
X128529500Y-83970989D01*
X128529500Y-81430989D01*
X130878500Y-81430989D01*
X130878500Y-81604211D01*
X130884557Y-81642452D01*
X130901395Y-81748769D01*
X130905598Y-81775301D01*
X130959127Y-81940045D01*
X131037768Y-82094388D01*
X131139586Y-82234528D01*
X131262072Y-82357014D01*
X131402212Y-82458832D01*
X131556555Y-82537473D01*
X131721299Y-82591002D01*
X131892389Y-82618100D01*
X131892390Y-82618100D01*
X132065610Y-82618100D01*
X132065611Y-82618100D01*
X132236701Y-82591002D01*
X132401445Y-82537473D01*
X132555788Y-82458832D01*
X132695928Y-82357014D01*
X132818414Y-82234528D01*
X132920232Y-82094388D01*
X132998873Y-81940045D01*
X133052402Y-81775301D01*
X133079500Y-81604211D01*
X133079500Y-81430989D01*
X156278500Y-81430989D01*
X156278500Y-81604211D01*
X156284557Y-81642452D01*
X156301395Y-81748769D01*
X156305598Y-81775301D01*
X156359127Y-81940045D01*
X156437768Y-82094388D01*
X156539586Y-82234528D01*
X156662072Y-82357014D01*
X156802212Y-82458832D01*
X156956555Y-82537473D01*
X157121299Y-82591002D01*
X157292389Y-82618100D01*
X157292390Y-82618100D01*
X157465610Y-82618100D01*
X157465611Y-82618100D01*
X157636701Y-82591002D01*
X157801445Y-82537473D01*
X157955788Y-82458832D01*
X158095928Y-82357014D01*
X158218414Y-82234528D01*
X158320232Y-82094388D01*
X158398873Y-81940045D01*
X158452402Y-81775301D01*
X158479500Y-81604211D01*
X158479500Y-81430989D01*
X158452402Y-81259899D01*
X158398873Y-81095155D01*
X158320232Y-80940812D01*
X158218414Y-80800672D01*
X158095928Y-80678186D01*
X157955788Y-80576368D01*
X157801445Y-80497727D01*
X157636701Y-80444198D01*
X157636699Y-80444197D01*
X157636698Y-80444197D01*
X157505271Y-80423381D01*
X157465611Y-80417100D01*
X157292389Y-80417100D01*
X157252728Y-80423381D01*
X157121302Y-80444197D01*
X156956552Y-80497728D01*
X156802211Y-80576368D01*
X156722256Y-80634459D01*
X156662072Y-80678186D01*
X156662070Y-80678188D01*
X156662069Y-80678188D01*
X156539588Y-80800669D01*
X156539588Y-80800670D01*
X156539586Y-80800672D01*
X156530045Y-80813804D01*
X156437768Y-80940811D01*
X156359128Y-81095152D01*
X156359127Y-81095154D01*
X156359127Y-81095155D01*
X156332362Y-81177527D01*
X156305597Y-81259902D01*
X156290165Y-81357339D01*
X156278500Y-81430989D01*
X133079500Y-81430989D01*
X133052402Y-81259899D01*
X132998873Y-81095155D01*
X132920232Y-80940812D01*
X132818414Y-80800672D01*
X132695928Y-80678186D01*
X132555788Y-80576368D01*
X132401445Y-80497727D01*
X132236701Y-80444198D01*
X132236699Y-80444197D01*
X132236698Y-80444197D01*
X132105271Y-80423381D01*
X132065611Y-80417100D01*
X131892389Y-80417100D01*
X131852728Y-80423381D01*
X131721302Y-80444197D01*
X131556552Y-80497728D01*
X131402211Y-80576368D01*
X131322256Y-80634459D01*
X131262072Y-80678186D01*
X131262070Y-80678188D01*
X131262069Y-80678188D01*
X131139588Y-80800669D01*
X131139588Y-80800670D01*
X131139586Y-80800672D01*
X131130045Y-80813804D01*
X131037768Y-80940811D01*
X130959128Y-81095152D01*
X130959127Y-81095154D01*
X130959127Y-81095155D01*
X130932362Y-81177527D01*
X130905597Y-81259902D01*
X130890165Y-81357339D01*
X130878500Y-81430989D01*
X128529500Y-81430989D01*
X128529500Y-78102921D01*
X130878500Y-78102921D01*
X130878500Y-79852278D01*
X130893032Y-79925335D01*
X130893033Y-79925339D01*
X130893034Y-79925340D01*
X130948399Y-80008201D01*
X131031260Y-80063566D01*
X131031264Y-80063567D01*
X131104321Y-80078099D01*
X131104324Y-80078100D01*
X131104326Y-80078100D01*
X132853676Y-80078100D01*
X132853677Y-80078099D01*
X132926740Y-80063566D01*
X133009601Y-80008201D01*
X133064966Y-79925340D01*
X133079500Y-79852274D01*
X133079500Y-78102926D01*
X133079500Y-78102923D01*
X133079499Y-78102921D01*
X156278500Y-78102921D01*
X156278500Y-79852278D01*
X156293032Y-79925335D01*
X156293033Y-79925339D01*
X156293034Y-79925340D01*
X156348399Y-80008201D01*
X156431260Y-80063566D01*
X156431264Y-80063567D01*
X156504321Y-80078099D01*
X156504324Y-80078100D01*
X156504326Y-80078100D01*
X158253676Y-80078100D01*
X158253677Y-80078099D01*
X158326740Y-80063566D01*
X158409601Y-80008201D01*
X158464966Y-79925340D01*
X158479500Y-79852274D01*
X158479500Y-78102926D01*
X158479500Y-78102923D01*
X158479499Y-78102921D01*
X158464967Y-78029864D01*
X158464966Y-78029860D01*
X158409601Y-77946999D01*
X158326740Y-77891634D01*
X158326739Y-77891633D01*
X158326735Y-77891632D01*
X158253677Y-77877100D01*
X158253674Y-77877100D01*
X156504326Y-77877100D01*
X156504323Y-77877100D01*
X156431264Y-77891632D01*
X156431260Y-77891633D01*
X156348399Y-77946999D01*
X156293033Y-78029860D01*
X156293032Y-78029864D01*
X156278500Y-78102921D01*
X133079499Y-78102921D01*
X133064967Y-78029864D01*
X133064966Y-78029860D01*
X133009601Y-77946999D01*
X132926740Y-77891634D01*
X132926739Y-77891633D01*
X132926735Y-77891632D01*
X132853677Y-77877100D01*
X132853674Y-77877100D01*
X131104326Y-77877100D01*
X131104323Y-77877100D01*
X131031264Y-77891632D01*
X131031260Y-77891633D01*
X130948399Y-77946999D01*
X130893033Y-78029860D01*
X130893032Y-78029864D01*
X130878500Y-78102921D01*
X128529500Y-78102921D01*
X128529500Y-75802525D01*
X159649500Y-75802525D01*
X159649500Y-75947475D01*
X159687016Y-76087485D01*
X159687017Y-76087488D01*
X159759488Y-76213011D01*
X159759493Y-76213017D01*
X159788181Y-76241705D01*
X159821666Y-76303028D01*
X159824500Y-76329386D01*
X159824500Y-90849435D01*
X159850090Y-90944938D01*
X159882506Y-91001085D01*
X159899526Y-91030563D01*
X165121317Y-96252354D01*
X165154802Y-96313677D01*
X165151567Y-96378352D01*
X165099598Y-96538297D01*
X165099597Y-96538301D01*
X165078582Y-96670989D01*
X165072500Y-96709389D01*
X165072500Y-96882611D01*
X165099598Y-97053701D01*
X165153127Y-97218445D01*
X165231768Y-97372788D01*
X165333586Y-97512928D01*
X165456072Y-97635414D01*
X165596212Y-97737232D01*
X165750555Y-97815873D01*
X165915299Y-97869402D01*
X166086389Y-97896500D01*
X166086390Y-97896500D01*
X166259610Y-97896500D01*
X166259611Y-97896500D01*
X166430701Y-97869402D01*
X166595445Y-97815873D01*
X166749788Y-97737232D01*
X166889928Y-97635414D01*
X167012414Y-97512928D01*
X167114232Y-97372788D01*
X167192873Y-97218445D01*
X167246402Y-97053701D01*
X167273500Y-96882611D01*
X167273500Y-96709389D01*
X167246402Y-96538299D01*
X167192873Y-96373555D01*
X167114232Y-96219212D01*
X167012414Y-96079072D01*
X166889928Y-95956586D01*
X166749788Y-95854768D01*
X166595445Y-95776127D01*
X166430701Y-95722598D01*
X166430699Y-95722597D01*
X166430698Y-95722597D01*
X166299271Y-95701781D01*
X166259611Y-95695500D01*
X166086389Y-95695500D01*
X166046728Y-95701781D01*
X165915302Y-95722597D01*
X165915299Y-95722598D01*
X165790072Y-95763287D01*
X165720232Y-95765282D01*
X165664074Y-95733037D01*
X160611819Y-90680782D01*
X160578334Y-90619459D01*
X160575500Y-90593101D01*
X160575500Y-89488899D01*
X160595185Y-89421860D01*
X160647989Y-89376105D01*
X160717147Y-89366161D01*
X160780703Y-89395186D01*
X160787181Y-89401218D01*
X165115677Y-93729715D01*
X165149162Y-93791038D01*
X165145927Y-93855714D01*
X165099597Y-93998301D01*
X165078582Y-94130989D01*
X165072500Y-94169389D01*
X165072500Y-94342611D01*
X165099598Y-94513701D01*
X165153127Y-94678445D01*
X165231768Y-94832788D01*
X165333586Y-94972928D01*
X165456072Y-95095414D01*
X165596212Y-95197232D01*
X165750555Y-95275873D01*
X165915299Y-95329402D01*
X166086389Y-95356500D01*
X166086390Y-95356500D01*
X166259610Y-95356500D01*
X166259611Y-95356500D01*
X166430701Y-95329402D01*
X166595445Y-95275873D01*
X166749788Y-95197232D01*
X166889928Y-95095414D01*
X167012414Y-94972928D01*
X167114232Y-94832788D01*
X167192873Y-94678445D01*
X167246402Y-94513701D01*
X167273500Y-94342611D01*
X167273500Y-94169389D01*
X167246402Y-93998299D01*
X167192873Y-93833555D01*
X167114232Y-93679212D01*
X167012414Y-93539072D01*
X166889928Y-93416586D01*
X166749788Y-93314768D01*
X166595445Y-93236127D01*
X166430701Y-93182598D01*
X166430699Y-93182597D01*
X166430698Y-93182597D01*
X166299271Y-93161781D01*
X166259611Y-93155500D01*
X166086389Y-93155500D01*
X166054192Y-93160599D01*
X165915301Y-93182597D01*
X165772714Y-93228927D01*
X165702873Y-93230922D01*
X165646715Y-93198677D01*
X161411819Y-88963781D01*
X161378334Y-88902458D01*
X161375500Y-88876100D01*
X161375500Y-88405899D01*
X161395185Y-88338860D01*
X161447989Y-88293105D01*
X161517147Y-88283161D01*
X161580703Y-88312186D01*
X161587181Y-88318218D01*
X165044184Y-91775221D01*
X165077669Y-91836544D01*
X165078976Y-91843504D01*
X165093515Y-91935297D01*
X165099598Y-91973701D01*
X165153127Y-92138445D01*
X165231768Y-92292788D01*
X165333586Y-92432928D01*
X165456072Y-92555414D01*
X165596212Y-92657232D01*
X165750555Y-92735873D01*
X165915299Y-92789402D01*
X166086389Y-92816500D01*
X166086390Y-92816500D01*
X166259610Y-92816500D01*
X166259611Y-92816500D01*
X166430701Y-92789402D01*
X166595445Y-92735873D01*
X166749788Y-92657232D01*
X166889928Y-92555414D01*
X167012414Y-92432928D01*
X167114232Y-92292788D01*
X167192873Y-92138445D01*
X167246402Y-91973701D01*
X167273500Y-91802611D01*
X167273500Y-91629389D01*
X167246402Y-91458299D01*
X167192873Y-91293555D01*
X167114232Y-91139212D01*
X167012414Y-90999072D01*
X166889928Y-90876586D01*
X166749788Y-90774768D01*
X166595445Y-90696127D01*
X166430701Y-90642598D01*
X166430699Y-90642597D01*
X166430698Y-90642597D01*
X166284607Y-90619459D01*
X166259611Y-90615500D01*
X166086389Y-90615500D01*
X166061393Y-90619459D01*
X165915302Y-90642597D01*
X165750552Y-90696128D01*
X165596211Y-90774768D01*
X165516256Y-90832859D01*
X165456072Y-90876586D01*
X165456070Y-90876588D01*
X165456068Y-90876589D01*
X165419527Y-90913130D01*
X165358204Y-90946615D01*
X165288512Y-90941629D01*
X165244166Y-90913129D01*
X162211819Y-87880782D01*
X162178334Y-87819459D01*
X162175500Y-87793101D01*
X162175500Y-86605899D01*
X162195185Y-86538860D01*
X162247989Y-86493105D01*
X162317147Y-86483161D01*
X162380703Y-86512186D01*
X162387181Y-86518218D01*
X165036181Y-89167218D01*
X165069666Y-89228541D01*
X165072500Y-89254899D01*
X165072500Y-90050678D01*
X165087032Y-90123735D01*
X165087033Y-90123739D01*
X165087034Y-90123740D01*
X165142399Y-90206601D01*
X165225260Y-90261966D01*
X165225264Y-90261967D01*
X165298321Y-90276499D01*
X165298324Y-90276500D01*
X165298326Y-90276500D01*
X167047676Y-90276500D01*
X167047677Y-90276499D01*
X167120740Y-90261966D01*
X167203601Y-90206601D01*
X167258966Y-90123740D01*
X167273500Y-90050674D01*
X167273500Y-89089389D01*
X167612500Y-89089389D01*
X167612500Y-89262610D01*
X167637722Y-89421860D01*
X167639598Y-89433701D01*
X167693127Y-89598445D01*
X167771768Y-89752788D01*
X167873586Y-89892928D01*
X167996072Y-90015414D01*
X168136212Y-90117232D01*
X168290555Y-90195873D01*
X168455299Y-90249402D01*
X168626389Y-90276500D01*
X168626390Y-90276500D01*
X168799610Y-90276500D01*
X168799611Y-90276500D01*
X168970701Y-90249402D01*
X169135445Y-90195873D01*
X169289788Y-90117232D01*
X169429928Y-90015414D01*
X169552414Y-89892928D01*
X169654232Y-89752788D01*
X169732873Y-89598445D01*
X169786402Y-89433701D01*
X169813500Y-89262611D01*
X169813500Y-89089389D01*
X169786402Y-88918299D01*
X169732873Y-88753555D01*
X169732870Y-88753549D01*
X169717947Y-88724259D01*
X169705051Y-88655589D01*
X169731328Y-88590849D01*
X169740742Y-88580293D01*
X172212821Y-86108215D01*
X172274142Y-86074732D01*
X172343834Y-86079716D01*
X172399767Y-86121588D01*
X172424184Y-86187052D01*
X172424500Y-86195898D01*
X172424500Y-87422100D01*
X172404815Y-87489139D01*
X172388181Y-87509781D01*
X169239284Y-90658677D01*
X169177961Y-90692162D01*
X169113286Y-90688927D01*
X168970701Y-90642598D01*
X168970699Y-90642597D01*
X168970698Y-90642597D01*
X168824607Y-90619459D01*
X168799611Y-90615500D01*
X168626389Y-90615500D01*
X168601393Y-90619459D01*
X168455302Y-90642597D01*
X168290552Y-90696128D01*
X168136211Y-90774768D01*
X168056256Y-90832859D01*
X167996072Y-90876586D01*
X167996070Y-90876588D01*
X167996069Y-90876588D01*
X167873588Y-90999069D01*
X167873588Y-90999070D01*
X167873586Y-90999072D01*
X167829859Y-91059256D01*
X167771768Y-91139211D01*
X167693128Y-91293552D01*
X167639597Y-91458302D01*
X167618582Y-91590989D01*
X167612500Y-91629389D01*
X167612500Y-91802611D01*
X167639598Y-91973701D01*
X167693127Y-92138445D01*
X167771768Y-92292788D01*
X167873586Y-92432928D01*
X167996072Y-92555414D01*
X168136212Y-92657232D01*
X168290555Y-92735873D01*
X168455299Y-92789402D01*
X168626389Y-92816500D01*
X168626390Y-92816500D01*
X168799610Y-92816500D01*
X168799611Y-92816500D01*
X168970701Y-92789402D01*
X169135445Y-92735873D01*
X169289788Y-92657232D01*
X169429928Y-92555414D01*
X169552414Y-92432928D01*
X169654232Y-92292788D01*
X169732873Y-92138445D01*
X169786402Y-91973701D01*
X169813500Y-91802611D01*
X169813500Y-91629389D01*
X169786402Y-91458299D01*
X169740071Y-91315710D01*
X169738077Y-91245871D01*
X169770320Y-91189715D01*
X173012819Y-87947219D01*
X173074142Y-87913734D01*
X173143834Y-87918718D01*
X173199767Y-87960590D01*
X173224184Y-88026054D01*
X173224500Y-88034900D01*
X173224500Y-89162100D01*
X173204815Y-89229139D01*
X173188181Y-89249781D01*
X169239284Y-93198677D01*
X169177961Y-93232162D01*
X169113286Y-93228927D01*
X168970701Y-93182598D01*
X168970699Y-93182597D01*
X168970698Y-93182597D01*
X168839271Y-93161781D01*
X168799611Y-93155500D01*
X168626389Y-93155500D01*
X168586728Y-93161781D01*
X168455302Y-93182597D01*
X168290552Y-93236128D01*
X168136211Y-93314768D01*
X168056256Y-93372859D01*
X167996072Y-93416586D01*
X167996070Y-93416588D01*
X167996069Y-93416588D01*
X167873588Y-93539069D01*
X167873588Y-93539070D01*
X167873586Y-93539072D01*
X167829859Y-93599256D01*
X167771768Y-93679211D01*
X167693128Y-93833552D01*
X167639597Y-93998302D01*
X167618582Y-94130989D01*
X167612500Y-94169389D01*
X167612500Y-94342611D01*
X167639598Y-94513701D01*
X167693127Y-94678445D01*
X167771768Y-94832788D01*
X167873586Y-94972928D01*
X167996072Y-95095414D01*
X168136212Y-95197232D01*
X168290555Y-95275873D01*
X168455299Y-95329402D01*
X168626389Y-95356500D01*
X168626390Y-95356500D01*
X168799610Y-95356500D01*
X168799611Y-95356500D01*
X168970701Y-95329402D01*
X169135445Y-95275873D01*
X169289788Y-95197232D01*
X169429928Y-95095414D01*
X169552414Y-94972928D01*
X169654232Y-94832788D01*
X169732873Y-94678445D01*
X169786402Y-94513701D01*
X169813500Y-94342611D01*
X169813500Y-94169389D01*
X169786402Y-93998299D01*
X169740071Y-93855710D01*
X169738077Y-93785871D01*
X169770320Y-93729715D01*
X173812821Y-89687216D01*
X173874142Y-89653733D01*
X173943834Y-89658717D01*
X173999767Y-89700589D01*
X174024184Y-89766053D01*
X174024500Y-89774899D01*
X174024500Y-90902100D01*
X174004815Y-90969139D01*
X173988181Y-90989781D01*
X169239284Y-95738677D01*
X169177961Y-95772162D01*
X169113286Y-95768927D01*
X168970701Y-95722598D01*
X168970699Y-95722597D01*
X168970698Y-95722597D01*
X168839271Y-95701781D01*
X168799611Y-95695500D01*
X168626389Y-95695500D01*
X168586728Y-95701781D01*
X168455302Y-95722597D01*
X168290552Y-95776128D01*
X168136211Y-95854768D01*
X168056256Y-95912859D01*
X167996072Y-95956586D01*
X167996070Y-95956588D01*
X167996069Y-95956588D01*
X167873588Y-96079069D01*
X167873588Y-96079070D01*
X167873586Y-96079072D01*
X167829859Y-96139256D01*
X167771768Y-96219211D01*
X167693128Y-96373552D01*
X167639597Y-96538302D01*
X167618582Y-96670989D01*
X167612500Y-96709389D01*
X167612500Y-96882611D01*
X167639598Y-97053701D01*
X167693127Y-97218445D01*
X167771768Y-97372788D01*
X167873586Y-97512928D01*
X167996072Y-97635414D01*
X168136212Y-97737232D01*
X168290555Y-97815873D01*
X168455299Y-97869402D01*
X168626389Y-97896500D01*
X168626390Y-97896500D01*
X168799610Y-97896500D01*
X168799611Y-97896500D01*
X168970701Y-97869402D01*
X169135445Y-97815873D01*
X169289788Y-97737232D01*
X169429928Y-97635414D01*
X169552414Y-97512928D01*
X169654232Y-97372788D01*
X169732873Y-97218445D01*
X169786402Y-97053701D01*
X169813500Y-96882611D01*
X169813500Y-96709389D01*
X169786402Y-96538299D01*
X169740071Y-96395710D01*
X169738077Y-96325871D01*
X169770320Y-96269715D01*
X174700475Y-91339562D01*
X174749911Y-91253937D01*
X174775500Y-91158436D01*
X174775500Y-91059564D01*
X174775500Y-75654386D01*
X174795185Y-75587347D01*
X174811819Y-75566705D01*
X174824500Y-75554024D01*
X174840509Y-75538015D01*
X174912984Y-75412485D01*
X174950500Y-75272475D01*
X174950500Y-75127525D01*
X174912984Y-74987515D01*
X174864205Y-74903028D01*
X174840511Y-74861988D01*
X174840506Y-74861982D01*
X174738017Y-74759493D01*
X174738011Y-74759488D01*
X174612488Y-74687017D01*
X174612489Y-74687017D01*
X174601006Y-74683940D01*
X174472475Y-74649500D01*
X174327525Y-74649500D01*
X174198993Y-74683940D01*
X174187511Y-74687017D01*
X174161500Y-74702035D01*
X174093599Y-74718508D01*
X174027573Y-74695655D01*
X173984382Y-74640734D01*
X173975500Y-74594648D01*
X173975500Y-74254386D01*
X173995185Y-74187347D01*
X174011819Y-74166705D01*
X174040509Y-74138015D01*
X174112984Y-74012485D01*
X174150500Y-73872475D01*
X174150500Y-73727525D01*
X174112984Y-73587515D01*
X174064205Y-73503028D01*
X174040511Y-73461988D01*
X174040506Y-73461982D01*
X173938017Y-73359493D01*
X173938011Y-73359488D01*
X173812488Y-73287017D01*
X173812489Y-73287017D01*
X173801006Y-73283940D01*
X173672475Y-73249500D01*
X173527525Y-73249500D01*
X173398993Y-73283940D01*
X173387511Y-73287017D01*
X173356500Y-73304922D01*
X173288600Y-73321395D01*
X173222573Y-73298543D01*
X173179382Y-73243621D01*
X173170500Y-73197535D01*
X173170500Y-72859386D01*
X173190185Y-72792347D01*
X173206819Y-72771705D01*
X173214500Y-72764024D01*
X173235509Y-72743015D01*
X173307984Y-72617485D01*
X173345500Y-72477475D01*
X173345500Y-72332525D01*
X173307984Y-72192515D01*
X173235509Y-72066985D01*
X173133015Y-71964491D01*
X173133013Y-71964490D01*
X173133011Y-71964488D01*
X173007488Y-71892017D01*
X173007489Y-71892017D01*
X172996006Y-71888940D01*
X172867475Y-71854500D01*
X172722525Y-71854500D01*
X172582515Y-71892016D01*
X172582514Y-71892016D01*
X172582512Y-71892017D01*
X172561499Y-71904149D01*
X172493598Y-71920620D01*
X172427572Y-71897768D01*
X172384382Y-71842846D01*
X172375500Y-71796761D01*
X172375500Y-71454386D01*
X172395185Y-71387347D01*
X172411819Y-71366705D01*
X172423979Y-71354545D01*
X172440509Y-71338015D01*
X172512984Y-71212485D01*
X172550500Y-71072475D01*
X172550500Y-70927525D01*
X172512984Y-70787515D01*
X172470732Y-70714333D01*
X172440511Y-70661988D01*
X172440506Y-70661982D01*
X172338017Y-70559493D01*
X172338011Y-70559488D01*
X172212488Y-70487017D01*
X172212489Y-70487017D01*
X172201006Y-70483940D01*
X172072475Y-70449500D01*
X171927525Y-70449500D01*
X171798993Y-70483940D01*
X171787511Y-70487017D01*
X171661988Y-70559488D01*
X171661982Y-70559493D01*
X171559493Y-70661982D01*
X171559488Y-70661988D01*
X171487017Y-70787511D01*
X171487016Y-70787515D01*
X171449500Y-70927525D01*
X171449500Y-71072475D01*
X171487016Y-71212485D01*
X171487017Y-71212488D01*
X171559488Y-71338011D01*
X171559493Y-71338017D01*
X171588181Y-71366705D01*
X171621666Y-71428028D01*
X171624500Y-71454386D01*
X171624500Y-85583100D01*
X171604815Y-85650139D01*
X171588181Y-85670781D01*
X169164563Y-88094398D01*
X169103240Y-88127883D01*
X169038564Y-88124648D01*
X168970698Y-88102597D01*
X168839271Y-88081781D01*
X168799611Y-88075500D01*
X168626389Y-88075500D01*
X168586728Y-88081781D01*
X168455302Y-88102597D01*
X168290552Y-88156128D01*
X168136211Y-88234768D01*
X168069605Y-88283161D01*
X167996072Y-88336586D01*
X167996070Y-88336588D01*
X167996069Y-88336588D01*
X167873588Y-88459069D01*
X167873588Y-88459070D01*
X167873586Y-88459072D01*
X167829859Y-88519256D01*
X167771768Y-88599211D01*
X167693128Y-88753552D01*
X167639597Y-88918302D01*
X167612500Y-89089389D01*
X167273500Y-89089389D01*
X167273500Y-88301326D01*
X167273500Y-88301323D01*
X167273499Y-88301321D01*
X167258967Y-88228264D01*
X167258966Y-88228260D01*
X167203601Y-88145399D01*
X167135449Y-88099862D01*
X167120739Y-88090033D01*
X167120735Y-88090032D01*
X167047677Y-88075500D01*
X167047674Y-88075500D01*
X165298326Y-88075500D01*
X165298323Y-88075500D01*
X165225264Y-88090032D01*
X165225257Y-88090035D01*
X165187469Y-88115284D01*
X165120792Y-88136161D01*
X165053412Y-88117676D01*
X165030899Y-88099862D01*
X163011819Y-86080782D01*
X162978334Y-86019459D01*
X162975500Y-85993101D01*
X162975500Y-81190221D01*
X163592500Y-81190221D01*
X163592500Y-82939578D01*
X163607032Y-83012635D01*
X163607033Y-83012639D01*
X163623796Y-83037727D01*
X163662399Y-83095501D01*
X163745260Y-83150866D01*
X163745264Y-83150867D01*
X163818321Y-83165399D01*
X163818324Y-83165400D01*
X163818326Y-83165400D01*
X165567676Y-83165400D01*
X165567677Y-83165399D01*
X165640740Y-83150866D01*
X165723601Y-83095501D01*
X165778966Y-83012640D01*
X165793500Y-82939574D01*
X165793500Y-81978289D01*
X166132500Y-81978289D01*
X166132500Y-82151511D01*
X166159598Y-82322601D01*
X166213127Y-82487345D01*
X166291768Y-82641688D01*
X166393586Y-82781828D01*
X166516072Y-82904314D01*
X166656212Y-83006132D01*
X166810555Y-83084773D01*
X166975299Y-83138302D01*
X167146389Y-83165400D01*
X167146390Y-83165400D01*
X167319610Y-83165400D01*
X167319611Y-83165400D01*
X167490701Y-83138302D01*
X167655445Y-83084773D01*
X167809788Y-83006132D01*
X167949928Y-82904314D01*
X168072414Y-82781828D01*
X168174232Y-82641688D01*
X168252873Y-82487345D01*
X168253896Y-82484194D01*
X168254610Y-82483150D01*
X168254734Y-82482852D01*
X168254796Y-82482877D01*
X168293327Y-82426518D01*
X168357683Y-82399315D01*
X168426530Y-82411223D01*
X168478011Y-82458462D01*
X168489760Y-82484187D01*
X168521904Y-82583117D01*
X168618375Y-82772450D01*
X168657728Y-82826616D01*
X169290037Y-82194308D01*
X169307075Y-82257893D01*
X169372901Y-82371907D01*
X169465993Y-82464999D01*
X169580007Y-82530825D01*
X169643590Y-82547862D01*
X169011282Y-83180169D01*
X169011282Y-83180170D01*
X169065449Y-83219524D01*
X169254782Y-83315995D01*
X169456870Y-83381657D01*
X169666754Y-83414900D01*
X169879246Y-83414900D01*
X170089127Y-83381657D01*
X170089130Y-83381657D01*
X170291217Y-83315995D01*
X170480554Y-83219522D01*
X170534716Y-83180170D01*
X170534717Y-83180170D01*
X169902408Y-82547862D01*
X169965993Y-82530825D01*
X170080007Y-82464999D01*
X170173099Y-82371907D01*
X170238925Y-82257893D01*
X170255962Y-82194308D01*
X170888270Y-82826617D01*
X170888270Y-82826616D01*
X170927622Y-82772454D01*
X171024095Y-82583117D01*
X171089757Y-82381030D01*
X171089757Y-82381027D01*
X171123000Y-82171146D01*
X171123000Y-81958653D01*
X171089757Y-81748772D01*
X171089757Y-81748769D01*
X171024095Y-81546682D01*
X170927624Y-81357349D01*
X170888270Y-81303182D01*
X170888269Y-81303182D01*
X170255962Y-81935490D01*
X170238925Y-81871907D01*
X170173099Y-81757893D01*
X170080007Y-81664801D01*
X169965993Y-81598975D01*
X169902409Y-81581937D01*
X170534716Y-80949628D01*
X170480550Y-80910275D01*
X170291217Y-80813804D01*
X170089129Y-80748142D01*
X169879246Y-80714900D01*
X169666754Y-80714900D01*
X169456872Y-80748142D01*
X169456869Y-80748142D01*
X169254782Y-80813804D01*
X169065439Y-80910280D01*
X169011282Y-80949627D01*
X169011282Y-80949628D01*
X169643591Y-81581937D01*
X169580007Y-81598975D01*
X169465993Y-81664801D01*
X169372901Y-81757893D01*
X169307075Y-81871907D01*
X169290037Y-81935491D01*
X168657728Y-81303182D01*
X168657727Y-81303182D01*
X168618380Y-81357339D01*
X168521904Y-81546683D01*
X168489760Y-81645612D01*
X168450322Y-81703288D01*
X168385964Y-81730486D01*
X168317117Y-81718571D01*
X168265642Y-81671327D01*
X168253898Y-81645612D01*
X168252873Y-81642455D01*
X168174232Y-81488112D01*
X168072414Y-81347972D01*
X167949928Y-81225486D01*
X167809788Y-81123668D01*
X167655445Y-81045027D01*
X167490701Y-80991498D01*
X167490699Y-80991497D01*
X167490698Y-80991497D01*
X167359271Y-80970681D01*
X167319611Y-80964400D01*
X167146389Y-80964400D01*
X167106728Y-80970681D01*
X166975302Y-80991497D01*
X166810552Y-81045028D01*
X166656211Y-81123668D01*
X166576256Y-81181759D01*
X166516072Y-81225486D01*
X166516070Y-81225488D01*
X166516069Y-81225488D01*
X166393588Y-81347969D01*
X166393588Y-81347970D01*
X166393586Y-81347972D01*
X166349859Y-81408156D01*
X166291768Y-81488111D01*
X166213128Y-81642452D01*
X166159597Y-81807202D01*
X166149349Y-81871907D01*
X166132500Y-81978289D01*
X165793500Y-81978289D01*
X165793500Y-81190226D01*
X165793500Y-81190223D01*
X165793499Y-81190221D01*
X165778967Y-81117164D01*
X165778966Y-81117160D01*
X165764261Y-81095152D01*
X165723601Y-81034299D01*
X165640740Y-80978934D01*
X165640739Y-80978933D01*
X165640735Y-80978932D01*
X165567677Y-80964400D01*
X165567674Y-80964400D01*
X163818326Y-80964400D01*
X163818323Y-80964400D01*
X163745264Y-80978932D01*
X163745260Y-80978933D01*
X163662399Y-81034299D01*
X163607033Y-81117160D01*
X163607032Y-81117164D01*
X163592500Y-81190221D01*
X162975500Y-81190221D01*
X162975500Y-72079386D01*
X162995185Y-72012347D01*
X163011819Y-71991705D01*
X163040509Y-71963015D01*
X163112984Y-71837485D01*
X163150500Y-71697475D01*
X163150500Y-71552525D01*
X163112984Y-71412515D01*
X163107504Y-71403024D01*
X163040511Y-71286988D01*
X163040506Y-71286982D01*
X162938017Y-71184493D01*
X162938011Y-71184488D01*
X162812488Y-71112017D01*
X162812489Y-71112017D01*
X162777572Y-71102661D01*
X162672475Y-71074500D01*
X162527525Y-71074500D01*
X162422428Y-71102661D01*
X162387511Y-71112017D01*
X162261988Y-71184488D01*
X162261982Y-71184493D01*
X162159493Y-71286982D01*
X162159488Y-71286988D01*
X162087017Y-71412511D01*
X162087016Y-71412515D01*
X162049500Y-71552525D01*
X162049500Y-71697475D01*
X162076104Y-71796761D01*
X162087017Y-71837488D01*
X162159488Y-71963011D01*
X162159493Y-71963017D01*
X162188181Y-71991705D01*
X162221666Y-72053028D01*
X162224500Y-72079386D01*
X162224500Y-72469648D01*
X162204815Y-72536687D01*
X162152011Y-72582442D01*
X162082853Y-72592386D01*
X162038500Y-72577035D01*
X162012488Y-72562017D01*
X162012489Y-72562017D01*
X162001006Y-72558940D01*
X161872475Y-72524500D01*
X161727525Y-72524500D01*
X161598993Y-72558940D01*
X161587511Y-72562017D01*
X161461988Y-72634488D01*
X161461982Y-72634493D01*
X161359493Y-72736982D01*
X161359489Y-72736988D01*
X161287015Y-72862515D01*
X161284693Y-72871181D01*
X161281739Y-72882205D01*
X161280090Y-72885063D01*
X161254500Y-72980564D01*
X161254500Y-72983863D01*
X161251543Y-72994899D01*
X161249500Y-73002521D01*
X161249500Y-73002525D01*
X161249500Y-73147475D01*
X161286891Y-73287017D01*
X161287017Y-73287488D01*
X161359488Y-73413011D01*
X161359493Y-73413017D01*
X161388181Y-73441705D01*
X161421666Y-73503028D01*
X161424500Y-73529386D01*
X161424500Y-73869648D01*
X161404815Y-73936687D01*
X161352011Y-73982442D01*
X161282853Y-73992386D01*
X161238500Y-73977035D01*
X161212488Y-73962017D01*
X161212489Y-73962017D01*
X161201006Y-73958940D01*
X161072475Y-73924500D01*
X160927525Y-73924500D01*
X160798993Y-73958940D01*
X160787511Y-73962017D01*
X160661988Y-74034488D01*
X160661982Y-74034493D01*
X160559493Y-74136982D01*
X160559488Y-74136988D01*
X160487017Y-74262511D01*
X160487016Y-74262515D01*
X160449500Y-74402525D01*
X160449500Y-74547475D01*
X160486891Y-74687017D01*
X160487017Y-74687488D01*
X160559488Y-74813011D01*
X160559493Y-74813017D01*
X160588181Y-74841705D01*
X160621666Y-74903028D01*
X160624500Y-74929386D01*
X160624500Y-75269648D01*
X160604815Y-75336687D01*
X160552011Y-75382442D01*
X160482853Y-75392386D01*
X160438500Y-75377035D01*
X160412488Y-75362017D01*
X160412489Y-75362017D01*
X160401006Y-75358940D01*
X160272475Y-75324500D01*
X160127525Y-75324500D01*
X159998993Y-75358940D01*
X159987511Y-75362017D01*
X159861988Y-75434488D01*
X159861982Y-75434493D01*
X159759493Y-75536982D01*
X159759488Y-75536988D01*
X159687017Y-75662511D01*
X159687016Y-75662515D01*
X159649500Y-75802525D01*
X128529500Y-75802525D01*
X128529500Y-72519870D01*
X128529726Y-72512383D01*
X128547271Y-72222325D01*
X128549076Y-72207460D01*
X128593873Y-71963015D01*
X128600780Y-71925318D01*
X128604364Y-71910784D01*
X128610212Y-71892017D01*
X128689699Y-71636932D01*
X128694997Y-71622962D01*
X128812727Y-71361378D01*
X128819680Y-71348132D01*
X128901681Y-71212485D01*
X128968075Y-71102654D01*
X128976567Y-71090350D01*
X129153481Y-70864537D01*
X129163396Y-70853346D01*
X129366226Y-70650516D01*
X129377417Y-70640601D01*
X129603230Y-70463687D01*
X129615534Y-70455195D01*
X129861012Y-70306800D01*
X129874258Y-70299847D01*
X130135842Y-70182117D01*
X130149812Y-70176819D01*
X130423668Y-70091482D01*
X130438198Y-70087900D01*
X130720344Y-70036195D01*
X130735201Y-70034391D01*
X131025264Y-70016846D01*
X131032751Y-70016620D01*
X131094892Y-70016620D01*
X172963108Y-70016620D01*
X173025249Y-70016620D01*
X173032736Y-70016846D01*
G37*
%TD.AperFunction*%
%TD*%
M02*
