%TF.GenerationSoftware,KiCad,Pcbnew,9.0.3-9.0.3-0~ubuntu24.04.1*%
%TF.CreationDate,2025-07-14T18:48:31-05:00*%
%TF.ProjectId,ESP32_LogicAnalyzer,45535033-325f-44c6-9f67-6963416e616c,rev?*%
%TF.SameCoordinates,Original*%
%TF.FileFunction,Paste,Top*%
%TF.FilePolarity,Positive*%
%FSLAX46Y46*%
G04 Gerber Fmt 4.6, Leading zero omitted, Abs format (unit mm)*
G04 Created by KiCad (PCBNEW 9.0.3-9.0.3-0~ubuntu24.04.1) date 2025-07-14 18:48:31*
%MOMM*%
%LPD*%
G01*
G04 APERTURE LIST*
G04 Aperture macros list*
%AMRoundRect*
0 Rectangle with rounded corners*
0 $1 Rounding radius*
0 $2 $3 $4 $5 $6 $7 $8 $9 X,Y pos of 4 corners*
0 Add a 4 corners polygon primitive as box body*
4,1,4,$2,$3,$4,$5,$6,$7,$8,$9,$2,$3,0*
0 Add four circle primitives for the rounded corners*
1,1,$1+$1,$2,$3*
1,1,$1+$1,$4,$5*
1,1,$1+$1,$6,$7*
1,1,$1+$1,$8,$9*
0 Add four rect primitives between the rounded corners*
20,1,$1+$1,$2,$3,$4,$5,0*
20,1,$1+$1,$4,$5,$6,$7,0*
20,1,$1+$1,$6,$7,$8,$9,0*
20,1,$1+$1,$8,$9,$2,$3,0*%
G04 Aperture macros list end*
%ADD10RoundRect,0.250000X0.262500X0.450000X-0.262500X0.450000X-0.262500X-0.450000X0.262500X-0.450000X0*%
%ADD11RoundRect,0.100000X-0.637500X-0.100000X0.637500X-0.100000X0.637500X0.100000X-0.637500X0.100000X0*%
%ADD12RoundRect,0.250000X0.250000X0.475000X-0.250000X0.475000X-0.250000X-0.475000X0.250000X-0.475000X0*%
%ADD13RoundRect,0.250000X-0.262500X-0.450000X0.262500X-0.450000X0.262500X0.450000X-0.262500X0.450000X0*%
G04 APERTURE END LIST*
D10*
%TO.C,R2*%
X145066500Y-100669800D03*
X146891500Y-100669800D03*
%TD*%
%TO.C,R4*%
X140616500Y-100669800D03*
X142441500Y-100669800D03*
%TD*%
D11*
%TO.C,U1*%
X146479000Y-103969800D03*
X146479000Y-104619800D03*
X146479000Y-105269800D03*
X146479000Y-105919800D03*
X146479000Y-106569800D03*
X146479000Y-107219800D03*
X146479000Y-107869800D03*
X146479000Y-108519800D03*
X146479000Y-109169800D03*
X146479000Y-109819800D03*
X140754000Y-109819800D03*
X140754000Y-109169800D03*
X140754000Y-108519800D03*
X140754000Y-107869800D03*
X140754000Y-107219800D03*
X140754000Y-106569800D03*
X140754000Y-105919800D03*
X140754000Y-105269800D03*
X140754000Y-104619800D03*
X140754000Y-103969800D03*
%TD*%
D12*
%TO.C,C1*%
X149079000Y-103894800D03*
X150979000Y-103894800D03*
%TD*%
D13*
%TO.C,R1*%
X142529000Y-83169800D03*
X140704000Y-83169800D03*
%TD*%
D11*
%TO.C,U2*%
X146479000Y-86469800D03*
X146479000Y-87119800D03*
X146479000Y-87769800D03*
X146479000Y-88419800D03*
X146479000Y-89069800D03*
X146479000Y-89719800D03*
X146479000Y-90369800D03*
X146479000Y-91019800D03*
X146479000Y-91669800D03*
X146479000Y-92319800D03*
X140754000Y-92319800D03*
X140754000Y-91669800D03*
X140754000Y-91019800D03*
X140754000Y-90369800D03*
X140754000Y-89719800D03*
X140754000Y-89069800D03*
X140754000Y-88419800D03*
X140754000Y-87769800D03*
X140754000Y-87119800D03*
X140754000Y-86469800D03*
%TD*%
D13*
%TO.C,R3*%
X146891500Y-83169800D03*
X145066500Y-83169800D03*
%TD*%
D12*
%TO.C,C2*%
X149079000Y-86169800D03*
X150979000Y-86169800D03*
%TD*%
M02*
