%TF.GenerationSoftware,KiCad,Pcbnew,9.0.3-9.0.3-0~ubuntu24.04.1*%
%TF.CreationDate,2025-07-14T18:48:31-05:00*%
%TF.ProjectId,ESP32_LogicAnalyzer,45535033-325f-44c6-9f67-6963416e616c,rev?*%
%TF.SameCoordinates,Original*%
%TF.FileFunction,Legend,Top*%
%TF.FilePolarity,Positive*%
%FSLAX46Y46*%
G04 Gerber Fmt 4.6, Leading zero omitted, Abs format (unit mm)*
G04 Created by KiCad (PCBNEW 9.0.3-9.0.3-0~ubuntu24.04.1) date 2025-07-14 18:48:31*
%MOMM*%
%LPD*%
G01*
G04 APERTURE LIST*
%ADD10C,0.100000*%
%ADD11C,0.200000*%
%ADD12C,0.150000*%
%ADD13C,0.120000*%
G04 APERTURE END LIST*
D10*
X171300693Y-113036038D02*
X171205455Y-112988419D01*
X171205455Y-112988419D02*
X171062598Y-112988419D01*
X171062598Y-112988419D02*
X170919741Y-113036038D01*
X170919741Y-113036038D02*
X170824503Y-113131276D01*
X170824503Y-113131276D02*
X170776884Y-113226514D01*
X170776884Y-113226514D02*
X170729265Y-113416990D01*
X170729265Y-113416990D02*
X170729265Y-113559847D01*
X170729265Y-113559847D02*
X170776884Y-113750323D01*
X170776884Y-113750323D02*
X170824503Y-113845561D01*
X170824503Y-113845561D02*
X170919741Y-113940800D01*
X170919741Y-113940800D02*
X171062598Y-113988419D01*
X171062598Y-113988419D02*
X171157836Y-113988419D01*
X171157836Y-113988419D02*
X171300693Y-113940800D01*
X171300693Y-113940800D02*
X171348312Y-113893180D01*
X171348312Y-113893180D02*
X171348312Y-113559847D01*
X171348312Y-113559847D02*
X171157836Y-113559847D01*
X171776884Y-113988419D02*
X171776884Y-112988419D01*
X171776884Y-112988419D02*
X172348312Y-113988419D01*
X172348312Y-113988419D02*
X172348312Y-112988419D01*
X172824503Y-113988419D02*
X172824503Y-112988419D01*
X172824503Y-112988419D02*
X173062598Y-112988419D01*
X173062598Y-112988419D02*
X173205455Y-113036038D01*
X173205455Y-113036038D02*
X173300693Y-113131276D01*
X173300693Y-113131276D02*
X173348312Y-113226514D01*
X173348312Y-113226514D02*
X173395931Y-113416990D01*
X173395931Y-113416990D02*
X173395931Y-113559847D01*
X173395931Y-113559847D02*
X173348312Y-113750323D01*
X173348312Y-113750323D02*
X173300693Y-113845561D01*
X173300693Y-113845561D02*
X173205455Y-113940800D01*
X173205455Y-113940800D02*
X173062598Y-113988419D01*
X173062598Y-113988419D02*
X172824503Y-113988419D01*
X171300693Y-110536038D02*
X171205455Y-110488419D01*
X171205455Y-110488419D02*
X171062598Y-110488419D01*
X171062598Y-110488419D02*
X170919741Y-110536038D01*
X170919741Y-110536038D02*
X170824503Y-110631276D01*
X170824503Y-110631276D02*
X170776884Y-110726514D01*
X170776884Y-110726514D02*
X170729265Y-110916990D01*
X170729265Y-110916990D02*
X170729265Y-111059847D01*
X170729265Y-111059847D02*
X170776884Y-111250323D01*
X170776884Y-111250323D02*
X170824503Y-111345561D01*
X170824503Y-111345561D02*
X170919741Y-111440800D01*
X170919741Y-111440800D02*
X171062598Y-111488419D01*
X171062598Y-111488419D02*
X171157836Y-111488419D01*
X171157836Y-111488419D02*
X171300693Y-111440800D01*
X171300693Y-111440800D02*
X171348312Y-111393180D01*
X171348312Y-111393180D02*
X171348312Y-111059847D01*
X171348312Y-111059847D02*
X171157836Y-111059847D01*
X171776884Y-111488419D02*
X171776884Y-110488419D01*
X171776884Y-110488419D02*
X172348312Y-111488419D01*
X172348312Y-111488419D02*
X172348312Y-110488419D01*
X172824503Y-111488419D02*
X172824503Y-110488419D01*
X172824503Y-110488419D02*
X173062598Y-110488419D01*
X173062598Y-110488419D02*
X173205455Y-110536038D01*
X173205455Y-110536038D02*
X173300693Y-110631276D01*
X173300693Y-110631276D02*
X173348312Y-110726514D01*
X173348312Y-110726514D02*
X173395931Y-110916990D01*
X173395931Y-110916990D02*
X173395931Y-111059847D01*
X173395931Y-111059847D02*
X173348312Y-111250323D01*
X173348312Y-111250323D02*
X173300693Y-111345561D01*
X173300693Y-111345561D02*
X173205455Y-111440800D01*
X173205455Y-111440800D02*
X173062598Y-111488419D01*
X173062598Y-111488419D02*
X172824503Y-111488419D01*
X160500000Y-110000000D02*
X164000000Y-110000000D01*
X164000000Y-112000000D01*
X160500000Y-112000000D01*
X160500000Y-110000000D01*
X160500000Y-112500000D02*
X164000000Y-112500000D01*
X164000000Y-114500000D01*
X160500000Y-114500000D01*
X160500000Y-112500000D01*
X170500000Y-112500000D02*
X174000000Y-112500000D01*
X174000000Y-114500000D01*
X170500000Y-114500000D01*
X170500000Y-112500000D01*
X170500000Y-110000000D02*
X174000000Y-110000000D01*
X174000000Y-112000000D01*
X170500000Y-112000000D01*
X170500000Y-110000000D01*
X167529000Y-74394800D02*
X168529000Y-74394800D01*
X160779000Y-71894800D02*
X164029000Y-71894800D01*
X164029000Y-73894800D02*
X164029000Y-74394800D01*
X134279000Y-74394800D02*
X160779000Y-74394800D01*
X164029000Y-71894800D02*
X164029000Y-73894800D01*
X164029000Y-74394800D02*
X166529000Y-74394800D01*
X167529000Y-74394800D02*
X167529000Y-71894800D01*
X169029000Y-74394800D02*
X172029000Y-74394800D01*
X166529000Y-71894800D02*
X167529000Y-71894800D01*
X160779000Y-74394800D02*
X160779000Y-71894800D01*
X168529000Y-71894800D02*
X169029000Y-71894800D01*
X168529000Y-74394800D02*
X168529000Y-71894800D01*
X134279000Y-74394800D02*
X133279000Y-75394800D01*
X131279000Y-75394800D01*
X131279000Y-73394800D01*
X133279000Y-73394800D01*
X134279000Y-74394800D01*
G36*
X134279000Y-74394800D02*
G01*
X133279000Y-75394800D01*
X131279000Y-75394800D01*
X131279000Y-73394800D01*
X133279000Y-73394800D01*
X134279000Y-74394800D01*
G37*
X169029000Y-71894800D02*
X169029000Y-74394800D01*
D11*
X136017720Y-72915114D02*
X136517720Y-72915114D01*
X136732006Y-73700828D02*
X136017720Y-73700828D01*
X136017720Y-73700828D02*
X136017720Y-72200828D01*
X136017720Y-72200828D02*
X136732006Y-72200828D01*
X137303435Y-73629400D02*
X137517721Y-73700828D01*
X137517721Y-73700828D02*
X137874863Y-73700828D01*
X137874863Y-73700828D02*
X138017721Y-73629400D01*
X138017721Y-73629400D02*
X138089149Y-73557971D01*
X138089149Y-73557971D02*
X138160578Y-73415114D01*
X138160578Y-73415114D02*
X138160578Y-73272257D01*
X138160578Y-73272257D02*
X138089149Y-73129400D01*
X138089149Y-73129400D02*
X138017721Y-73057971D01*
X138017721Y-73057971D02*
X137874863Y-72986542D01*
X137874863Y-72986542D02*
X137589149Y-72915114D01*
X137589149Y-72915114D02*
X137446292Y-72843685D01*
X137446292Y-72843685D02*
X137374863Y-72772257D01*
X137374863Y-72772257D02*
X137303435Y-72629400D01*
X137303435Y-72629400D02*
X137303435Y-72486542D01*
X137303435Y-72486542D02*
X137374863Y-72343685D01*
X137374863Y-72343685D02*
X137446292Y-72272257D01*
X137446292Y-72272257D02*
X137589149Y-72200828D01*
X137589149Y-72200828D02*
X137946292Y-72200828D01*
X137946292Y-72200828D02*
X138160578Y-72272257D01*
X138803434Y-73700828D02*
X138803434Y-72200828D01*
X138803434Y-72200828D02*
X139374863Y-72200828D01*
X139374863Y-72200828D02*
X139517720Y-72272257D01*
X139517720Y-72272257D02*
X139589149Y-72343685D01*
X139589149Y-72343685D02*
X139660577Y-72486542D01*
X139660577Y-72486542D02*
X139660577Y-72700828D01*
X139660577Y-72700828D02*
X139589149Y-72843685D01*
X139589149Y-72843685D02*
X139517720Y-72915114D01*
X139517720Y-72915114D02*
X139374863Y-72986542D01*
X139374863Y-72986542D02*
X138803434Y-72986542D01*
X140160577Y-72200828D02*
X141089149Y-72200828D01*
X141089149Y-72200828D02*
X140589149Y-72772257D01*
X140589149Y-72772257D02*
X140803434Y-72772257D01*
X140803434Y-72772257D02*
X140946292Y-72843685D01*
X140946292Y-72843685D02*
X141017720Y-72915114D01*
X141017720Y-72915114D02*
X141089149Y-73057971D01*
X141089149Y-73057971D02*
X141089149Y-73415114D01*
X141089149Y-73415114D02*
X141017720Y-73557971D01*
X141017720Y-73557971D02*
X140946292Y-73629400D01*
X140946292Y-73629400D02*
X140803434Y-73700828D01*
X140803434Y-73700828D02*
X140374863Y-73700828D01*
X140374863Y-73700828D02*
X140232006Y-73629400D01*
X140232006Y-73629400D02*
X140160577Y-73557971D01*
X141660577Y-72343685D02*
X141732005Y-72272257D01*
X141732005Y-72272257D02*
X141874863Y-72200828D01*
X141874863Y-72200828D02*
X142232005Y-72200828D01*
X142232005Y-72200828D02*
X142374863Y-72272257D01*
X142374863Y-72272257D02*
X142446291Y-72343685D01*
X142446291Y-72343685D02*
X142517720Y-72486542D01*
X142517720Y-72486542D02*
X142517720Y-72629400D01*
X142517720Y-72629400D02*
X142446291Y-72843685D01*
X142446291Y-72843685D02*
X141589148Y-73700828D01*
X141589148Y-73700828D02*
X142517720Y-73700828D01*
X145017719Y-73700828D02*
X144303433Y-73700828D01*
X144303433Y-73700828D02*
X144303433Y-72200828D01*
X145732005Y-73700828D02*
X145589148Y-73629400D01*
X145589148Y-73629400D02*
X145517719Y-73557971D01*
X145517719Y-73557971D02*
X145446291Y-73415114D01*
X145446291Y-73415114D02*
X145446291Y-72986542D01*
X145446291Y-72986542D02*
X145517719Y-72843685D01*
X145517719Y-72843685D02*
X145589148Y-72772257D01*
X145589148Y-72772257D02*
X145732005Y-72700828D01*
X145732005Y-72700828D02*
X145946291Y-72700828D01*
X145946291Y-72700828D02*
X146089148Y-72772257D01*
X146089148Y-72772257D02*
X146160577Y-72843685D01*
X146160577Y-72843685D02*
X146232005Y-72986542D01*
X146232005Y-72986542D02*
X146232005Y-73415114D01*
X146232005Y-73415114D02*
X146160577Y-73557971D01*
X146160577Y-73557971D02*
X146089148Y-73629400D01*
X146089148Y-73629400D02*
X145946291Y-73700828D01*
X145946291Y-73700828D02*
X145732005Y-73700828D01*
X147517720Y-72700828D02*
X147517720Y-73915114D01*
X147517720Y-73915114D02*
X147446291Y-74057971D01*
X147446291Y-74057971D02*
X147374862Y-74129400D01*
X147374862Y-74129400D02*
X147232005Y-74200828D01*
X147232005Y-74200828D02*
X147017720Y-74200828D01*
X147017720Y-74200828D02*
X146874862Y-74129400D01*
X147517720Y-73629400D02*
X147374862Y-73700828D01*
X147374862Y-73700828D02*
X147089148Y-73700828D01*
X147089148Y-73700828D02*
X146946291Y-73629400D01*
X146946291Y-73629400D02*
X146874862Y-73557971D01*
X146874862Y-73557971D02*
X146803434Y-73415114D01*
X146803434Y-73415114D02*
X146803434Y-72986542D01*
X146803434Y-72986542D02*
X146874862Y-72843685D01*
X146874862Y-72843685D02*
X146946291Y-72772257D01*
X146946291Y-72772257D02*
X147089148Y-72700828D01*
X147089148Y-72700828D02*
X147374862Y-72700828D01*
X147374862Y-72700828D02*
X147517720Y-72772257D01*
X148232005Y-73700828D02*
X148232005Y-72700828D01*
X148232005Y-72200828D02*
X148160577Y-72272257D01*
X148160577Y-72272257D02*
X148232005Y-72343685D01*
X148232005Y-72343685D02*
X148303434Y-72272257D01*
X148303434Y-72272257D02*
X148232005Y-72200828D01*
X148232005Y-72200828D02*
X148232005Y-72343685D01*
X149589149Y-73629400D02*
X149446291Y-73700828D01*
X149446291Y-73700828D02*
X149160577Y-73700828D01*
X149160577Y-73700828D02*
X149017720Y-73629400D01*
X149017720Y-73629400D02*
X148946291Y-73557971D01*
X148946291Y-73557971D02*
X148874863Y-73415114D01*
X148874863Y-73415114D02*
X148874863Y-72986542D01*
X148874863Y-72986542D02*
X148946291Y-72843685D01*
X148946291Y-72843685D02*
X149017720Y-72772257D01*
X149017720Y-72772257D02*
X149160577Y-72700828D01*
X149160577Y-72700828D02*
X149446291Y-72700828D01*
X149446291Y-72700828D02*
X149589149Y-72772257D01*
X150160577Y-73272257D02*
X150874863Y-73272257D01*
X150017720Y-73700828D02*
X150517720Y-72200828D01*
X150517720Y-72200828D02*
X151017720Y-73700828D01*
X151517719Y-72700828D02*
X151517719Y-73700828D01*
X151517719Y-72843685D02*
X151589148Y-72772257D01*
X151589148Y-72772257D02*
X151732005Y-72700828D01*
X151732005Y-72700828D02*
X151946291Y-72700828D01*
X151946291Y-72700828D02*
X152089148Y-72772257D01*
X152089148Y-72772257D02*
X152160577Y-72915114D01*
X152160577Y-72915114D02*
X152160577Y-73700828D01*
X153517720Y-73700828D02*
X153517720Y-72915114D01*
X153517720Y-72915114D02*
X153446291Y-72772257D01*
X153446291Y-72772257D02*
X153303434Y-72700828D01*
X153303434Y-72700828D02*
X153017720Y-72700828D01*
X153017720Y-72700828D02*
X152874862Y-72772257D01*
X153517720Y-73629400D02*
X153374862Y-73700828D01*
X153374862Y-73700828D02*
X153017720Y-73700828D01*
X153017720Y-73700828D02*
X152874862Y-73629400D01*
X152874862Y-73629400D02*
X152803434Y-73486542D01*
X152803434Y-73486542D02*
X152803434Y-73343685D01*
X152803434Y-73343685D02*
X152874862Y-73200828D01*
X152874862Y-73200828D02*
X153017720Y-73129400D01*
X153017720Y-73129400D02*
X153374862Y-73129400D01*
X153374862Y-73129400D02*
X153517720Y-73057971D01*
X154446291Y-73700828D02*
X154303434Y-73629400D01*
X154303434Y-73629400D02*
X154232005Y-73486542D01*
X154232005Y-73486542D02*
X154232005Y-72200828D01*
X154874862Y-72700828D02*
X155232005Y-73700828D01*
X155589148Y-72700828D02*
X155232005Y-73700828D01*
X155232005Y-73700828D02*
X155089148Y-74057971D01*
X155089148Y-74057971D02*
X155017719Y-74129400D01*
X155017719Y-74129400D02*
X154874862Y-74200828D01*
X156017719Y-72700828D02*
X156803434Y-72700828D01*
X156803434Y-72700828D02*
X156017719Y-73700828D01*
X156017719Y-73700828D02*
X156803434Y-73700828D01*
X157946291Y-73629400D02*
X157803434Y-73700828D01*
X157803434Y-73700828D02*
X157517720Y-73700828D01*
X157517720Y-73700828D02*
X157374862Y-73629400D01*
X157374862Y-73629400D02*
X157303434Y-73486542D01*
X157303434Y-73486542D02*
X157303434Y-72915114D01*
X157303434Y-72915114D02*
X157374862Y-72772257D01*
X157374862Y-72772257D02*
X157517720Y-72700828D01*
X157517720Y-72700828D02*
X157803434Y-72700828D01*
X157803434Y-72700828D02*
X157946291Y-72772257D01*
X157946291Y-72772257D02*
X158017720Y-72915114D01*
X158017720Y-72915114D02*
X158017720Y-73057971D01*
X158017720Y-73057971D02*
X157303434Y-73200828D01*
X158660576Y-73700828D02*
X158660576Y-72700828D01*
X158660576Y-72986542D02*
X158732005Y-72843685D01*
X158732005Y-72843685D02*
X158803434Y-72772257D01*
X158803434Y-72772257D02*
X158946291Y-72700828D01*
X158946291Y-72700828D02*
X159089148Y-72700828D01*
D10*
X166529000Y-74394800D02*
X166529000Y-71894800D01*
X167529000Y-71894800D02*
X167529000Y-74394800D01*
X167023000Y-77887400D02*
X166523000Y-77387400D01*
X167523000Y-77387400D01*
X167023000Y-77887400D01*
G36*
X167023000Y-77887400D02*
G01*
X166523000Y-77387400D01*
X167523000Y-77387400D01*
X167023000Y-77887400D01*
G37*
X165523000Y-77887400D02*
X164523000Y-77887400D01*
X165023000Y-77387400D01*
X165523000Y-77887400D01*
G36*
X165523000Y-77887400D02*
G01*
X164523000Y-77887400D01*
X165023000Y-77387400D01*
X165523000Y-77887400D01*
G37*
X141318000Y-116394800D02*
X148029000Y-116394800D01*
X148029000Y-120284800D01*
X141318000Y-120284800D01*
X141318000Y-116394800D01*
X143332884Y-118657219D02*
X143332884Y-119466742D01*
X143332884Y-119466742D02*
X143380503Y-119561980D01*
X143380503Y-119561980D02*
X143428122Y-119609600D01*
X143428122Y-119609600D02*
X143523360Y-119657219D01*
X143523360Y-119657219D02*
X143713836Y-119657219D01*
X143713836Y-119657219D02*
X143809074Y-119609600D01*
X143809074Y-119609600D02*
X143856693Y-119561980D01*
X143856693Y-119561980D02*
X143904312Y-119466742D01*
X143904312Y-119466742D02*
X143904312Y-118657219D01*
X144332884Y-119609600D02*
X144475741Y-119657219D01*
X144475741Y-119657219D02*
X144713836Y-119657219D01*
X144713836Y-119657219D02*
X144809074Y-119609600D01*
X144809074Y-119609600D02*
X144856693Y-119561980D01*
X144856693Y-119561980D02*
X144904312Y-119466742D01*
X144904312Y-119466742D02*
X144904312Y-119371504D01*
X144904312Y-119371504D02*
X144856693Y-119276266D01*
X144856693Y-119276266D02*
X144809074Y-119228647D01*
X144809074Y-119228647D02*
X144713836Y-119181028D01*
X144713836Y-119181028D02*
X144523360Y-119133409D01*
X144523360Y-119133409D02*
X144428122Y-119085790D01*
X144428122Y-119085790D02*
X144380503Y-119038171D01*
X144380503Y-119038171D02*
X144332884Y-118942933D01*
X144332884Y-118942933D02*
X144332884Y-118847695D01*
X144332884Y-118847695D02*
X144380503Y-118752457D01*
X144380503Y-118752457D02*
X144428122Y-118704838D01*
X144428122Y-118704838D02*
X144523360Y-118657219D01*
X144523360Y-118657219D02*
X144761455Y-118657219D01*
X144761455Y-118657219D02*
X144904312Y-118704838D01*
X145666217Y-119133409D02*
X145809074Y-119181028D01*
X145809074Y-119181028D02*
X145856693Y-119228647D01*
X145856693Y-119228647D02*
X145904312Y-119323885D01*
X145904312Y-119323885D02*
X145904312Y-119466742D01*
X145904312Y-119466742D02*
X145856693Y-119561980D01*
X145856693Y-119561980D02*
X145809074Y-119609600D01*
X145809074Y-119609600D02*
X145713836Y-119657219D01*
X145713836Y-119657219D02*
X145332884Y-119657219D01*
X145332884Y-119657219D02*
X145332884Y-118657219D01*
X145332884Y-118657219D02*
X145666217Y-118657219D01*
X145666217Y-118657219D02*
X145761455Y-118704838D01*
X145761455Y-118704838D02*
X145809074Y-118752457D01*
X145809074Y-118752457D02*
X145856693Y-118847695D01*
X145856693Y-118847695D02*
X145856693Y-118942933D01*
X145856693Y-118942933D02*
X145809074Y-119038171D01*
X145809074Y-119038171D02*
X145761455Y-119085790D01*
X145761455Y-119085790D02*
X145666217Y-119133409D01*
X145666217Y-119133409D02*
X145332884Y-119133409D01*
X161716734Y-96393180D02*
X161669115Y-96440800D01*
X161669115Y-96440800D02*
X161526258Y-96488419D01*
X161526258Y-96488419D02*
X161431020Y-96488419D01*
X161431020Y-96488419D02*
X161288163Y-96440800D01*
X161288163Y-96440800D02*
X161192925Y-96345561D01*
X161192925Y-96345561D02*
X161145306Y-96250323D01*
X161145306Y-96250323D02*
X161097687Y-96059847D01*
X161097687Y-96059847D02*
X161097687Y-95916990D01*
X161097687Y-95916990D02*
X161145306Y-95726514D01*
X161145306Y-95726514D02*
X161192925Y-95631276D01*
X161192925Y-95631276D02*
X161288163Y-95536038D01*
X161288163Y-95536038D02*
X161431020Y-95488419D01*
X161431020Y-95488419D02*
X161526258Y-95488419D01*
X161526258Y-95488419D02*
X161669115Y-95536038D01*
X161669115Y-95536038D02*
X161716734Y-95583657D01*
X162145306Y-96488419D02*
X162145306Y-95488419D01*
X162145306Y-95964609D02*
X162716734Y-95964609D01*
X162716734Y-96488419D02*
X162716734Y-95488419D01*
X163145306Y-95583657D02*
X163192925Y-95536038D01*
X163192925Y-95536038D02*
X163288163Y-95488419D01*
X163288163Y-95488419D02*
X163526258Y-95488419D01*
X163526258Y-95488419D02*
X163621496Y-95536038D01*
X163621496Y-95536038D02*
X163669115Y-95583657D01*
X163669115Y-95583657D02*
X163716734Y-95678895D01*
X163716734Y-95678895D02*
X163716734Y-95774133D01*
X163716734Y-95774133D02*
X163669115Y-95916990D01*
X163669115Y-95916990D02*
X163097687Y-96488419D01*
X163097687Y-96488419D02*
X163716734Y-96488419D01*
X164826884Y-86097319D02*
X164826884Y-85097319D01*
X164826884Y-85097319D02*
X165064979Y-85097319D01*
X165064979Y-85097319D02*
X165207836Y-85144938D01*
X165207836Y-85144938D02*
X165303074Y-85240176D01*
X165303074Y-85240176D02*
X165350693Y-85335414D01*
X165350693Y-85335414D02*
X165398312Y-85525890D01*
X165398312Y-85525890D02*
X165398312Y-85668747D01*
X165398312Y-85668747D02*
X165350693Y-85859223D01*
X165350693Y-85859223D02*
X165303074Y-85954461D01*
X165303074Y-85954461D02*
X165207836Y-86049700D01*
X165207836Y-86049700D02*
X165064979Y-86097319D01*
X165064979Y-86097319D02*
X164826884Y-86097319D01*
X165826884Y-85573509D02*
X166160217Y-85573509D01*
X166303074Y-86097319D02*
X165826884Y-86097319D01*
X165826884Y-86097319D02*
X165826884Y-85097319D01*
X165826884Y-85097319D02*
X166303074Y-85097319D01*
X167064979Y-85573509D02*
X167207836Y-85621128D01*
X167207836Y-85621128D02*
X167255455Y-85668747D01*
X167255455Y-85668747D02*
X167303074Y-85763985D01*
X167303074Y-85763985D02*
X167303074Y-85906842D01*
X167303074Y-85906842D02*
X167255455Y-86002080D01*
X167255455Y-86002080D02*
X167207836Y-86049700D01*
X167207836Y-86049700D02*
X167112598Y-86097319D01*
X167112598Y-86097319D02*
X166731646Y-86097319D01*
X166731646Y-86097319D02*
X166731646Y-85097319D01*
X166731646Y-85097319D02*
X167064979Y-85097319D01*
X167064979Y-85097319D02*
X167160217Y-85144938D01*
X167160217Y-85144938D02*
X167207836Y-85192557D01*
X167207836Y-85192557D02*
X167255455Y-85287795D01*
X167255455Y-85287795D02*
X167255455Y-85383033D01*
X167255455Y-85383033D02*
X167207836Y-85478271D01*
X167207836Y-85478271D02*
X167160217Y-85525890D01*
X167160217Y-85525890D02*
X167064979Y-85573509D01*
X167064979Y-85573509D02*
X166731646Y-85573509D01*
X167731646Y-85097319D02*
X167731646Y-85906842D01*
X167731646Y-85906842D02*
X167779265Y-86002080D01*
X167779265Y-86002080D02*
X167826884Y-86049700D01*
X167826884Y-86049700D02*
X167922122Y-86097319D01*
X167922122Y-86097319D02*
X168112598Y-86097319D01*
X168112598Y-86097319D02*
X168207836Y-86049700D01*
X168207836Y-86049700D02*
X168255455Y-86002080D01*
X168255455Y-86002080D02*
X168303074Y-85906842D01*
X168303074Y-85906842D02*
X168303074Y-85097319D01*
X169303074Y-85144938D02*
X169207836Y-85097319D01*
X169207836Y-85097319D02*
X169064979Y-85097319D01*
X169064979Y-85097319D02*
X168922122Y-85144938D01*
X168922122Y-85144938D02*
X168826884Y-85240176D01*
X168826884Y-85240176D02*
X168779265Y-85335414D01*
X168779265Y-85335414D02*
X168731646Y-85525890D01*
X168731646Y-85525890D02*
X168731646Y-85668747D01*
X168731646Y-85668747D02*
X168779265Y-85859223D01*
X168779265Y-85859223D02*
X168826884Y-85954461D01*
X168826884Y-85954461D02*
X168922122Y-86049700D01*
X168922122Y-86049700D02*
X169064979Y-86097319D01*
X169064979Y-86097319D02*
X169160217Y-86097319D01*
X169160217Y-86097319D02*
X169303074Y-86049700D01*
X169303074Y-86049700D02*
X169350693Y-86002080D01*
X169350693Y-86002080D02*
X169350693Y-85668747D01*
X169350693Y-85668747D02*
X169160217Y-85668747D01*
X161716734Y-101393180D02*
X161669115Y-101440800D01*
X161669115Y-101440800D02*
X161526258Y-101488419D01*
X161526258Y-101488419D02*
X161431020Y-101488419D01*
X161431020Y-101488419D02*
X161288163Y-101440800D01*
X161288163Y-101440800D02*
X161192925Y-101345561D01*
X161192925Y-101345561D02*
X161145306Y-101250323D01*
X161145306Y-101250323D02*
X161097687Y-101059847D01*
X161097687Y-101059847D02*
X161097687Y-100916990D01*
X161097687Y-100916990D02*
X161145306Y-100726514D01*
X161145306Y-100726514D02*
X161192925Y-100631276D01*
X161192925Y-100631276D02*
X161288163Y-100536038D01*
X161288163Y-100536038D02*
X161431020Y-100488419D01*
X161431020Y-100488419D02*
X161526258Y-100488419D01*
X161526258Y-100488419D02*
X161669115Y-100536038D01*
X161669115Y-100536038D02*
X161716734Y-100583657D01*
X162145306Y-101488419D02*
X162145306Y-100488419D01*
X162145306Y-100964609D02*
X162716734Y-100964609D01*
X162716734Y-101488419D02*
X162716734Y-100488419D01*
X163621496Y-100821752D02*
X163621496Y-101488419D01*
X163383401Y-100440800D02*
X163145306Y-101155085D01*
X163145306Y-101155085D02*
X163764353Y-101155085D01*
X161716734Y-98893180D02*
X161669115Y-98940800D01*
X161669115Y-98940800D02*
X161526258Y-98988419D01*
X161526258Y-98988419D02*
X161431020Y-98988419D01*
X161431020Y-98988419D02*
X161288163Y-98940800D01*
X161288163Y-98940800D02*
X161192925Y-98845561D01*
X161192925Y-98845561D02*
X161145306Y-98750323D01*
X161145306Y-98750323D02*
X161097687Y-98559847D01*
X161097687Y-98559847D02*
X161097687Y-98416990D01*
X161097687Y-98416990D02*
X161145306Y-98226514D01*
X161145306Y-98226514D02*
X161192925Y-98131276D01*
X161192925Y-98131276D02*
X161288163Y-98036038D01*
X161288163Y-98036038D02*
X161431020Y-97988419D01*
X161431020Y-97988419D02*
X161526258Y-97988419D01*
X161526258Y-97988419D02*
X161669115Y-98036038D01*
X161669115Y-98036038D02*
X161716734Y-98083657D01*
X162145306Y-98988419D02*
X162145306Y-97988419D01*
X162145306Y-98464609D02*
X162716734Y-98464609D01*
X162716734Y-98988419D02*
X162716734Y-97988419D01*
X163097687Y-97988419D02*
X163716734Y-97988419D01*
X163716734Y-97988419D02*
X163383401Y-98369371D01*
X163383401Y-98369371D02*
X163526258Y-98369371D01*
X163526258Y-98369371D02*
X163621496Y-98416990D01*
X163621496Y-98416990D02*
X163669115Y-98464609D01*
X163669115Y-98464609D02*
X163716734Y-98559847D01*
X163716734Y-98559847D02*
X163716734Y-98797942D01*
X163716734Y-98797942D02*
X163669115Y-98893180D01*
X163669115Y-98893180D02*
X163621496Y-98940800D01*
X163621496Y-98940800D02*
X163526258Y-98988419D01*
X163526258Y-98988419D02*
X163240544Y-98988419D01*
X163240544Y-98988419D02*
X163145306Y-98940800D01*
X163145306Y-98940800D02*
X163097687Y-98893180D01*
X171348312Y-106393180D02*
X171300693Y-106440800D01*
X171300693Y-106440800D02*
X171157836Y-106488419D01*
X171157836Y-106488419D02*
X171062598Y-106488419D01*
X171062598Y-106488419D02*
X170919741Y-106440800D01*
X170919741Y-106440800D02*
X170824503Y-106345561D01*
X170824503Y-106345561D02*
X170776884Y-106250323D01*
X170776884Y-106250323D02*
X170729265Y-106059847D01*
X170729265Y-106059847D02*
X170729265Y-105916990D01*
X170729265Y-105916990D02*
X170776884Y-105726514D01*
X170776884Y-105726514D02*
X170824503Y-105631276D01*
X170824503Y-105631276D02*
X170919741Y-105536038D01*
X170919741Y-105536038D02*
X171062598Y-105488419D01*
X171062598Y-105488419D02*
X171157836Y-105488419D01*
X171157836Y-105488419D02*
X171300693Y-105536038D01*
X171300693Y-105536038D02*
X171348312Y-105583657D01*
X171776884Y-106488419D02*
X171776884Y-105488419D01*
X171776884Y-105964609D02*
X172348312Y-105964609D01*
X172348312Y-106488419D02*
X172348312Y-105488419D01*
X172872122Y-106488419D02*
X173062598Y-106488419D01*
X173062598Y-106488419D02*
X173157836Y-106440800D01*
X173157836Y-106440800D02*
X173205455Y-106393180D01*
X173205455Y-106393180D02*
X173300693Y-106250323D01*
X173300693Y-106250323D02*
X173348312Y-106059847D01*
X173348312Y-106059847D02*
X173348312Y-105678895D01*
X173348312Y-105678895D02*
X173300693Y-105583657D01*
X173300693Y-105583657D02*
X173253074Y-105536038D01*
X173253074Y-105536038D02*
X173157836Y-105488419D01*
X173157836Y-105488419D02*
X172967360Y-105488419D01*
X172967360Y-105488419D02*
X172872122Y-105536038D01*
X172872122Y-105536038D02*
X172824503Y-105583657D01*
X172824503Y-105583657D02*
X172776884Y-105678895D01*
X172776884Y-105678895D02*
X172776884Y-105916990D01*
X172776884Y-105916990D02*
X172824503Y-106012228D01*
X172824503Y-106012228D02*
X172872122Y-106059847D01*
X172872122Y-106059847D02*
X172967360Y-106107466D01*
X172967360Y-106107466D02*
X173157836Y-106107466D01*
X173157836Y-106107466D02*
X173253074Y-106059847D01*
X173253074Y-106059847D02*
X173300693Y-106012228D01*
X173300693Y-106012228D02*
X173348312Y-105916990D01*
X161621496Y-113036038D02*
X161526258Y-112988419D01*
X161526258Y-112988419D02*
X161383401Y-112988419D01*
X161383401Y-112988419D02*
X161240544Y-113036038D01*
X161240544Y-113036038D02*
X161145306Y-113131276D01*
X161145306Y-113131276D02*
X161097687Y-113226514D01*
X161097687Y-113226514D02*
X161050068Y-113416990D01*
X161050068Y-113416990D02*
X161050068Y-113559847D01*
X161050068Y-113559847D02*
X161097687Y-113750323D01*
X161097687Y-113750323D02*
X161145306Y-113845561D01*
X161145306Y-113845561D02*
X161240544Y-113940800D01*
X161240544Y-113940800D02*
X161383401Y-113988419D01*
X161383401Y-113988419D02*
X161478639Y-113988419D01*
X161478639Y-113988419D02*
X161621496Y-113940800D01*
X161621496Y-113940800D02*
X161669115Y-113893180D01*
X161669115Y-113893180D02*
X161669115Y-113559847D01*
X161669115Y-113559847D02*
X161478639Y-113559847D01*
X162097687Y-113988419D02*
X162097687Y-112988419D01*
X162097687Y-112988419D02*
X162669115Y-113988419D01*
X162669115Y-113988419D02*
X162669115Y-112988419D01*
X163145306Y-113988419D02*
X163145306Y-112988419D01*
X163145306Y-112988419D02*
X163383401Y-112988419D01*
X163383401Y-112988419D02*
X163526258Y-113036038D01*
X163526258Y-113036038D02*
X163621496Y-113131276D01*
X163621496Y-113131276D02*
X163669115Y-113226514D01*
X163669115Y-113226514D02*
X163716734Y-113416990D01*
X163716734Y-113416990D02*
X163716734Y-113559847D01*
X163716734Y-113559847D02*
X163669115Y-113750323D01*
X163669115Y-113750323D02*
X163621496Y-113845561D01*
X163621496Y-113845561D02*
X163526258Y-113940800D01*
X163526258Y-113940800D02*
X163383401Y-113988419D01*
X163383401Y-113988419D02*
X163145306Y-113988419D01*
X161716734Y-106393180D02*
X161669115Y-106440800D01*
X161669115Y-106440800D02*
X161526258Y-106488419D01*
X161526258Y-106488419D02*
X161431020Y-106488419D01*
X161431020Y-106488419D02*
X161288163Y-106440800D01*
X161288163Y-106440800D02*
X161192925Y-106345561D01*
X161192925Y-106345561D02*
X161145306Y-106250323D01*
X161145306Y-106250323D02*
X161097687Y-106059847D01*
X161097687Y-106059847D02*
X161097687Y-105916990D01*
X161097687Y-105916990D02*
X161145306Y-105726514D01*
X161145306Y-105726514D02*
X161192925Y-105631276D01*
X161192925Y-105631276D02*
X161288163Y-105536038D01*
X161288163Y-105536038D02*
X161431020Y-105488419D01*
X161431020Y-105488419D02*
X161526258Y-105488419D01*
X161526258Y-105488419D02*
X161669115Y-105536038D01*
X161669115Y-105536038D02*
X161716734Y-105583657D01*
X162145306Y-106488419D02*
X162145306Y-105488419D01*
X162145306Y-105964609D02*
X162716734Y-105964609D01*
X162716734Y-106488419D02*
X162716734Y-105488419D01*
X163621496Y-105488419D02*
X163431020Y-105488419D01*
X163431020Y-105488419D02*
X163335782Y-105536038D01*
X163335782Y-105536038D02*
X163288163Y-105583657D01*
X163288163Y-105583657D02*
X163192925Y-105726514D01*
X163192925Y-105726514D02*
X163145306Y-105916990D01*
X163145306Y-105916990D02*
X163145306Y-106297942D01*
X163145306Y-106297942D02*
X163192925Y-106393180D01*
X163192925Y-106393180D02*
X163240544Y-106440800D01*
X163240544Y-106440800D02*
X163335782Y-106488419D01*
X163335782Y-106488419D02*
X163526258Y-106488419D01*
X163526258Y-106488419D02*
X163621496Y-106440800D01*
X163621496Y-106440800D02*
X163669115Y-106393180D01*
X163669115Y-106393180D02*
X163716734Y-106297942D01*
X163716734Y-106297942D02*
X163716734Y-106059847D01*
X163716734Y-106059847D02*
X163669115Y-105964609D01*
X163669115Y-105964609D02*
X163621496Y-105916990D01*
X163621496Y-105916990D02*
X163526258Y-105869371D01*
X163526258Y-105869371D02*
X163335782Y-105869371D01*
X163335782Y-105869371D02*
X163240544Y-105916990D01*
X163240544Y-105916990D02*
X163192925Y-105964609D01*
X163192925Y-105964609D02*
X163145306Y-106059847D01*
X134832884Y-114767219D02*
X134832884Y-113767219D01*
X134832884Y-113767219D02*
X135166217Y-114481504D01*
X135166217Y-114481504D02*
X135499550Y-113767219D01*
X135499550Y-113767219D02*
X135499550Y-114767219D01*
X136166217Y-113767219D02*
X136356693Y-113767219D01*
X136356693Y-113767219D02*
X136451931Y-113814838D01*
X136451931Y-113814838D02*
X136547169Y-113910076D01*
X136547169Y-113910076D02*
X136594788Y-114100552D01*
X136594788Y-114100552D02*
X136594788Y-114433885D01*
X136594788Y-114433885D02*
X136547169Y-114624361D01*
X136547169Y-114624361D02*
X136451931Y-114719600D01*
X136451931Y-114719600D02*
X136356693Y-114767219D01*
X136356693Y-114767219D02*
X136166217Y-114767219D01*
X136166217Y-114767219D02*
X136070979Y-114719600D01*
X136070979Y-114719600D02*
X135975741Y-114624361D01*
X135975741Y-114624361D02*
X135928122Y-114433885D01*
X135928122Y-114433885D02*
X135928122Y-114100552D01*
X135928122Y-114100552D02*
X135975741Y-113910076D01*
X135975741Y-113910076D02*
X136070979Y-113814838D01*
X136070979Y-113814838D02*
X136166217Y-113767219D01*
X137023360Y-114767219D02*
X137023360Y-113767219D01*
X137023360Y-113767219D02*
X137261455Y-113767219D01*
X137261455Y-113767219D02*
X137404312Y-113814838D01*
X137404312Y-113814838D02*
X137499550Y-113910076D01*
X137499550Y-113910076D02*
X137547169Y-114005314D01*
X137547169Y-114005314D02*
X137594788Y-114195790D01*
X137594788Y-114195790D02*
X137594788Y-114338647D01*
X137594788Y-114338647D02*
X137547169Y-114529123D01*
X137547169Y-114529123D02*
X137499550Y-114624361D01*
X137499550Y-114624361D02*
X137404312Y-114719600D01*
X137404312Y-114719600D02*
X137261455Y-114767219D01*
X137261455Y-114767219D02*
X137023360Y-114767219D01*
X138023360Y-113767219D02*
X138023360Y-114576742D01*
X138023360Y-114576742D02*
X138070979Y-114671980D01*
X138070979Y-114671980D02*
X138118598Y-114719600D01*
X138118598Y-114719600D02*
X138213836Y-114767219D01*
X138213836Y-114767219D02*
X138404312Y-114767219D01*
X138404312Y-114767219D02*
X138499550Y-114719600D01*
X138499550Y-114719600D02*
X138547169Y-114671980D01*
X138547169Y-114671980D02*
X138594788Y-114576742D01*
X138594788Y-114576742D02*
X138594788Y-113767219D01*
X139547169Y-114767219D02*
X139070979Y-114767219D01*
X139070979Y-114767219D02*
X139070979Y-113767219D01*
X139880503Y-114243409D02*
X140213836Y-114243409D01*
X140356693Y-114767219D02*
X139880503Y-114767219D01*
X139880503Y-114767219D02*
X139880503Y-113767219D01*
X139880503Y-113767219D02*
X140356693Y-113767219D01*
X140547170Y-114862457D02*
X141309074Y-114862457D01*
X141547170Y-114243409D02*
X141880503Y-114243409D01*
X142023360Y-114767219D02*
X141547170Y-114767219D01*
X141547170Y-114767219D02*
X141547170Y-113767219D01*
X141547170Y-113767219D02*
X142023360Y-113767219D01*
X142404313Y-114719600D02*
X142547170Y-114767219D01*
X142547170Y-114767219D02*
X142785265Y-114767219D01*
X142785265Y-114767219D02*
X142880503Y-114719600D01*
X142880503Y-114719600D02*
X142928122Y-114671980D01*
X142928122Y-114671980D02*
X142975741Y-114576742D01*
X142975741Y-114576742D02*
X142975741Y-114481504D01*
X142975741Y-114481504D02*
X142928122Y-114386266D01*
X142928122Y-114386266D02*
X142880503Y-114338647D01*
X142880503Y-114338647D02*
X142785265Y-114291028D01*
X142785265Y-114291028D02*
X142594789Y-114243409D01*
X142594789Y-114243409D02*
X142499551Y-114195790D01*
X142499551Y-114195790D02*
X142451932Y-114148171D01*
X142451932Y-114148171D02*
X142404313Y-114052933D01*
X142404313Y-114052933D02*
X142404313Y-113957695D01*
X142404313Y-113957695D02*
X142451932Y-113862457D01*
X142451932Y-113862457D02*
X142499551Y-113814838D01*
X142499551Y-113814838D02*
X142594789Y-113767219D01*
X142594789Y-113767219D02*
X142832884Y-113767219D01*
X142832884Y-113767219D02*
X142975741Y-113814838D01*
X143404313Y-114767219D02*
X143404313Y-113767219D01*
X143404313Y-113767219D02*
X143785265Y-113767219D01*
X143785265Y-113767219D02*
X143880503Y-113814838D01*
X143880503Y-113814838D02*
X143928122Y-113862457D01*
X143928122Y-113862457D02*
X143975741Y-113957695D01*
X143975741Y-113957695D02*
X143975741Y-114100552D01*
X143975741Y-114100552D02*
X143928122Y-114195790D01*
X143928122Y-114195790D02*
X143880503Y-114243409D01*
X143880503Y-114243409D02*
X143785265Y-114291028D01*
X143785265Y-114291028D02*
X143404313Y-114291028D01*
X144309075Y-113767219D02*
X144928122Y-113767219D01*
X144928122Y-113767219D02*
X144594789Y-114148171D01*
X144594789Y-114148171D02*
X144737646Y-114148171D01*
X144737646Y-114148171D02*
X144832884Y-114195790D01*
X144832884Y-114195790D02*
X144880503Y-114243409D01*
X144880503Y-114243409D02*
X144928122Y-114338647D01*
X144928122Y-114338647D02*
X144928122Y-114576742D01*
X144928122Y-114576742D02*
X144880503Y-114671980D01*
X144880503Y-114671980D02*
X144832884Y-114719600D01*
X144832884Y-114719600D02*
X144737646Y-114767219D01*
X144737646Y-114767219D02*
X144451932Y-114767219D01*
X144451932Y-114767219D02*
X144356694Y-114719600D01*
X144356694Y-114719600D02*
X144309075Y-114671980D01*
X145309075Y-113862457D02*
X145356694Y-113814838D01*
X145356694Y-113814838D02*
X145451932Y-113767219D01*
X145451932Y-113767219D02*
X145690027Y-113767219D01*
X145690027Y-113767219D02*
X145785265Y-113814838D01*
X145785265Y-113814838D02*
X145832884Y-113862457D01*
X145832884Y-113862457D02*
X145880503Y-113957695D01*
X145880503Y-113957695D02*
X145880503Y-114052933D01*
X145880503Y-114052933D02*
X145832884Y-114195790D01*
X145832884Y-114195790D02*
X145261456Y-114767219D01*
X145261456Y-114767219D02*
X145880503Y-114767219D01*
X146070980Y-114862457D02*
X146832884Y-114862457D01*
X147070980Y-114767219D02*
X147070980Y-113767219D01*
X147070980Y-113767219D02*
X147309075Y-113767219D01*
X147309075Y-113767219D02*
X147451932Y-113814838D01*
X147451932Y-113814838D02*
X147547170Y-113910076D01*
X147547170Y-113910076D02*
X147594789Y-114005314D01*
X147594789Y-114005314D02*
X147642408Y-114195790D01*
X147642408Y-114195790D02*
X147642408Y-114338647D01*
X147642408Y-114338647D02*
X147594789Y-114529123D01*
X147594789Y-114529123D02*
X147547170Y-114624361D01*
X147547170Y-114624361D02*
X147451932Y-114719600D01*
X147451932Y-114719600D02*
X147309075Y-114767219D01*
X147309075Y-114767219D02*
X147070980Y-114767219D01*
X148070980Y-114243409D02*
X148404313Y-114243409D01*
X148547170Y-114767219D02*
X148070980Y-114767219D01*
X148070980Y-114767219D02*
X148070980Y-113767219D01*
X148070980Y-113767219D02*
X148547170Y-113767219D01*
X148832885Y-113767219D02*
X149166218Y-114767219D01*
X149166218Y-114767219D02*
X149499551Y-113767219D01*
X149832885Y-114767219D02*
X149832885Y-113767219D01*
X150404313Y-114767219D02*
X149975742Y-114195790D01*
X150404313Y-113767219D02*
X149832885Y-114338647D01*
X150832885Y-114767219D02*
X150832885Y-113767219D01*
X151166218Y-113767219D02*
X151737646Y-113767219D01*
X151451932Y-114767219D02*
X151451932Y-113767219D01*
X151832885Y-114862457D02*
X152594789Y-114862457D01*
X152690028Y-113767219D02*
X153023361Y-114767219D01*
X153023361Y-114767219D02*
X153356694Y-113767219D01*
X154213837Y-114767219D02*
X153642409Y-114767219D01*
X153928123Y-114767219D02*
X153928123Y-113767219D01*
X153928123Y-113767219D02*
X153832885Y-113910076D01*
X153832885Y-113910076D02*
X153737647Y-114005314D01*
X153737647Y-114005314D02*
X153642409Y-114052933D01*
X171348312Y-101393180D02*
X171300693Y-101440800D01*
X171300693Y-101440800D02*
X171157836Y-101488419D01*
X171157836Y-101488419D02*
X171062598Y-101488419D01*
X171062598Y-101488419D02*
X170919741Y-101440800D01*
X170919741Y-101440800D02*
X170824503Y-101345561D01*
X170824503Y-101345561D02*
X170776884Y-101250323D01*
X170776884Y-101250323D02*
X170729265Y-101059847D01*
X170729265Y-101059847D02*
X170729265Y-100916990D01*
X170729265Y-100916990D02*
X170776884Y-100726514D01*
X170776884Y-100726514D02*
X170824503Y-100631276D01*
X170824503Y-100631276D02*
X170919741Y-100536038D01*
X170919741Y-100536038D02*
X171062598Y-100488419D01*
X171062598Y-100488419D02*
X171157836Y-100488419D01*
X171157836Y-100488419D02*
X171300693Y-100536038D01*
X171300693Y-100536038D02*
X171348312Y-100583657D01*
X171776884Y-101488419D02*
X171776884Y-100488419D01*
X171776884Y-100964609D02*
X172348312Y-100964609D01*
X172348312Y-101488419D02*
X172348312Y-100488419D01*
X173348312Y-101488419D02*
X172776884Y-101488419D01*
X173062598Y-101488419D02*
X173062598Y-100488419D01*
X173062598Y-100488419D02*
X172967360Y-100631276D01*
X172967360Y-100631276D02*
X172872122Y-100726514D01*
X172872122Y-100726514D02*
X172776884Y-100774133D01*
X174300693Y-101488419D02*
X173729265Y-101488419D01*
X174014979Y-101488419D02*
X174014979Y-100488419D01*
X174014979Y-100488419D02*
X173919741Y-100631276D01*
X173919741Y-100631276D02*
X173824503Y-100726514D01*
X173824503Y-100726514D02*
X173729265Y-100774133D01*
X171348312Y-103893180D02*
X171300693Y-103940800D01*
X171300693Y-103940800D02*
X171157836Y-103988419D01*
X171157836Y-103988419D02*
X171062598Y-103988419D01*
X171062598Y-103988419D02*
X170919741Y-103940800D01*
X170919741Y-103940800D02*
X170824503Y-103845561D01*
X170824503Y-103845561D02*
X170776884Y-103750323D01*
X170776884Y-103750323D02*
X170729265Y-103559847D01*
X170729265Y-103559847D02*
X170729265Y-103416990D01*
X170729265Y-103416990D02*
X170776884Y-103226514D01*
X170776884Y-103226514D02*
X170824503Y-103131276D01*
X170824503Y-103131276D02*
X170919741Y-103036038D01*
X170919741Y-103036038D02*
X171062598Y-102988419D01*
X171062598Y-102988419D02*
X171157836Y-102988419D01*
X171157836Y-102988419D02*
X171300693Y-103036038D01*
X171300693Y-103036038D02*
X171348312Y-103083657D01*
X171776884Y-103988419D02*
X171776884Y-102988419D01*
X171776884Y-103464609D02*
X172348312Y-103464609D01*
X172348312Y-103988419D02*
X172348312Y-102988419D01*
X173348312Y-103988419D02*
X172776884Y-103988419D01*
X173062598Y-103988419D02*
X173062598Y-102988419D01*
X173062598Y-102988419D02*
X172967360Y-103131276D01*
X172967360Y-103131276D02*
X172872122Y-103226514D01*
X172872122Y-103226514D02*
X172776884Y-103274133D01*
X173967360Y-102988419D02*
X174062598Y-102988419D01*
X174062598Y-102988419D02*
X174157836Y-103036038D01*
X174157836Y-103036038D02*
X174205455Y-103083657D01*
X174205455Y-103083657D02*
X174253074Y-103178895D01*
X174253074Y-103178895D02*
X174300693Y-103369371D01*
X174300693Y-103369371D02*
X174300693Y-103607466D01*
X174300693Y-103607466D02*
X174253074Y-103797942D01*
X174253074Y-103797942D02*
X174205455Y-103893180D01*
X174205455Y-103893180D02*
X174157836Y-103940800D01*
X174157836Y-103940800D02*
X174062598Y-103988419D01*
X174062598Y-103988419D02*
X173967360Y-103988419D01*
X173967360Y-103988419D02*
X173872122Y-103940800D01*
X173872122Y-103940800D02*
X173824503Y-103893180D01*
X173824503Y-103893180D02*
X173776884Y-103797942D01*
X173776884Y-103797942D02*
X173729265Y-103607466D01*
X173729265Y-103607466D02*
X173729265Y-103369371D01*
X173729265Y-103369371D02*
X173776884Y-103178895D01*
X173776884Y-103178895D02*
X173824503Y-103083657D01*
X173824503Y-103083657D02*
X173872122Y-103036038D01*
X173872122Y-103036038D02*
X173967360Y-102988419D01*
X164395419Y-80793872D02*
X164395419Y-80222444D01*
X165395419Y-80508158D02*
X164395419Y-80508158D01*
X164395419Y-79984348D02*
X165395419Y-79317682D01*
X164395419Y-79317682D02*
X165395419Y-79984348D01*
X164490657Y-78984348D02*
X164443038Y-78936729D01*
X164443038Y-78936729D02*
X164395419Y-78841491D01*
X164395419Y-78841491D02*
X164395419Y-78603396D01*
X164395419Y-78603396D02*
X164443038Y-78508158D01*
X164443038Y-78508158D02*
X164490657Y-78460539D01*
X164490657Y-78460539D02*
X164585895Y-78412920D01*
X164585895Y-78412920D02*
X164681133Y-78412920D01*
X164681133Y-78412920D02*
X164823990Y-78460539D01*
X164823990Y-78460539D02*
X165395419Y-79031967D01*
X165395419Y-79031967D02*
X165395419Y-78412920D01*
X171348312Y-91393180D02*
X171300693Y-91440800D01*
X171300693Y-91440800D02*
X171157836Y-91488419D01*
X171157836Y-91488419D02*
X171062598Y-91488419D01*
X171062598Y-91488419D02*
X170919741Y-91440800D01*
X170919741Y-91440800D02*
X170824503Y-91345561D01*
X170824503Y-91345561D02*
X170776884Y-91250323D01*
X170776884Y-91250323D02*
X170729265Y-91059847D01*
X170729265Y-91059847D02*
X170729265Y-90916990D01*
X170729265Y-90916990D02*
X170776884Y-90726514D01*
X170776884Y-90726514D02*
X170824503Y-90631276D01*
X170824503Y-90631276D02*
X170919741Y-90536038D01*
X170919741Y-90536038D02*
X171062598Y-90488419D01*
X171062598Y-90488419D02*
X171157836Y-90488419D01*
X171157836Y-90488419D02*
X171300693Y-90536038D01*
X171300693Y-90536038D02*
X171348312Y-90583657D01*
X171776884Y-91488419D02*
X171776884Y-90488419D01*
X171776884Y-90964609D02*
X172348312Y-90964609D01*
X172348312Y-91488419D02*
X172348312Y-90488419D01*
X173348312Y-91488419D02*
X172776884Y-91488419D01*
X173062598Y-91488419D02*
X173062598Y-90488419D01*
X173062598Y-90488419D02*
X172967360Y-90631276D01*
X172967360Y-90631276D02*
X172872122Y-90726514D01*
X172872122Y-90726514D02*
X172776884Y-90774133D01*
X174253074Y-90488419D02*
X173776884Y-90488419D01*
X173776884Y-90488419D02*
X173729265Y-90964609D01*
X173729265Y-90964609D02*
X173776884Y-90916990D01*
X173776884Y-90916990D02*
X173872122Y-90869371D01*
X173872122Y-90869371D02*
X174110217Y-90869371D01*
X174110217Y-90869371D02*
X174205455Y-90916990D01*
X174205455Y-90916990D02*
X174253074Y-90964609D01*
X174253074Y-90964609D02*
X174300693Y-91059847D01*
X174300693Y-91059847D02*
X174300693Y-91297942D01*
X174300693Y-91297942D02*
X174253074Y-91393180D01*
X174253074Y-91393180D02*
X174205455Y-91440800D01*
X174205455Y-91440800D02*
X174110217Y-91488419D01*
X174110217Y-91488419D02*
X173872122Y-91488419D01*
X173872122Y-91488419D02*
X173776884Y-91440800D01*
X173776884Y-91440800D02*
X173729265Y-91393180D01*
X161716734Y-91393180D02*
X161669115Y-91440800D01*
X161669115Y-91440800D02*
X161526258Y-91488419D01*
X161526258Y-91488419D02*
X161431020Y-91488419D01*
X161431020Y-91488419D02*
X161288163Y-91440800D01*
X161288163Y-91440800D02*
X161192925Y-91345561D01*
X161192925Y-91345561D02*
X161145306Y-91250323D01*
X161145306Y-91250323D02*
X161097687Y-91059847D01*
X161097687Y-91059847D02*
X161097687Y-90916990D01*
X161097687Y-90916990D02*
X161145306Y-90726514D01*
X161145306Y-90726514D02*
X161192925Y-90631276D01*
X161192925Y-90631276D02*
X161288163Y-90536038D01*
X161288163Y-90536038D02*
X161431020Y-90488419D01*
X161431020Y-90488419D02*
X161526258Y-90488419D01*
X161526258Y-90488419D02*
X161669115Y-90536038D01*
X161669115Y-90536038D02*
X161716734Y-90583657D01*
X162145306Y-91488419D02*
X162145306Y-90488419D01*
X162145306Y-90964609D02*
X162716734Y-90964609D01*
X162716734Y-91488419D02*
X162716734Y-90488419D01*
X163383401Y-90488419D02*
X163478639Y-90488419D01*
X163478639Y-90488419D02*
X163573877Y-90536038D01*
X163573877Y-90536038D02*
X163621496Y-90583657D01*
X163621496Y-90583657D02*
X163669115Y-90678895D01*
X163669115Y-90678895D02*
X163716734Y-90869371D01*
X163716734Y-90869371D02*
X163716734Y-91107466D01*
X163716734Y-91107466D02*
X163669115Y-91297942D01*
X163669115Y-91297942D02*
X163621496Y-91393180D01*
X163621496Y-91393180D02*
X163573877Y-91440800D01*
X163573877Y-91440800D02*
X163478639Y-91488419D01*
X163478639Y-91488419D02*
X163383401Y-91488419D01*
X163383401Y-91488419D02*
X163288163Y-91440800D01*
X163288163Y-91440800D02*
X163240544Y-91393180D01*
X163240544Y-91393180D02*
X163192925Y-91297942D01*
X163192925Y-91297942D02*
X163145306Y-91107466D01*
X163145306Y-91107466D02*
X163145306Y-90869371D01*
X163145306Y-90869371D02*
X163192925Y-90678895D01*
X163192925Y-90678895D02*
X163240544Y-90583657D01*
X163240544Y-90583657D02*
X163288163Y-90536038D01*
X163288163Y-90536038D02*
X163383401Y-90488419D01*
X171348312Y-93893180D02*
X171300693Y-93940800D01*
X171300693Y-93940800D02*
X171157836Y-93988419D01*
X171157836Y-93988419D02*
X171062598Y-93988419D01*
X171062598Y-93988419D02*
X170919741Y-93940800D01*
X170919741Y-93940800D02*
X170824503Y-93845561D01*
X170824503Y-93845561D02*
X170776884Y-93750323D01*
X170776884Y-93750323D02*
X170729265Y-93559847D01*
X170729265Y-93559847D02*
X170729265Y-93416990D01*
X170729265Y-93416990D02*
X170776884Y-93226514D01*
X170776884Y-93226514D02*
X170824503Y-93131276D01*
X170824503Y-93131276D02*
X170919741Y-93036038D01*
X170919741Y-93036038D02*
X171062598Y-92988419D01*
X171062598Y-92988419D02*
X171157836Y-92988419D01*
X171157836Y-92988419D02*
X171300693Y-93036038D01*
X171300693Y-93036038D02*
X171348312Y-93083657D01*
X171776884Y-93988419D02*
X171776884Y-92988419D01*
X171776884Y-93464609D02*
X172348312Y-93464609D01*
X172348312Y-93988419D02*
X172348312Y-92988419D01*
X173348312Y-93988419D02*
X172776884Y-93988419D01*
X173062598Y-93988419D02*
X173062598Y-92988419D01*
X173062598Y-92988419D02*
X172967360Y-93131276D01*
X172967360Y-93131276D02*
X172872122Y-93226514D01*
X172872122Y-93226514D02*
X172776884Y-93274133D01*
X174205455Y-93321752D02*
X174205455Y-93988419D01*
X173967360Y-92940800D02*
X173729265Y-93655085D01*
X173729265Y-93655085D02*
X174348312Y-93655085D01*
X161716734Y-103893180D02*
X161669115Y-103940800D01*
X161669115Y-103940800D02*
X161526258Y-103988419D01*
X161526258Y-103988419D02*
X161431020Y-103988419D01*
X161431020Y-103988419D02*
X161288163Y-103940800D01*
X161288163Y-103940800D02*
X161192925Y-103845561D01*
X161192925Y-103845561D02*
X161145306Y-103750323D01*
X161145306Y-103750323D02*
X161097687Y-103559847D01*
X161097687Y-103559847D02*
X161097687Y-103416990D01*
X161097687Y-103416990D02*
X161145306Y-103226514D01*
X161145306Y-103226514D02*
X161192925Y-103131276D01*
X161192925Y-103131276D02*
X161288163Y-103036038D01*
X161288163Y-103036038D02*
X161431020Y-102988419D01*
X161431020Y-102988419D02*
X161526258Y-102988419D01*
X161526258Y-102988419D02*
X161669115Y-103036038D01*
X161669115Y-103036038D02*
X161716734Y-103083657D01*
X162145306Y-103988419D02*
X162145306Y-102988419D01*
X162145306Y-103464609D02*
X162716734Y-103464609D01*
X162716734Y-103988419D02*
X162716734Y-102988419D01*
X163669115Y-102988419D02*
X163192925Y-102988419D01*
X163192925Y-102988419D02*
X163145306Y-103464609D01*
X163145306Y-103464609D02*
X163192925Y-103416990D01*
X163192925Y-103416990D02*
X163288163Y-103369371D01*
X163288163Y-103369371D02*
X163526258Y-103369371D01*
X163526258Y-103369371D02*
X163621496Y-103416990D01*
X163621496Y-103416990D02*
X163669115Y-103464609D01*
X163669115Y-103464609D02*
X163716734Y-103559847D01*
X163716734Y-103559847D02*
X163716734Y-103797942D01*
X163716734Y-103797942D02*
X163669115Y-103893180D01*
X163669115Y-103893180D02*
X163621496Y-103940800D01*
X163621496Y-103940800D02*
X163526258Y-103988419D01*
X163526258Y-103988419D02*
X163288163Y-103988419D01*
X163288163Y-103988419D02*
X163192925Y-103940800D01*
X163192925Y-103940800D02*
X163145306Y-103893180D01*
X161716734Y-108893180D02*
X161669115Y-108940800D01*
X161669115Y-108940800D02*
X161526258Y-108988419D01*
X161526258Y-108988419D02*
X161431020Y-108988419D01*
X161431020Y-108988419D02*
X161288163Y-108940800D01*
X161288163Y-108940800D02*
X161192925Y-108845561D01*
X161192925Y-108845561D02*
X161145306Y-108750323D01*
X161145306Y-108750323D02*
X161097687Y-108559847D01*
X161097687Y-108559847D02*
X161097687Y-108416990D01*
X161097687Y-108416990D02*
X161145306Y-108226514D01*
X161145306Y-108226514D02*
X161192925Y-108131276D01*
X161192925Y-108131276D02*
X161288163Y-108036038D01*
X161288163Y-108036038D02*
X161431020Y-107988419D01*
X161431020Y-107988419D02*
X161526258Y-107988419D01*
X161526258Y-107988419D02*
X161669115Y-108036038D01*
X161669115Y-108036038D02*
X161716734Y-108083657D01*
X162145306Y-108988419D02*
X162145306Y-107988419D01*
X162145306Y-108464609D02*
X162716734Y-108464609D01*
X162716734Y-108988419D02*
X162716734Y-107988419D01*
X163097687Y-107988419D02*
X163764353Y-107988419D01*
X163764353Y-107988419D02*
X163335782Y-108988419D01*
X161716734Y-93893180D02*
X161669115Y-93940800D01*
X161669115Y-93940800D02*
X161526258Y-93988419D01*
X161526258Y-93988419D02*
X161431020Y-93988419D01*
X161431020Y-93988419D02*
X161288163Y-93940800D01*
X161288163Y-93940800D02*
X161192925Y-93845561D01*
X161192925Y-93845561D02*
X161145306Y-93750323D01*
X161145306Y-93750323D02*
X161097687Y-93559847D01*
X161097687Y-93559847D02*
X161097687Y-93416990D01*
X161097687Y-93416990D02*
X161145306Y-93226514D01*
X161145306Y-93226514D02*
X161192925Y-93131276D01*
X161192925Y-93131276D02*
X161288163Y-93036038D01*
X161288163Y-93036038D02*
X161431020Y-92988419D01*
X161431020Y-92988419D02*
X161526258Y-92988419D01*
X161526258Y-92988419D02*
X161669115Y-93036038D01*
X161669115Y-93036038D02*
X161716734Y-93083657D01*
X162145306Y-93988419D02*
X162145306Y-92988419D01*
X162145306Y-93464609D02*
X162716734Y-93464609D01*
X162716734Y-93988419D02*
X162716734Y-92988419D01*
X163716734Y-93988419D02*
X163145306Y-93988419D01*
X163431020Y-93988419D02*
X163431020Y-92988419D01*
X163431020Y-92988419D02*
X163335782Y-93131276D01*
X163335782Y-93131276D02*
X163240544Y-93226514D01*
X163240544Y-93226514D02*
X163145306Y-93274133D01*
X167645419Y-80079587D02*
X167169228Y-80412920D01*
X167645419Y-80651015D02*
X166645419Y-80651015D01*
X166645419Y-80651015D02*
X166645419Y-80270063D01*
X166645419Y-80270063D02*
X166693038Y-80174825D01*
X166693038Y-80174825D02*
X166740657Y-80127206D01*
X166740657Y-80127206D02*
X166835895Y-80079587D01*
X166835895Y-80079587D02*
X166978752Y-80079587D01*
X166978752Y-80079587D02*
X167073990Y-80127206D01*
X167073990Y-80127206D02*
X167121609Y-80174825D01*
X167121609Y-80174825D02*
X167169228Y-80270063D01*
X167169228Y-80270063D02*
X167169228Y-80651015D01*
X166645419Y-79746253D02*
X167645419Y-79079587D01*
X166645419Y-79079587D02*
X167645419Y-79746253D01*
X166740657Y-78746253D02*
X166693038Y-78698634D01*
X166693038Y-78698634D02*
X166645419Y-78603396D01*
X166645419Y-78603396D02*
X166645419Y-78365301D01*
X166645419Y-78365301D02*
X166693038Y-78270063D01*
X166693038Y-78270063D02*
X166740657Y-78222444D01*
X166740657Y-78222444D02*
X166835895Y-78174825D01*
X166835895Y-78174825D02*
X166931133Y-78174825D01*
X166931133Y-78174825D02*
X167073990Y-78222444D01*
X167073990Y-78222444D02*
X167645419Y-78793872D01*
X167645419Y-78793872D02*
X167645419Y-78174825D01*
X168943038Y-80076403D02*
X168895419Y-80171641D01*
X168895419Y-80171641D02*
X168895419Y-80314498D01*
X168895419Y-80314498D02*
X168943038Y-80457355D01*
X168943038Y-80457355D02*
X169038276Y-80552593D01*
X169038276Y-80552593D02*
X169133514Y-80600212D01*
X169133514Y-80600212D02*
X169323990Y-80647831D01*
X169323990Y-80647831D02*
X169466847Y-80647831D01*
X169466847Y-80647831D02*
X169657323Y-80600212D01*
X169657323Y-80600212D02*
X169752561Y-80552593D01*
X169752561Y-80552593D02*
X169847800Y-80457355D01*
X169847800Y-80457355D02*
X169895419Y-80314498D01*
X169895419Y-80314498D02*
X169895419Y-80219260D01*
X169895419Y-80219260D02*
X169847800Y-80076403D01*
X169847800Y-80076403D02*
X169800180Y-80028784D01*
X169800180Y-80028784D02*
X169466847Y-80028784D01*
X169466847Y-80028784D02*
X169466847Y-80219260D01*
X169895419Y-79600212D02*
X168895419Y-79600212D01*
X168895419Y-79600212D02*
X169895419Y-79028784D01*
X169895419Y-79028784D02*
X168895419Y-79028784D01*
X169895419Y-78552593D02*
X168895419Y-78552593D01*
X168895419Y-78552593D02*
X168895419Y-78314498D01*
X168895419Y-78314498D02*
X168943038Y-78171641D01*
X168943038Y-78171641D02*
X169038276Y-78076403D01*
X169038276Y-78076403D02*
X169133514Y-78028784D01*
X169133514Y-78028784D02*
X169323990Y-77981165D01*
X169323990Y-77981165D02*
X169466847Y-77981165D01*
X169466847Y-77981165D02*
X169657323Y-78028784D01*
X169657323Y-78028784D02*
X169752561Y-78076403D01*
X169752561Y-78076403D02*
X169847800Y-78171641D01*
X169847800Y-78171641D02*
X169895419Y-78314498D01*
X169895419Y-78314498D02*
X169895419Y-78552593D01*
X171348312Y-98893180D02*
X171300693Y-98940800D01*
X171300693Y-98940800D02*
X171157836Y-98988419D01*
X171157836Y-98988419D02*
X171062598Y-98988419D01*
X171062598Y-98988419D02*
X170919741Y-98940800D01*
X170919741Y-98940800D02*
X170824503Y-98845561D01*
X170824503Y-98845561D02*
X170776884Y-98750323D01*
X170776884Y-98750323D02*
X170729265Y-98559847D01*
X170729265Y-98559847D02*
X170729265Y-98416990D01*
X170729265Y-98416990D02*
X170776884Y-98226514D01*
X170776884Y-98226514D02*
X170824503Y-98131276D01*
X170824503Y-98131276D02*
X170919741Y-98036038D01*
X170919741Y-98036038D02*
X171062598Y-97988419D01*
X171062598Y-97988419D02*
X171157836Y-97988419D01*
X171157836Y-97988419D02*
X171300693Y-98036038D01*
X171300693Y-98036038D02*
X171348312Y-98083657D01*
X171776884Y-98988419D02*
X171776884Y-97988419D01*
X171776884Y-98464609D02*
X172348312Y-98464609D01*
X172348312Y-98988419D02*
X172348312Y-97988419D01*
X173348312Y-98988419D02*
X172776884Y-98988419D01*
X173062598Y-98988419D02*
X173062598Y-97988419D01*
X173062598Y-97988419D02*
X172967360Y-98131276D01*
X172967360Y-98131276D02*
X172872122Y-98226514D01*
X172872122Y-98226514D02*
X172776884Y-98274133D01*
X173729265Y-98083657D02*
X173776884Y-98036038D01*
X173776884Y-98036038D02*
X173872122Y-97988419D01*
X173872122Y-97988419D02*
X174110217Y-97988419D01*
X174110217Y-97988419D02*
X174205455Y-98036038D01*
X174205455Y-98036038D02*
X174253074Y-98083657D01*
X174253074Y-98083657D02*
X174300693Y-98178895D01*
X174300693Y-98178895D02*
X174300693Y-98274133D01*
X174300693Y-98274133D02*
X174253074Y-98416990D01*
X174253074Y-98416990D02*
X173681646Y-98988419D01*
X173681646Y-98988419D02*
X174300693Y-98988419D01*
X171348312Y-108893180D02*
X171300693Y-108940800D01*
X171300693Y-108940800D02*
X171157836Y-108988419D01*
X171157836Y-108988419D02*
X171062598Y-108988419D01*
X171062598Y-108988419D02*
X170919741Y-108940800D01*
X170919741Y-108940800D02*
X170824503Y-108845561D01*
X170824503Y-108845561D02*
X170776884Y-108750323D01*
X170776884Y-108750323D02*
X170729265Y-108559847D01*
X170729265Y-108559847D02*
X170729265Y-108416990D01*
X170729265Y-108416990D02*
X170776884Y-108226514D01*
X170776884Y-108226514D02*
X170824503Y-108131276D01*
X170824503Y-108131276D02*
X170919741Y-108036038D01*
X170919741Y-108036038D02*
X171062598Y-107988419D01*
X171062598Y-107988419D02*
X171157836Y-107988419D01*
X171157836Y-107988419D02*
X171300693Y-108036038D01*
X171300693Y-108036038D02*
X171348312Y-108083657D01*
X171776884Y-108988419D02*
X171776884Y-107988419D01*
X171776884Y-108464609D02*
X172348312Y-108464609D01*
X172348312Y-108988419D02*
X172348312Y-107988419D01*
X172967360Y-108416990D02*
X172872122Y-108369371D01*
X172872122Y-108369371D02*
X172824503Y-108321752D01*
X172824503Y-108321752D02*
X172776884Y-108226514D01*
X172776884Y-108226514D02*
X172776884Y-108178895D01*
X172776884Y-108178895D02*
X172824503Y-108083657D01*
X172824503Y-108083657D02*
X172872122Y-108036038D01*
X172872122Y-108036038D02*
X172967360Y-107988419D01*
X172967360Y-107988419D02*
X173157836Y-107988419D01*
X173157836Y-107988419D02*
X173253074Y-108036038D01*
X173253074Y-108036038D02*
X173300693Y-108083657D01*
X173300693Y-108083657D02*
X173348312Y-108178895D01*
X173348312Y-108178895D02*
X173348312Y-108226514D01*
X173348312Y-108226514D02*
X173300693Y-108321752D01*
X173300693Y-108321752D02*
X173253074Y-108369371D01*
X173253074Y-108369371D02*
X173157836Y-108416990D01*
X173157836Y-108416990D02*
X172967360Y-108416990D01*
X172967360Y-108416990D02*
X172872122Y-108464609D01*
X172872122Y-108464609D02*
X172824503Y-108512228D01*
X172824503Y-108512228D02*
X172776884Y-108607466D01*
X172776884Y-108607466D02*
X172776884Y-108797942D01*
X172776884Y-108797942D02*
X172824503Y-108893180D01*
X172824503Y-108893180D02*
X172872122Y-108940800D01*
X172872122Y-108940800D02*
X172967360Y-108988419D01*
X172967360Y-108988419D02*
X173157836Y-108988419D01*
X173157836Y-108988419D02*
X173253074Y-108940800D01*
X173253074Y-108940800D02*
X173300693Y-108893180D01*
X173300693Y-108893180D02*
X173348312Y-108797942D01*
X173348312Y-108797942D02*
X173348312Y-108607466D01*
X173348312Y-108607466D02*
X173300693Y-108512228D01*
X173300693Y-108512228D02*
X173253074Y-108464609D01*
X173253074Y-108464609D02*
X173157836Y-108416990D01*
X171348312Y-96393180D02*
X171300693Y-96440800D01*
X171300693Y-96440800D02*
X171157836Y-96488419D01*
X171157836Y-96488419D02*
X171062598Y-96488419D01*
X171062598Y-96488419D02*
X170919741Y-96440800D01*
X170919741Y-96440800D02*
X170824503Y-96345561D01*
X170824503Y-96345561D02*
X170776884Y-96250323D01*
X170776884Y-96250323D02*
X170729265Y-96059847D01*
X170729265Y-96059847D02*
X170729265Y-95916990D01*
X170729265Y-95916990D02*
X170776884Y-95726514D01*
X170776884Y-95726514D02*
X170824503Y-95631276D01*
X170824503Y-95631276D02*
X170919741Y-95536038D01*
X170919741Y-95536038D02*
X171062598Y-95488419D01*
X171062598Y-95488419D02*
X171157836Y-95488419D01*
X171157836Y-95488419D02*
X171300693Y-95536038D01*
X171300693Y-95536038D02*
X171348312Y-95583657D01*
X171776884Y-96488419D02*
X171776884Y-95488419D01*
X171776884Y-95964609D02*
X172348312Y-95964609D01*
X172348312Y-96488419D02*
X172348312Y-95488419D01*
X173348312Y-96488419D02*
X172776884Y-96488419D01*
X173062598Y-96488419D02*
X173062598Y-95488419D01*
X173062598Y-95488419D02*
X172967360Y-95631276D01*
X172967360Y-95631276D02*
X172872122Y-95726514D01*
X172872122Y-95726514D02*
X172776884Y-95774133D01*
X173681646Y-95488419D02*
X174300693Y-95488419D01*
X174300693Y-95488419D02*
X173967360Y-95869371D01*
X173967360Y-95869371D02*
X174110217Y-95869371D01*
X174110217Y-95869371D02*
X174205455Y-95916990D01*
X174205455Y-95916990D02*
X174253074Y-95964609D01*
X174253074Y-95964609D02*
X174300693Y-96059847D01*
X174300693Y-96059847D02*
X174300693Y-96297942D01*
X174300693Y-96297942D02*
X174253074Y-96393180D01*
X174253074Y-96393180D02*
X174205455Y-96440800D01*
X174205455Y-96440800D02*
X174110217Y-96488419D01*
X174110217Y-96488419D02*
X173824503Y-96488419D01*
X173824503Y-96488419D02*
X173729265Y-96440800D01*
X173729265Y-96440800D02*
X173681646Y-96393180D01*
X161621496Y-110536038D02*
X161526258Y-110488419D01*
X161526258Y-110488419D02*
X161383401Y-110488419D01*
X161383401Y-110488419D02*
X161240544Y-110536038D01*
X161240544Y-110536038D02*
X161145306Y-110631276D01*
X161145306Y-110631276D02*
X161097687Y-110726514D01*
X161097687Y-110726514D02*
X161050068Y-110916990D01*
X161050068Y-110916990D02*
X161050068Y-111059847D01*
X161050068Y-111059847D02*
X161097687Y-111250323D01*
X161097687Y-111250323D02*
X161145306Y-111345561D01*
X161145306Y-111345561D02*
X161240544Y-111440800D01*
X161240544Y-111440800D02*
X161383401Y-111488419D01*
X161383401Y-111488419D02*
X161478639Y-111488419D01*
X161478639Y-111488419D02*
X161621496Y-111440800D01*
X161621496Y-111440800D02*
X161669115Y-111393180D01*
X161669115Y-111393180D02*
X161669115Y-111059847D01*
X161669115Y-111059847D02*
X161478639Y-111059847D01*
X162097687Y-111488419D02*
X162097687Y-110488419D01*
X162097687Y-110488419D02*
X162669115Y-111488419D01*
X162669115Y-111488419D02*
X162669115Y-110488419D01*
X163145306Y-111488419D02*
X163145306Y-110488419D01*
X163145306Y-110488419D02*
X163383401Y-110488419D01*
X163383401Y-110488419D02*
X163526258Y-110536038D01*
X163526258Y-110536038D02*
X163621496Y-110631276D01*
X163621496Y-110631276D02*
X163669115Y-110726514D01*
X163669115Y-110726514D02*
X163716734Y-110916990D01*
X163716734Y-110916990D02*
X163716734Y-111059847D01*
X163716734Y-111059847D02*
X163669115Y-111250323D01*
X163669115Y-111250323D02*
X163621496Y-111345561D01*
X163621496Y-111345561D02*
X163526258Y-111440800D01*
X163526258Y-111440800D02*
X163383401Y-111488419D01*
X163383401Y-111488419D02*
X163145306Y-111488419D01*
D12*
X145812333Y-99124619D02*
X145479000Y-98648428D01*
X145240905Y-99124619D02*
X145240905Y-98124619D01*
X145240905Y-98124619D02*
X145621857Y-98124619D01*
X145621857Y-98124619D02*
X145717095Y-98172238D01*
X145717095Y-98172238D02*
X145764714Y-98219857D01*
X145764714Y-98219857D02*
X145812333Y-98315095D01*
X145812333Y-98315095D02*
X145812333Y-98457952D01*
X145812333Y-98457952D02*
X145764714Y-98553190D01*
X145764714Y-98553190D02*
X145717095Y-98600809D01*
X145717095Y-98600809D02*
X145621857Y-98648428D01*
X145621857Y-98648428D02*
X145240905Y-98648428D01*
X146193286Y-98219857D02*
X146240905Y-98172238D01*
X146240905Y-98172238D02*
X146336143Y-98124619D01*
X146336143Y-98124619D02*
X146574238Y-98124619D01*
X146574238Y-98124619D02*
X146669476Y-98172238D01*
X146669476Y-98172238D02*
X146717095Y-98219857D01*
X146717095Y-98219857D02*
X146764714Y-98315095D01*
X146764714Y-98315095D02*
X146764714Y-98410333D01*
X146764714Y-98410333D02*
X146717095Y-98553190D01*
X146717095Y-98553190D02*
X146145667Y-99124619D01*
X146145667Y-99124619D02*
X146764714Y-99124619D01*
X172166666Y-82179719D02*
X172166666Y-82894004D01*
X172166666Y-82894004D02*
X172119047Y-83036861D01*
X172119047Y-83036861D02*
X172023809Y-83132100D01*
X172023809Y-83132100D02*
X171880952Y-83179719D01*
X171880952Y-83179719D02*
X171785714Y-83179719D01*
X173119047Y-82179719D02*
X172642857Y-82179719D01*
X172642857Y-82179719D02*
X172595238Y-82655909D01*
X172595238Y-82655909D02*
X172642857Y-82608290D01*
X172642857Y-82608290D02*
X172738095Y-82560671D01*
X172738095Y-82560671D02*
X172976190Y-82560671D01*
X172976190Y-82560671D02*
X173071428Y-82608290D01*
X173071428Y-82608290D02*
X173119047Y-82655909D01*
X173119047Y-82655909D02*
X173166666Y-82751147D01*
X173166666Y-82751147D02*
X173166666Y-82989242D01*
X173166666Y-82989242D02*
X173119047Y-83084480D01*
X173119047Y-83084480D02*
X173071428Y-83132100D01*
X173071428Y-83132100D02*
X172976190Y-83179719D01*
X172976190Y-83179719D02*
X172738095Y-83179719D01*
X172738095Y-83179719D02*
X172642857Y-83132100D01*
X172642857Y-83132100D02*
X172595238Y-83084480D01*
X141362333Y-99124619D02*
X141029000Y-98648428D01*
X140790905Y-99124619D02*
X140790905Y-98124619D01*
X140790905Y-98124619D02*
X141171857Y-98124619D01*
X141171857Y-98124619D02*
X141267095Y-98172238D01*
X141267095Y-98172238D02*
X141314714Y-98219857D01*
X141314714Y-98219857D02*
X141362333Y-98315095D01*
X141362333Y-98315095D02*
X141362333Y-98457952D01*
X141362333Y-98457952D02*
X141314714Y-98553190D01*
X141314714Y-98553190D02*
X141267095Y-98600809D01*
X141267095Y-98600809D02*
X141171857Y-98648428D01*
X141171857Y-98648428D02*
X140790905Y-98648428D01*
X142219476Y-98457952D02*
X142219476Y-99124619D01*
X141981381Y-98077000D02*
X141743286Y-98791285D01*
X141743286Y-98791285D02*
X142362333Y-98791285D01*
X142854595Y-102149619D02*
X142854595Y-102959142D01*
X142854595Y-102959142D02*
X142902214Y-103054380D01*
X142902214Y-103054380D02*
X142949833Y-103102000D01*
X142949833Y-103102000D02*
X143045071Y-103149619D01*
X143045071Y-103149619D02*
X143235547Y-103149619D01*
X143235547Y-103149619D02*
X143330785Y-103102000D01*
X143330785Y-103102000D02*
X143378404Y-103054380D01*
X143378404Y-103054380D02*
X143426023Y-102959142D01*
X143426023Y-102959142D02*
X143426023Y-102149619D01*
X144426023Y-103149619D02*
X143854595Y-103149619D01*
X144140309Y-103149619D02*
X144140309Y-102149619D01*
X144140309Y-102149619D02*
X144045071Y-102292476D01*
X144045071Y-102292476D02*
X143949833Y-102387714D01*
X143949833Y-102387714D02*
X143854595Y-102435333D01*
X131620666Y-117349569D02*
X131620666Y-118063854D01*
X131620666Y-118063854D02*
X131573047Y-118206711D01*
X131573047Y-118206711D02*
X131477809Y-118301950D01*
X131477809Y-118301950D02*
X131334952Y-118349569D01*
X131334952Y-118349569D02*
X131239714Y-118349569D01*
X132620666Y-118349569D02*
X132049238Y-118349569D01*
X132334952Y-118349569D02*
X132334952Y-117349569D01*
X132334952Y-117349569D02*
X132239714Y-117492426D01*
X132239714Y-117492426D02*
X132144476Y-117587664D01*
X132144476Y-117587664D02*
X132049238Y-117635283D01*
X149862333Y-102754380D02*
X149814714Y-102802000D01*
X149814714Y-102802000D02*
X149671857Y-102849619D01*
X149671857Y-102849619D02*
X149576619Y-102849619D01*
X149576619Y-102849619D02*
X149433762Y-102802000D01*
X149433762Y-102802000D02*
X149338524Y-102706761D01*
X149338524Y-102706761D02*
X149290905Y-102611523D01*
X149290905Y-102611523D02*
X149243286Y-102421047D01*
X149243286Y-102421047D02*
X149243286Y-102278190D01*
X149243286Y-102278190D02*
X149290905Y-102087714D01*
X149290905Y-102087714D02*
X149338524Y-101992476D01*
X149338524Y-101992476D02*
X149433762Y-101897238D01*
X149433762Y-101897238D02*
X149576619Y-101849619D01*
X149576619Y-101849619D02*
X149671857Y-101849619D01*
X149671857Y-101849619D02*
X149814714Y-101897238D01*
X149814714Y-101897238D02*
X149862333Y-101944857D01*
X150814714Y-102849619D02*
X150243286Y-102849619D01*
X150529000Y-102849619D02*
X150529000Y-101849619D01*
X150529000Y-101849619D02*
X150433762Y-101992476D01*
X150433762Y-101992476D02*
X150338524Y-102087714D01*
X150338524Y-102087714D02*
X150243286Y-102135333D01*
X141449833Y-81624619D02*
X141116500Y-81148428D01*
X140878405Y-81624619D02*
X140878405Y-80624619D01*
X140878405Y-80624619D02*
X141259357Y-80624619D01*
X141259357Y-80624619D02*
X141354595Y-80672238D01*
X141354595Y-80672238D02*
X141402214Y-80719857D01*
X141402214Y-80719857D02*
X141449833Y-80815095D01*
X141449833Y-80815095D02*
X141449833Y-80957952D01*
X141449833Y-80957952D02*
X141402214Y-81053190D01*
X141402214Y-81053190D02*
X141354595Y-81100809D01*
X141354595Y-81100809D02*
X141259357Y-81148428D01*
X141259357Y-81148428D02*
X140878405Y-81148428D01*
X142402214Y-81624619D02*
X141830786Y-81624619D01*
X142116500Y-81624619D02*
X142116500Y-80624619D01*
X142116500Y-80624619D02*
X142021262Y-80767476D01*
X142021262Y-80767476D02*
X141926024Y-80862714D01*
X141926024Y-80862714D02*
X141830786Y-80910333D01*
X142854595Y-84649619D02*
X142854595Y-85459142D01*
X142854595Y-85459142D02*
X142902214Y-85554380D01*
X142902214Y-85554380D02*
X142949833Y-85602000D01*
X142949833Y-85602000D02*
X143045071Y-85649619D01*
X143045071Y-85649619D02*
X143235547Y-85649619D01*
X143235547Y-85649619D02*
X143330785Y-85602000D01*
X143330785Y-85602000D02*
X143378404Y-85554380D01*
X143378404Y-85554380D02*
X143426023Y-85459142D01*
X143426023Y-85459142D02*
X143426023Y-84649619D01*
X143854595Y-84744857D02*
X143902214Y-84697238D01*
X143902214Y-84697238D02*
X143997452Y-84649619D01*
X143997452Y-84649619D02*
X144235547Y-84649619D01*
X144235547Y-84649619D02*
X144330785Y-84697238D01*
X144330785Y-84697238D02*
X144378404Y-84744857D01*
X144378404Y-84744857D02*
X144426023Y-84840095D01*
X144426023Y-84840095D02*
X144426023Y-84935333D01*
X144426023Y-84935333D02*
X144378404Y-85078190D01*
X144378404Y-85078190D02*
X143806976Y-85649619D01*
X143806976Y-85649619D02*
X144426023Y-85649619D01*
X145812333Y-81624619D02*
X145479000Y-81148428D01*
X145240905Y-81624619D02*
X145240905Y-80624619D01*
X145240905Y-80624619D02*
X145621857Y-80624619D01*
X145621857Y-80624619D02*
X145717095Y-80672238D01*
X145717095Y-80672238D02*
X145764714Y-80719857D01*
X145764714Y-80719857D02*
X145812333Y-80815095D01*
X145812333Y-80815095D02*
X145812333Y-80957952D01*
X145812333Y-80957952D02*
X145764714Y-81053190D01*
X145764714Y-81053190D02*
X145717095Y-81100809D01*
X145717095Y-81100809D02*
X145621857Y-81148428D01*
X145621857Y-81148428D02*
X145240905Y-81148428D01*
X146145667Y-80624619D02*
X146764714Y-80624619D01*
X146764714Y-80624619D02*
X146431381Y-81005571D01*
X146431381Y-81005571D02*
X146574238Y-81005571D01*
X146574238Y-81005571D02*
X146669476Y-81053190D01*
X146669476Y-81053190D02*
X146717095Y-81100809D01*
X146717095Y-81100809D02*
X146764714Y-81196047D01*
X146764714Y-81196047D02*
X146764714Y-81434142D01*
X146764714Y-81434142D02*
X146717095Y-81529380D01*
X146717095Y-81529380D02*
X146669476Y-81577000D01*
X146669476Y-81577000D02*
X146574238Y-81624619D01*
X146574238Y-81624619D02*
X146288524Y-81624619D01*
X146288524Y-81624619D02*
X146193286Y-81577000D01*
X146193286Y-81577000D02*
X146145667Y-81529380D01*
X166909666Y-115954819D02*
X166909666Y-116669104D01*
X166909666Y-116669104D02*
X166862047Y-116811961D01*
X166862047Y-116811961D02*
X166766809Y-116907200D01*
X166766809Y-116907200D02*
X166623952Y-116954819D01*
X166623952Y-116954819D02*
X166528714Y-116954819D01*
X167814428Y-115954819D02*
X167623952Y-115954819D01*
X167623952Y-115954819D02*
X167528714Y-116002438D01*
X167528714Y-116002438D02*
X167481095Y-116050057D01*
X167481095Y-116050057D02*
X167385857Y-116192914D01*
X167385857Y-116192914D02*
X167338238Y-116383390D01*
X167338238Y-116383390D02*
X167338238Y-116764342D01*
X167338238Y-116764342D02*
X167385857Y-116859580D01*
X167385857Y-116859580D02*
X167433476Y-116907200D01*
X167433476Y-116907200D02*
X167528714Y-116954819D01*
X167528714Y-116954819D02*
X167719190Y-116954819D01*
X167719190Y-116954819D02*
X167814428Y-116907200D01*
X167814428Y-116907200D02*
X167862047Y-116859580D01*
X167862047Y-116859580D02*
X167909666Y-116764342D01*
X167909666Y-116764342D02*
X167909666Y-116526247D01*
X167909666Y-116526247D02*
X167862047Y-116431009D01*
X167862047Y-116431009D02*
X167814428Y-116383390D01*
X167814428Y-116383390D02*
X167719190Y-116335771D01*
X167719190Y-116335771D02*
X167528714Y-116335771D01*
X167528714Y-116335771D02*
X167433476Y-116383390D01*
X167433476Y-116383390D02*
X167385857Y-116431009D01*
X167385857Y-116431009D02*
X167338238Y-116526247D01*
X157020666Y-117349569D02*
X157020666Y-118063854D01*
X157020666Y-118063854D02*
X156973047Y-118206711D01*
X156973047Y-118206711D02*
X156877809Y-118301950D01*
X156877809Y-118301950D02*
X156734952Y-118349569D01*
X156734952Y-118349569D02*
X156639714Y-118349569D01*
X157449238Y-117444807D02*
X157496857Y-117397188D01*
X157496857Y-117397188D02*
X157592095Y-117349569D01*
X157592095Y-117349569D02*
X157830190Y-117349569D01*
X157830190Y-117349569D02*
X157925428Y-117397188D01*
X157925428Y-117397188D02*
X157973047Y-117444807D01*
X157973047Y-117444807D02*
X158020666Y-117540045D01*
X158020666Y-117540045D02*
X158020666Y-117635283D01*
X158020666Y-117635283D02*
X157973047Y-117778140D01*
X157973047Y-117778140D02*
X157401619Y-118349569D01*
X157401619Y-118349569D02*
X158020666Y-118349569D01*
X149862333Y-84754380D02*
X149814714Y-84802000D01*
X149814714Y-84802000D02*
X149671857Y-84849619D01*
X149671857Y-84849619D02*
X149576619Y-84849619D01*
X149576619Y-84849619D02*
X149433762Y-84802000D01*
X149433762Y-84802000D02*
X149338524Y-84706761D01*
X149338524Y-84706761D02*
X149290905Y-84611523D01*
X149290905Y-84611523D02*
X149243286Y-84421047D01*
X149243286Y-84421047D02*
X149243286Y-84278190D01*
X149243286Y-84278190D02*
X149290905Y-84087714D01*
X149290905Y-84087714D02*
X149338524Y-83992476D01*
X149338524Y-83992476D02*
X149433762Y-83897238D01*
X149433762Y-83897238D02*
X149576619Y-83849619D01*
X149576619Y-83849619D02*
X149671857Y-83849619D01*
X149671857Y-83849619D02*
X149814714Y-83897238D01*
X149814714Y-83897238D02*
X149862333Y-83944857D01*
X150243286Y-83944857D02*
X150290905Y-83897238D01*
X150290905Y-83897238D02*
X150386143Y-83849619D01*
X150386143Y-83849619D02*
X150624238Y-83849619D01*
X150624238Y-83849619D02*
X150719476Y-83897238D01*
X150719476Y-83897238D02*
X150767095Y-83944857D01*
X150767095Y-83944857D02*
X150814714Y-84040095D01*
X150814714Y-84040095D02*
X150814714Y-84135333D01*
X150814714Y-84135333D02*
X150767095Y-84278190D01*
X150767095Y-84278190D02*
X150195667Y-84849619D01*
X150195667Y-84849619D02*
X150814714Y-84849619D01*
D13*
%TO.C,R2*%
X146206064Y-101404800D02*
X145751936Y-101404800D01*
X146206064Y-99934800D02*
X145751936Y-99934800D01*
%TO.C,J5*%
X163103000Y-84104900D02*
X163103000Y-82724900D01*
X164483000Y-84104900D02*
X163103000Y-84104900D01*
X165753000Y-81344900D02*
X170943000Y-81344900D01*
X165753000Y-84104900D02*
X165753000Y-81344900D01*
X165753000Y-84104900D02*
X170943000Y-84104900D01*
X170943000Y-84104900D02*
X170943000Y-81344900D01*
%TO.C,R4*%
X141756064Y-101404800D02*
X141301936Y-101404800D01*
X141756064Y-99934800D02*
X141301936Y-99934800D01*
%TO.C,U1*%
X139756500Y-103969800D02*
X139426500Y-104209800D01*
X139426500Y-103729800D01*
X139756500Y-103969800D01*
G36*
X139756500Y-103969800D02*
G01*
X139426500Y-104209800D01*
X139426500Y-103729800D01*
X139756500Y-103969800D01*
G37*
X143616500Y-110279800D02*
X145816500Y-110279800D01*
X143616500Y-110279800D02*
X141416500Y-110279800D01*
X143616500Y-103509800D02*
X145816500Y-103509800D01*
X143616500Y-103509800D02*
X141416500Y-103509800D01*
%TO.C,J1*%
X133309000Y-80727600D02*
X133309000Y-116347600D01*
X133309000Y-78127600D02*
X133309000Y-79457600D01*
X131979000Y-78127600D02*
X133309000Y-78127600D01*
X130649000Y-116347600D02*
X133309000Y-116347600D01*
X130649000Y-80727600D02*
X133309000Y-80727600D01*
X130649000Y-80727600D02*
X130649000Y-116347600D01*
%TO.C,C1*%
X150290252Y-104629800D02*
X149767748Y-104629800D01*
X150290252Y-103159800D02*
X149767748Y-103159800D01*
%TO.C,R1*%
X141389436Y-83904800D02*
X141843564Y-83904800D01*
X141389436Y-82434800D02*
X141843564Y-82434800D01*
%TO.C,U2*%
X139756500Y-86469800D02*
X139426500Y-86709800D01*
X139426500Y-86229800D01*
X139756500Y-86469800D01*
G36*
X139756500Y-86469800D02*
G01*
X139426500Y-86709800D01*
X139426500Y-86229800D01*
X139756500Y-86469800D01*
G37*
X143616500Y-92779800D02*
X145816500Y-92779800D01*
X143616500Y-92779800D02*
X141416500Y-92779800D01*
X143616500Y-86009800D02*
X145816500Y-86009800D01*
X143616500Y-86009800D02*
X141416500Y-86009800D01*
%TO.C,R3*%
X145751936Y-83904800D02*
X146206064Y-83904800D01*
X145751936Y-82434800D02*
X146206064Y-82434800D01*
%TO.C,J6*%
X164593000Y-89236000D02*
X165973000Y-89236000D01*
X164593000Y-90616000D02*
X164593000Y-89236000D01*
X164593000Y-91886000D02*
X164593000Y-114856000D01*
X164593000Y-91886000D02*
X167243000Y-91886000D01*
X164593000Y-114856000D02*
X169893000Y-114856000D01*
X167243000Y-89236000D02*
X169893000Y-89236000D01*
X167243000Y-91886000D02*
X167243000Y-89236000D01*
X169893000Y-89236000D02*
X169893000Y-114856000D01*
%TO.C,J2*%
X158709000Y-80727600D02*
X158709000Y-116347600D01*
X158709000Y-78127600D02*
X158709000Y-79457600D01*
X157379000Y-78127600D02*
X158709000Y-78127600D01*
X156049000Y-116347600D02*
X158709000Y-116347600D01*
X156049000Y-80727600D02*
X158709000Y-80727600D01*
X156049000Y-80727600D02*
X156049000Y-116347600D01*
%TO.C,C2*%
X150290252Y-86904800D02*
X149767748Y-86904800D01*
X150290252Y-85434800D02*
X149767748Y-85434800D01*
%TD*%
M02*
