M48
; DRILL file {KiCad 9.0.3-9.0.3-0~ubuntu24.04.1} date 2025-07-14T18:48:36-0500
; FORMAT={-:-/ absolute / metric / decimal}
; #@! TF.CreationDate,2025-07-14T18:48:36-05:00
; #@! TF.GenerationSoftware,Kicad,Pcbnew,9.0.3-9.0.3-0~ubuntu24.04.1
; #@! TF.FileFunction,Plated,1,2,PTH
FMAT,2
METRIC
; #@! TA.AperFunction,Plated,PTH,ViaDrill
T1C0.300
; #@! TA.AperFunction,Plated,PTH,ComponentDrill
T2C1.000
%
G90
G05
T1
X137.853Y-109.223
X139.585Y-97.536
X140.688Y-112.478
X142.028Y-108.199
X142.474Y-107.165
X142.713Y-104.495
X142.943Y-105.951
X143.583Y-90.648
X144.403Y-107.289
X144.419Y-104.915
X144.654Y-109.513
X145.201Y-93.951
X145.33Y-113.128
X146.382Y-102.856
X146.698Y-97.5
X147.984Y-104.041
X148.468Y-91.613
X148.589Y-87.608
X149.0Y-101.608
X149.067Y-107.96
X149.741Y-99.945
X149.992Y-88.967
X154.429Y-109.097
X154.5Y-104.934
X154.864Y-89.033
X155.507Y-109.442
X166.156Y-115.656
X166.349Y-89.155
T2
X131.979Y-79.458
X131.979Y-81.998
X131.979Y-84.538
X131.979Y-87.078
X131.979Y-89.618
X131.979Y-92.158
X131.979Y-94.698
X131.979Y-97.238
X131.979Y-99.778
X131.979Y-102.318
X131.979Y-104.858
X131.979Y-107.398
X131.979Y-109.938
X131.979Y-112.478
X131.979Y-115.018
X157.379Y-79.458
X157.379Y-81.998
X157.379Y-84.538
X157.379Y-87.078
X157.379Y-89.618
X157.379Y-92.158
X157.379Y-94.698
X157.379Y-97.238
X157.379Y-99.778
X157.379Y-102.318
X157.379Y-104.858
X157.379Y-107.398
X157.379Y-109.938
X157.379Y-112.478
X157.379Y-115.018
X164.483Y-82.725
X165.973Y-90.616
X165.973Y-93.156
X165.973Y-95.696
X165.973Y-98.236
X165.973Y-100.776
X165.973Y-103.316
X165.973Y-105.856
X165.973Y-108.396
X165.973Y-110.936
X165.973Y-113.476
X167.023Y-82.725
X168.513Y-90.616
X168.513Y-93.156
X168.513Y-95.696
X168.513Y-98.236
X168.513Y-100.776
X168.513Y-103.316
X168.513Y-105.856
X168.513Y-108.396
X168.513Y-110.936
X168.513Y-113.476
X169.563Y-82.725
M30
