%TF.GenerationSoftware,KiCad,Pcbnew,9.0.9-9.0.9~ubuntu24.04.1*%
%TF.CreationDate,2026-07-10T16:52:30-05:00*%
%TF.ProjectId,ESP32_LogicAnalyzer,45535033-325f-44c6-9f67-6963416e616c,rev?*%
%TF.SameCoordinates,Original*%
%TF.FileFunction,Legend,Top*%
%TF.FilePolarity,Positive*%
%FSLAX46Y46*%
G04 Gerber Fmt 4.6, Leading zero omitted, Abs format (unit mm)*
G04 Created by KiCad (PCBNEW 9.0.9-9.0.9~ubuntu24.04.1) date 2026-07-10 16:52:30*
%MOMM*%
%LPD*%
G01*
G04 APERTURE LIST*
%ADD10C,0.100000*%
%ADD11C,0.200000*%
%ADD12C,0.150000*%
%ADD13C,0.120000*%
G04 APERTURE END LIST*
D10*
X165203000Y-77817400D02*
X164203000Y-77817400D01*
X164703000Y-77317400D01*
X165203000Y-77817400D01*
G36*
X165203000Y-77817400D02*
G01*
X164203000Y-77817400D01*
X164703000Y-77317400D01*
X165203000Y-77817400D01*
G37*
X167298000Y-77867400D02*
X166798000Y-77367400D01*
X167798000Y-77367400D01*
X167298000Y-77867400D01*
G36*
X167298000Y-77867400D02*
G01*
X166798000Y-77367400D01*
X167798000Y-77367400D01*
X167298000Y-77867400D01*
G37*
X133679000Y-74794800D02*
X132679000Y-75794800D01*
X130679000Y-75794800D01*
X130679000Y-73794800D01*
X132679000Y-73794800D01*
X133679000Y-74794800D01*
G36*
X133679000Y-74794800D02*
G01*
X132679000Y-75794800D01*
X130679000Y-75794800D01*
X130679000Y-73794800D01*
X132679000Y-73794800D01*
X133679000Y-74794800D01*
G37*
X133679000Y-74794800D02*
X160179000Y-74794800D01*
X141318000Y-115914800D02*
X148029000Y-115914800D01*
X148029000Y-119804800D01*
X141318000Y-119804800D01*
X141318000Y-115914800D01*
X160179000Y-72294800D02*
X163429000Y-72294800D01*
X160179000Y-74794800D02*
X160179000Y-72294800D01*
X160700000Y-108660000D02*
X164200000Y-108660000D01*
X164200000Y-110660000D01*
X160700000Y-110660000D01*
X160700000Y-108660000D01*
X160700000Y-111160000D02*
X164200000Y-111160000D01*
X164200000Y-113160000D01*
X160700000Y-113160000D01*
X160700000Y-111160000D01*
X163429000Y-72294800D02*
X163429000Y-74294800D01*
X163429000Y-74294800D02*
X163429000Y-74794800D01*
X163429000Y-74794800D02*
X165929000Y-74794800D01*
X165929000Y-72294800D02*
X166929000Y-72294800D01*
X165929000Y-74794800D02*
X165929000Y-72294800D01*
X166929000Y-72294800D02*
X166929000Y-74794800D01*
X166929000Y-74794800D02*
X166929000Y-72294800D01*
X166929000Y-74794800D02*
X167929000Y-74794800D01*
X167929000Y-72294800D02*
X168429000Y-72294800D01*
X167929000Y-74794800D02*
X167929000Y-72294800D01*
X168429000Y-72294800D02*
X168429000Y-74794800D01*
X168429000Y-74794800D02*
X171429000Y-74794800D01*
X170700000Y-108660000D02*
X174200000Y-108660000D01*
X174200000Y-110660000D01*
X170700000Y-110660000D01*
X170700000Y-108660000D01*
X170700000Y-111160000D02*
X174200000Y-111160000D01*
X174200000Y-113160000D01*
X170700000Y-113160000D01*
X170700000Y-111160000D01*
X136916455Y-114821695D02*
X136916455Y-114021695D01*
X136916455Y-114021695D02*
X137183121Y-114593123D01*
X137183121Y-114593123D02*
X137449788Y-114021695D01*
X137449788Y-114021695D02*
X137449788Y-114821695D01*
X137983122Y-114021695D02*
X138135503Y-114021695D01*
X138135503Y-114021695D02*
X138211693Y-114059790D01*
X138211693Y-114059790D02*
X138287884Y-114135980D01*
X138287884Y-114135980D02*
X138325979Y-114288361D01*
X138325979Y-114288361D02*
X138325979Y-114555028D01*
X138325979Y-114555028D02*
X138287884Y-114707409D01*
X138287884Y-114707409D02*
X138211693Y-114783600D01*
X138211693Y-114783600D02*
X138135503Y-114821695D01*
X138135503Y-114821695D02*
X137983122Y-114821695D01*
X137983122Y-114821695D02*
X137906931Y-114783600D01*
X137906931Y-114783600D02*
X137830741Y-114707409D01*
X137830741Y-114707409D02*
X137792645Y-114555028D01*
X137792645Y-114555028D02*
X137792645Y-114288361D01*
X137792645Y-114288361D02*
X137830741Y-114135980D01*
X137830741Y-114135980D02*
X137906931Y-114059790D01*
X137906931Y-114059790D02*
X137983122Y-114021695D01*
X138668836Y-114821695D02*
X138668836Y-114021695D01*
X138668836Y-114021695D02*
X138859312Y-114021695D01*
X138859312Y-114021695D02*
X138973598Y-114059790D01*
X138973598Y-114059790D02*
X139049788Y-114135980D01*
X139049788Y-114135980D02*
X139087883Y-114212171D01*
X139087883Y-114212171D02*
X139125979Y-114364552D01*
X139125979Y-114364552D02*
X139125979Y-114478838D01*
X139125979Y-114478838D02*
X139087883Y-114631219D01*
X139087883Y-114631219D02*
X139049788Y-114707409D01*
X139049788Y-114707409D02*
X138973598Y-114783600D01*
X138973598Y-114783600D02*
X138859312Y-114821695D01*
X138859312Y-114821695D02*
X138668836Y-114821695D01*
X139468836Y-114021695D02*
X139468836Y-114669314D01*
X139468836Y-114669314D02*
X139506931Y-114745504D01*
X139506931Y-114745504D02*
X139545026Y-114783600D01*
X139545026Y-114783600D02*
X139621217Y-114821695D01*
X139621217Y-114821695D02*
X139773598Y-114821695D01*
X139773598Y-114821695D02*
X139849788Y-114783600D01*
X139849788Y-114783600D02*
X139887883Y-114745504D01*
X139887883Y-114745504D02*
X139925979Y-114669314D01*
X139925979Y-114669314D02*
X139925979Y-114021695D01*
X140687883Y-114821695D02*
X140306931Y-114821695D01*
X140306931Y-114821695D02*
X140306931Y-114021695D01*
X140954550Y-114402647D02*
X141221216Y-114402647D01*
X141335502Y-114821695D02*
X140954550Y-114821695D01*
X140954550Y-114821695D02*
X140954550Y-114021695D01*
X140954550Y-114021695D02*
X141335502Y-114021695D01*
X141487884Y-114897885D02*
X142097407Y-114897885D01*
X142287884Y-114402647D02*
X142554550Y-114402647D01*
X142668836Y-114821695D02*
X142287884Y-114821695D01*
X142287884Y-114821695D02*
X142287884Y-114021695D01*
X142287884Y-114021695D02*
X142668836Y-114021695D01*
X142973598Y-114783600D02*
X143087884Y-114821695D01*
X143087884Y-114821695D02*
X143278360Y-114821695D01*
X143278360Y-114821695D02*
X143354551Y-114783600D01*
X143354551Y-114783600D02*
X143392646Y-114745504D01*
X143392646Y-114745504D02*
X143430741Y-114669314D01*
X143430741Y-114669314D02*
X143430741Y-114593123D01*
X143430741Y-114593123D02*
X143392646Y-114516933D01*
X143392646Y-114516933D02*
X143354551Y-114478838D01*
X143354551Y-114478838D02*
X143278360Y-114440742D01*
X143278360Y-114440742D02*
X143125979Y-114402647D01*
X143125979Y-114402647D02*
X143049789Y-114364552D01*
X143049789Y-114364552D02*
X143011694Y-114326457D01*
X143011694Y-114326457D02*
X142973598Y-114250266D01*
X142973598Y-114250266D02*
X142973598Y-114174076D01*
X142973598Y-114174076D02*
X143011694Y-114097885D01*
X143011694Y-114097885D02*
X143049789Y-114059790D01*
X143049789Y-114059790D02*
X143125979Y-114021695D01*
X143125979Y-114021695D02*
X143316456Y-114021695D01*
X143316456Y-114021695D02*
X143430741Y-114059790D01*
X143773599Y-114821695D02*
X143773599Y-114021695D01*
X143773599Y-114021695D02*
X144078361Y-114021695D01*
X144078361Y-114021695D02*
X144154551Y-114059790D01*
X144154551Y-114059790D02*
X144192646Y-114097885D01*
X144192646Y-114097885D02*
X144230742Y-114174076D01*
X144230742Y-114174076D02*
X144230742Y-114288361D01*
X144230742Y-114288361D02*
X144192646Y-114364552D01*
X144192646Y-114364552D02*
X144154551Y-114402647D01*
X144154551Y-114402647D02*
X144078361Y-114440742D01*
X144078361Y-114440742D02*
X143773599Y-114440742D01*
X144497408Y-114021695D02*
X144992646Y-114021695D01*
X144992646Y-114021695D02*
X144725980Y-114326457D01*
X144725980Y-114326457D02*
X144840265Y-114326457D01*
X144840265Y-114326457D02*
X144916456Y-114364552D01*
X144916456Y-114364552D02*
X144954551Y-114402647D01*
X144954551Y-114402647D02*
X144992646Y-114478838D01*
X144992646Y-114478838D02*
X144992646Y-114669314D01*
X144992646Y-114669314D02*
X144954551Y-114745504D01*
X144954551Y-114745504D02*
X144916456Y-114783600D01*
X144916456Y-114783600D02*
X144840265Y-114821695D01*
X144840265Y-114821695D02*
X144611694Y-114821695D01*
X144611694Y-114821695D02*
X144535503Y-114783600D01*
X144535503Y-114783600D02*
X144497408Y-114745504D01*
X145297408Y-114097885D02*
X145335504Y-114059790D01*
X145335504Y-114059790D02*
X145411694Y-114021695D01*
X145411694Y-114021695D02*
X145602170Y-114021695D01*
X145602170Y-114021695D02*
X145678361Y-114059790D01*
X145678361Y-114059790D02*
X145716456Y-114097885D01*
X145716456Y-114097885D02*
X145754551Y-114174076D01*
X145754551Y-114174076D02*
X145754551Y-114250266D01*
X145754551Y-114250266D02*
X145716456Y-114364552D01*
X145716456Y-114364552D02*
X145259313Y-114821695D01*
X145259313Y-114821695D02*
X145754551Y-114821695D01*
X145906933Y-114897885D02*
X146516456Y-114897885D01*
X146706933Y-114821695D02*
X146706933Y-114021695D01*
X146706933Y-114021695D02*
X146897409Y-114021695D01*
X146897409Y-114021695D02*
X147011695Y-114059790D01*
X147011695Y-114059790D02*
X147087885Y-114135980D01*
X147087885Y-114135980D02*
X147125980Y-114212171D01*
X147125980Y-114212171D02*
X147164076Y-114364552D01*
X147164076Y-114364552D02*
X147164076Y-114478838D01*
X147164076Y-114478838D02*
X147125980Y-114631219D01*
X147125980Y-114631219D02*
X147087885Y-114707409D01*
X147087885Y-114707409D02*
X147011695Y-114783600D01*
X147011695Y-114783600D02*
X146897409Y-114821695D01*
X146897409Y-114821695D02*
X146706933Y-114821695D01*
X147506933Y-114402647D02*
X147773599Y-114402647D01*
X147887885Y-114821695D02*
X147506933Y-114821695D01*
X147506933Y-114821695D02*
X147506933Y-114021695D01*
X147506933Y-114021695D02*
X147887885Y-114021695D01*
X148116457Y-114021695D02*
X148383124Y-114821695D01*
X148383124Y-114821695D02*
X148649790Y-114021695D01*
X148916457Y-114821695D02*
X148916457Y-114021695D01*
X149373600Y-114821695D02*
X149030742Y-114364552D01*
X149373600Y-114021695D02*
X148916457Y-114478838D01*
X149716457Y-114821695D02*
X149716457Y-114021695D01*
X149983123Y-114021695D02*
X150440266Y-114021695D01*
X150211694Y-114821695D02*
X150211694Y-114021695D01*
X150516457Y-114897885D02*
X151125980Y-114897885D01*
X151202171Y-114021695D02*
X151468838Y-114821695D01*
X151468838Y-114821695D02*
X151735504Y-114021695D01*
X152421218Y-114821695D02*
X151964075Y-114821695D01*
X152192647Y-114821695D02*
X152192647Y-114021695D01*
X152192647Y-114021695D02*
X152116456Y-114135980D01*
X152116456Y-114135980D02*
X152040266Y-114212171D01*
X152040266Y-114212171D02*
X151964075Y-114250266D01*
X165438313Y-85036895D02*
X165438313Y-84236895D01*
X165438313Y-84236895D02*
X165628789Y-84236895D01*
X165628789Y-84236895D02*
X165743075Y-84274990D01*
X165743075Y-84274990D02*
X165819265Y-84351180D01*
X165819265Y-84351180D02*
X165857360Y-84427371D01*
X165857360Y-84427371D02*
X165895456Y-84579752D01*
X165895456Y-84579752D02*
X165895456Y-84694038D01*
X165895456Y-84694038D02*
X165857360Y-84846419D01*
X165857360Y-84846419D02*
X165819265Y-84922609D01*
X165819265Y-84922609D02*
X165743075Y-84998800D01*
X165743075Y-84998800D02*
X165628789Y-85036895D01*
X165628789Y-85036895D02*
X165438313Y-85036895D01*
X166238313Y-84617847D02*
X166504979Y-84617847D01*
X166619265Y-85036895D02*
X166238313Y-85036895D01*
X166238313Y-85036895D02*
X166238313Y-84236895D01*
X166238313Y-84236895D02*
X166619265Y-84236895D01*
X167228789Y-84617847D02*
X167343075Y-84655942D01*
X167343075Y-84655942D02*
X167381170Y-84694038D01*
X167381170Y-84694038D02*
X167419266Y-84770228D01*
X167419266Y-84770228D02*
X167419266Y-84884514D01*
X167419266Y-84884514D02*
X167381170Y-84960704D01*
X167381170Y-84960704D02*
X167343075Y-84998800D01*
X167343075Y-84998800D02*
X167266885Y-85036895D01*
X167266885Y-85036895D02*
X166962123Y-85036895D01*
X166962123Y-85036895D02*
X166962123Y-84236895D01*
X166962123Y-84236895D02*
X167228789Y-84236895D01*
X167228789Y-84236895D02*
X167304980Y-84274990D01*
X167304980Y-84274990D02*
X167343075Y-84313085D01*
X167343075Y-84313085D02*
X167381170Y-84389276D01*
X167381170Y-84389276D02*
X167381170Y-84465466D01*
X167381170Y-84465466D02*
X167343075Y-84541657D01*
X167343075Y-84541657D02*
X167304980Y-84579752D01*
X167304980Y-84579752D02*
X167228789Y-84617847D01*
X167228789Y-84617847D02*
X166962123Y-84617847D01*
X167762123Y-84236895D02*
X167762123Y-84884514D01*
X167762123Y-84884514D02*
X167800218Y-84960704D01*
X167800218Y-84960704D02*
X167838313Y-84998800D01*
X167838313Y-84998800D02*
X167914504Y-85036895D01*
X167914504Y-85036895D02*
X168066885Y-85036895D01*
X168066885Y-85036895D02*
X168143075Y-84998800D01*
X168143075Y-84998800D02*
X168181170Y-84960704D01*
X168181170Y-84960704D02*
X168219266Y-84884514D01*
X168219266Y-84884514D02*
X168219266Y-84236895D01*
X169019265Y-84274990D02*
X168943075Y-84236895D01*
X168943075Y-84236895D02*
X168828789Y-84236895D01*
X168828789Y-84236895D02*
X168714503Y-84274990D01*
X168714503Y-84274990D02*
X168638313Y-84351180D01*
X168638313Y-84351180D02*
X168600218Y-84427371D01*
X168600218Y-84427371D02*
X168562122Y-84579752D01*
X168562122Y-84579752D02*
X168562122Y-84694038D01*
X168562122Y-84694038D02*
X168600218Y-84846419D01*
X168600218Y-84846419D02*
X168638313Y-84922609D01*
X168638313Y-84922609D02*
X168714503Y-84998800D01*
X168714503Y-84998800D02*
X168828789Y-85036895D01*
X168828789Y-85036895D02*
X168904980Y-85036895D01*
X168904980Y-85036895D02*
X169019265Y-84998800D01*
X169019265Y-84998800D02*
X169057361Y-84960704D01*
X169057361Y-84960704D02*
X169057361Y-84694038D01*
X169057361Y-84694038D02*
X168904980Y-84694038D01*
X164299895Y-80152920D02*
X164299895Y-79695777D01*
X165099895Y-79924349D02*
X164299895Y-79924349D01*
X164299895Y-79505301D02*
X165099895Y-78971967D01*
X164299895Y-78971967D02*
X165099895Y-79505301D01*
X164376085Y-78705301D02*
X164337990Y-78667205D01*
X164337990Y-78667205D02*
X164299895Y-78591015D01*
X164299895Y-78591015D02*
X164299895Y-78400539D01*
X164299895Y-78400539D02*
X164337990Y-78324348D01*
X164337990Y-78324348D02*
X164376085Y-78286253D01*
X164376085Y-78286253D02*
X164452276Y-78248158D01*
X164452276Y-78248158D02*
X164528466Y-78248158D01*
X164528466Y-78248158D02*
X164642752Y-78286253D01*
X164642752Y-78286253D02*
X165099895Y-78743396D01*
X165099895Y-78743396D02*
X165099895Y-78248158D01*
X167744895Y-79581491D02*
X167363942Y-79848158D01*
X167744895Y-80038634D02*
X166944895Y-80038634D01*
X166944895Y-80038634D02*
X166944895Y-79733872D01*
X166944895Y-79733872D02*
X166982990Y-79657682D01*
X166982990Y-79657682D02*
X167021085Y-79619587D01*
X167021085Y-79619587D02*
X167097276Y-79581491D01*
X167097276Y-79581491D02*
X167211561Y-79581491D01*
X167211561Y-79581491D02*
X167287752Y-79619587D01*
X167287752Y-79619587D02*
X167325847Y-79657682D01*
X167325847Y-79657682D02*
X167363942Y-79733872D01*
X167363942Y-79733872D02*
X167363942Y-80038634D01*
X166944895Y-79314825D02*
X167744895Y-78781491D01*
X166944895Y-78781491D02*
X167744895Y-79314825D01*
X167021085Y-78514825D02*
X166982990Y-78476729D01*
X166982990Y-78476729D02*
X166944895Y-78400539D01*
X166944895Y-78400539D02*
X166944895Y-78210063D01*
X166944895Y-78210063D02*
X166982990Y-78133872D01*
X166982990Y-78133872D02*
X167021085Y-78095777D01*
X167021085Y-78095777D02*
X167097276Y-78057682D01*
X167097276Y-78057682D02*
X167173466Y-78057682D01*
X167173466Y-78057682D02*
X167287752Y-78095777D01*
X167287752Y-78095777D02*
X167744895Y-78552920D01*
X167744895Y-78552920D02*
X167744895Y-78057682D01*
X169377990Y-79639260D02*
X169339895Y-79715450D01*
X169339895Y-79715450D02*
X169339895Y-79829736D01*
X169339895Y-79829736D02*
X169377990Y-79944022D01*
X169377990Y-79944022D02*
X169454180Y-80020212D01*
X169454180Y-80020212D02*
X169530371Y-80058307D01*
X169530371Y-80058307D02*
X169682752Y-80096403D01*
X169682752Y-80096403D02*
X169797038Y-80096403D01*
X169797038Y-80096403D02*
X169949419Y-80058307D01*
X169949419Y-80058307D02*
X170025609Y-80020212D01*
X170025609Y-80020212D02*
X170101800Y-79944022D01*
X170101800Y-79944022D02*
X170139895Y-79829736D01*
X170139895Y-79829736D02*
X170139895Y-79753545D01*
X170139895Y-79753545D02*
X170101800Y-79639260D01*
X170101800Y-79639260D02*
X170063704Y-79601164D01*
X170063704Y-79601164D02*
X169797038Y-79601164D01*
X169797038Y-79601164D02*
X169797038Y-79753545D01*
X170139895Y-79258307D02*
X169339895Y-79258307D01*
X169339895Y-79258307D02*
X170139895Y-78801164D01*
X170139895Y-78801164D02*
X169339895Y-78801164D01*
X170139895Y-78420212D02*
X169339895Y-78420212D01*
X169339895Y-78420212D02*
X169339895Y-78229736D01*
X169339895Y-78229736D02*
X169377990Y-78115450D01*
X169377990Y-78115450D02*
X169454180Y-78039260D01*
X169454180Y-78039260D02*
X169530371Y-78001165D01*
X169530371Y-78001165D02*
X169682752Y-77963069D01*
X169682752Y-77963069D02*
X169797038Y-77963069D01*
X169797038Y-77963069D02*
X169949419Y-78001165D01*
X169949419Y-78001165D02*
X170025609Y-78039260D01*
X170025609Y-78039260D02*
X170101800Y-78115450D01*
X170101800Y-78115450D02*
X170139895Y-78229736D01*
X170139895Y-78229736D02*
X170139895Y-78420212D01*
X143332884Y-118177219D02*
X143332884Y-118986742D01*
X143332884Y-118986742D02*
X143380503Y-119081980D01*
X143380503Y-119081980D02*
X143428122Y-119129600D01*
X143428122Y-119129600D02*
X143523360Y-119177219D01*
X143523360Y-119177219D02*
X143713836Y-119177219D01*
X143713836Y-119177219D02*
X143809074Y-119129600D01*
X143809074Y-119129600D02*
X143856693Y-119081980D01*
X143856693Y-119081980D02*
X143904312Y-118986742D01*
X143904312Y-118986742D02*
X143904312Y-118177219D01*
X144332884Y-119129600D02*
X144475741Y-119177219D01*
X144475741Y-119177219D02*
X144713836Y-119177219D01*
X144713836Y-119177219D02*
X144809074Y-119129600D01*
X144809074Y-119129600D02*
X144856693Y-119081980D01*
X144856693Y-119081980D02*
X144904312Y-118986742D01*
X144904312Y-118986742D02*
X144904312Y-118891504D01*
X144904312Y-118891504D02*
X144856693Y-118796266D01*
X144856693Y-118796266D02*
X144809074Y-118748647D01*
X144809074Y-118748647D02*
X144713836Y-118701028D01*
X144713836Y-118701028D02*
X144523360Y-118653409D01*
X144523360Y-118653409D02*
X144428122Y-118605790D01*
X144428122Y-118605790D02*
X144380503Y-118558171D01*
X144380503Y-118558171D02*
X144332884Y-118462933D01*
X144332884Y-118462933D02*
X144332884Y-118367695D01*
X144332884Y-118367695D02*
X144380503Y-118272457D01*
X144380503Y-118272457D02*
X144428122Y-118224838D01*
X144428122Y-118224838D02*
X144523360Y-118177219D01*
X144523360Y-118177219D02*
X144761455Y-118177219D01*
X144761455Y-118177219D02*
X144904312Y-118224838D01*
X145666217Y-118653409D02*
X145809074Y-118701028D01*
X145809074Y-118701028D02*
X145856693Y-118748647D01*
X145856693Y-118748647D02*
X145904312Y-118843885D01*
X145904312Y-118843885D02*
X145904312Y-118986742D01*
X145904312Y-118986742D02*
X145856693Y-119081980D01*
X145856693Y-119081980D02*
X145809074Y-119129600D01*
X145809074Y-119129600D02*
X145713836Y-119177219D01*
X145713836Y-119177219D02*
X145332884Y-119177219D01*
X145332884Y-119177219D02*
X145332884Y-118177219D01*
X145332884Y-118177219D02*
X145666217Y-118177219D01*
X145666217Y-118177219D02*
X145761455Y-118224838D01*
X145761455Y-118224838D02*
X145809074Y-118272457D01*
X145809074Y-118272457D02*
X145856693Y-118367695D01*
X145856693Y-118367695D02*
X145856693Y-118462933D01*
X145856693Y-118462933D02*
X145809074Y-118558171D01*
X145809074Y-118558171D02*
X145761455Y-118605790D01*
X145761455Y-118605790D02*
X145666217Y-118653409D01*
X145666217Y-118653409D02*
X145332884Y-118653409D01*
X160975312Y-89527180D02*
X160927693Y-89574800D01*
X160927693Y-89574800D02*
X160784836Y-89622419D01*
X160784836Y-89622419D02*
X160689598Y-89622419D01*
X160689598Y-89622419D02*
X160546741Y-89574800D01*
X160546741Y-89574800D02*
X160451503Y-89479561D01*
X160451503Y-89479561D02*
X160403884Y-89384323D01*
X160403884Y-89384323D02*
X160356265Y-89193847D01*
X160356265Y-89193847D02*
X160356265Y-89050990D01*
X160356265Y-89050990D02*
X160403884Y-88860514D01*
X160403884Y-88860514D02*
X160451503Y-88765276D01*
X160451503Y-88765276D02*
X160546741Y-88670038D01*
X160546741Y-88670038D02*
X160689598Y-88622419D01*
X160689598Y-88622419D02*
X160784836Y-88622419D01*
X160784836Y-88622419D02*
X160927693Y-88670038D01*
X160927693Y-88670038D02*
X160975312Y-88717657D01*
X161403884Y-89622419D02*
X161403884Y-88622419D01*
X161403884Y-89098609D02*
X161975312Y-89098609D01*
X161975312Y-89622419D02*
X161975312Y-88622419D01*
X162975312Y-89622419D02*
X162403884Y-89622419D01*
X162689598Y-89622419D02*
X162689598Y-88622419D01*
X162689598Y-88622419D02*
X162594360Y-88765276D01*
X162594360Y-88765276D02*
X162499122Y-88860514D01*
X162499122Y-88860514D02*
X162403884Y-88908133D01*
X163832455Y-88955752D02*
X163832455Y-89622419D01*
X163594360Y-88574800D02*
X163356265Y-89289085D01*
X163356265Y-89289085D02*
X163975312Y-89289085D01*
X160975312Y-92027180D02*
X160927693Y-92074800D01*
X160927693Y-92074800D02*
X160784836Y-92122419D01*
X160784836Y-92122419D02*
X160689598Y-92122419D01*
X160689598Y-92122419D02*
X160546741Y-92074800D01*
X160546741Y-92074800D02*
X160451503Y-91979561D01*
X160451503Y-91979561D02*
X160403884Y-91884323D01*
X160403884Y-91884323D02*
X160356265Y-91693847D01*
X160356265Y-91693847D02*
X160356265Y-91550990D01*
X160356265Y-91550990D02*
X160403884Y-91360514D01*
X160403884Y-91360514D02*
X160451503Y-91265276D01*
X160451503Y-91265276D02*
X160546741Y-91170038D01*
X160546741Y-91170038D02*
X160689598Y-91122419D01*
X160689598Y-91122419D02*
X160784836Y-91122419D01*
X160784836Y-91122419D02*
X160927693Y-91170038D01*
X160927693Y-91170038D02*
X160975312Y-91217657D01*
X161403884Y-92122419D02*
X161403884Y-91122419D01*
X161403884Y-91598609D02*
X161975312Y-91598609D01*
X161975312Y-92122419D02*
X161975312Y-91122419D01*
X162975312Y-92122419D02*
X162403884Y-92122419D01*
X162689598Y-92122419D02*
X162689598Y-91122419D01*
X162689598Y-91122419D02*
X162594360Y-91265276D01*
X162594360Y-91265276D02*
X162499122Y-91360514D01*
X162499122Y-91360514D02*
X162403884Y-91408133D01*
X163356265Y-91217657D02*
X163403884Y-91170038D01*
X163403884Y-91170038D02*
X163499122Y-91122419D01*
X163499122Y-91122419D02*
X163737217Y-91122419D01*
X163737217Y-91122419D02*
X163832455Y-91170038D01*
X163832455Y-91170038D02*
X163880074Y-91217657D01*
X163880074Y-91217657D02*
X163927693Y-91312895D01*
X163927693Y-91312895D02*
X163927693Y-91408133D01*
X163927693Y-91408133D02*
X163880074Y-91550990D01*
X163880074Y-91550990D02*
X163308646Y-92122419D01*
X163308646Y-92122419D02*
X163927693Y-92122419D01*
X160975312Y-94527180D02*
X160927693Y-94574800D01*
X160927693Y-94574800D02*
X160784836Y-94622419D01*
X160784836Y-94622419D02*
X160689598Y-94622419D01*
X160689598Y-94622419D02*
X160546741Y-94574800D01*
X160546741Y-94574800D02*
X160451503Y-94479561D01*
X160451503Y-94479561D02*
X160403884Y-94384323D01*
X160403884Y-94384323D02*
X160356265Y-94193847D01*
X160356265Y-94193847D02*
X160356265Y-94050990D01*
X160356265Y-94050990D02*
X160403884Y-93860514D01*
X160403884Y-93860514D02*
X160451503Y-93765276D01*
X160451503Y-93765276D02*
X160546741Y-93670038D01*
X160546741Y-93670038D02*
X160689598Y-93622419D01*
X160689598Y-93622419D02*
X160784836Y-93622419D01*
X160784836Y-93622419D02*
X160927693Y-93670038D01*
X160927693Y-93670038D02*
X160975312Y-93717657D01*
X161403884Y-94622419D02*
X161403884Y-93622419D01*
X161403884Y-94098609D02*
X161975312Y-94098609D01*
X161975312Y-94622419D02*
X161975312Y-93622419D01*
X162975312Y-94622419D02*
X162403884Y-94622419D01*
X162689598Y-94622419D02*
X162689598Y-93622419D01*
X162689598Y-93622419D02*
X162594360Y-93765276D01*
X162594360Y-93765276D02*
X162499122Y-93860514D01*
X162499122Y-93860514D02*
X162403884Y-93908133D01*
X163594360Y-93622419D02*
X163689598Y-93622419D01*
X163689598Y-93622419D02*
X163784836Y-93670038D01*
X163784836Y-93670038D02*
X163832455Y-93717657D01*
X163832455Y-93717657D02*
X163880074Y-93812895D01*
X163880074Y-93812895D02*
X163927693Y-94003371D01*
X163927693Y-94003371D02*
X163927693Y-94241466D01*
X163927693Y-94241466D02*
X163880074Y-94431942D01*
X163880074Y-94431942D02*
X163832455Y-94527180D01*
X163832455Y-94527180D02*
X163784836Y-94574800D01*
X163784836Y-94574800D02*
X163689598Y-94622419D01*
X163689598Y-94622419D02*
X163594360Y-94622419D01*
X163594360Y-94622419D02*
X163499122Y-94574800D01*
X163499122Y-94574800D02*
X163451503Y-94527180D01*
X163451503Y-94527180D02*
X163403884Y-94431942D01*
X163403884Y-94431942D02*
X163356265Y-94241466D01*
X163356265Y-94241466D02*
X163356265Y-94003371D01*
X163356265Y-94003371D02*
X163403884Y-93812895D01*
X163403884Y-93812895D02*
X163451503Y-93717657D01*
X163451503Y-93717657D02*
X163499122Y-93670038D01*
X163499122Y-93670038D02*
X163594360Y-93622419D01*
X161927693Y-97077180D02*
X161880074Y-97124800D01*
X161880074Y-97124800D02*
X161737217Y-97172419D01*
X161737217Y-97172419D02*
X161641979Y-97172419D01*
X161641979Y-97172419D02*
X161499122Y-97124800D01*
X161499122Y-97124800D02*
X161403884Y-97029561D01*
X161403884Y-97029561D02*
X161356265Y-96934323D01*
X161356265Y-96934323D02*
X161308646Y-96743847D01*
X161308646Y-96743847D02*
X161308646Y-96600990D01*
X161308646Y-96600990D02*
X161356265Y-96410514D01*
X161356265Y-96410514D02*
X161403884Y-96315276D01*
X161403884Y-96315276D02*
X161499122Y-96220038D01*
X161499122Y-96220038D02*
X161641979Y-96172419D01*
X161641979Y-96172419D02*
X161737217Y-96172419D01*
X161737217Y-96172419D02*
X161880074Y-96220038D01*
X161880074Y-96220038D02*
X161927693Y-96267657D01*
X162356265Y-97172419D02*
X162356265Y-96172419D01*
X162356265Y-96648609D02*
X162927693Y-96648609D01*
X162927693Y-97172419D02*
X162927693Y-96172419D01*
X163546741Y-96600990D02*
X163451503Y-96553371D01*
X163451503Y-96553371D02*
X163403884Y-96505752D01*
X163403884Y-96505752D02*
X163356265Y-96410514D01*
X163356265Y-96410514D02*
X163356265Y-96362895D01*
X163356265Y-96362895D02*
X163403884Y-96267657D01*
X163403884Y-96267657D02*
X163451503Y-96220038D01*
X163451503Y-96220038D02*
X163546741Y-96172419D01*
X163546741Y-96172419D02*
X163737217Y-96172419D01*
X163737217Y-96172419D02*
X163832455Y-96220038D01*
X163832455Y-96220038D02*
X163880074Y-96267657D01*
X163880074Y-96267657D02*
X163927693Y-96362895D01*
X163927693Y-96362895D02*
X163927693Y-96410514D01*
X163927693Y-96410514D02*
X163880074Y-96505752D01*
X163880074Y-96505752D02*
X163832455Y-96553371D01*
X163832455Y-96553371D02*
X163737217Y-96600990D01*
X163737217Y-96600990D02*
X163546741Y-96600990D01*
X163546741Y-96600990D02*
X163451503Y-96648609D01*
X163451503Y-96648609D02*
X163403884Y-96696228D01*
X163403884Y-96696228D02*
X163356265Y-96791466D01*
X163356265Y-96791466D02*
X163356265Y-96981942D01*
X163356265Y-96981942D02*
X163403884Y-97077180D01*
X163403884Y-97077180D02*
X163451503Y-97124800D01*
X163451503Y-97124800D02*
X163546741Y-97172419D01*
X163546741Y-97172419D02*
X163737217Y-97172419D01*
X163737217Y-97172419D02*
X163832455Y-97124800D01*
X163832455Y-97124800D02*
X163880074Y-97077180D01*
X163880074Y-97077180D02*
X163927693Y-96981942D01*
X163927693Y-96981942D02*
X163927693Y-96791466D01*
X163927693Y-96791466D02*
X163880074Y-96696228D01*
X163880074Y-96696228D02*
X163832455Y-96648609D01*
X163832455Y-96648609D02*
X163737217Y-96600990D01*
X171575312Y-89527180D02*
X171527693Y-89574800D01*
X171527693Y-89574800D02*
X171384836Y-89622419D01*
X171384836Y-89622419D02*
X171289598Y-89622419D01*
X171289598Y-89622419D02*
X171146741Y-89574800D01*
X171146741Y-89574800D02*
X171051503Y-89479561D01*
X171051503Y-89479561D02*
X171003884Y-89384323D01*
X171003884Y-89384323D02*
X170956265Y-89193847D01*
X170956265Y-89193847D02*
X170956265Y-89050990D01*
X170956265Y-89050990D02*
X171003884Y-88860514D01*
X171003884Y-88860514D02*
X171051503Y-88765276D01*
X171051503Y-88765276D02*
X171146741Y-88670038D01*
X171146741Y-88670038D02*
X171289598Y-88622419D01*
X171289598Y-88622419D02*
X171384836Y-88622419D01*
X171384836Y-88622419D02*
X171527693Y-88670038D01*
X171527693Y-88670038D02*
X171575312Y-88717657D01*
X172003884Y-89622419D02*
X172003884Y-88622419D01*
X172003884Y-89098609D02*
X172575312Y-89098609D01*
X172575312Y-89622419D02*
X172575312Y-88622419D01*
X173575312Y-89622419D02*
X173003884Y-89622419D01*
X173289598Y-89622419D02*
X173289598Y-88622419D01*
X173289598Y-88622419D02*
X173194360Y-88765276D01*
X173194360Y-88765276D02*
X173099122Y-88860514D01*
X173099122Y-88860514D02*
X173003884Y-88908133D01*
X174480074Y-88622419D02*
X174003884Y-88622419D01*
X174003884Y-88622419D02*
X173956265Y-89098609D01*
X173956265Y-89098609D02*
X174003884Y-89050990D01*
X174003884Y-89050990D02*
X174099122Y-89003371D01*
X174099122Y-89003371D02*
X174337217Y-89003371D01*
X174337217Y-89003371D02*
X174432455Y-89050990D01*
X174432455Y-89050990D02*
X174480074Y-89098609D01*
X174480074Y-89098609D02*
X174527693Y-89193847D01*
X174527693Y-89193847D02*
X174527693Y-89431942D01*
X174527693Y-89431942D02*
X174480074Y-89527180D01*
X174480074Y-89527180D02*
X174432455Y-89574800D01*
X174432455Y-89574800D02*
X174337217Y-89622419D01*
X174337217Y-89622419D02*
X174099122Y-89622419D01*
X174099122Y-89622419D02*
X174003884Y-89574800D01*
X174003884Y-89574800D02*
X173956265Y-89527180D01*
X171575312Y-92027180D02*
X171527693Y-92074800D01*
X171527693Y-92074800D02*
X171384836Y-92122419D01*
X171384836Y-92122419D02*
X171289598Y-92122419D01*
X171289598Y-92122419D02*
X171146741Y-92074800D01*
X171146741Y-92074800D02*
X171051503Y-91979561D01*
X171051503Y-91979561D02*
X171003884Y-91884323D01*
X171003884Y-91884323D02*
X170956265Y-91693847D01*
X170956265Y-91693847D02*
X170956265Y-91550990D01*
X170956265Y-91550990D02*
X171003884Y-91360514D01*
X171003884Y-91360514D02*
X171051503Y-91265276D01*
X171051503Y-91265276D02*
X171146741Y-91170038D01*
X171146741Y-91170038D02*
X171289598Y-91122419D01*
X171289598Y-91122419D02*
X171384836Y-91122419D01*
X171384836Y-91122419D02*
X171527693Y-91170038D01*
X171527693Y-91170038D02*
X171575312Y-91217657D01*
X172003884Y-92122419D02*
X172003884Y-91122419D01*
X172003884Y-91598609D02*
X172575312Y-91598609D01*
X172575312Y-92122419D02*
X172575312Y-91122419D01*
X173575312Y-92122419D02*
X173003884Y-92122419D01*
X173289598Y-92122419D02*
X173289598Y-91122419D01*
X173289598Y-91122419D02*
X173194360Y-91265276D01*
X173194360Y-91265276D02*
X173099122Y-91360514D01*
X173099122Y-91360514D02*
X173003884Y-91408133D01*
X173908646Y-91122419D02*
X174527693Y-91122419D01*
X174527693Y-91122419D02*
X174194360Y-91503371D01*
X174194360Y-91503371D02*
X174337217Y-91503371D01*
X174337217Y-91503371D02*
X174432455Y-91550990D01*
X174432455Y-91550990D02*
X174480074Y-91598609D01*
X174480074Y-91598609D02*
X174527693Y-91693847D01*
X174527693Y-91693847D02*
X174527693Y-91931942D01*
X174527693Y-91931942D02*
X174480074Y-92027180D01*
X174480074Y-92027180D02*
X174432455Y-92074800D01*
X174432455Y-92074800D02*
X174337217Y-92122419D01*
X174337217Y-92122419D02*
X174051503Y-92122419D01*
X174051503Y-92122419D02*
X173956265Y-92074800D01*
X173956265Y-92074800D02*
X173908646Y-92027180D01*
X171575312Y-94527180D02*
X171527693Y-94574800D01*
X171527693Y-94574800D02*
X171384836Y-94622419D01*
X171384836Y-94622419D02*
X171289598Y-94622419D01*
X171289598Y-94622419D02*
X171146741Y-94574800D01*
X171146741Y-94574800D02*
X171051503Y-94479561D01*
X171051503Y-94479561D02*
X171003884Y-94384323D01*
X171003884Y-94384323D02*
X170956265Y-94193847D01*
X170956265Y-94193847D02*
X170956265Y-94050990D01*
X170956265Y-94050990D02*
X171003884Y-93860514D01*
X171003884Y-93860514D02*
X171051503Y-93765276D01*
X171051503Y-93765276D02*
X171146741Y-93670038D01*
X171146741Y-93670038D02*
X171289598Y-93622419D01*
X171289598Y-93622419D02*
X171384836Y-93622419D01*
X171384836Y-93622419D02*
X171527693Y-93670038D01*
X171527693Y-93670038D02*
X171575312Y-93717657D01*
X172003884Y-94622419D02*
X172003884Y-93622419D01*
X172003884Y-94098609D02*
X172575312Y-94098609D01*
X172575312Y-94622419D02*
X172575312Y-93622419D01*
X173575312Y-94622419D02*
X173003884Y-94622419D01*
X173289598Y-94622419D02*
X173289598Y-93622419D01*
X173289598Y-93622419D02*
X173194360Y-93765276D01*
X173194360Y-93765276D02*
X173099122Y-93860514D01*
X173099122Y-93860514D02*
X173003884Y-93908133D01*
X174527693Y-94622419D02*
X173956265Y-94622419D01*
X174241979Y-94622419D02*
X174241979Y-93622419D01*
X174241979Y-93622419D02*
X174146741Y-93765276D01*
X174146741Y-93765276D02*
X174051503Y-93860514D01*
X174051503Y-93860514D02*
X173956265Y-93908133D01*
X171575312Y-97077180D02*
X171527693Y-97124800D01*
X171527693Y-97124800D02*
X171384836Y-97172419D01*
X171384836Y-97172419D02*
X171289598Y-97172419D01*
X171289598Y-97172419D02*
X171146741Y-97124800D01*
X171146741Y-97124800D02*
X171051503Y-97029561D01*
X171051503Y-97029561D02*
X171003884Y-96934323D01*
X171003884Y-96934323D02*
X170956265Y-96743847D01*
X170956265Y-96743847D02*
X170956265Y-96600990D01*
X170956265Y-96600990D02*
X171003884Y-96410514D01*
X171003884Y-96410514D02*
X171051503Y-96315276D01*
X171051503Y-96315276D02*
X171146741Y-96220038D01*
X171146741Y-96220038D02*
X171289598Y-96172419D01*
X171289598Y-96172419D02*
X171384836Y-96172419D01*
X171384836Y-96172419D02*
X171527693Y-96220038D01*
X171527693Y-96220038D02*
X171575312Y-96267657D01*
X172003884Y-97172419D02*
X172003884Y-96172419D01*
X172003884Y-96648609D02*
X172575312Y-96648609D01*
X172575312Y-97172419D02*
X172575312Y-96172419D01*
X173099122Y-97172419D02*
X173289598Y-97172419D01*
X173289598Y-97172419D02*
X173384836Y-97124800D01*
X173384836Y-97124800D02*
X173432455Y-97077180D01*
X173432455Y-97077180D02*
X173527693Y-96934323D01*
X173527693Y-96934323D02*
X173575312Y-96743847D01*
X173575312Y-96743847D02*
X173575312Y-96362895D01*
X173575312Y-96362895D02*
X173527693Y-96267657D01*
X173527693Y-96267657D02*
X173480074Y-96220038D01*
X173480074Y-96220038D02*
X173384836Y-96172419D01*
X173384836Y-96172419D02*
X173194360Y-96172419D01*
X173194360Y-96172419D02*
X173099122Y-96220038D01*
X173099122Y-96220038D02*
X173051503Y-96267657D01*
X173051503Y-96267657D02*
X173003884Y-96362895D01*
X173003884Y-96362895D02*
X173003884Y-96600990D01*
X173003884Y-96600990D02*
X173051503Y-96696228D01*
X173051503Y-96696228D02*
X173099122Y-96743847D01*
X173099122Y-96743847D02*
X173194360Y-96791466D01*
X173194360Y-96791466D02*
X173384836Y-96791466D01*
X173384836Y-96791466D02*
X173480074Y-96743847D01*
X173480074Y-96743847D02*
X173527693Y-96696228D01*
X173527693Y-96696228D02*
X173575312Y-96600990D01*
X171703884Y-109196038D02*
X171608646Y-109148419D01*
X171608646Y-109148419D02*
X171465789Y-109148419D01*
X171465789Y-109148419D02*
X171322932Y-109196038D01*
X171322932Y-109196038D02*
X171227694Y-109291276D01*
X171227694Y-109291276D02*
X171180075Y-109386514D01*
X171180075Y-109386514D02*
X171132456Y-109576990D01*
X171132456Y-109576990D02*
X171132456Y-109719847D01*
X171132456Y-109719847D02*
X171180075Y-109910323D01*
X171180075Y-109910323D02*
X171227694Y-110005561D01*
X171227694Y-110005561D02*
X171322932Y-110100800D01*
X171322932Y-110100800D02*
X171465789Y-110148419D01*
X171465789Y-110148419D02*
X171561027Y-110148419D01*
X171561027Y-110148419D02*
X171703884Y-110100800D01*
X171703884Y-110100800D02*
X171751503Y-110053180D01*
X171751503Y-110053180D02*
X171751503Y-109719847D01*
X171751503Y-109719847D02*
X171561027Y-109719847D01*
X172180075Y-110148419D02*
X172180075Y-109148419D01*
X172180075Y-109148419D02*
X172751503Y-110148419D01*
X172751503Y-110148419D02*
X172751503Y-109148419D01*
X173227694Y-110148419D02*
X173227694Y-109148419D01*
X173227694Y-109148419D02*
X173465789Y-109148419D01*
X173465789Y-109148419D02*
X173608646Y-109196038D01*
X173608646Y-109196038D02*
X173703884Y-109291276D01*
X173703884Y-109291276D02*
X173751503Y-109386514D01*
X173751503Y-109386514D02*
X173799122Y-109576990D01*
X173799122Y-109576990D02*
X173799122Y-109719847D01*
X173799122Y-109719847D02*
X173751503Y-109910323D01*
X173751503Y-109910323D02*
X173703884Y-110005561D01*
X173703884Y-110005561D02*
X173608646Y-110100800D01*
X173608646Y-110100800D02*
X173465789Y-110148419D01*
X173465789Y-110148419D02*
X173227694Y-110148419D01*
X171703884Y-111696038D02*
X171608646Y-111648419D01*
X171608646Y-111648419D02*
X171465789Y-111648419D01*
X171465789Y-111648419D02*
X171322932Y-111696038D01*
X171322932Y-111696038D02*
X171227694Y-111791276D01*
X171227694Y-111791276D02*
X171180075Y-111886514D01*
X171180075Y-111886514D02*
X171132456Y-112076990D01*
X171132456Y-112076990D02*
X171132456Y-112219847D01*
X171132456Y-112219847D02*
X171180075Y-112410323D01*
X171180075Y-112410323D02*
X171227694Y-112505561D01*
X171227694Y-112505561D02*
X171322932Y-112600800D01*
X171322932Y-112600800D02*
X171465789Y-112648419D01*
X171465789Y-112648419D02*
X171561027Y-112648419D01*
X171561027Y-112648419D02*
X171703884Y-112600800D01*
X171703884Y-112600800D02*
X171751503Y-112553180D01*
X171751503Y-112553180D02*
X171751503Y-112219847D01*
X171751503Y-112219847D02*
X171561027Y-112219847D01*
X172180075Y-112648419D02*
X172180075Y-111648419D01*
X172180075Y-111648419D02*
X172751503Y-112648419D01*
X172751503Y-112648419D02*
X172751503Y-111648419D01*
X173227694Y-112648419D02*
X173227694Y-111648419D01*
X173227694Y-111648419D02*
X173465789Y-111648419D01*
X173465789Y-111648419D02*
X173608646Y-111696038D01*
X173608646Y-111696038D02*
X173703884Y-111791276D01*
X173703884Y-111791276D02*
X173751503Y-111886514D01*
X173751503Y-111886514D02*
X173799122Y-112076990D01*
X173799122Y-112076990D02*
X173799122Y-112219847D01*
X173799122Y-112219847D02*
X173751503Y-112410323D01*
X173751503Y-112410323D02*
X173703884Y-112505561D01*
X173703884Y-112505561D02*
X173608646Y-112600800D01*
X173608646Y-112600800D02*
X173465789Y-112648419D01*
X173465789Y-112648419D02*
X173227694Y-112648419D01*
X161672306Y-109196038D02*
X161577068Y-109148419D01*
X161577068Y-109148419D02*
X161434211Y-109148419D01*
X161434211Y-109148419D02*
X161291354Y-109196038D01*
X161291354Y-109196038D02*
X161196116Y-109291276D01*
X161196116Y-109291276D02*
X161148497Y-109386514D01*
X161148497Y-109386514D02*
X161100878Y-109576990D01*
X161100878Y-109576990D02*
X161100878Y-109719847D01*
X161100878Y-109719847D02*
X161148497Y-109910323D01*
X161148497Y-109910323D02*
X161196116Y-110005561D01*
X161196116Y-110005561D02*
X161291354Y-110100800D01*
X161291354Y-110100800D02*
X161434211Y-110148419D01*
X161434211Y-110148419D02*
X161529449Y-110148419D01*
X161529449Y-110148419D02*
X161672306Y-110100800D01*
X161672306Y-110100800D02*
X161719925Y-110053180D01*
X161719925Y-110053180D02*
X161719925Y-109719847D01*
X161719925Y-109719847D02*
X161529449Y-109719847D01*
X162148497Y-110148419D02*
X162148497Y-109148419D01*
X162148497Y-109148419D02*
X162719925Y-110148419D01*
X162719925Y-110148419D02*
X162719925Y-109148419D01*
X163196116Y-110148419D02*
X163196116Y-109148419D01*
X163196116Y-109148419D02*
X163434211Y-109148419D01*
X163434211Y-109148419D02*
X163577068Y-109196038D01*
X163577068Y-109196038D02*
X163672306Y-109291276D01*
X163672306Y-109291276D02*
X163719925Y-109386514D01*
X163719925Y-109386514D02*
X163767544Y-109576990D01*
X163767544Y-109576990D02*
X163767544Y-109719847D01*
X163767544Y-109719847D02*
X163719925Y-109910323D01*
X163719925Y-109910323D02*
X163672306Y-110005561D01*
X163672306Y-110005561D02*
X163577068Y-110100800D01*
X163577068Y-110100800D02*
X163434211Y-110148419D01*
X163434211Y-110148419D02*
X163196116Y-110148419D01*
X161672306Y-111696038D02*
X161577068Y-111648419D01*
X161577068Y-111648419D02*
X161434211Y-111648419D01*
X161434211Y-111648419D02*
X161291354Y-111696038D01*
X161291354Y-111696038D02*
X161196116Y-111791276D01*
X161196116Y-111791276D02*
X161148497Y-111886514D01*
X161148497Y-111886514D02*
X161100878Y-112076990D01*
X161100878Y-112076990D02*
X161100878Y-112219847D01*
X161100878Y-112219847D02*
X161148497Y-112410323D01*
X161148497Y-112410323D02*
X161196116Y-112505561D01*
X161196116Y-112505561D02*
X161291354Y-112600800D01*
X161291354Y-112600800D02*
X161434211Y-112648419D01*
X161434211Y-112648419D02*
X161529449Y-112648419D01*
X161529449Y-112648419D02*
X161672306Y-112600800D01*
X161672306Y-112600800D02*
X161719925Y-112553180D01*
X161719925Y-112553180D02*
X161719925Y-112219847D01*
X161719925Y-112219847D02*
X161529449Y-112219847D01*
X162148497Y-112648419D02*
X162148497Y-111648419D01*
X162148497Y-111648419D02*
X162719925Y-112648419D01*
X162719925Y-112648419D02*
X162719925Y-111648419D01*
X163196116Y-112648419D02*
X163196116Y-111648419D01*
X163196116Y-111648419D02*
X163434211Y-111648419D01*
X163434211Y-111648419D02*
X163577068Y-111696038D01*
X163577068Y-111696038D02*
X163672306Y-111791276D01*
X163672306Y-111791276D02*
X163719925Y-111886514D01*
X163719925Y-111886514D02*
X163767544Y-112076990D01*
X163767544Y-112076990D02*
X163767544Y-112219847D01*
X163767544Y-112219847D02*
X163719925Y-112410323D01*
X163719925Y-112410323D02*
X163672306Y-112505561D01*
X163672306Y-112505561D02*
X163577068Y-112600800D01*
X163577068Y-112600800D02*
X163434211Y-112648419D01*
X163434211Y-112648419D02*
X163196116Y-112648419D01*
X161896115Y-99677180D02*
X161848496Y-99724800D01*
X161848496Y-99724800D02*
X161705639Y-99772419D01*
X161705639Y-99772419D02*
X161610401Y-99772419D01*
X161610401Y-99772419D02*
X161467544Y-99724800D01*
X161467544Y-99724800D02*
X161372306Y-99629561D01*
X161372306Y-99629561D02*
X161324687Y-99534323D01*
X161324687Y-99534323D02*
X161277068Y-99343847D01*
X161277068Y-99343847D02*
X161277068Y-99200990D01*
X161277068Y-99200990D02*
X161324687Y-99010514D01*
X161324687Y-99010514D02*
X161372306Y-98915276D01*
X161372306Y-98915276D02*
X161467544Y-98820038D01*
X161467544Y-98820038D02*
X161610401Y-98772419D01*
X161610401Y-98772419D02*
X161705639Y-98772419D01*
X161705639Y-98772419D02*
X161848496Y-98820038D01*
X161848496Y-98820038D02*
X161896115Y-98867657D01*
X162324687Y-99772419D02*
X162324687Y-98772419D01*
X162324687Y-99248609D02*
X162896115Y-99248609D01*
X162896115Y-99772419D02*
X162896115Y-98772419D01*
X163800877Y-98772419D02*
X163610401Y-98772419D01*
X163610401Y-98772419D02*
X163515163Y-98820038D01*
X163515163Y-98820038D02*
X163467544Y-98867657D01*
X163467544Y-98867657D02*
X163372306Y-99010514D01*
X163372306Y-99010514D02*
X163324687Y-99200990D01*
X163324687Y-99200990D02*
X163324687Y-99581942D01*
X163324687Y-99581942D02*
X163372306Y-99677180D01*
X163372306Y-99677180D02*
X163419925Y-99724800D01*
X163419925Y-99724800D02*
X163515163Y-99772419D01*
X163515163Y-99772419D02*
X163705639Y-99772419D01*
X163705639Y-99772419D02*
X163800877Y-99724800D01*
X163800877Y-99724800D02*
X163848496Y-99677180D01*
X163848496Y-99677180D02*
X163896115Y-99581942D01*
X163896115Y-99581942D02*
X163896115Y-99343847D01*
X163896115Y-99343847D02*
X163848496Y-99248609D01*
X163848496Y-99248609D02*
X163800877Y-99200990D01*
X163800877Y-99200990D02*
X163705639Y-99153371D01*
X163705639Y-99153371D02*
X163515163Y-99153371D01*
X163515163Y-99153371D02*
X163419925Y-99200990D01*
X163419925Y-99200990D02*
X163372306Y-99248609D01*
X163372306Y-99248609D02*
X163324687Y-99343847D01*
X161896115Y-102227180D02*
X161848496Y-102274800D01*
X161848496Y-102274800D02*
X161705639Y-102322419D01*
X161705639Y-102322419D02*
X161610401Y-102322419D01*
X161610401Y-102322419D02*
X161467544Y-102274800D01*
X161467544Y-102274800D02*
X161372306Y-102179561D01*
X161372306Y-102179561D02*
X161324687Y-102084323D01*
X161324687Y-102084323D02*
X161277068Y-101893847D01*
X161277068Y-101893847D02*
X161277068Y-101750990D01*
X161277068Y-101750990D02*
X161324687Y-101560514D01*
X161324687Y-101560514D02*
X161372306Y-101465276D01*
X161372306Y-101465276D02*
X161467544Y-101370038D01*
X161467544Y-101370038D02*
X161610401Y-101322419D01*
X161610401Y-101322419D02*
X161705639Y-101322419D01*
X161705639Y-101322419D02*
X161848496Y-101370038D01*
X161848496Y-101370038D02*
X161896115Y-101417657D01*
X162324687Y-102322419D02*
X162324687Y-101322419D01*
X162324687Y-101798609D02*
X162896115Y-101798609D01*
X162896115Y-102322419D02*
X162896115Y-101322419D01*
X163800877Y-101655752D02*
X163800877Y-102322419D01*
X163562782Y-101274800D02*
X163324687Y-101989085D01*
X163324687Y-101989085D02*
X163943734Y-101989085D01*
X161896115Y-104777180D02*
X161848496Y-104824800D01*
X161848496Y-104824800D02*
X161705639Y-104872419D01*
X161705639Y-104872419D02*
X161610401Y-104872419D01*
X161610401Y-104872419D02*
X161467544Y-104824800D01*
X161467544Y-104824800D02*
X161372306Y-104729561D01*
X161372306Y-104729561D02*
X161324687Y-104634323D01*
X161324687Y-104634323D02*
X161277068Y-104443847D01*
X161277068Y-104443847D02*
X161277068Y-104300990D01*
X161277068Y-104300990D02*
X161324687Y-104110514D01*
X161324687Y-104110514D02*
X161372306Y-104015276D01*
X161372306Y-104015276D02*
X161467544Y-103920038D01*
X161467544Y-103920038D02*
X161610401Y-103872419D01*
X161610401Y-103872419D02*
X161705639Y-103872419D01*
X161705639Y-103872419D02*
X161848496Y-103920038D01*
X161848496Y-103920038D02*
X161896115Y-103967657D01*
X162324687Y-104872419D02*
X162324687Y-103872419D01*
X162324687Y-104348609D02*
X162896115Y-104348609D01*
X162896115Y-104872419D02*
X162896115Y-103872419D01*
X163324687Y-103967657D02*
X163372306Y-103920038D01*
X163372306Y-103920038D02*
X163467544Y-103872419D01*
X163467544Y-103872419D02*
X163705639Y-103872419D01*
X163705639Y-103872419D02*
X163800877Y-103920038D01*
X163800877Y-103920038D02*
X163848496Y-103967657D01*
X163848496Y-103967657D02*
X163896115Y-104062895D01*
X163896115Y-104062895D02*
X163896115Y-104158133D01*
X163896115Y-104158133D02*
X163848496Y-104300990D01*
X163848496Y-104300990D02*
X163277068Y-104872419D01*
X163277068Y-104872419D02*
X163896115Y-104872419D01*
X161896115Y-107377180D02*
X161848496Y-107424800D01*
X161848496Y-107424800D02*
X161705639Y-107472419D01*
X161705639Y-107472419D02*
X161610401Y-107472419D01*
X161610401Y-107472419D02*
X161467544Y-107424800D01*
X161467544Y-107424800D02*
X161372306Y-107329561D01*
X161372306Y-107329561D02*
X161324687Y-107234323D01*
X161324687Y-107234323D02*
X161277068Y-107043847D01*
X161277068Y-107043847D02*
X161277068Y-106900990D01*
X161277068Y-106900990D02*
X161324687Y-106710514D01*
X161324687Y-106710514D02*
X161372306Y-106615276D01*
X161372306Y-106615276D02*
X161467544Y-106520038D01*
X161467544Y-106520038D02*
X161610401Y-106472419D01*
X161610401Y-106472419D02*
X161705639Y-106472419D01*
X161705639Y-106472419D02*
X161848496Y-106520038D01*
X161848496Y-106520038D02*
X161896115Y-106567657D01*
X162324687Y-107472419D02*
X162324687Y-106472419D01*
X162324687Y-106948609D02*
X162896115Y-106948609D01*
X162896115Y-107472419D02*
X162896115Y-106472419D01*
X163562782Y-106472419D02*
X163658020Y-106472419D01*
X163658020Y-106472419D02*
X163753258Y-106520038D01*
X163753258Y-106520038D02*
X163800877Y-106567657D01*
X163800877Y-106567657D02*
X163848496Y-106662895D01*
X163848496Y-106662895D02*
X163896115Y-106853371D01*
X163896115Y-106853371D02*
X163896115Y-107091466D01*
X163896115Y-107091466D02*
X163848496Y-107281942D01*
X163848496Y-107281942D02*
X163800877Y-107377180D01*
X163800877Y-107377180D02*
X163753258Y-107424800D01*
X163753258Y-107424800D02*
X163658020Y-107472419D01*
X163658020Y-107472419D02*
X163562782Y-107472419D01*
X163562782Y-107472419D02*
X163467544Y-107424800D01*
X163467544Y-107424800D02*
X163419925Y-107377180D01*
X163419925Y-107377180D02*
X163372306Y-107281942D01*
X163372306Y-107281942D02*
X163324687Y-107091466D01*
X163324687Y-107091466D02*
X163324687Y-106853371D01*
X163324687Y-106853371D02*
X163372306Y-106662895D01*
X163372306Y-106662895D02*
X163419925Y-106567657D01*
X163419925Y-106567657D02*
X163467544Y-106520038D01*
X163467544Y-106520038D02*
X163562782Y-106472419D01*
X171543734Y-99677180D02*
X171496115Y-99724800D01*
X171496115Y-99724800D02*
X171353258Y-99772419D01*
X171353258Y-99772419D02*
X171258020Y-99772419D01*
X171258020Y-99772419D02*
X171115163Y-99724800D01*
X171115163Y-99724800D02*
X171019925Y-99629561D01*
X171019925Y-99629561D02*
X170972306Y-99534323D01*
X170972306Y-99534323D02*
X170924687Y-99343847D01*
X170924687Y-99343847D02*
X170924687Y-99200990D01*
X170924687Y-99200990D02*
X170972306Y-99010514D01*
X170972306Y-99010514D02*
X171019925Y-98915276D01*
X171019925Y-98915276D02*
X171115163Y-98820038D01*
X171115163Y-98820038D02*
X171258020Y-98772419D01*
X171258020Y-98772419D02*
X171353258Y-98772419D01*
X171353258Y-98772419D02*
X171496115Y-98820038D01*
X171496115Y-98820038D02*
X171543734Y-98867657D01*
X171972306Y-99772419D02*
X171972306Y-98772419D01*
X171972306Y-99248609D02*
X172543734Y-99248609D01*
X172543734Y-99772419D02*
X172543734Y-98772419D01*
X172924687Y-98772419D02*
X173591353Y-98772419D01*
X173591353Y-98772419D02*
X173162782Y-99772419D01*
X171543734Y-102227180D02*
X171496115Y-102274800D01*
X171496115Y-102274800D02*
X171353258Y-102322419D01*
X171353258Y-102322419D02*
X171258020Y-102322419D01*
X171258020Y-102322419D02*
X171115163Y-102274800D01*
X171115163Y-102274800D02*
X171019925Y-102179561D01*
X171019925Y-102179561D02*
X170972306Y-102084323D01*
X170972306Y-102084323D02*
X170924687Y-101893847D01*
X170924687Y-101893847D02*
X170924687Y-101750990D01*
X170924687Y-101750990D02*
X170972306Y-101560514D01*
X170972306Y-101560514D02*
X171019925Y-101465276D01*
X171019925Y-101465276D02*
X171115163Y-101370038D01*
X171115163Y-101370038D02*
X171258020Y-101322419D01*
X171258020Y-101322419D02*
X171353258Y-101322419D01*
X171353258Y-101322419D02*
X171496115Y-101370038D01*
X171496115Y-101370038D02*
X171543734Y-101417657D01*
X171972306Y-102322419D02*
X171972306Y-101322419D01*
X171972306Y-101798609D02*
X172543734Y-101798609D01*
X172543734Y-102322419D02*
X172543734Y-101322419D01*
X173496115Y-101322419D02*
X173019925Y-101322419D01*
X173019925Y-101322419D02*
X172972306Y-101798609D01*
X172972306Y-101798609D02*
X173019925Y-101750990D01*
X173019925Y-101750990D02*
X173115163Y-101703371D01*
X173115163Y-101703371D02*
X173353258Y-101703371D01*
X173353258Y-101703371D02*
X173448496Y-101750990D01*
X173448496Y-101750990D02*
X173496115Y-101798609D01*
X173496115Y-101798609D02*
X173543734Y-101893847D01*
X173543734Y-101893847D02*
X173543734Y-102131942D01*
X173543734Y-102131942D02*
X173496115Y-102227180D01*
X173496115Y-102227180D02*
X173448496Y-102274800D01*
X173448496Y-102274800D02*
X173353258Y-102322419D01*
X173353258Y-102322419D02*
X173115163Y-102322419D01*
X173115163Y-102322419D02*
X173019925Y-102274800D01*
X173019925Y-102274800D02*
X172972306Y-102227180D01*
X171543734Y-104777180D02*
X171496115Y-104824800D01*
X171496115Y-104824800D02*
X171353258Y-104872419D01*
X171353258Y-104872419D02*
X171258020Y-104872419D01*
X171258020Y-104872419D02*
X171115163Y-104824800D01*
X171115163Y-104824800D02*
X171019925Y-104729561D01*
X171019925Y-104729561D02*
X170972306Y-104634323D01*
X170972306Y-104634323D02*
X170924687Y-104443847D01*
X170924687Y-104443847D02*
X170924687Y-104300990D01*
X170924687Y-104300990D02*
X170972306Y-104110514D01*
X170972306Y-104110514D02*
X171019925Y-104015276D01*
X171019925Y-104015276D02*
X171115163Y-103920038D01*
X171115163Y-103920038D02*
X171258020Y-103872419D01*
X171258020Y-103872419D02*
X171353258Y-103872419D01*
X171353258Y-103872419D02*
X171496115Y-103920038D01*
X171496115Y-103920038D02*
X171543734Y-103967657D01*
X171972306Y-104872419D02*
X171972306Y-103872419D01*
X171972306Y-104348609D02*
X172543734Y-104348609D01*
X172543734Y-104872419D02*
X172543734Y-103872419D01*
X172924687Y-103872419D02*
X173543734Y-103872419D01*
X173543734Y-103872419D02*
X173210401Y-104253371D01*
X173210401Y-104253371D02*
X173353258Y-104253371D01*
X173353258Y-104253371D02*
X173448496Y-104300990D01*
X173448496Y-104300990D02*
X173496115Y-104348609D01*
X173496115Y-104348609D02*
X173543734Y-104443847D01*
X173543734Y-104443847D02*
X173543734Y-104681942D01*
X173543734Y-104681942D02*
X173496115Y-104777180D01*
X173496115Y-104777180D02*
X173448496Y-104824800D01*
X173448496Y-104824800D02*
X173353258Y-104872419D01*
X173353258Y-104872419D02*
X173067544Y-104872419D01*
X173067544Y-104872419D02*
X172972306Y-104824800D01*
X172972306Y-104824800D02*
X172924687Y-104777180D01*
X171543734Y-107377180D02*
X171496115Y-107424800D01*
X171496115Y-107424800D02*
X171353258Y-107472419D01*
X171353258Y-107472419D02*
X171258020Y-107472419D01*
X171258020Y-107472419D02*
X171115163Y-107424800D01*
X171115163Y-107424800D02*
X171019925Y-107329561D01*
X171019925Y-107329561D02*
X170972306Y-107234323D01*
X170972306Y-107234323D02*
X170924687Y-107043847D01*
X170924687Y-107043847D02*
X170924687Y-106900990D01*
X170924687Y-106900990D02*
X170972306Y-106710514D01*
X170972306Y-106710514D02*
X171019925Y-106615276D01*
X171019925Y-106615276D02*
X171115163Y-106520038D01*
X171115163Y-106520038D02*
X171258020Y-106472419D01*
X171258020Y-106472419D02*
X171353258Y-106472419D01*
X171353258Y-106472419D02*
X171496115Y-106520038D01*
X171496115Y-106520038D02*
X171543734Y-106567657D01*
X171972306Y-107472419D02*
X171972306Y-106472419D01*
X171972306Y-106948609D02*
X172543734Y-106948609D01*
X172543734Y-107472419D02*
X172543734Y-106472419D01*
X173543734Y-107472419D02*
X172972306Y-107472419D01*
X173258020Y-107472419D02*
X173258020Y-106472419D01*
X173258020Y-106472419D02*
X173162782Y-106615276D01*
X173162782Y-106615276D02*
X173067544Y-106710514D01*
X173067544Y-106710514D02*
X172972306Y-106758133D01*
D11*
X135417720Y-73315114D02*
X135917720Y-73315114D01*
X136132006Y-74100828D02*
X135417720Y-74100828D01*
X135417720Y-74100828D02*
X135417720Y-72600828D01*
X135417720Y-72600828D02*
X136132006Y-72600828D01*
X136703435Y-74029400D02*
X136917721Y-74100828D01*
X136917721Y-74100828D02*
X137274863Y-74100828D01*
X137274863Y-74100828D02*
X137417721Y-74029400D01*
X137417721Y-74029400D02*
X137489149Y-73957971D01*
X137489149Y-73957971D02*
X137560578Y-73815114D01*
X137560578Y-73815114D02*
X137560578Y-73672257D01*
X137560578Y-73672257D02*
X137489149Y-73529400D01*
X137489149Y-73529400D02*
X137417721Y-73457971D01*
X137417721Y-73457971D02*
X137274863Y-73386542D01*
X137274863Y-73386542D02*
X136989149Y-73315114D01*
X136989149Y-73315114D02*
X136846292Y-73243685D01*
X136846292Y-73243685D02*
X136774863Y-73172257D01*
X136774863Y-73172257D02*
X136703435Y-73029400D01*
X136703435Y-73029400D02*
X136703435Y-72886542D01*
X136703435Y-72886542D02*
X136774863Y-72743685D01*
X136774863Y-72743685D02*
X136846292Y-72672257D01*
X136846292Y-72672257D02*
X136989149Y-72600828D01*
X136989149Y-72600828D02*
X137346292Y-72600828D01*
X137346292Y-72600828D02*
X137560578Y-72672257D01*
X138203434Y-74100828D02*
X138203434Y-72600828D01*
X138203434Y-72600828D02*
X138774863Y-72600828D01*
X138774863Y-72600828D02*
X138917720Y-72672257D01*
X138917720Y-72672257D02*
X138989149Y-72743685D01*
X138989149Y-72743685D02*
X139060577Y-72886542D01*
X139060577Y-72886542D02*
X139060577Y-73100828D01*
X139060577Y-73100828D02*
X138989149Y-73243685D01*
X138989149Y-73243685D02*
X138917720Y-73315114D01*
X138917720Y-73315114D02*
X138774863Y-73386542D01*
X138774863Y-73386542D02*
X138203434Y-73386542D01*
X139560577Y-72600828D02*
X140489149Y-72600828D01*
X140489149Y-72600828D02*
X139989149Y-73172257D01*
X139989149Y-73172257D02*
X140203434Y-73172257D01*
X140203434Y-73172257D02*
X140346292Y-73243685D01*
X140346292Y-73243685D02*
X140417720Y-73315114D01*
X140417720Y-73315114D02*
X140489149Y-73457971D01*
X140489149Y-73457971D02*
X140489149Y-73815114D01*
X140489149Y-73815114D02*
X140417720Y-73957971D01*
X140417720Y-73957971D02*
X140346292Y-74029400D01*
X140346292Y-74029400D02*
X140203434Y-74100828D01*
X140203434Y-74100828D02*
X139774863Y-74100828D01*
X139774863Y-74100828D02*
X139632006Y-74029400D01*
X139632006Y-74029400D02*
X139560577Y-73957971D01*
X141060577Y-72743685D02*
X141132005Y-72672257D01*
X141132005Y-72672257D02*
X141274863Y-72600828D01*
X141274863Y-72600828D02*
X141632005Y-72600828D01*
X141632005Y-72600828D02*
X141774863Y-72672257D01*
X141774863Y-72672257D02*
X141846291Y-72743685D01*
X141846291Y-72743685D02*
X141917720Y-72886542D01*
X141917720Y-72886542D02*
X141917720Y-73029400D01*
X141917720Y-73029400D02*
X141846291Y-73243685D01*
X141846291Y-73243685D02*
X140989148Y-74100828D01*
X140989148Y-74100828D02*
X141917720Y-74100828D01*
X144417719Y-74100828D02*
X143703433Y-74100828D01*
X143703433Y-74100828D02*
X143703433Y-72600828D01*
X145132005Y-74100828D02*
X144989148Y-74029400D01*
X144989148Y-74029400D02*
X144917719Y-73957971D01*
X144917719Y-73957971D02*
X144846291Y-73815114D01*
X144846291Y-73815114D02*
X144846291Y-73386542D01*
X144846291Y-73386542D02*
X144917719Y-73243685D01*
X144917719Y-73243685D02*
X144989148Y-73172257D01*
X144989148Y-73172257D02*
X145132005Y-73100828D01*
X145132005Y-73100828D02*
X145346291Y-73100828D01*
X145346291Y-73100828D02*
X145489148Y-73172257D01*
X145489148Y-73172257D02*
X145560577Y-73243685D01*
X145560577Y-73243685D02*
X145632005Y-73386542D01*
X145632005Y-73386542D02*
X145632005Y-73815114D01*
X145632005Y-73815114D02*
X145560577Y-73957971D01*
X145560577Y-73957971D02*
X145489148Y-74029400D01*
X145489148Y-74029400D02*
X145346291Y-74100828D01*
X145346291Y-74100828D02*
X145132005Y-74100828D01*
X146917720Y-73100828D02*
X146917720Y-74315114D01*
X146917720Y-74315114D02*
X146846291Y-74457971D01*
X146846291Y-74457971D02*
X146774862Y-74529400D01*
X146774862Y-74529400D02*
X146632005Y-74600828D01*
X146632005Y-74600828D02*
X146417720Y-74600828D01*
X146417720Y-74600828D02*
X146274862Y-74529400D01*
X146917720Y-74029400D02*
X146774862Y-74100828D01*
X146774862Y-74100828D02*
X146489148Y-74100828D01*
X146489148Y-74100828D02*
X146346291Y-74029400D01*
X146346291Y-74029400D02*
X146274862Y-73957971D01*
X146274862Y-73957971D02*
X146203434Y-73815114D01*
X146203434Y-73815114D02*
X146203434Y-73386542D01*
X146203434Y-73386542D02*
X146274862Y-73243685D01*
X146274862Y-73243685D02*
X146346291Y-73172257D01*
X146346291Y-73172257D02*
X146489148Y-73100828D01*
X146489148Y-73100828D02*
X146774862Y-73100828D01*
X146774862Y-73100828D02*
X146917720Y-73172257D01*
X147632005Y-74100828D02*
X147632005Y-73100828D01*
X147632005Y-72600828D02*
X147560577Y-72672257D01*
X147560577Y-72672257D02*
X147632005Y-72743685D01*
X147632005Y-72743685D02*
X147703434Y-72672257D01*
X147703434Y-72672257D02*
X147632005Y-72600828D01*
X147632005Y-72600828D02*
X147632005Y-72743685D01*
X148989149Y-74029400D02*
X148846291Y-74100828D01*
X148846291Y-74100828D02*
X148560577Y-74100828D01*
X148560577Y-74100828D02*
X148417720Y-74029400D01*
X148417720Y-74029400D02*
X148346291Y-73957971D01*
X148346291Y-73957971D02*
X148274863Y-73815114D01*
X148274863Y-73815114D02*
X148274863Y-73386542D01*
X148274863Y-73386542D02*
X148346291Y-73243685D01*
X148346291Y-73243685D02*
X148417720Y-73172257D01*
X148417720Y-73172257D02*
X148560577Y-73100828D01*
X148560577Y-73100828D02*
X148846291Y-73100828D01*
X148846291Y-73100828D02*
X148989149Y-73172257D01*
X149560577Y-73672257D02*
X150274863Y-73672257D01*
X149417720Y-74100828D02*
X149917720Y-72600828D01*
X149917720Y-72600828D02*
X150417720Y-74100828D01*
X150917719Y-73100828D02*
X150917719Y-74100828D01*
X150917719Y-73243685D02*
X150989148Y-73172257D01*
X150989148Y-73172257D02*
X151132005Y-73100828D01*
X151132005Y-73100828D02*
X151346291Y-73100828D01*
X151346291Y-73100828D02*
X151489148Y-73172257D01*
X151489148Y-73172257D02*
X151560577Y-73315114D01*
X151560577Y-73315114D02*
X151560577Y-74100828D01*
X152917720Y-74100828D02*
X152917720Y-73315114D01*
X152917720Y-73315114D02*
X152846291Y-73172257D01*
X152846291Y-73172257D02*
X152703434Y-73100828D01*
X152703434Y-73100828D02*
X152417720Y-73100828D01*
X152417720Y-73100828D02*
X152274862Y-73172257D01*
X152917720Y-74029400D02*
X152774862Y-74100828D01*
X152774862Y-74100828D02*
X152417720Y-74100828D01*
X152417720Y-74100828D02*
X152274862Y-74029400D01*
X152274862Y-74029400D02*
X152203434Y-73886542D01*
X152203434Y-73886542D02*
X152203434Y-73743685D01*
X152203434Y-73743685D02*
X152274862Y-73600828D01*
X152274862Y-73600828D02*
X152417720Y-73529400D01*
X152417720Y-73529400D02*
X152774862Y-73529400D01*
X152774862Y-73529400D02*
X152917720Y-73457971D01*
X153846291Y-74100828D02*
X153703434Y-74029400D01*
X153703434Y-74029400D02*
X153632005Y-73886542D01*
X153632005Y-73886542D02*
X153632005Y-72600828D01*
X154274862Y-73100828D02*
X154632005Y-74100828D01*
X154989148Y-73100828D02*
X154632005Y-74100828D01*
X154632005Y-74100828D02*
X154489148Y-74457971D01*
X154489148Y-74457971D02*
X154417719Y-74529400D01*
X154417719Y-74529400D02*
X154274862Y-74600828D01*
X155417719Y-73100828D02*
X156203434Y-73100828D01*
X156203434Y-73100828D02*
X155417719Y-74100828D01*
X155417719Y-74100828D02*
X156203434Y-74100828D01*
X157346291Y-74029400D02*
X157203434Y-74100828D01*
X157203434Y-74100828D02*
X156917720Y-74100828D01*
X156917720Y-74100828D02*
X156774862Y-74029400D01*
X156774862Y-74029400D02*
X156703434Y-73886542D01*
X156703434Y-73886542D02*
X156703434Y-73315114D01*
X156703434Y-73315114D02*
X156774862Y-73172257D01*
X156774862Y-73172257D02*
X156917720Y-73100828D01*
X156917720Y-73100828D02*
X157203434Y-73100828D01*
X157203434Y-73100828D02*
X157346291Y-73172257D01*
X157346291Y-73172257D02*
X157417720Y-73315114D01*
X157417720Y-73315114D02*
X157417720Y-73457971D01*
X157417720Y-73457971D02*
X156703434Y-73600828D01*
X158060576Y-74100828D02*
X158060576Y-73100828D01*
X158060576Y-73386542D02*
X158132005Y-73243685D01*
X158132005Y-73243685D02*
X158203434Y-73172257D01*
X158203434Y-73172257D02*
X158346291Y-73100828D01*
X158346291Y-73100828D02*
X158489148Y-73100828D01*
D12*
X147363333Y-110514819D02*
X147030000Y-110038628D01*
X146791905Y-110514819D02*
X146791905Y-109514819D01*
X146791905Y-109514819D02*
X147172857Y-109514819D01*
X147172857Y-109514819D02*
X147268095Y-109562438D01*
X147268095Y-109562438D02*
X147315714Y-109610057D01*
X147315714Y-109610057D02*
X147363333Y-109705295D01*
X147363333Y-109705295D02*
X147363333Y-109848152D01*
X147363333Y-109848152D02*
X147315714Y-109943390D01*
X147315714Y-109943390D02*
X147268095Y-109991009D01*
X147268095Y-109991009D02*
X147172857Y-110038628D01*
X147172857Y-110038628D02*
X146791905Y-110038628D01*
X148220476Y-109848152D02*
X148220476Y-110514819D01*
X147982381Y-109467200D02*
X147744286Y-110181485D01*
X147744286Y-110181485D02*
X148363333Y-110181485D01*
X172376666Y-81519719D02*
X172376666Y-82234004D01*
X172376666Y-82234004D02*
X172329047Y-82376861D01*
X172329047Y-82376861D02*
X172233809Y-82472100D01*
X172233809Y-82472100D02*
X172090952Y-82519719D01*
X172090952Y-82519719D02*
X171995714Y-82519719D01*
X173281428Y-81853052D02*
X173281428Y-82519719D01*
X173043333Y-81472100D02*
X172805238Y-82186385D01*
X172805238Y-82186385D02*
X173424285Y-82186385D01*
X150254819Y-101966666D02*
X149778628Y-102299999D01*
X150254819Y-102538094D02*
X149254819Y-102538094D01*
X149254819Y-102538094D02*
X149254819Y-102157142D01*
X149254819Y-102157142D02*
X149302438Y-102061904D01*
X149302438Y-102061904D02*
X149350057Y-102014285D01*
X149350057Y-102014285D02*
X149445295Y-101966666D01*
X149445295Y-101966666D02*
X149588152Y-101966666D01*
X149588152Y-101966666D02*
X149683390Y-102014285D01*
X149683390Y-102014285D02*
X149731009Y-102061904D01*
X149731009Y-102061904D02*
X149778628Y-102157142D01*
X149778628Y-102157142D02*
X149778628Y-102538094D01*
X149254819Y-101633332D02*
X149254819Y-101014285D01*
X149254819Y-101014285D02*
X149635771Y-101347618D01*
X149635771Y-101347618D02*
X149635771Y-101204761D01*
X149635771Y-101204761D02*
X149683390Y-101109523D01*
X149683390Y-101109523D02*
X149731009Y-101061904D01*
X149731009Y-101061904D02*
X149826247Y-101014285D01*
X149826247Y-101014285D02*
X150064342Y-101014285D01*
X150064342Y-101014285D02*
X150159580Y-101061904D01*
X150159580Y-101061904D02*
X150207200Y-101109523D01*
X150207200Y-101109523D02*
X150254819Y-101204761D01*
X150254819Y-101204761D02*
X150254819Y-101490475D01*
X150254819Y-101490475D02*
X150207200Y-101585713D01*
X150207200Y-101585713D02*
X150159580Y-101633332D01*
X139254819Y-107561904D02*
X140064342Y-107561904D01*
X140064342Y-107561904D02*
X140159580Y-107514285D01*
X140159580Y-107514285D02*
X140207200Y-107466666D01*
X140207200Y-107466666D02*
X140254819Y-107371428D01*
X140254819Y-107371428D02*
X140254819Y-107180952D01*
X140254819Y-107180952D02*
X140207200Y-107085714D01*
X140207200Y-107085714D02*
X140159580Y-107038095D01*
X140159580Y-107038095D02*
X140064342Y-106990476D01*
X140064342Y-106990476D02*
X139254819Y-106990476D01*
X139350057Y-106561904D02*
X139302438Y-106514285D01*
X139302438Y-106514285D02*
X139254819Y-106419047D01*
X139254819Y-106419047D02*
X139254819Y-106180952D01*
X139254819Y-106180952D02*
X139302438Y-106085714D01*
X139302438Y-106085714D02*
X139350057Y-106038095D01*
X139350057Y-106038095D02*
X139445295Y-105990476D01*
X139445295Y-105990476D02*
X139540533Y-105990476D01*
X139540533Y-105990476D02*
X139683390Y-106038095D01*
X139683390Y-106038095D02*
X140254819Y-106609523D01*
X140254819Y-106609523D02*
X140254819Y-105990476D01*
X131620666Y-116869569D02*
X131620666Y-117583854D01*
X131620666Y-117583854D02*
X131573047Y-117726711D01*
X131573047Y-117726711D02*
X131477809Y-117821950D01*
X131477809Y-117821950D02*
X131334952Y-117869569D01*
X131334952Y-117869569D02*
X131239714Y-117869569D01*
X132620666Y-117869569D02*
X132049238Y-117869569D01*
X132334952Y-117869569D02*
X132334952Y-116869569D01*
X132334952Y-116869569D02*
X132239714Y-117012426D01*
X132239714Y-117012426D02*
X132144476Y-117107664D01*
X132144476Y-117107664D02*
X132049238Y-117155283D01*
X150159580Y-105666666D02*
X150207200Y-105714285D01*
X150207200Y-105714285D02*
X150254819Y-105857142D01*
X150254819Y-105857142D02*
X150254819Y-105952380D01*
X150254819Y-105952380D02*
X150207200Y-106095237D01*
X150207200Y-106095237D02*
X150111961Y-106190475D01*
X150111961Y-106190475D02*
X150016723Y-106238094D01*
X150016723Y-106238094D02*
X149826247Y-106285713D01*
X149826247Y-106285713D02*
X149683390Y-106285713D01*
X149683390Y-106285713D02*
X149492914Y-106238094D01*
X149492914Y-106238094D02*
X149397676Y-106190475D01*
X149397676Y-106190475D02*
X149302438Y-106095237D01*
X149302438Y-106095237D02*
X149254819Y-105952380D01*
X149254819Y-105952380D02*
X149254819Y-105857142D01*
X149254819Y-105857142D02*
X149302438Y-105714285D01*
X149302438Y-105714285D02*
X149350057Y-105666666D01*
X150254819Y-104714285D02*
X150254819Y-105285713D01*
X150254819Y-104999999D02*
X149254819Y-104999999D01*
X149254819Y-104999999D02*
X149397676Y-105095237D01*
X149397676Y-105095237D02*
X149492914Y-105190475D01*
X149492914Y-105190475D02*
X149540533Y-105285713D01*
X140054819Y-88366666D02*
X139578628Y-88699999D01*
X140054819Y-88938094D02*
X139054819Y-88938094D01*
X139054819Y-88938094D02*
X139054819Y-88557142D01*
X139054819Y-88557142D02*
X139102438Y-88461904D01*
X139102438Y-88461904D02*
X139150057Y-88414285D01*
X139150057Y-88414285D02*
X139245295Y-88366666D01*
X139245295Y-88366666D02*
X139388152Y-88366666D01*
X139388152Y-88366666D02*
X139483390Y-88414285D01*
X139483390Y-88414285D02*
X139531009Y-88461904D01*
X139531009Y-88461904D02*
X139578628Y-88557142D01*
X139578628Y-88557142D02*
X139578628Y-88938094D01*
X139150057Y-87985713D02*
X139102438Y-87938094D01*
X139102438Y-87938094D02*
X139054819Y-87842856D01*
X139054819Y-87842856D02*
X139054819Y-87604761D01*
X139054819Y-87604761D02*
X139102438Y-87509523D01*
X139102438Y-87509523D02*
X139150057Y-87461904D01*
X139150057Y-87461904D02*
X139245295Y-87414285D01*
X139245295Y-87414285D02*
X139340533Y-87414285D01*
X139340533Y-87414285D02*
X139483390Y-87461904D01*
X139483390Y-87461904D02*
X140054819Y-88033332D01*
X140054819Y-88033332D02*
X140054819Y-87414285D01*
X149254819Y-83761904D02*
X150064342Y-83761904D01*
X150064342Y-83761904D02*
X150159580Y-83714285D01*
X150159580Y-83714285D02*
X150207200Y-83666666D01*
X150207200Y-83666666D02*
X150254819Y-83571428D01*
X150254819Y-83571428D02*
X150254819Y-83380952D01*
X150254819Y-83380952D02*
X150207200Y-83285714D01*
X150207200Y-83285714D02*
X150159580Y-83238095D01*
X150159580Y-83238095D02*
X150064342Y-83190476D01*
X150064342Y-83190476D02*
X149254819Y-83190476D01*
X150254819Y-82190476D02*
X150254819Y-82761904D01*
X150254819Y-82476190D02*
X149254819Y-82476190D01*
X149254819Y-82476190D02*
X149397676Y-82571428D01*
X149397676Y-82571428D02*
X149492914Y-82666666D01*
X149492914Y-82666666D02*
X149540533Y-82761904D01*
X141680111Y-80275019D02*
X141346778Y-79798828D01*
X141108683Y-80275019D02*
X141108683Y-79275019D01*
X141108683Y-79275019D02*
X141489635Y-79275019D01*
X141489635Y-79275019D02*
X141584873Y-79322638D01*
X141584873Y-79322638D02*
X141632492Y-79370257D01*
X141632492Y-79370257D02*
X141680111Y-79465495D01*
X141680111Y-79465495D02*
X141680111Y-79608352D01*
X141680111Y-79608352D02*
X141632492Y-79703590D01*
X141632492Y-79703590D02*
X141584873Y-79751209D01*
X141584873Y-79751209D02*
X141489635Y-79798828D01*
X141489635Y-79798828D02*
X141108683Y-79798828D01*
X142632492Y-80275019D02*
X142061064Y-80275019D01*
X142346778Y-80275019D02*
X142346778Y-79275019D01*
X142346778Y-79275019D02*
X142251540Y-79417876D01*
X142251540Y-79417876D02*
X142156302Y-79513114D01*
X142156302Y-79513114D02*
X142061064Y-79560733D01*
X167109666Y-114514819D02*
X167109666Y-115229104D01*
X167109666Y-115229104D02*
X167062047Y-115371961D01*
X167062047Y-115371961D02*
X166966809Y-115467200D01*
X166966809Y-115467200D02*
X166823952Y-115514819D01*
X166823952Y-115514819D02*
X166728714Y-115514819D01*
X167490619Y-114514819D02*
X168109666Y-114514819D01*
X168109666Y-114514819D02*
X167776333Y-114895771D01*
X167776333Y-114895771D02*
X167919190Y-114895771D01*
X167919190Y-114895771D02*
X168014428Y-114943390D01*
X168014428Y-114943390D02*
X168062047Y-114991009D01*
X168062047Y-114991009D02*
X168109666Y-115086247D01*
X168109666Y-115086247D02*
X168109666Y-115324342D01*
X168109666Y-115324342D02*
X168062047Y-115419580D01*
X168062047Y-115419580D02*
X168014428Y-115467200D01*
X168014428Y-115467200D02*
X167919190Y-115514819D01*
X167919190Y-115514819D02*
X167633476Y-115514819D01*
X167633476Y-115514819D02*
X167538238Y-115467200D01*
X167538238Y-115467200D02*
X167490619Y-115419580D01*
X157020666Y-116869569D02*
X157020666Y-117583854D01*
X157020666Y-117583854D02*
X156973047Y-117726711D01*
X156973047Y-117726711D02*
X156877809Y-117821950D01*
X156877809Y-117821950D02*
X156734952Y-117869569D01*
X156734952Y-117869569D02*
X156639714Y-117869569D01*
X157449238Y-116964807D02*
X157496857Y-116917188D01*
X157496857Y-116917188D02*
X157592095Y-116869569D01*
X157592095Y-116869569D02*
X157830190Y-116869569D01*
X157830190Y-116869569D02*
X157925428Y-116917188D01*
X157925428Y-116917188D02*
X157973047Y-116964807D01*
X157973047Y-116964807D02*
X158020666Y-117060045D01*
X158020666Y-117060045D02*
X158020666Y-117155283D01*
X158020666Y-117155283D02*
X157973047Y-117298140D01*
X157973047Y-117298140D02*
X157401619Y-117869569D01*
X157401619Y-117869569D02*
X158020666Y-117869569D01*
X139959580Y-84816666D02*
X140007200Y-84864285D01*
X140007200Y-84864285D02*
X140054819Y-85007142D01*
X140054819Y-85007142D02*
X140054819Y-85102380D01*
X140054819Y-85102380D02*
X140007200Y-85245237D01*
X140007200Y-85245237D02*
X139911961Y-85340475D01*
X139911961Y-85340475D02*
X139816723Y-85388094D01*
X139816723Y-85388094D02*
X139626247Y-85435713D01*
X139626247Y-85435713D02*
X139483390Y-85435713D01*
X139483390Y-85435713D02*
X139292914Y-85388094D01*
X139292914Y-85388094D02*
X139197676Y-85340475D01*
X139197676Y-85340475D02*
X139102438Y-85245237D01*
X139102438Y-85245237D02*
X139054819Y-85102380D01*
X139054819Y-85102380D02*
X139054819Y-85007142D01*
X139054819Y-85007142D02*
X139102438Y-84864285D01*
X139102438Y-84864285D02*
X139150057Y-84816666D01*
X139150057Y-84435713D02*
X139102438Y-84388094D01*
X139102438Y-84388094D02*
X139054819Y-84292856D01*
X139054819Y-84292856D02*
X139054819Y-84054761D01*
X139054819Y-84054761D02*
X139102438Y-83959523D01*
X139102438Y-83959523D02*
X139150057Y-83911904D01*
X139150057Y-83911904D02*
X139245295Y-83864285D01*
X139245295Y-83864285D02*
X139340533Y-83864285D01*
X139340533Y-83864285D02*
X139483390Y-83911904D01*
X139483390Y-83911904D02*
X140054819Y-84483332D01*
X140054819Y-84483332D02*
X140054819Y-83864285D01*
D13*
%TO.C,R4*%
X147287742Y-108077500D02*
X147762258Y-108077500D01*
X147287742Y-109122500D02*
X147762258Y-109122500D01*
%TO.C,J4*%
X163313000Y-83444900D02*
X163313000Y-82064900D01*
X164693000Y-83444900D02*
X163313000Y-83444900D01*
X165963000Y-80684900D02*
X171153000Y-80684900D01*
X165963000Y-83444900D02*
X165963000Y-80684900D01*
X165963000Y-83444900D02*
X171153000Y-83444900D01*
X171153000Y-83444900D02*
X171153000Y-80684900D01*
%TO.C,R3*%
X147713900Y-102037258D02*
X147713900Y-101562742D01*
X148758900Y-102037258D02*
X148758900Y-101562742D01*
%TO.C,U2*%
X140516600Y-106107500D02*
X140516600Y-101487500D01*
X147286600Y-101487500D02*
X147286600Y-106107500D01*
X146831600Y-99937500D02*
X146591600Y-99607500D01*
X147071600Y-99607500D01*
X146831600Y-99937500D01*
G36*
X146831600Y-99937500D02*
G01*
X146591600Y-99607500D01*
X147071600Y-99607500D01*
X146831600Y-99937500D01*
G37*
%TO.C,J1*%
X130649000Y-80247600D02*
X130649000Y-115867600D01*
X130649000Y-80247600D02*
X133309000Y-80247600D01*
X130649000Y-115867600D02*
X133309000Y-115867600D01*
X131979000Y-77647600D02*
X133309000Y-77647600D01*
X133309000Y-77647600D02*
X133309000Y-78977600D01*
X133309000Y-80247600D02*
X133309000Y-115867600D01*
%TO.C,C1*%
X147718989Y-105708439D02*
X147718989Y-105989599D01*
X148738989Y-105708439D02*
X148738989Y-105989599D01*
%TO.C,R2*%
X140589100Y-88437258D02*
X140589100Y-87962742D01*
X141634100Y-88437258D02*
X141634100Y-87962742D01*
%TO.C,U1*%
X142121400Y-88517500D02*
X142121400Y-83897500D01*
X148891400Y-83897500D02*
X148891400Y-88517500D01*
X142816400Y-90397500D02*
X142336400Y-90397500D01*
X142576400Y-90067500D01*
X142816400Y-90397500D01*
G36*
X142816400Y-90397500D02*
G01*
X142336400Y-90397500D01*
X142576400Y-90067500D01*
X142816400Y-90397500D01*
G37*
%TO.C,R1*%
X141587742Y-80877500D02*
X142062258Y-80877500D01*
X141587742Y-81922500D02*
X142062258Y-81922500D01*
%TO.C,J3*%
X164793000Y-87796000D02*
X166173000Y-87796000D01*
X164793000Y-89176000D02*
X164793000Y-87796000D01*
X164793000Y-90446000D02*
X164793000Y-113416000D01*
X164793000Y-90446000D02*
X167443000Y-90446000D01*
X164793000Y-113416000D02*
X170093000Y-113416000D01*
X167443000Y-87796000D02*
X170093000Y-87796000D01*
X167443000Y-90446000D02*
X167443000Y-87796000D01*
X170093000Y-87796000D02*
X170093000Y-113416000D01*
%TO.C,J2*%
X156049000Y-80247600D02*
X156049000Y-115867600D01*
X156049000Y-80247600D02*
X158709000Y-80247600D01*
X156049000Y-115867600D02*
X158709000Y-115867600D01*
X157379000Y-77647600D02*
X158709000Y-77647600D01*
X158709000Y-77647600D02*
X158709000Y-78977600D01*
X158709000Y-80247600D02*
X158709000Y-115867600D01*
%TO.C,C2*%
X140591600Y-84340580D02*
X140591600Y-84059420D01*
X141611600Y-84340580D02*
X141611600Y-84059420D01*
%TD*%
M02*
