%TF.GenerationSoftware,KiCad,Pcbnew,9.0.3-9.0.3-0~ubuntu24.04.1*%
%TF.CreationDate,2025-07-14T18:48:30-05:00*%
%TF.ProjectId,ESP32_LogicAnalyzer,45535033-325f-44c6-9f67-6963416e616c,rev?*%
%TF.SameCoordinates,Original*%
%TF.FileFunction,Copper,L1,Top*%
%TF.FilePolarity,Positive*%
%FSLAX46Y46*%
G04 Gerber Fmt 4.6, Leading zero omitted, Abs format (unit mm)*
G04 Created by KiCad (PCBNEW 9.0.3-9.0.3-0~ubuntu24.04.1) date 2025-07-14 18:48:30*
%MOMM*%
%LPD*%
G01*
G04 APERTURE LIST*
G04 Aperture macros list*
%AMRoundRect*
0 Rectangle with rounded corners*
0 $1 Rounding radius*
0 $2 $3 $4 $5 $6 $7 $8 $9 X,Y pos of 4 corners*
0 Add a 4 corners polygon primitive as box body*
4,1,4,$2,$3,$4,$5,$6,$7,$8,$9,$2,$3,0*
0 Add four circle primitives for the rounded corners*
1,1,$1+$1,$2,$3*
1,1,$1+$1,$4,$5*
1,1,$1+$1,$6,$7*
1,1,$1+$1,$8,$9*
0 Add four rect primitives between the rounded corners*
20,1,$1+$1,$2,$3,$4,$5,0*
20,1,$1+$1,$4,$5,$6,$7,0*
20,1,$1+$1,$6,$7,$8,$9,0*
20,1,$1+$1,$8,$9,$2,$3,0*%
G04 Aperture macros list end*
%TA.AperFunction,SMDPad,CuDef*%
%ADD10RoundRect,0.250000X0.262500X0.450000X-0.262500X0.450000X-0.262500X-0.450000X0.262500X-0.450000X0*%
%TD*%
%TA.AperFunction,ComponentPad*%
%ADD11R,1.700000X1.700000*%
%TD*%
%TA.AperFunction,ComponentPad*%
%ADD12C,1.700000*%
%TD*%
%TA.AperFunction,SMDPad,CuDef*%
%ADD13RoundRect,0.100000X-0.637500X-0.100000X0.637500X-0.100000X0.637500X0.100000X-0.637500X0.100000X0*%
%TD*%
%TA.AperFunction,SMDPad,CuDef*%
%ADD14RoundRect,0.250000X0.250000X0.475000X-0.250000X0.475000X-0.250000X-0.475000X0.250000X-0.475000X0*%
%TD*%
%TA.AperFunction,SMDPad,CuDef*%
%ADD15RoundRect,0.250000X-0.262500X-0.450000X0.262500X-0.450000X0.262500X0.450000X-0.262500X0.450000X0*%
%TD*%
%TA.AperFunction,ViaPad*%
%ADD16C,0.600000*%
%TD*%
%TA.AperFunction,Conductor*%
%ADD17C,0.200000*%
%TD*%
G04 APERTURE END LIST*
D10*
%TO.P,R2,2*%
%TO.N,GND*%
X145066500Y-100669800D03*
%TO.P,R2,1*%
%TO.N,Net-(U1-~{OE})*%
X146891500Y-100669800D03*
%TD*%
D11*
%TO.P,J5,1,Pin_1*%
%TO.N,/ESP32_TX2*%
X164483000Y-82724900D03*
D12*
%TO.P,J5,2,Pin_2*%
%TO.N,/ESP32_RX2*%
X167023000Y-82724900D03*
%TO.P,J5,3,Pin_3*%
%TO.N,GND*%
X169563000Y-82724900D03*
%TD*%
D10*
%TO.P,R4,2*%
%TO.N,Net-(U1-DIR)*%
X140616500Y-100669800D03*
%TO.P,R4,1*%
%TO.N,GND*%
X142441500Y-100669800D03*
%TD*%
D13*
%TO.P,U1,20,VCC*%
%TO.N,+3.3V*%
X146479000Y-103969800D03*
%TO.P,U1,19,~{OE}*%
%TO.N,Net-(U1-~{OE})*%
X146479000Y-104619800D03*
%TO.P,U1,18,B1*%
%TO.N,/CH0*%
X146479000Y-105269800D03*
%TO.P,U1,17,B2*%
%TO.N,/CH1*%
X146479000Y-105919800D03*
%TO.P,U1,16,B3*%
%TO.N,/CH2*%
X146479000Y-106569800D03*
%TO.P,U1,15,B4*%
%TO.N,/CH3*%
X146479000Y-107219800D03*
%TO.P,U1,14,B5*%
%TO.N,/CH4*%
X146479000Y-107869800D03*
%TO.P,U1,13,B6*%
%TO.N,/CH5*%
X146479000Y-108519800D03*
%TO.P,U1,12,B7*%
%TO.N,/CH6*%
X146479000Y-109169800D03*
%TO.P,U1,11,B8*%
%TO.N,/CH7*%
X146479000Y-109819800D03*
%TO.P,U1,10,GND*%
%TO.N,GND*%
X140754000Y-109819800D03*
%TO.P,U1,9,A8*%
%TO.N,Net-(J1-Pin_12)*%
X140754000Y-109169800D03*
%TO.P,U1,8,A7*%
%TO.N,Net-(J1-Pin_13)*%
X140754000Y-108519800D03*
%TO.P,U1,7,A6*%
%TO.N,Net-(J2-Pin_13)*%
X140754000Y-107869800D03*
%TO.P,U1,6,A5*%
%TO.N,Net-(J2-Pin_11)*%
X140754000Y-107219800D03*
%TO.P,U1,5,A4*%
%TO.N,Net-(J2-Pin_8)*%
X140754000Y-106569800D03*
%TO.P,U1,4,A3*%
%TO.N,Net-(J2-Pin_7)*%
X140754000Y-105919800D03*
%TO.P,U1,3,A2*%
%TO.N,Net-(J2-Pin_6)*%
X140754000Y-105269800D03*
%TO.P,U1,2,A1*%
%TO.N,Net-(J2-Pin_5)*%
X140754000Y-104619800D03*
%TO.P,U1,1,DIR*%
%TO.N,Net-(U1-DIR)*%
X140754000Y-103969800D03*
%TD*%
D12*
%TO.P,J1,15,Pin_15*%
%TO.N,unconnected-(J1-Pin_15-Pad15)*%
X131979000Y-115017600D03*
%TO.P,J1,14,Pin_14*%
%TO.N,GND*%
X131979000Y-112477600D03*
%TO.P,J1,13,Pin_13*%
%TO.N,Net-(J1-Pin_13)*%
X131979000Y-109937600D03*
%TO.P,J1,12,Pin_12*%
%TO.N,Net-(J1-Pin_12)*%
X131979000Y-107397600D03*
%TO.P,J1,11,Pin_11*%
%TO.N,Net-(J1-Pin_11)*%
X131979000Y-104857600D03*
%TO.P,J1,10,Pin_10*%
%TO.N,Net-(J1-Pin_10)*%
X131979000Y-102317600D03*
%TO.P,J1,9,Pin_9*%
%TO.N,Net-(J1-Pin_9)*%
X131979000Y-99777600D03*
%TO.P,J1,8,Pin_8*%
%TO.N,Net-(J1-Pin_8)*%
X131979000Y-97237600D03*
%TO.P,J1,7,Pin_7*%
%TO.N,Net-(J1-Pin_7)*%
X131979000Y-94697600D03*
%TO.P,J1,6,Pin_6*%
%TO.N,Net-(J1-Pin_6)*%
X131979000Y-92157600D03*
%TO.P,J1,5,Pin_5*%
%TO.N,Net-(J1-Pin_5)*%
X131979000Y-89617600D03*
%TO.P,J1,4,Pin_4*%
%TO.N,Net-(J1-Pin_4)*%
X131979000Y-87077600D03*
%TO.P,J1,3,Pin_3*%
%TO.N,unconnected-(J1-Pin_3-Pad3)*%
X131979000Y-84537600D03*
%TO.P,J1,2,Pin_2*%
%TO.N,unconnected-(J1-Pin_2-Pad2)*%
X131979000Y-81997600D03*
D11*
%TO.P,J1,1,Pin_1*%
%TO.N,unconnected-(J1-Pin_1-Pad1)*%
X131979000Y-79457600D03*
%TD*%
D14*
%TO.P,C1,2*%
%TO.N,+3.3V*%
X149079000Y-103894800D03*
%TO.P,C1,1*%
%TO.N,GND*%
X150979000Y-103894800D03*
%TD*%
D15*
%TO.P,R1,2*%
%TO.N,GND*%
X142529000Y-83169800D03*
%TO.P,R1,1*%
%TO.N,Net-(U2-DIR)*%
X140704000Y-83169800D03*
%TD*%
D13*
%TO.P,U2,20,VCC*%
%TO.N,+3.3V*%
X146479000Y-86469800D03*
%TO.P,U2,19,~{OE}*%
%TO.N,Net-(U2-~{OE})*%
X146479000Y-87119800D03*
%TO.P,U2,18,B1*%
%TO.N,/CH15*%
X146479000Y-87769800D03*
%TO.P,U2,17,B2*%
%TO.N,/CH14*%
X146479000Y-88419800D03*
%TO.P,U2,16,B3*%
%TO.N,/CH13*%
X146479000Y-89069800D03*
%TO.P,U2,15,B4*%
%TO.N,/CH12*%
X146479000Y-89719800D03*
%TO.P,U2,14,B5*%
%TO.N,/CH11*%
X146479000Y-90369800D03*
%TO.P,U2,13,B6*%
%TO.N,/CH10*%
X146479000Y-91019800D03*
%TO.P,U2,12,B7*%
%TO.N,/CH9*%
X146479000Y-91669800D03*
%TO.P,U2,11,B8*%
%TO.N,/CH8*%
X146479000Y-92319800D03*
%TO.P,U2,10,GND*%
%TO.N,GND*%
X140754000Y-92319800D03*
%TO.P,U2,9,A8*%
%TO.N,Net-(J1-Pin_11)*%
X140754000Y-91669800D03*
%TO.P,U2,8,A7*%
%TO.N,Net-(J1-Pin_10)*%
X140754000Y-91019800D03*
%TO.P,U2,7,A6*%
%TO.N,Net-(J1-Pin_9)*%
X140754000Y-90369800D03*
%TO.P,U2,6,A5*%
%TO.N,Net-(J1-Pin_8)*%
X140754000Y-89719800D03*
%TO.P,U2,5,A4*%
%TO.N,Net-(J1-Pin_7)*%
X140754000Y-89069800D03*
%TO.P,U2,4,A3*%
%TO.N,Net-(J1-Pin_6)*%
X140754000Y-88419800D03*
%TO.P,U2,3,A2*%
%TO.N,Net-(J1-Pin_5)*%
X140754000Y-87769800D03*
%TO.P,U2,2,A1*%
%TO.N,Net-(J1-Pin_4)*%
X140754000Y-87119800D03*
%TO.P,U2,1,DIR*%
%TO.N,Net-(U2-DIR)*%
X140754000Y-86469800D03*
%TD*%
D15*
%TO.P,R3,2*%
%TO.N,Net-(U2-~{OE})*%
X146891500Y-83169800D03*
%TO.P,R3,1*%
%TO.N,GND*%
X145066500Y-83169800D03*
%TD*%
D11*
%TO.P,J6,1,Pin_1*%
%TO.N,/CH0*%
X165973000Y-90616000D03*
D12*
%TO.P,J6,2,Pin_2*%
%TO.N,/CH15*%
X168513000Y-90616000D03*
%TO.P,J6,3,Pin_3*%
%TO.N,/CH1*%
X165973000Y-93156000D03*
%TO.P,J6,4,Pin_4*%
%TO.N,/CH14*%
X168513000Y-93156000D03*
%TO.P,J6,5,Pin_5*%
%TO.N,/CH2*%
X165973000Y-95696000D03*
%TO.P,J6,6,Pin_6*%
%TO.N,/CH13*%
X168513000Y-95696000D03*
%TO.P,J6,7,Pin_7*%
%TO.N,/CH3*%
X165973000Y-98236000D03*
%TO.P,J6,8,Pin_8*%
%TO.N,/CH12*%
X168513000Y-98236000D03*
%TO.P,J6,9,Pin_9*%
%TO.N,/CH4*%
X165973000Y-100776000D03*
%TO.P,J6,10,Pin_10*%
%TO.N,/CH11*%
X168513000Y-100776000D03*
%TO.P,J6,11,Pin_11*%
%TO.N,/CH5*%
X165973000Y-103316000D03*
%TO.P,J6,12,Pin_12*%
%TO.N,/CH10*%
X168513000Y-103316000D03*
%TO.P,J6,13,Pin_13*%
%TO.N,/CH6*%
X165973000Y-105856000D03*
%TO.P,J6,14,Pin_14*%
%TO.N,/CH9*%
X168513000Y-105856000D03*
%TO.P,J6,15,Pin_15*%
%TO.N,/CH7*%
X165973000Y-108396000D03*
%TO.P,J6,16,Pin_16*%
%TO.N,/CH8*%
X168513000Y-108396000D03*
%TO.P,J6,17,Pin_17*%
%TO.N,GND*%
X165973000Y-110936000D03*
%TO.P,J6,18,Pin_18*%
X168513000Y-110936000D03*
%TO.P,J6,19,Pin_19*%
X165973000Y-113476000D03*
%TO.P,J6,20,Pin_20*%
X168513000Y-113476000D03*
%TD*%
%TO.P,J2,15,Pin_15*%
%TO.N,+3.3V*%
X157379000Y-115017600D03*
%TO.P,J2,14,Pin_14*%
%TO.N,GND*%
X157379000Y-112477600D03*
%TO.P,J2,13,Pin_13*%
%TO.N,Net-(J2-Pin_13)*%
X157379000Y-109937600D03*
%TO.P,J2,12,Pin_12*%
%TO.N,unconnected-(J2-Pin_12-Pad12)*%
X157379000Y-107397600D03*
%TO.P,J2,11,Pin_11*%
%TO.N,Net-(J2-Pin_11)*%
X157379000Y-104857600D03*
%TO.P,J2,10,Pin_10*%
%TO.N,/ESP32_RX2*%
X157379000Y-102317600D03*
%TO.P,J2,9,Pin_9*%
%TO.N,/ESP32_TX2*%
X157379000Y-99777600D03*
%TO.P,J2,8,Pin_8*%
%TO.N,Net-(J2-Pin_8)*%
X157379000Y-97237600D03*
%TO.P,J2,7,Pin_7*%
%TO.N,Net-(J2-Pin_7)*%
X157379000Y-94697600D03*
%TO.P,J2,6,Pin_6*%
%TO.N,Net-(J2-Pin_6)*%
X157379000Y-92157600D03*
%TO.P,J2,5,Pin_5*%
%TO.N,Net-(J2-Pin_5)*%
X157379000Y-89617600D03*
%TO.P,J2,4,Pin_4*%
%TO.N,unconnected-(J2-Pin_4-Pad4)*%
X157379000Y-87077600D03*
%TO.P,J2,3,Pin_3*%
%TO.N,unconnected-(J2-Pin_3-Pad3)*%
X157379000Y-84537600D03*
%TO.P,J2,2,Pin_2*%
%TO.N,Net-(J2-Pin_1)*%
X157379000Y-81997600D03*
D11*
%TO.P,J2,1,Pin_1*%
X157379000Y-79457600D03*
%TD*%
D14*
%TO.P,C2,2*%
%TO.N,+3.3V*%
X149079000Y-86169800D03*
%TO.P,C2,1*%
%TO.N,GND*%
X150979000Y-86169800D03*
%TD*%
D16*
%TO.N,/CH11*%
X166349000Y-89154800D03*
%TO.N,/CH14*%
X149991700Y-88967300D03*
%TO.N,Net-(J2-Pin_11)*%
X154428728Y-109096900D03*
%TO.N,/CH8*%
X146698200Y-97500000D03*
%TO.N,/CH9*%
X149000000Y-101608100D03*
%TO.N,/CH13*%
X145201200Y-93951200D03*
%TO.N,/CH11*%
X148467700Y-91613300D03*
%TO.N,/CH15*%
X148589500Y-87607800D03*
%TO.N,/CH10*%
X146382300Y-102855700D03*
%TO.N,/CH12*%
X149740800Y-99945300D03*
%TO.N,/CH3*%
X145330300Y-113128500D03*
X166156350Y-115656350D03*
%TO.N,/CH4*%
X147984100Y-104041100D03*
%TO.N,/CH2*%
X155507400Y-109442100D03*
X144653800Y-109512800D03*
%TO.N,/CH5*%
X149067400Y-107959800D03*
%TO.N,/CH1*%
X144403300Y-107289000D03*
%TO.N,/CH0*%
X144418600Y-104914800D03*
X154500000Y-104933600D03*
%TO.N,Net-(J2-Pin_8)*%
X142942600Y-105951300D03*
%TO.N,Net-(J2-Pin_11)*%
X142474200Y-107164700D03*
%TO.N,Net-(J2-Pin_5)*%
X139585100Y-97536500D03*
%TO.N,Net-(J2-Pin_6)*%
X143583300Y-90648300D03*
X154864400Y-89033200D03*
%TO.N,Net-(J2-Pin_13)*%
X142027600Y-108199000D03*
%TO.N,Net-(J2-Pin_7)*%
X142712600Y-104494600D03*
%TO.N,Net-(J1-Pin_12)*%
X137852600Y-109223400D03*
%TO.N,GND*%
X140687900Y-112477600D03*
%TD*%
D17*
%TO.N,/CH8*%
X146698200Y-97500000D02*
X146698200Y-92539000D01*
X146698200Y-92539000D02*
X146479000Y-92319800D01*
%TO.N,/CH9*%
X149000000Y-101608100D02*
X148979000Y-101587100D01*
X148979000Y-101587100D02*
X148979000Y-93485100D01*
X148979000Y-93485100D02*
X147163700Y-91669800D01*
X147163700Y-91669800D02*
X146479000Y-91669800D01*
%TO.N,/CH0*%
X154500000Y-104933600D02*
X155555800Y-104933600D01*
X155555800Y-104933600D02*
X156901800Y-103587600D01*
X161518500Y-98744000D02*
X164821300Y-95441200D01*
X156901800Y-103587600D02*
X157769100Y-103587600D01*
X157769100Y-103587600D02*
X161518500Y-99838200D01*
X161518500Y-99838200D02*
X161518500Y-98744000D01*
X165973000Y-91479700D02*
X165973000Y-90616000D01*
X164821300Y-95441200D02*
X164821300Y-92631400D01*
X164821300Y-92631400D02*
X165973000Y-91479700D01*
%TO.N,/CH3*%
X167153800Y-114658900D02*
X167153800Y-99416800D01*
X166156350Y-115656350D02*
X167153800Y-114658900D01*
X167153800Y-99416800D02*
X165973000Y-98236000D01*
%TO.N,/CH13*%
X144936300Y-93686300D02*
X145201200Y-93951200D01*
X144936300Y-89883500D02*
X144936300Y-93686300D01*
X145750000Y-89069800D02*
X144936300Y-89883500D01*
X146479000Y-89069800D02*
X145750000Y-89069800D01*
%TO.N,/CH11*%
X148466100Y-91613300D02*
X148467700Y-91613300D01*
X147222600Y-90369800D02*
X146479000Y-90369800D01*
X148466100Y-91613300D02*
X147222600Y-90369800D01*
%TO.N,/CH15*%
X148427500Y-87769800D02*
X146479000Y-87769800D01*
X148589500Y-87607800D02*
X148427500Y-87769800D01*
%TO.N,/CH10*%
X145771600Y-91019800D02*
X146479000Y-91019800D01*
X145386000Y-91405400D02*
X145771600Y-91019800D01*
X145386000Y-93006600D02*
X145386000Y-91405400D01*
X146049000Y-93669600D02*
X145386000Y-93006600D01*
X146049000Y-102522400D02*
X146049000Y-93669600D01*
X146382300Y-102855700D02*
X146049000Y-102522400D01*
%TO.N,/CH12*%
X149740800Y-92033900D02*
X149740800Y-99945300D01*
X147426700Y-89719800D02*
X149740800Y-92033900D01*
X146479000Y-89719800D02*
X147426700Y-89719800D01*
%TO.N,/ESP32_TX2*%
X164483000Y-82724900D02*
X164483000Y-83876600D01*
X163879600Y-93277000D02*
X157379000Y-99777600D01*
X163879600Y-84480000D02*
X163879600Y-93277000D01*
X164483000Y-83876600D02*
X163879600Y-84480000D01*
%TO.N,/ESP32_RX2*%
X157379000Y-102315400D02*
X157379000Y-102317600D01*
X164281300Y-95413100D02*
X157379000Y-102315400D01*
X164281300Y-85466600D02*
X164281300Y-95413100D01*
X167023000Y-82724900D02*
X164281300Y-85466600D01*
%TO.N,/CH7*%
X165973000Y-108696100D02*
X165973000Y-108396000D01*
X158062300Y-116606800D02*
X165973000Y-108696100D01*
X153266000Y-116606800D02*
X158062300Y-116606800D01*
X146479000Y-109819800D02*
X153266000Y-116606800D01*
%TO.N,/CH3*%
X145406800Y-113052000D02*
X145330300Y-113128500D01*
X145406800Y-107620500D02*
X145406800Y-113052000D01*
X145807500Y-107219800D02*
X145406800Y-107620500D01*
X146479000Y-107219800D02*
X145807500Y-107219800D01*
%TO.N,/CH4*%
X147984100Y-104405800D02*
X147984100Y-104041100D01*
X147984100Y-107035900D02*
X147984100Y-104405800D01*
X147150200Y-107869800D02*
X147984100Y-107035900D01*
X146479000Y-107869800D02*
X147150200Y-107869800D01*
%TO.N,/CH2*%
X155507400Y-107584400D02*
X155507400Y-109442100D01*
X156845900Y-106245900D02*
X155507400Y-107584400D01*
X157654800Y-106245900D02*
X156845900Y-106245900D01*
X164821300Y-99079400D02*
X157654800Y-106245900D01*
X164821300Y-96847700D02*
X164821300Y-99079400D01*
X165973000Y-95696000D02*
X164821300Y-96847700D01*
X145005100Y-109161500D02*
X144653800Y-109512800D01*
X145005100Y-107387500D02*
X145005100Y-109161500D01*
X145822800Y-106569800D02*
X145005100Y-107387500D01*
X146479000Y-106569800D02*
X145822800Y-106569800D01*
%TO.N,/CH5*%
X148507400Y-108519800D02*
X146479000Y-108519800D01*
X149067400Y-107959800D02*
X148507400Y-108519800D01*
%TO.N,/CH6*%
X164583200Y-107245800D02*
X165973000Y-105856000D01*
X164583200Y-109482600D02*
X164583200Y-107245800D01*
X157883500Y-116182300D02*
X164583200Y-109482600D01*
X156507400Y-116182300D02*
X157883500Y-116182300D01*
X149494900Y-109169800D02*
X156507400Y-116182300D01*
X146479000Y-109169800D02*
X149494900Y-109169800D01*
%TO.N,/CH1*%
X145772500Y-105919800D02*
X144403300Y-107289000D01*
X146479000Y-105919800D02*
X145772500Y-105919800D01*
%TO.N,/CH0*%
X144773600Y-105269800D02*
X144418600Y-104914800D01*
X146479000Y-105269800D02*
X144773600Y-105269800D01*
%TO.N,Net-(U1-DIR)*%
X140616500Y-103832300D02*
X140616500Y-100669800D01*
X140754000Y-103969800D02*
X140616500Y-103832300D01*
%TO.N,Net-(U2-~{OE})*%
X145402900Y-84658400D02*
X146891500Y-83169800D01*
X145402900Y-86699900D02*
X145402900Y-84658400D01*
X145822800Y-87119800D02*
X145402900Y-86699900D01*
X146479000Y-87119800D02*
X145822800Y-87119800D01*
%TO.N,Net-(U1-~{OE})*%
X146984000Y-100762300D02*
X146891500Y-100669800D01*
X146984000Y-103104900D02*
X146984000Y-100762300D01*
X146631500Y-103457400D02*
X146984000Y-103104900D01*
X145685100Y-103457400D02*
X146631500Y-103457400D01*
X145406800Y-103735700D02*
X145685100Y-103457400D01*
X145406800Y-104286700D02*
X145406800Y-103735700D01*
X145739900Y-104619800D02*
X145406800Y-104286700D01*
X146479000Y-104619800D02*
X145739900Y-104619800D01*
%TO.N,Net-(U2-DIR)*%
X140704000Y-86419800D02*
X140754000Y-86469800D01*
X140704000Y-83169800D02*
X140704000Y-86419800D01*
%TO.N,Net-(J2-Pin_8)*%
X142218300Y-106569800D02*
X140754000Y-106569800D01*
X142836800Y-105951300D02*
X142218300Y-106569800D01*
X142942600Y-105951300D02*
X142836800Y-105951300D01*
%TO.N,Net-(J2-Pin_11)*%
X140809100Y-107164700D02*
X140754000Y-107219800D01*
X142474200Y-107164700D02*
X140809100Y-107164700D01*
%TO.N,Net-(J2-Pin_5)*%
X140051800Y-104619800D02*
X140754000Y-104619800D01*
X139585100Y-104153100D02*
X140051800Y-104619800D01*
X139585100Y-97536500D02*
X139585100Y-104153100D01*
%TO.N,Net-(J2-Pin_1)*%
X157379000Y-79457600D02*
X157379000Y-81997600D01*
%TO.N,Net-(J2-Pin_6)*%
X143583300Y-90931200D02*
X143583300Y-90648300D01*
X141594800Y-92919700D02*
X143583300Y-90931200D01*
X141594800Y-101949800D02*
X141594800Y-92919700D01*
X141794800Y-102149800D02*
X141594800Y-101949800D01*
X141794800Y-104885200D02*
X141794800Y-102149800D01*
X141410200Y-105269800D02*
X141794800Y-104885200D01*
X140754000Y-105269800D02*
X141410200Y-105269800D01*
X154864400Y-89643000D02*
X154864400Y-89033200D01*
X157379000Y-92157600D02*
X154864400Y-89643000D01*
X143583300Y-90648300D02*
X143582600Y-90648300D01*
X143582600Y-90648300D02*
X143583300Y-90648300D01*
%TO.N,Net-(J2-Pin_13)*%
X141698400Y-107869800D02*
X142027600Y-108199000D01*
X140754000Y-107869800D02*
X141698400Y-107869800D01*
%TO.N,Net-(J2-Pin_7)*%
X142712600Y-104697700D02*
X142712600Y-104494600D01*
X141490500Y-105919800D02*
X142712600Y-104697700D01*
X140754000Y-105919800D02*
X141490500Y-105919800D01*
%TO.N,Net-(J1-Pin_6)*%
X135716800Y-88419800D02*
X140754000Y-88419800D01*
X131979000Y-92157600D02*
X135716800Y-88419800D01*
%TO.N,Net-(J1-Pin_4)*%
X132021200Y-87119800D02*
X131979000Y-87077600D01*
X140754000Y-87119800D02*
X132021200Y-87119800D01*
%TO.N,Net-(J1-Pin_11)*%
X131979000Y-104291800D02*
X131979000Y-104857600D01*
X139685700Y-96585100D02*
X131979000Y-104291800D01*
X139685700Y-92042300D02*
X139685700Y-96585100D01*
X140058200Y-91669800D02*
X139685700Y-92042300D01*
X140754000Y-91669800D02*
X140058200Y-91669800D01*
%TO.N,Net-(J1-Pin_10)*%
X139283900Y-95012700D02*
X131979000Y-102317600D01*
X139283900Y-91833700D02*
X139283900Y-95012700D01*
X140097800Y-91019800D02*
X139283900Y-91833700D01*
X140754000Y-91019800D02*
X140097800Y-91019800D01*
%TO.N,Net-(J1-Pin_5)*%
X133826800Y-87769800D02*
X140754000Y-87769800D01*
X131979000Y-89617600D02*
X133826800Y-87769800D01*
%TO.N,Net-(J1-Pin_12)*%
X137906200Y-109169800D02*
X137852600Y-109223400D01*
X140754000Y-109169800D02*
X137906200Y-109169800D01*
%TO.N,Net-(J1-Pin_9)*%
X136127100Y-95629500D02*
X131979000Y-99777600D01*
X136127100Y-94328500D02*
X136127100Y-95629500D01*
X140085800Y-90369800D02*
X136127100Y-94328500D01*
X140754000Y-90369800D02*
X140085800Y-90369800D01*
%TO.N,Net-(J1-Pin_7)*%
X137606800Y-89069800D02*
X140754000Y-89069800D01*
X131979000Y-94697600D02*
X137606800Y-89069800D01*
%TO.N,Net-(J1-Pin_13)*%
X133396800Y-108519800D02*
X140754000Y-108519800D01*
X131979000Y-109937600D02*
X133396800Y-108519800D01*
%TO.N,Net-(J1-Pin_8)*%
X139496800Y-89719800D02*
X131979000Y-97237600D01*
X140754000Y-89719800D02*
X139496800Y-89719800D01*
%TO.N,GND*%
X168513000Y-113476000D02*
X168513000Y-110936000D01*
X142529000Y-83169800D02*
X145066500Y-83169800D01*
X141410200Y-92319800D02*
X140754000Y-92319800D01*
X142529000Y-91201000D02*
X141410200Y-92319800D01*
X142529000Y-83169800D02*
X142529000Y-91201000D01*
X140754000Y-112411500D02*
X140754000Y-109819800D01*
X140687900Y-112477600D02*
X140754000Y-112411500D01*
X146071000Y-82165300D02*
X145066500Y-83169800D01*
X147403400Y-82165300D02*
X146071000Y-82165300D01*
X150979000Y-85740900D02*
X147403400Y-82165300D01*
X150979000Y-86169800D02*
X150979000Y-85740900D01*
X142520200Y-100591100D02*
X144586100Y-100591100D01*
X142441500Y-100669800D02*
X142520200Y-100591100D01*
X144987800Y-100591100D02*
X145066500Y-100669800D01*
X144586100Y-100591100D02*
X144987800Y-100591100D01*
X141472500Y-109819800D02*
X140754000Y-109819800D01*
X143717300Y-107575000D02*
X141472500Y-109819800D01*
X143717300Y-102019000D02*
X143717300Y-107575000D01*
X145066500Y-100669800D02*
X143717300Y-102019000D01*
X170134600Y-83296500D02*
X169563000Y-82724900D01*
X170134600Y-109314400D02*
X170134600Y-83296500D01*
X168513000Y-110936000D02*
X170134600Y-109314400D01*
X156960900Y-112477600D02*
X157379000Y-112477600D01*
X150979000Y-106495700D02*
X156960900Y-112477600D01*
X150979000Y-103894800D02*
X150979000Y-106495700D01*
X144419800Y-83816500D02*
X144419800Y-93938800D01*
X145066500Y-83169800D02*
X144419800Y-83816500D01*
X144586100Y-94105100D02*
X144586100Y-100591100D01*
X144419800Y-93938800D02*
X144586100Y-94105100D01*
X144419800Y-93938800D02*
X144586100Y-94105100D01*
%TO.N,+3.3V*%
X146779000Y-86169800D02*
X149079000Y-86169800D01*
X146479000Y-86469800D02*
X146779000Y-86169800D01*
X149079000Y-106717600D02*
X149079000Y-103894800D01*
X157379000Y-115017600D02*
X149079000Y-106717600D01*
X148623600Y-103439400D02*
X149079000Y-103894800D01*
X147735000Y-103439400D02*
X148623600Y-103439400D01*
X147204700Y-103969700D02*
X147735000Y-103439400D01*
X147204700Y-103969800D02*
X147204700Y-103969700D01*
X146479000Y-103969800D02*
X147204700Y-103969800D01*
X150660700Y-87751500D02*
X149079000Y-86169800D01*
X150660700Y-102523300D02*
X150660700Y-87751500D01*
X149289200Y-103894800D02*
X150660700Y-102523300D01*
X149079000Y-103894800D02*
X149289200Y-103894800D01*
%TO.N,Net-(J2-Pin_11)*%
X154432700Y-109092928D02*
X154432700Y-107803900D01*
X154428728Y-109096900D02*
X154432700Y-109092928D01*
X154432700Y-107803900D02*
X157379000Y-104857600D01*
%TO.N,/CH14*%
X149991700Y-88967300D02*
X149444200Y-88419800D01*
X149444200Y-88419800D02*
X146479000Y-88419800D01*
%TO.N,/CH11*%
X169732900Y-99556100D02*
X168513000Y-100776000D01*
X169732900Y-95213700D02*
X169732900Y-99556100D01*
X167343000Y-93650100D02*
X168118900Y-94426000D01*
X168118900Y-94426000D02*
X168945200Y-94426000D01*
X166639300Y-89154800D02*
X167343000Y-89858500D01*
X168945200Y-94426000D02*
X169732900Y-95213700D01*
X166349000Y-89154800D02*
X166639300Y-89154800D01*
X167343000Y-89858500D02*
X167343000Y-93650100D01*
%TD*%
M02*
