%TF.GenerationSoftware,KiCad,Pcbnew,9.0.9-9.0.9~ubuntu24.04.1*%
%TF.CreationDate,2026-07-10T16:52:30-05:00*%
%TF.ProjectId,ESP32_LogicAnalyzer,45535033-325f-44c6-9f67-6963416e616c,rev?*%
%TF.SameCoordinates,Original*%
%TF.FileFunction,Copper,L1,Top*%
%TF.FilePolarity,Positive*%
%FSLAX46Y46*%
G04 Gerber Fmt 4.6, Leading zero omitted, Abs format (unit mm)*
G04 Created by KiCad (PCBNEW 9.0.9-9.0.9~ubuntu24.04.1) date 2026-07-10 16:52:30*
%MOMM*%
%LPD*%
G01*
G04 APERTURE LIST*
G04 Aperture macros list*
%AMRoundRect*
0 Rectangle with rounded corners*
0 $1 Rounding radius*
0 $2 $3 $4 $5 $6 $7 $8 $9 X,Y pos of 4 corners*
0 Add a 4 corners polygon primitive as box body*
4,1,4,$2,$3,$4,$5,$6,$7,$8,$9,$2,$3,0*
0 Add four circle primitives for the rounded corners*
1,1,$1+$1,$2,$3*
1,1,$1+$1,$4,$5*
1,1,$1+$1,$6,$7*
1,1,$1+$1,$8,$9*
0 Add four rect primitives between the rounded corners*
20,1,$1+$1,$2,$3,$4,$5,0*
20,1,$1+$1,$4,$5,$6,$7,0*
20,1,$1+$1,$6,$7,$8,$9,0*
20,1,$1+$1,$8,$9,$2,$3,0*%
G04 Aperture macros list end*
%TA.AperFunction,SMDPad,CuDef*%
%ADD10RoundRect,0.200000X-0.200000X-0.275000X0.200000X-0.275000X0.200000X0.275000X-0.200000X0.275000X0*%
%TD*%
%TA.AperFunction,ComponentPad*%
%ADD11R,1.700000X1.700000*%
%TD*%
%TA.AperFunction,ComponentPad*%
%ADD12C,1.700000*%
%TD*%
%TA.AperFunction,SMDPad,CuDef*%
%ADD13RoundRect,0.200000X0.275000X-0.200000X0.275000X0.200000X-0.275000X0.200000X-0.275000X-0.200000X0*%
%TD*%
%TA.AperFunction,SMDPad,CuDef*%
%ADD14RoundRect,0.100000X-0.100000X0.637500X-0.100000X-0.637500X0.100000X-0.637500X0.100000X0.637500X0*%
%TD*%
%TA.AperFunction,SMDPad,CuDef*%
%ADD15RoundRect,0.225000X-0.250000X0.225000X-0.250000X-0.225000X0.250000X-0.225000X0.250000X0.225000X0*%
%TD*%
%TA.AperFunction,SMDPad,CuDef*%
%ADD16RoundRect,0.100000X0.100000X-0.637500X0.100000X0.637500X-0.100000X0.637500X-0.100000X-0.637500X0*%
%TD*%
%TA.AperFunction,SMDPad,CuDef*%
%ADD17RoundRect,0.225000X0.250000X-0.225000X0.250000X0.225000X-0.250000X0.225000X-0.250000X-0.225000X0*%
%TD*%
%TA.AperFunction,ViaPad*%
%ADD18C,0.600000*%
%TD*%
%TA.AperFunction,Conductor*%
%ADD19C,0.250000*%
%TD*%
%TA.AperFunction,Conductor*%
%ADD20C,0.200000*%
%TD*%
G04 APERTURE END LIST*
D10*
%TO.P,R4,1*%
%TO.N,Net-(U2-~{OE})*%
X146700000Y-108600000D03*
%TO.P,R4,2*%
%TO.N,GND*%
X148350000Y-108600000D03*
%TD*%
D11*
%TO.P,J4,1,Pin_1*%
%TO.N,/ESP32_TX2*%
X164693000Y-82064900D03*
D12*
%TO.P,J4,2,Pin_2*%
%TO.N,/ESP32_RX2*%
X167233000Y-82064900D03*
%TO.P,J4,3,Pin_3*%
%TO.N,GND*%
X169773000Y-82064900D03*
%TD*%
D13*
%TO.P,R3,1*%
%TO.N,GND*%
X148236400Y-102625000D03*
%TO.P,R3,2*%
%TO.N,Net-(U2-DIR)*%
X148236400Y-100975000D03*
%TD*%
D14*
%TO.P,U2,1,DIR*%
%TO.N,Net-(U2-DIR)*%
X146826600Y-100935000D03*
%TO.P,U2,2,A1*%
%TO.N,/CH5_A*%
X146176600Y-100935000D03*
%TO.P,U2,3,A2*%
%TO.N,/CH4_A*%
X145526600Y-100935000D03*
%TO.P,U2,4,A3*%
%TO.N,/CH3_A*%
X144876600Y-100935000D03*
%TO.P,U2,5,A4*%
%TO.N,/CH2_A*%
X144226600Y-100935000D03*
%TO.P,U2,6,A5*%
%TO.N,/CH1_A*%
X143576600Y-100935000D03*
%TO.P,U2,7,A6*%
%TO.N,/CH0_A*%
X142926600Y-100935000D03*
%TO.P,U2,8,A7*%
%TO.N,/CH7_A*%
X142276600Y-100935000D03*
%TO.P,U2,9,A8*%
%TO.N,/CH6_A*%
X141626600Y-100935000D03*
%TO.P,U2,10,GND*%
%TO.N,GND*%
X140976600Y-100935000D03*
%TO.P,U2,11,B8*%
%TO.N,/CH6_B*%
X140976600Y-106660000D03*
%TO.P,U2,12,B7*%
%TO.N,/CH7_B*%
X141626600Y-106660000D03*
%TO.P,U2,13,B6*%
%TO.N,/CH0_B*%
X142276600Y-106660000D03*
%TO.P,U2,14,B5*%
%TO.N,/CH1_B*%
X142926600Y-106660000D03*
%TO.P,U2,15,B4*%
%TO.N,/CH2_B*%
X143576600Y-106660000D03*
%TO.P,U2,16,B3*%
%TO.N,/CH3_B*%
X144226600Y-106660000D03*
%TO.P,U2,17,B2*%
%TO.N,/CH4_B*%
X144876600Y-106660000D03*
%TO.P,U2,18,B1*%
%TO.N,/CH5_B*%
X145526600Y-106660000D03*
%TO.P,U2,19,~{OE}*%
%TO.N,Net-(U2-~{OE})*%
X146176600Y-106660000D03*
%TO.P,U2,20,VCC*%
%TO.N,+3.3V*%
X146826600Y-106660000D03*
%TD*%
D11*
%TO.P,J1,1,Pin_1*%
%TO.N,unconnected-(J1-Pin_1-Pad1)*%
X131979000Y-78977600D03*
D12*
%TO.P,J1,2,Pin_2*%
%TO.N,unconnected-(J1-Pin_2-Pad2)*%
X131979000Y-81517600D03*
%TO.P,J1,3,Pin_3*%
%TO.N,unconnected-(J1-Pin_3-Pad3)*%
X131979000Y-84057600D03*
%TO.P,J1,4,Pin_4*%
%TO.N,/CH15_A*%
X131979000Y-86597600D03*
%TO.P,J1,5,Pin_5*%
%TO.N,/CH14_A*%
X131979000Y-89137600D03*
%TO.P,J1,6,Pin_6*%
%TO.N,/CH13_A*%
X131979000Y-91677600D03*
%TO.P,J1,7,Pin_7*%
%TO.N,/CH12_A*%
X131979000Y-94217600D03*
%TO.P,J1,8,Pin_8*%
%TO.N,/CH11_A*%
X131979000Y-96757600D03*
%TO.P,J1,9,Pin_9*%
%TO.N,/CH10_A*%
X131979000Y-99297600D03*
%TO.P,J1,10,Pin_10*%
%TO.N,/CH9_A*%
X131979000Y-101837600D03*
%TO.P,J1,11,Pin_11*%
%TO.N,/CH8_A*%
X131979000Y-104377600D03*
%TO.P,J1,12,Pin_12*%
%TO.N,/CH7_A*%
X131979000Y-106917600D03*
%TO.P,J1,13,Pin_13*%
%TO.N,/CH6_A*%
X131979000Y-109457600D03*
%TO.P,J1,14,Pin_14*%
%TO.N,GND*%
X131979000Y-111997600D03*
%TO.P,J1,15,Pin_15*%
%TO.N,unconnected-(J1-Pin_15-Pad15)*%
X131979000Y-114537600D03*
%TD*%
D15*
%TO.P,C1,1*%
%TO.N,GND*%
X148228989Y-105074019D03*
%TO.P,C1,2*%
%TO.N,+3.3V*%
X148228989Y-106624019D03*
%TD*%
D13*
%TO.P,R2,1*%
%TO.N,Net-(U1-DIR)*%
X141111600Y-89025000D03*
%TO.P,R2,2*%
%TO.N,GND*%
X141111600Y-87375000D03*
%TD*%
D16*
%TO.P,U1,1,DIR*%
%TO.N,Net-(U1-DIR)*%
X142581400Y-89070000D03*
%TO.P,U1,2,A1*%
%TO.N,/CH15_A*%
X143231400Y-89070000D03*
%TO.P,U1,3,A2*%
%TO.N,/CH14_A*%
X143881400Y-89070000D03*
%TO.P,U1,4,A3*%
%TO.N,/CH13_A*%
X144531400Y-89070000D03*
%TO.P,U1,5,A4*%
%TO.N,/CH12_A*%
X145181400Y-89070000D03*
%TO.P,U1,6,A5*%
%TO.N,/CH11_A*%
X145831400Y-89070000D03*
%TO.P,U1,7,A6*%
%TO.N,/CH10_A*%
X146481400Y-89070000D03*
%TO.P,U1,8,A7*%
%TO.N,/CH9_A*%
X147131400Y-89070000D03*
%TO.P,U1,9,A8*%
%TO.N,/CH8_A*%
X147781400Y-89070000D03*
%TO.P,U1,10,GND*%
%TO.N,GND*%
X148431400Y-89070000D03*
%TO.P,U1,11,B8*%
%TO.N,/CH8_B*%
X148431400Y-83345000D03*
%TO.P,U1,12,B7*%
%TO.N,/CH9_B*%
X147781400Y-83345000D03*
%TO.P,U1,13,B6*%
%TO.N,/CH10_B*%
X147131400Y-83345000D03*
%TO.P,U1,14,B5*%
%TO.N,/CH11_B*%
X146481400Y-83345000D03*
%TO.P,U1,15,B4*%
%TO.N,/CH12_B*%
X145831400Y-83345000D03*
%TO.P,U1,16,B3*%
%TO.N,/CH13_B*%
X145181400Y-83345000D03*
%TO.P,U1,17,B2*%
%TO.N,/CH14_B*%
X144531400Y-83345000D03*
%TO.P,U1,18,B1*%
%TO.N,/CH15_B*%
X143881400Y-83345000D03*
%TO.P,U1,19,~{OE}*%
%TO.N,Net-(U1-~{OE})*%
X143231400Y-83345000D03*
%TO.P,U1,20,VCC*%
%TO.N,+3.3V*%
X142581400Y-83345000D03*
%TD*%
D10*
%TO.P,R1,1*%
%TO.N,GND*%
X141000000Y-81400000D03*
%TO.P,R1,2*%
%TO.N,Net-(U1-~{OE})*%
X142650000Y-81400000D03*
%TD*%
D11*
%TO.P,J3,1,Pin_1*%
%TO.N,/CH14_B*%
X166173000Y-89176000D03*
D12*
%TO.P,J3,2,Pin_2*%
%TO.N,/CH15_B*%
X168713000Y-89176000D03*
%TO.P,J3,3,Pin_3*%
%TO.N,/CH12_B*%
X166173000Y-91716000D03*
%TO.P,J3,4,Pin_4*%
%TO.N,/CH13_B*%
X168713000Y-91716000D03*
%TO.P,J3,5,Pin_5*%
%TO.N,/CH10_B*%
X166173000Y-94256000D03*
%TO.P,J3,6,Pin_6*%
%TO.N,/CH11_B*%
X168713000Y-94256000D03*
%TO.P,J3,7,Pin_7*%
%TO.N,/CH8_B*%
X166173000Y-96796000D03*
%TO.P,J3,8,Pin_8*%
%TO.N,/CH9_B*%
X168713000Y-96796000D03*
%TO.P,J3,9,Pin_9*%
%TO.N,/CH6_B*%
X166173000Y-99336000D03*
%TO.P,J3,10,Pin_10*%
%TO.N,/CH7_B*%
X168713000Y-99336000D03*
%TO.P,J3,11,Pin_11*%
%TO.N,/CH4_B*%
X166173000Y-101876000D03*
%TO.P,J3,12,Pin_12*%
%TO.N,/CH5_B*%
X168713000Y-101876000D03*
%TO.P,J3,13,Pin_13*%
%TO.N,/CH2_B*%
X166173000Y-104416000D03*
%TO.P,J3,14,Pin_14*%
%TO.N,/CH3_B*%
X168713000Y-104416000D03*
%TO.P,J3,15,Pin_15*%
%TO.N,/CH0_B*%
X166173000Y-106956000D03*
%TO.P,J3,16,Pin_16*%
%TO.N,/CH1_B*%
X168713000Y-106956000D03*
%TO.P,J3,17,Pin_17*%
%TO.N,GND*%
X166173000Y-109496000D03*
%TO.P,J3,18,Pin_18*%
X168713000Y-109496000D03*
%TO.P,J3,19,Pin_19*%
X166173000Y-112036000D03*
%TO.P,J3,20,Pin_20*%
X168713000Y-112036000D03*
%TD*%
D11*
%TO.P,J2,1,Pin_1*%
%TO.N,Net-(J2-Pin_1)*%
X157379000Y-78977600D03*
D12*
%TO.P,J2,2,Pin_2*%
X157379000Y-81517600D03*
%TO.P,J2,3,Pin_3*%
%TO.N,unconnected-(J2-Pin_3-Pad3)*%
X157379000Y-84057600D03*
%TO.P,J2,4,Pin_4*%
%TO.N,unconnected-(J2-Pin_4-Pad4)*%
X157379000Y-86597600D03*
%TO.P,J2,5,Pin_5*%
%TO.N,/CH0_A*%
X157379000Y-89137600D03*
%TO.P,J2,6,Pin_6*%
%TO.N,/CH1_A*%
X157379000Y-91677600D03*
%TO.P,J2,7,Pin_7*%
%TO.N,/CH2_A*%
X157379000Y-94217600D03*
%TO.P,J2,8,Pin_8*%
%TO.N,/CH3_A*%
X157379000Y-96757600D03*
%TO.P,J2,9,Pin_9*%
%TO.N,/ESP32_TX2*%
X157379000Y-99297600D03*
%TO.P,J2,10,Pin_10*%
%TO.N,/ESP32_RX2*%
X157379000Y-101837600D03*
%TO.P,J2,11,Pin_11*%
%TO.N,/CH4_A*%
X157379000Y-104377600D03*
%TO.P,J2,12,Pin_12*%
%TO.N,unconnected-(J2-Pin_12-Pad12)*%
X157379000Y-106917600D03*
%TO.P,J2,13,Pin_13*%
%TO.N,/CH5_A*%
X157379000Y-109457600D03*
%TO.P,J2,14,Pin_14*%
%TO.N,GND*%
X157379000Y-111997600D03*
%TO.P,J2,15,Pin_15*%
%TO.N,+3.3V*%
X157379000Y-114537600D03*
%TD*%
D17*
%TO.P,C2,1*%
%TO.N,GND*%
X141101600Y-84975000D03*
%TO.P,C2,2*%
%TO.N,+3.3V*%
X141101600Y-83425000D03*
%TD*%
D18*
%TO.N,+3.3V*%
X138500000Y-83425000D03*
%TO.N,/CH12_B*%
X161800000Y-73075000D03*
%TO.N,/CH10_B*%
X161000000Y-74475000D03*
%TO.N,/CH15_B*%
X172000000Y-71000000D03*
%TO.N,/CH11_B*%
X173600000Y-73800000D03*
%TO.N,/CH13_B*%
X172795000Y-72405000D03*
%TO.N,/CH14_B*%
X162600000Y-71625000D03*
%TO.N,/CH9_B*%
X174400000Y-75200000D03*
%TO.N,/CH8_B*%
X160200000Y-75875000D03*
%TO.N,/CH7_B*%
X174200000Y-120600000D03*
%TO.N,/CH6_B*%
X160200000Y-121325000D03*
%TO.N,/CH2_B*%
X161800000Y-118625000D03*
%TO.N,/CH5_B*%
X173400000Y-116600000D03*
%TO.N,/CH0_B*%
X162675000Y-119975000D03*
%TO.N,/CH1_B*%
X171800000Y-119400000D03*
%TO.N,/CH4_B*%
X161000000Y-117275000D03*
%TO.N,/CH3_B*%
X172600000Y-118000000D03*
%TD*%
D19*
%TO.N,+3.3V*%
X138500000Y-83425000D02*
X141101600Y-83425000D01*
X149465419Y-106624019D02*
X148228989Y-106624019D01*
X157379000Y-114537600D02*
X149465419Y-106624019D01*
D20*
X148246400Y-106676000D02*
X146842600Y-106676000D01*
X146842600Y-106676000D02*
X146826600Y-106660000D01*
X142572400Y-83354000D02*
X142581400Y-83345000D01*
X141101600Y-83354000D02*
X142572400Y-83354000D01*
D19*
%TO.N,/CH11_A*%
X145831400Y-90075706D02*
X139149506Y-96757600D01*
X145831400Y-89070000D02*
X145831400Y-90075706D01*
X139149506Y-96757600D02*
X131979000Y-96757600D01*
%TO.N,/CH12_A*%
X145181400Y-89070000D02*
X145181400Y-90018600D01*
X140982400Y-94217600D02*
X131979000Y-94217600D01*
X145181400Y-90018600D02*
X140982400Y-94217600D01*
%TO.N,/CH10_A*%
X146481400Y-90132812D02*
X137316612Y-99297600D01*
X137316612Y-99297600D02*
X131979000Y-99297600D01*
X146481400Y-89070000D02*
X146481400Y-90132812D01*
%TO.N,/CH14_A*%
X142770528Y-91000000D02*
X134550000Y-91000000D01*
X132687600Y-89137600D02*
X131979000Y-89137600D01*
X134550000Y-91000000D02*
X132687600Y-89137600D01*
X143881400Y-89889128D02*
X142770528Y-91000000D01*
X143881400Y-89070000D02*
X143881400Y-89889128D01*
%TO.N,/CH9_A*%
X135483718Y-101837600D02*
X131979000Y-101837600D01*
X147131400Y-90189918D02*
X135483718Y-101837600D01*
X147131400Y-89070000D02*
X147131400Y-90189918D01*
%TO.N,/CH8_A*%
X133650824Y-104377600D02*
X131979000Y-104377600D01*
X147781400Y-89070000D02*
X147781400Y-90247024D01*
X147781400Y-90247024D02*
X133650824Y-104377600D01*
%TO.N,/CH15_A*%
X142663422Y-90400000D02*
X135781400Y-90400000D01*
X135781400Y-90400000D02*
X131979000Y-86597600D01*
X143231400Y-89832022D02*
X142663422Y-90400000D01*
X143231400Y-89070000D02*
X143231400Y-89832022D01*
%TO.N,/CH13_A*%
X144531400Y-89946234D02*
X142800034Y-91677600D01*
X144531400Y-89070000D02*
X144531400Y-89946234D01*
X142800034Y-91677600D02*
X131979000Y-91677600D01*
D20*
%TO.N,Net-(J2-Pin_1)*%
X157379000Y-78977600D02*
X157379000Y-81517600D01*
%TO.N,Net-(U2-DIR)*%
X148236400Y-100941000D02*
X146832600Y-100941000D01*
X146832600Y-100941000D02*
X146826600Y-100935000D01*
D19*
%TO.N,Net-(U1-~{OE})*%
X143231400Y-83345000D02*
X143231400Y-81806400D01*
X143231400Y-81806400D02*
X142825000Y-81400000D01*
%TO.N,Net-(U2-~{OE})*%
X146566600Y-108410000D02*
X146176600Y-108020000D01*
X146176600Y-108020000D02*
X146176600Y-106660000D01*
D20*
X146176400Y-106660200D02*
X146176600Y-106660000D01*
%TO.N,Net-(U1-DIR)*%
X142570400Y-89059000D02*
X142581400Y-89070000D01*
X141111600Y-89059000D02*
X142570400Y-89059000D01*
D19*
%TO.N,/ESP32_RX2*%
X163800000Y-85400000D02*
X163800000Y-95400000D01*
X167233000Y-82064900D02*
X167135100Y-82064900D01*
X167135100Y-82064900D02*
X163800000Y-85400000D01*
X157379000Y-101821000D02*
X157379000Y-101837600D01*
X163800000Y-95400000D02*
X157379000Y-101821000D01*
%TO.N,/ESP32_TX2*%
X162800000Y-83957900D02*
X164693000Y-82064900D01*
X162800000Y-93876600D02*
X162800000Y-83957900D01*
X157379000Y-99297600D02*
X162800000Y-93876600D01*
%TO.N,/CH12_B*%
X145820000Y-78180000D02*
X145820000Y-83333600D01*
X145820000Y-83333600D02*
X145831400Y-83345000D01*
X161800000Y-73075000D02*
X150925000Y-73075000D01*
X161800000Y-73075000D02*
X161800000Y-73200000D01*
X150925000Y-73075000D02*
X145820000Y-78180000D01*
%TO.N,/CH10_B*%
X160965000Y-74475000D02*
X151525000Y-74475000D01*
X151525000Y-74475000D02*
X147131400Y-78868600D01*
X147131400Y-78868600D02*
X147131400Y-83345000D01*
%TO.N,/CH15_B*%
X172000000Y-71000000D02*
X171950000Y-70950000D01*
X143881400Y-77468600D02*
X143881400Y-83345000D01*
X171950000Y-70950000D02*
X150400000Y-70950000D01*
X150400000Y-70950000D02*
X143881400Y-77468600D01*
%TO.N,/CH11_B*%
X173600000Y-73800000D02*
X151200000Y-73800000D01*
X146481400Y-78518600D02*
X146481400Y-83345000D01*
X151200000Y-73800000D02*
X146481400Y-78518600D01*
%TO.N,/CH13_B*%
X172790000Y-72400000D02*
X150670000Y-72400000D01*
X150670000Y-72400000D02*
X145181400Y-77888600D01*
X172795000Y-72405000D02*
X172790000Y-72400000D01*
X145181400Y-77888600D02*
X145181400Y-83345000D01*
%TO.N,/CH14_B*%
X144531400Y-77697153D02*
X144531400Y-83345000D01*
X150603553Y-71625000D02*
X144531400Y-77697153D01*
X162600000Y-71625000D02*
X150603553Y-71625000D01*
%TO.N,/CH9_B*%
X174400000Y-75200000D02*
X151800000Y-75200000D01*
X147781400Y-79218600D02*
X147781400Y-83345000D01*
X151800000Y-75200000D02*
X147781400Y-79218600D01*
%TO.N,/CH8_B*%
X152125000Y-75875000D02*
X148431400Y-79568600D01*
X160200000Y-75875000D02*
X152125000Y-75875000D01*
X160200000Y-75875000D02*
X160125000Y-75800000D01*
X148431400Y-79568600D02*
X148431400Y-83345000D01*
%TO.N,/CH6_A*%
X135700000Y-108450000D02*
X141626600Y-102523400D01*
X132986600Y-108450000D02*
X135700000Y-108450000D01*
X131979000Y-109457600D02*
X132986600Y-108450000D01*
X141626600Y-102523400D02*
X141626600Y-100935000D01*
%TO.N,/CH7_A*%
X140146600Y-98750000D02*
X141950000Y-98750000D01*
X142276600Y-99076600D02*
X142276600Y-100935000D01*
X131979000Y-106917600D02*
X140146600Y-98750000D01*
X141950000Y-98750000D02*
X142276600Y-99076600D01*
%TO.N,/CH2_A*%
X144226600Y-99773400D02*
X149782400Y-94217600D01*
X144226600Y-100935000D02*
X144226600Y-99773400D01*
X149782400Y-94217600D02*
X157379000Y-94217600D01*
%TO.N,/CH5_A*%
X157357600Y-109457600D02*
X157379000Y-109457600D01*
X150744294Y-98450000D02*
X152800000Y-100505706D01*
X152800000Y-104900000D02*
X157357600Y-109457600D01*
X146176600Y-100935000D02*
X146176600Y-100172978D01*
X147899578Y-98450000D02*
X150744294Y-98450000D01*
X152800000Y-100505706D02*
X152800000Y-104900000D01*
X146176600Y-100172978D02*
X147899578Y-98450000D01*
%TO.N,/CH1_A*%
X143576600Y-100935000D02*
X143576600Y-99523400D01*
X151422400Y-91677600D02*
X157379000Y-91677600D01*
X143576600Y-99523400D02*
X151422400Y-91677600D01*
%TO.N,/CH0_A*%
X153112400Y-89137600D02*
X142926600Y-99323400D01*
X142926600Y-99323400D02*
X142926600Y-100935000D01*
X157379000Y-89137600D02*
X153112400Y-89137600D01*
%TO.N,/CH4_A*%
X145526600Y-100935000D02*
X145526600Y-99930506D01*
X147657106Y-97800000D02*
X150801400Y-97800000D01*
X145526600Y-99930506D02*
X147657106Y-97800000D01*
X150801400Y-97800000D02*
X157379000Y-104377600D01*
%TO.N,/CH3_A*%
X147992400Y-96757600D02*
X157379000Y-96757600D01*
X144876600Y-99873400D02*
X147992400Y-96757600D01*
X144876600Y-100935000D02*
X144876600Y-99873400D01*
%TO.N,/CH7_B*%
X141626600Y-112026600D02*
X141626600Y-106660000D01*
X174200000Y-120600000D02*
X174150000Y-120650000D01*
X150250000Y-120650000D02*
X141626600Y-112026600D01*
X174150000Y-120650000D02*
X150250000Y-120650000D01*
%TO.N,/CH6_B*%
X140976600Y-106660000D02*
X140976600Y-112176600D01*
X140976600Y-112176600D02*
X150125000Y-121325000D01*
X150125000Y-121325000D02*
X160200000Y-121325000D01*
%TO.N,/CH2_B*%
X143576600Y-111776600D02*
X143576600Y-106660000D01*
X150425000Y-118625000D02*
X143576600Y-111776600D01*
X161800000Y-118625000D02*
X150425000Y-118625000D01*
%TO.N,/CH5_B*%
X173400000Y-116600000D02*
X150614212Y-116600000D01*
X145526600Y-111512388D02*
X145526600Y-106660000D01*
X150614212Y-116600000D02*
X145526600Y-111512388D01*
%TO.N,/CH0_B*%
X142276600Y-111969494D02*
X142276600Y-106660000D01*
X162675000Y-119975000D02*
X150282106Y-119975000D01*
X150282106Y-119975000D02*
X142276600Y-111969494D01*
%TO.N,/CH1_B*%
X171700000Y-119300000D02*
X171800000Y-119400000D01*
X142926600Y-111912388D02*
X150314212Y-119300000D01*
X142926600Y-106660000D02*
X142926600Y-111912388D01*
X150314212Y-119300000D02*
X171700000Y-119300000D01*
%TO.N,/CH4_B*%
X150582106Y-117275000D02*
X144876600Y-111569494D01*
X161000000Y-117275000D02*
X150582106Y-117275000D01*
X144876600Y-111569494D02*
X144876600Y-106660000D01*
%TO.N,/CH3_B*%
X172525000Y-118000000D02*
X172475000Y-117950000D01*
X144226600Y-111626600D02*
X144226600Y-106660000D01*
X150550000Y-117950000D02*
X144226600Y-111626600D01*
X172475000Y-117950000D02*
X150550000Y-117950000D01*
X172600000Y-118000000D02*
X172525000Y-118000000D01*
%TD*%
%TA.AperFunction,Conductor*%
%TO.N,GND*%
G36*
X168247075Y-109688993D02*
G01*
X168312901Y-109803007D01*
X168405993Y-109896099D01*
X168520007Y-109961925D01*
X168583590Y-109978962D01*
X167951282Y-110611269D01*
X167951282Y-110611270D01*
X168005452Y-110650626D01*
X168015048Y-110655516D01*
X168065844Y-110703491D01*
X168082638Y-110771312D01*
X168060100Y-110837447D01*
X168015051Y-110876483D01*
X168005440Y-110881380D01*
X167951282Y-110920727D01*
X167951282Y-110920728D01*
X168583591Y-111553037D01*
X168520007Y-111570075D01*
X168405993Y-111635901D01*
X168312901Y-111728993D01*
X168247075Y-111843007D01*
X168230037Y-111906591D01*
X167597728Y-111274282D01*
X167597727Y-111274282D01*
X167558380Y-111328440D01*
X167553483Y-111338051D01*
X167505506Y-111388845D01*
X167437684Y-111405638D01*
X167371550Y-111383098D01*
X167332516Y-111338048D01*
X167327626Y-111328452D01*
X167288270Y-111274282D01*
X167288269Y-111274282D01*
X166655962Y-111906590D01*
X166638925Y-111843007D01*
X166573099Y-111728993D01*
X166480007Y-111635901D01*
X166365993Y-111570075D01*
X166302409Y-111553037D01*
X166934716Y-110920728D01*
X166880550Y-110881375D01*
X166870954Y-110876486D01*
X166820157Y-110828512D01*
X166803361Y-110760692D01*
X166824288Y-110696895D01*
X166903027Y-110579581D01*
X166302408Y-109978962D01*
X166365993Y-109961925D01*
X166480007Y-109896099D01*
X166573099Y-109803007D01*
X166638925Y-109688993D01*
X166655962Y-109625408D01*
X167288270Y-110257717D01*
X167288270Y-110257716D01*
X167327622Y-110203554D01*
X167332514Y-110193954D01*
X167380488Y-110143157D01*
X167448308Y-110126361D01*
X167514444Y-110148897D01*
X167553486Y-110193954D01*
X167558375Y-110203550D01*
X167597728Y-110257716D01*
X168230036Y-109625407D01*
X168247075Y-109688993D01*
G37*
%TD.AperFunction*%
%TA.AperFunction,Conductor*%
G36*
X173032736Y-70016846D02*
G01*
X173322796Y-70034391D01*
X173337659Y-70036196D01*
X173619797Y-70087900D01*
X173634334Y-70091483D01*
X173908182Y-70176818D01*
X173922163Y-70182120D01*
X174183734Y-70299844D01*
X174196987Y-70306800D01*
X174442458Y-70455191D01*
X174454779Y-70463695D01*
X174454781Y-70463697D01*
X174454783Y-70463698D01*
X174490052Y-70491330D01*
X174501259Y-70501259D01*
X175043860Y-71043860D01*
X175053789Y-71055067D01*
X175081420Y-71090335D01*
X175089927Y-71102659D01*
X175238319Y-71348131D01*
X175245277Y-71361389D01*
X175362994Y-71622943D01*
X175368304Y-71636945D01*
X175453635Y-71910784D01*
X175457219Y-71925322D01*
X175497969Y-72147681D01*
X175500000Y-72170033D01*
X175500000Y-120139475D01*
X175497969Y-120161827D01*
X175457201Y-120384289D01*
X175453617Y-120398828D01*
X175368286Y-120672663D01*
X175362976Y-120686664D01*
X175245255Y-120948227D01*
X175238297Y-120961484D01*
X175089912Y-121206946D01*
X175081406Y-121219270D01*
X174904510Y-121445060D01*
X174894580Y-121456268D01*
X174691768Y-121659080D01*
X174680560Y-121669010D01*
X174454770Y-121845906D01*
X174442446Y-121854412D01*
X174196984Y-122002797D01*
X174183727Y-122009755D01*
X173922164Y-122127476D01*
X173908163Y-122132786D01*
X173634328Y-122218117D01*
X173619788Y-122221701D01*
X173337657Y-122273403D01*
X173322793Y-122275208D01*
X173032736Y-122292754D01*
X173025249Y-122292980D01*
X131032754Y-122292980D01*
X131025266Y-122292754D01*
X130735206Y-122275206D01*
X130720342Y-122273401D01*
X130438207Y-122221698D01*
X130423668Y-122218114D01*
X130149828Y-122132781D01*
X130135827Y-122127471D01*
X129874269Y-122009752D01*
X129861011Y-122002794D01*
X129659949Y-121881248D01*
X129615541Y-121854402D01*
X129603221Y-121845898D01*
X129379905Y-121670940D01*
X129368697Y-121661010D01*
X129161468Y-121453781D01*
X129151538Y-121442573D01*
X129116206Y-121397475D01*
X128976577Y-121219252D01*
X128968079Y-121206941D01*
X128819681Y-120961460D01*
X128812731Y-120948218D01*
X128695005Y-120686645D01*
X128689700Y-120672658D01*
X128604363Y-120398804D01*
X128600781Y-120384272D01*
X128586757Y-120307747D01*
X128549077Y-120102135D01*
X128547273Y-120087273D01*
X128547257Y-120087016D01*
X128529726Y-119797213D01*
X128529500Y-119789725D01*
X128529500Y-111891353D01*
X130629000Y-111891353D01*
X130629000Y-112103846D01*
X130662242Y-112313727D01*
X130662242Y-112313730D01*
X130727904Y-112515817D01*
X130824375Y-112705150D01*
X130863728Y-112759316D01*
X131496037Y-112127008D01*
X131513075Y-112190593D01*
X131578901Y-112304607D01*
X131671993Y-112397699D01*
X131786007Y-112463525D01*
X131849590Y-112480562D01*
X131217282Y-113112869D01*
X131217282Y-113112870D01*
X131271449Y-113152224D01*
X131460784Y-113248696D01*
X131559711Y-113280839D01*
X131617387Y-113320276D01*
X131644586Y-113384634D01*
X131632672Y-113453481D01*
X131585428Y-113504957D01*
X131559722Y-113516697D01*
X131558522Y-113517087D01*
X131556550Y-113517728D01*
X131402211Y-113596368D01*
X131322256Y-113654459D01*
X131262072Y-113698186D01*
X131262070Y-113698188D01*
X131262069Y-113698188D01*
X131139588Y-113820669D01*
X131139588Y-113820670D01*
X131139586Y-113820672D01*
X131095859Y-113880856D01*
X131037768Y-113960811D01*
X130959128Y-114115152D01*
X130905597Y-114279902D01*
X130878500Y-114450989D01*
X130878500Y-114624211D01*
X130905598Y-114795301D01*
X130959127Y-114960045D01*
X131037768Y-115114388D01*
X131139586Y-115254528D01*
X131262072Y-115377014D01*
X131402212Y-115478832D01*
X131556555Y-115557473D01*
X131721299Y-115611002D01*
X131892389Y-115638100D01*
X131892390Y-115638100D01*
X132065610Y-115638100D01*
X132065611Y-115638100D01*
X132236701Y-115611002D01*
X132401445Y-115557473D01*
X132555788Y-115478832D01*
X132695928Y-115377014D01*
X132818414Y-115254528D01*
X132920232Y-115114388D01*
X132998873Y-114960045D01*
X133052402Y-114795301D01*
X133079500Y-114624211D01*
X133079500Y-114450989D01*
X133052402Y-114279899D01*
X132998873Y-114115155D01*
X132920232Y-113960812D01*
X132818414Y-113820672D01*
X132695928Y-113698186D01*
X132555788Y-113596368D01*
X132445426Y-113540136D01*
X132401446Y-113517727D01*
X132398284Y-113516700D01*
X132397236Y-113515983D01*
X132396952Y-113515866D01*
X132396976Y-113515806D01*
X132340609Y-113477261D01*
X132313413Y-113412902D01*
X132325329Y-113344056D01*
X132372574Y-113292581D01*
X132398288Y-113280839D01*
X132497215Y-113248696D01*
X132686554Y-113152222D01*
X132740716Y-113112870D01*
X132740717Y-113112870D01*
X132108408Y-112480562D01*
X132171993Y-112463525D01*
X132286007Y-112397699D01*
X132379099Y-112304607D01*
X132444925Y-112190593D01*
X132461962Y-112127008D01*
X133094270Y-112759317D01*
X133094270Y-112759316D01*
X133133622Y-112705154D01*
X133230095Y-112515817D01*
X133295757Y-112313730D01*
X133295757Y-112313727D01*
X133329000Y-112103846D01*
X133329000Y-111891353D01*
X133295757Y-111681472D01*
X133295757Y-111681469D01*
X133230095Y-111479382D01*
X133133624Y-111290049D01*
X133094270Y-111235882D01*
X133094269Y-111235882D01*
X132461962Y-111868190D01*
X132444925Y-111804607D01*
X132379099Y-111690593D01*
X132286007Y-111597501D01*
X132171993Y-111531675D01*
X132108409Y-111514637D01*
X132740716Y-110882328D01*
X132686550Y-110842975D01*
X132497217Y-110746504D01*
X132398287Y-110714360D01*
X132340611Y-110674923D01*
X132313413Y-110610564D01*
X132325328Y-110541718D01*
X132372572Y-110490242D01*
X132398290Y-110478497D01*
X132401445Y-110477473D01*
X132555788Y-110398832D01*
X132695928Y-110297014D01*
X132818414Y-110174528D01*
X132920232Y-110034388D01*
X132998873Y-109880045D01*
X133052402Y-109715301D01*
X133079500Y-109544211D01*
X133079500Y-109370989D01*
X133052402Y-109199899D01*
X133006071Y-109057310D01*
X133005637Y-109042098D01*
X133000319Y-109027839D01*
X133004660Y-109007885D01*
X133004077Y-108987472D01*
X133012166Y-108973384D01*
X133015172Y-108959567D01*
X133036318Y-108931317D01*
X133105820Y-108861817D01*
X133167144Y-108828333D01*
X133193500Y-108825500D01*
X135749435Y-108825500D01*
X135749436Y-108825500D01*
X135797186Y-108812705D01*
X135844938Y-108799910D01*
X135930562Y-108750475D01*
X136000475Y-108680562D01*
X139880341Y-104800696D01*
X147253989Y-104800696D01*
X147253989Y-104824019D01*
X147978989Y-104824019D01*
X148478989Y-104824019D01*
X149203988Y-104824019D01*
X149203988Y-104800711D01*
X149203987Y-104800696D01*
X149193844Y-104701411D01*
X149140536Y-104540537D01*
X149140531Y-104540526D01*
X149051564Y-104396290D01*
X149051561Y-104396286D01*
X148931721Y-104276446D01*
X148931717Y-104276443D01*
X148787481Y-104187476D01*
X148787470Y-104187471D01*
X148626595Y-104134163D01*
X148527311Y-104124019D01*
X148478989Y-104124019D01*
X148478989Y-104824019D01*
X147978989Y-104824019D01*
X147978989Y-104124019D01*
X147978988Y-104124018D01*
X147930682Y-104124019D01*
X147930664Y-104124020D01*
X147831381Y-104134163D01*
X147670507Y-104187471D01*
X147670496Y-104187476D01*
X147526260Y-104276443D01*
X147526256Y-104276446D01*
X147406416Y-104396286D01*
X147406413Y-104396290D01*
X147317446Y-104540526D01*
X147317441Y-104540537D01*
X147264133Y-104701412D01*
X147253989Y-104800696D01*
X139880341Y-104800696D01*
X141799455Y-102881582D01*
X147261401Y-102881582D01*
X147267808Y-102952102D01*
X147267809Y-102952107D01*
X147318381Y-103114396D01*
X147406327Y-103259877D01*
X147526522Y-103380072D01*
X147672004Y-103468019D01*
X147672003Y-103468019D01*
X147834294Y-103518590D01*
X147834292Y-103518590D01*
X147904818Y-103524999D01*
X148486400Y-103524999D01*
X148567981Y-103524999D01*
X148638502Y-103518591D01*
X148638507Y-103518590D01*
X148800796Y-103468018D01*
X148946277Y-103380072D01*
X149066472Y-103259877D01*
X149154419Y-103114395D01*
X149204990Y-102952106D01*
X149211400Y-102881572D01*
X149211400Y-102875000D01*
X148486400Y-102875000D01*
X148486400Y-103524999D01*
X147904818Y-103524999D01*
X147986399Y-103524998D01*
X147986400Y-103524998D01*
X147986400Y-102875000D01*
X147261401Y-102875000D01*
X147261401Y-102881582D01*
X141799455Y-102881582D01*
X141927074Y-102753963D01*
X141927075Y-102753962D01*
X141976510Y-102668338D01*
X142002100Y-102572835D01*
X142002100Y-102045797D01*
X142021785Y-101978758D01*
X142074589Y-101933003D01*
X142138789Y-101923771D01*
X142138869Y-101922676D01*
X142143338Y-101923000D01*
X142143340Y-101923000D01*
X142409861Y-101923000D01*
X142432571Y-101919691D01*
X142477993Y-101913073D01*
X142547141Y-101879268D01*
X142616013Y-101867510D01*
X142656058Y-101879268D01*
X142725207Y-101913073D01*
X142759273Y-101918036D01*
X142793339Y-101923000D01*
X142793340Y-101923000D01*
X143059861Y-101923000D01*
X143082571Y-101919691D01*
X143127993Y-101913073D01*
X143197141Y-101879268D01*
X143266013Y-101867510D01*
X143306058Y-101879268D01*
X143375207Y-101913073D01*
X143409273Y-101918036D01*
X143443339Y-101923000D01*
X143443340Y-101923000D01*
X143709861Y-101923000D01*
X143732571Y-101919691D01*
X143777993Y-101913073D01*
X143847141Y-101879268D01*
X143916013Y-101867510D01*
X143956058Y-101879268D01*
X144025207Y-101913073D01*
X144059273Y-101918036D01*
X144093339Y-101923000D01*
X144093340Y-101923000D01*
X144359861Y-101923000D01*
X144382571Y-101919691D01*
X144427993Y-101913073D01*
X144497141Y-101879268D01*
X144566013Y-101867510D01*
X144606058Y-101879268D01*
X144675207Y-101913073D01*
X144709273Y-101918036D01*
X144743339Y-101923000D01*
X144743340Y-101923000D01*
X145009861Y-101923000D01*
X145032571Y-101919691D01*
X145077993Y-101913073D01*
X145147141Y-101879268D01*
X145216013Y-101867510D01*
X145256058Y-101879268D01*
X145325207Y-101913073D01*
X145359273Y-101918036D01*
X145393339Y-101923000D01*
X145393340Y-101923000D01*
X145659861Y-101923000D01*
X145682571Y-101919691D01*
X145727993Y-101913073D01*
X145797141Y-101879268D01*
X145866013Y-101867510D01*
X145906058Y-101879268D01*
X145975207Y-101913073D01*
X146009273Y-101918036D01*
X146043339Y-101923000D01*
X146043340Y-101923000D01*
X146309861Y-101923000D01*
X146332571Y-101919691D01*
X146377993Y-101913073D01*
X146447141Y-101879268D01*
X146516013Y-101867510D01*
X146556058Y-101879268D01*
X146625207Y-101913073D01*
X146659273Y-101918036D01*
X146693339Y-101923000D01*
X146693340Y-101923000D01*
X146959861Y-101923000D01*
X146982571Y-101919691D01*
X147027993Y-101913073D01*
X147133083Y-101861698D01*
X147215798Y-101778983D01*
X147267173Y-101673893D01*
X147277100Y-101605760D01*
X147277100Y-101415500D01*
X147279650Y-101406814D01*
X147278362Y-101397853D01*
X147289340Y-101373812D01*
X147296785Y-101348461D01*
X147303625Y-101342533D01*
X147307387Y-101334297D01*
X147329621Y-101320007D01*
X147349589Y-101302706D01*
X147360103Y-101300418D01*
X147366165Y-101296523D01*
X147401100Y-101291500D01*
X147436899Y-101291500D01*
X147503938Y-101311185D01*
X147549693Y-101363989D01*
X147553941Y-101374548D01*
X147558605Y-101387878D01*
X147558606Y-101387881D01*
X147558607Y-101387882D01*
X147639250Y-101497150D01*
X147723404Y-101559258D01*
X147765654Y-101614905D01*
X147771113Y-101684562D01*
X147738045Y-101746111D01*
X147686663Y-101777412D01*
X147672005Y-101781979D01*
X147672004Y-101781980D01*
X147526522Y-101869927D01*
X147406327Y-101990122D01*
X147318380Y-102135604D01*
X147267809Y-102297893D01*
X147261400Y-102368427D01*
X147261400Y-102375000D01*
X149211399Y-102375000D01*
X149211399Y-102368417D01*
X149204991Y-102297897D01*
X149204990Y-102297892D01*
X149154418Y-102135603D01*
X149066472Y-101990122D01*
X148946277Y-101869927D01*
X148800797Y-101781981D01*
X148786137Y-101777413D01*
X148727990Y-101738674D01*
X148700017Y-101674649D01*
X148711099Y-101605664D01*
X148749393Y-101559259D01*
X148833550Y-101497150D01*
X148914193Y-101387882D01*
X148946161Y-101296523D01*
X148959046Y-101259701D01*
X148959046Y-101259699D01*
X148961900Y-101229269D01*
X148961900Y-100720730D01*
X148959046Y-100690300D01*
X148959046Y-100690298D01*
X148914193Y-100562119D01*
X148914192Y-100562117D01*
X148897968Y-100540134D01*
X148833550Y-100452850D01*
X148724282Y-100372207D01*
X148724280Y-100372206D01*
X148596100Y-100327353D01*
X148565670Y-100324500D01*
X148565666Y-100324500D01*
X147907134Y-100324500D01*
X147907130Y-100324500D01*
X147876700Y-100327353D01*
X147876698Y-100327353D01*
X147748519Y-100372206D01*
X147748517Y-100372207D01*
X147639250Y-100452850D01*
X147574831Y-100540134D01*
X147570850Y-100543156D01*
X147568774Y-100547703D01*
X147543300Y-100564073D01*
X147519183Y-100582385D01*
X147513052Y-100583512D01*
X147509996Y-100585477D01*
X147475061Y-100590500D01*
X147401100Y-100590500D01*
X147334061Y-100570815D01*
X147288306Y-100518011D01*
X147277100Y-100466500D01*
X147277100Y-100264239D01*
X147267173Y-100196108D01*
X147267173Y-100196107D01*
X147215798Y-100091017D01*
X147215796Y-100091015D01*
X147215796Y-100091014D01*
X147133084Y-100008302D01*
X147113962Y-99998954D01*
X147062380Y-99951826D01*
X147044466Y-99884292D01*
X147065907Y-99817794D01*
X147080742Y-99799873D01*
X147496405Y-99384211D01*
X148018797Y-98861819D01*
X148080120Y-98828334D01*
X148106478Y-98825500D01*
X150537395Y-98825500D01*
X150604434Y-98845185D01*
X150625076Y-98861819D01*
X152388181Y-100624924D01*
X152421666Y-100686247D01*
X152424500Y-100712605D01*
X152424500Y-104949437D01*
X152436115Y-104992787D01*
X152450088Y-105044934D01*
X152450092Y-105044943D01*
X152470958Y-105081083D01*
X152470959Y-105081084D01*
X152499523Y-105130559D01*
X152499528Y-105130565D01*
X156316428Y-108947466D01*
X156349913Y-109008789D01*
X156346678Y-109073464D01*
X156305598Y-109199897D01*
X156305597Y-109199901D01*
X156289267Y-109303007D01*
X156278500Y-109370989D01*
X156278500Y-109544211D01*
X156305598Y-109715301D01*
X156359127Y-109880045D01*
X156437768Y-110034388D01*
X156539586Y-110174528D01*
X156662072Y-110297014D01*
X156802212Y-110398832D01*
X156956555Y-110477473D01*
X156959708Y-110478497D01*
X156960752Y-110479211D01*
X156961048Y-110479334D01*
X156961022Y-110479395D01*
X157017383Y-110517930D01*
X157044585Y-110582288D01*
X157032674Y-110651135D01*
X156985433Y-110702613D01*
X156959712Y-110714360D01*
X156860783Y-110746504D01*
X156671439Y-110842980D01*
X156617282Y-110882327D01*
X156617282Y-110882328D01*
X157249591Y-111514637D01*
X157186007Y-111531675D01*
X157071993Y-111597501D01*
X156978901Y-111690593D01*
X156913075Y-111804607D01*
X156896037Y-111868191D01*
X156263728Y-111235882D01*
X156263727Y-111235882D01*
X156224380Y-111290039D01*
X156127904Y-111479382D01*
X156062242Y-111681469D01*
X156062242Y-111681472D01*
X156029000Y-111891353D01*
X156029000Y-112103846D01*
X156062242Y-112313727D01*
X156062243Y-112313734D01*
X156083643Y-112379596D01*
X156085638Y-112449437D01*
X156049557Y-112509269D01*
X155986856Y-112540097D01*
X155917442Y-112532132D01*
X155878031Y-112505594D01*
X149695982Y-106323545D01*
X149695981Y-106323544D01*
X149610357Y-106274109D01*
X149562605Y-106261314D01*
X149562603Y-106261313D01*
X149562601Y-106261312D01*
X149514855Y-106248519D01*
X149514854Y-106248519D01*
X149016448Y-106248519D01*
X148949409Y-106228834D01*
X148914651Y-106195324D01*
X148905727Y-106182494D01*
X148900617Y-106168793D01*
X148838241Y-106085468D01*
X148837019Y-106083711D01*
X148826619Y-106052551D01*
X148815132Y-106021753D01*
X148815608Y-106019561D01*
X148814899Y-106017435D01*
X148822995Y-105985601D01*
X148829983Y-105953480D01*
X148831599Y-105951775D01*
X148832122Y-105949721D01*
X148844475Y-105938199D01*
X148873720Y-105907367D01*
X148931720Y-105871592D01*
X149051561Y-105751751D01*
X149051564Y-105751747D01*
X149140531Y-105607511D01*
X149140536Y-105607500D01*
X149193844Y-105446625D01*
X149203988Y-105347341D01*
X149203989Y-105347328D01*
X149203989Y-105324019D01*
X147253990Y-105324019D01*
X147253990Y-105347341D01*
X147264133Y-105446627D01*
X147310069Y-105585255D01*
X147312471Y-105655083D01*
X147276739Y-105715125D01*
X147214218Y-105746317D01*
X147144759Y-105738756D01*
X147137903Y-105735658D01*
X147027995Y-105681927D01*
X147027992Y-105681926D01*
X146959861Y-105672000D01*
X146959860Y-105672000D01*
X146693340Y-105672000D01*
X146693339Y-105672000D01*
X146625207Y-105681926D01*
X146625206Y-105681926D01*
X146556059Y-105715730D01*
X146487186Y-105727488D01*
X146447141Y-105715730D01*
X146377993Y-105681926D01*
X146309861Y-105672000D01*
X146309860Y-105672000D01*
X146043340Y-105672000D01*
X146043339Y-105672000D01*
X145975207Y-105681926D01*
X145975206Y-105681926D01*
X145906059Y-105715730D01*
X145837186Y-105727488D01*
X145797141Y-105715730D01*
X145727993Y-105681926D01*
X145659861Y-105672000D01*
X145659860Y-105672000D01*
X145393340Y-105672000D01*
X145393339Y-105672000D01*
X145325207Y-105681926D01*
X145325206Y-105681926D01*
X145256059Y-105715730D01*
X145187186Y-105727488D01*
X145147141Y-105715730D01*
X145077993Y-105681926D01*
X145009861Y-105672000D01*
X145009860Y-105672000D01*
X144743340Y-105672000D01*
X144743339Y-105672000D01*
X144675207Y-105681926D01*
X144675206Y-105681926D01*
X144606059Y-105715730D01*
X144537186Y-105727488D01*
X144497141Y-105715730D01*
X144427993Y-105681926D01*
X144359861Y-105672000D01*
X144359860Y-105672000D01*
X144093340Y-105672000D01*
X144093339Y-105672000D01*
X144025207Y-105681926D01*
X144025206Y-105681926D01*
X143956059Y-105715730D01*
X143887186Y-105727488D01*
X143847141Y-105715730D01*
X143777993Y-105681926D01*
X143709861Y-105672000D01*
X143709860Y-105672000D01*
X143443340Y-105672000D01*
X143443339Y-105672000D01*
X143375207Y-105681926D01*
X143375206Y-105681926D01*
X143306059Y-105715730D01*
X143237186Y-105727488D01*
X143197141Y-105715730D01*
X143127993Y-105681926D01*
X143059861Y-105672000D01*
X143059860Y-105672000D01*
X142793340Y-105672000D01*
X142793339Y-105672000D01*
X142725207Y-105681926D01*
X142725206Y-105681926D01*
X142656059Y-105715730D01*
X142587186Y-105727488D01*
X142547141Y-105715730D01*
X142477993Y-105681926D01*
X142409861Y-105672000D01*
X142409860Y-105672000D01*
X142143340Y-105672000D01*
X142143339Y-105672000D01*
X142075207Y-105681926D01*
X142075206Y-105681926D01*
X142006059Y-105715730D01*
X141937186Y-105727488D01*
X141897141Y-105715730D01*
X141827993Y-105681926D01*
X141759861Y-105672000D01*
X141759860Y-105672000D01*
X141493340Y-105672000D01*
X141493339Y-105672000D01*
X141425207Y-105681926D01*
X141425206Y-105681926D01*
X141356059Y-105715730D01*
X141287186Y-105727488D01*
X141247141Y-105715730D01*
X141177993Y-105681926D01*
X141109861Y-105672000D01*
X141109860Y-105672000D01*
X140843340Y-105672000D01*
X140843339Y-105672000D01*
X140775208Y-105681926D01*
X140670114Y-105733303D01*
X140587403Y-105816014D01*
X140536026Y-105921108D01*
X140526100Y-105989239D01*
X140526100Y-107330760D01*
X140536026Y-107398891D01*
X140536027Y-107398893D01*
X140587402Y-107503983D01*
X140588501Y-107506230D01*
X140601100Y-107560690D01*
X140601100Y-112226035D01*
X140626690Y-112321538D01*
X140676125Y-112407162D01*
X140676126Y-112407163D01*
X149824525Y-121555562D01*
X149894438Y-121625475D01*
X149959463Y-121663017D01*
X149980062Y-121674910D01*
X150027811Y-121687705D01*
X150027812Y-121687705D01*
X150037903Y-121690408D01*
X150075564Y-121700500D01*
X150075565Y-121700500D01*
X159745614Y-121700500D01*
X159812653Y-121720185D01*
X159833295Y-121736819D01*
X159861985Y-121765509D01*
X159861986Y-121765510D01*
X159861988Y-121765511D01*
X159987511Y-121837982D01*
X159987512Y-121837982D01*
X159987515Y-121837984D01*
X160127525Y-121875500D01*
X160127528Y-121875500D01*
X160272472Y-121875500D01*
X160272475Y-121875500D01*
X160412485Y-121837984D01*
X160538015Y-121765509D01*
X160640509Y-121663015D01*
X160712984Y-121537485D01*
X160750500Y-121397475D01*
X160750500Y-121252525D01*
X160731493Y-121181590D01*
X160733156Y-121111744D01*
X160772318Y-121053882D01*
X160836546Y-121026377D01*
X160851268Y-121025500D01*
X173802763Y-121025500D01*
X173864763Y-121042113D01*
X173987511Y-121112982D01*
X173987512Y-121112982D01*
X173987515Y-121112984D01*
X174127525Y-121150500D01*
X174127528Y-121150500D01*
X174272472Y-121150500D01*
X174272475Y-121150500D01*
X174412485Y-121112984D01*
X174538015Y-121040509D01*
X174640509Y-120938015D01*
X174712984Y-120812485D01*
X174750500Y-120672475D01*
X174750500Y-120527525D01*
X174712984Y-120387515D01*
X174711121Y-120384289D01*
X174640511Y-120261988D01*
X174640506Y-120261982D01*
X174538017Y-120159493D01*
X174538011Y-120159488D01*
X174412488Y-120087017D01*
X174412489Y-120087017D01*
X174401006Y-120083940D01*
X174272475Y-120049500D01*
X174127525Y-120049500D01*
X173998993Y-120083940D01*
X173987511Y-120087017D01*
X173861988Y-120159488D01*
X173783294Y-120238182D01*
X173721970Y-120271666D01*
X173695613Y-120274500D01*
X163326268Y-120274500D01*
X163259229Y-120254815D01*
X163213474Y-120202011D01*
X163203530Y-120132853D01*
X163206490Y-120118419D01*
X163225500Y-120047475D01*
X163225500Y-119902525D01*
X163206493Y-119831590D01*
X163208156Y-119761744D01*
X163247318Y-119703882D01*
X163311546Y-119676377D01*
X163326268Y-119675500D01*
X171251807Y-119675500D01*
X171318846Y-119695185D01*
X171353964Y-119732014D01*
X171354545Y-119731569D01*
X171358687Y-119736968D01*
X171359191Y-119737496D01*
X171359491Y-119738015D01*
X171461985Y-119840509D01*
X171461986Y-119840510D01*
X171461988Y-119840511D01*
X171587511Y-119912982D01*
X171587512Y-119912982D01*
X171587515Y-119912984D01*
X171727525Y-119950500D01*
X171727528Y-119950500D01*
X171872472Y-119950500D01*
X171872475Y-119950500D01*
X172012485Y-119912984D01*
X172138015Y-119840509D01*
X172240509Y-119738015D01*
X172312984Y-119612485D01*
X172350500Y-119472475D01*
X172350500Y-119327525D01*
X172312984Y-119187515D01*
X172240509Y-119061985D01*
X172138015Y-118959491D01*
X172138013Y-118959490D01*
X172138011Y-118959488D01*
X172012488Y-118887017D01*
X172012489Y-118887017D01*
X172001006Y-118883940D01*
X171872475Y-118849500D01*
X171727525Y-118849500D01*
X171587515Y-118887016D01*
X171551365Y-118907887D01*
X171489365Y-118924500D01*
X162451268Y-118924500D01*
X162384229Y-118904815D01*
X162338474Y-118852011D01*
X162328530Y-118782853D01*
X162331490Y-118768419D01*
X162350500Y-118697475D01*
X162350500Y-118552525D01*
X162331493Y-118481590D01*
X162333156Y-118411744D01*
X162372318Y-118353882D01*
X162436546Y-118326377D01*
X162451268Y-118325500D01*
X172095613Y-118325500D01*
X172162652Y-118345185D01*
X172183294Y-118361818D01*
X172261985Y-118440509D01*
X172261987Y-118440510D01*
X172261988Y-118440511D01*
X172387511Y-118512982D01*
X172387512Y-118512982D01*
X172387515Y-118512984D01*
X172527525Y-118550500D01*
X172527528Y-118550500D01*
X172672472Y-118550500D01*
X172672475Y-118550500D01*
X172812485Y-118512984D01*
X172938015Y-118440509D01*
X173040509Y-118338015D01*
X173112984Y-118212485D01*
X173150500Y-118072475D01*
X173150500Y-117927525D01*
X173112984Y-117787515D01*
X173040509Y-117661985D01*
X172938015Y-117559491D01*
X172938013Y-117559490D01*
X172938011Y-117559488D01*
X172812488Y-117487017D01*
X172812489Y-117487017D01*
X172801006Y-117483940D01*
X172672475Y-117449500D01*
X172527525Y-117449500D01*
X172398993Y-117483940D01*
X172387511Y-117487017D01*
X172264763Y-117557887D01*
X172202763Y-117574500D01*
X161651268Y-117574500D01*
X161584229Y-117554815D01*
X161538474Y-117502011D01*
X161528530Y-117432853D01*
X161531490Y-117418419D01*
X161550500Y-117347475D01*
X161550500Y-117202525D01*
X161531493Y-117131590D01*
X161533156Y-117061744D01*
X161572318Y-117003882D01*
X161636546Y-116976377D01*
X161651268Y-116975500D01*
X172945614Y-116975500D01*
X173012653Y-116995185D01*
X173033295Y-117011819D01*
X173061985Y-117040509D01*
X173061986Y-117040510D01*
X173061988Y-117040511D01*
X173187511Y-117112982D01*
X173187512Y-117112982D01*
X173187515Y-117112984D01*
X173327525Y-117150500D01*
X173327528Y-117150500D01*
X173472472Y-117150500D01*
X173472475Y-117150500D01*
X173612485Y-117112984D01*
X173738015Y-117040509D01*
X173840509Y-116938015D01*
X173912984Y-116812485D01*
X173950500Y-116672475D01*
X173950500Y-116527525D01*
X173912984Y-116387515D01*
X173840509Y-116261985D01*
X173738015Y-116159491D01*
X173738013Y-116159490D01*
X173738011Y-116159488D01*
X173612488Y-116087017D01*
X173612489Y-116087017D01*
X173601006Y-116083940D01*
X173472475Y-116049500D01*
X173327525Y-116049500D01*
X173198993Y-116083940D01*
X173187511Y-116087017D01*
X173061988Y-116159488D01*
X173061982Y-116159493D01*
X173033295Y-116188181D01*
X172971972Y-116221666D01*
X172945614Y-116224500D01*
X150821111Y-116224500D01*
X150754072Y-116204815D01*
X150733430Y-116188181D01*
X145938419Y-111393170D01*
X145904934Y-111331847D01*
X145902100Y-111305489D01*
X145902100Y-109200352D01*
X145921785Y-109133313D01*
X145974589Y-109087558D01*
X146043747Y-109077614D01*
X146107303Y-109106639D01*
X146125865Y-109126712D01*
X146177850Y-109197150D01*
X146287118Y-109277793D01*
X146329845Y-109292744D01*
X146415299Y-109322646D01*
X146445730Y-109325500D01*
X146445734Y-109325500D01*
X146954270Y-109325500D01*
X146984699Y-109322646D01*
X146984701Y-109322646D01*
X147048790Y-109300219D01*
X147112882Y-109277793D01*
X147222150Y-109197150D01*
X147284259Y-109112994D01*
X147339905Y-109070745D01*
X147409561Y-109065286D01*
X147471111Y-109098353D01*
X147502413Y-109149737D01*
X147506981Y-109164397D01*
X147594927Y-109309877D01*
X147715122Y-109430072D01*
X147860604Y-109518019D01*
X147860603Y-109518019D01*
X148022894Y-109568590D01*
X148022893Y-109568590D01*
X148093408Y-109574998D01*
X148093426Y-109574999D01*
X148600000Y-109574999D01*
X148606581Y-109574999D01*
X148677102Y-109568591D01*
X148677107Y-109568590D01*
X148839396Y-109518018D01*
X148984877Y-109430072D01*
X149105072Y-109309877D01*
X149193019Y-109164395D01*
X149243590Y-109002106D01*
X149250000Y-108931572D01*
X149250000Y-108850000D01*
X148600000Y-108850000D01*
X148600000Y-109574999D01*
X148093426Y-109574999D01*
X148099999Y-109574998D01*
X148100000Y-109574998D01*
X148100000Y-108350000D01*
X148600000Y-108350000D01*
X149249999Y-108350000D01*
X149249999Y-108268417D01*
X149243591Y-108197897D01*
X149243590Y-108197892D01*
X149193018Y-108035603D01*
X149105072Y-107890122D01*
X148984877Y-107769927D01*
X148839395Y-107681980D01*
X148839396Y-107681980D01*
X148677105Y-107631409D01*
X148677106Y-107631409D01*
X148606572Y-107625000D01*
X148600000Y-107625000D01*
X148600000Y-108350000D01*
X148100000Y-108350000D01*
X148100000Y-107625000D01*
X148099999Y-107624999D01*
X148093436Y-107625000D01*
X148093417Y-107625001D01*
X148022897Y-107631408D01*
X148022892Y-107631409D01*
X147860603Y-107681981D01*
X147715122Y-107769927D01*
X147594927Y-107890122D01*
X147506980Y-108035604D01*
X147506979Y-108035605D01*
X147502412Y-108050263D01*
X147463673Y-108108410D01*
X147399647Y-108136382D01*
X147330662Y-108125299D01*
X147284258Y-108087004D01*
X147257142Y-108050263D01*
X147222150Y-108002850D01*
X147112882Y-107922207D01*
X147112880Y-107922206D01*
X146991580Y-107879761D01*
X146934804Y-107839039D01*
X146909057Y-107774086D01*
X146922514Y-107705525D01*
X146970901Y-107655122D01*
X147014655Y-107640016D01*
X147027993Y-107638073D01*
X147133083Y-107586698D01*
X147215798Y-107503983D01*
X147267173Y-107398893D01*
X147277100Y-107330760D01*
X147277100Y-107150500D01*
X147279650Y-107141814D01*
X147278362Y-107132853D01*
X147289340Y-107108812D01*
X147296785Y-107083461D01*
X147303625Y-107077533D01*
X147307387Y-107069297D01*
X147329621Y-107055007D01*
X147349589Y-107037706D01*
X147360103Y-107035418D01*
X147366165Y-107031523D01*
X147401100Y-107026500D01*
X147455806Y-107026500D01*
X147522845Y-107046185D01*
X147555073Y-107076189D01*
X147557361Y-107079245D01*
X147639302Y-107188706D01*
X147748763Y-107270647D01*
X147876875Y-107318431D01*
X147933504Y-107324519D01*
X148524473Y-107324518D01*
X148581103Y-107318431D01*
X148709215Y-107270647D01*
X148818676Y-107188706D01*
X148900617Y-107079245D01*
X148900619Y-107079239D01*
X148904866Y-107071463D01*
X148906235Y-107072210D01*
X148913535Y-107062459D01*
X148922735Y-107042316D01*
X148934067Y-107035033D01*
X148942139Y-107024251D01*
X148962884Y-107016513D01*
X148981513Y-107004542D01*
X149003434Y-107001390D01*
X149007604Y-106999835D01*
X149016448Y-106999519D01*
X149258520Y-106999519D01*
X149325559Y-107019204D01*
X149346201Y-107035838D01*
X156321677Y-114011314D01*
X156355162Y-114072637D01*
X156351927Y-114137313D01*
X156305597Y-114279901D01*
X156278500Y-114450989D01*
X156278500Y-114624211D01*
X156305598Y-114795301D01*
X156359127Y-114960045D01*
X156437768Y-115114388D01*
X156539586Y-115254528D01*
X156662072Y-115377014D01*
X156802212Y-115478832D01*
X156956555Y-115557473D01*
X157121299Y-115611002D01*
X157292389Y-115638100D01*
X157292390Y-115638100D01*
X157465610Y-115638100D01*
X157465611Y-115638100D01*
X157636701Y-115611002D01*
X157801445Y-115557473D01*
X157955788Y-115478832D01*
X158095928Y-115377014D01*
X158218414Y-115254528D01*
X158320232Y-115114388D01*
X158398873Y-114960045D01*
X158452402Y-114795301D01*
X158479500Y-114624211D01*
X158479500Y-114450989D01*
X158452402Y-114279899D01*
X158398873Y-114115155D01*
X158320232Y-113960812D01*
X158218414Y-113820672D01*
X158095928Y-113698186D01*
X157955788Y-113596368D01*
X157845426Y-113540136D01*
X157801446Y-113517727D01*
X157798284Y-113516700D01*
X157797236Y-113515983D01*
X157796952Y-113515866D01*
X157796976Y-113515806D01*
X157740609Y-113477261D01*
X157713413Y-113412902D01*
X157725329Y-113344056D01*
X157772574Y-113292581D01*
X157798288Y-113280839D01*
X157897215Y-113248696D01*
X158086554Y-113152222D01*
X158140717Y-113112870D01*
X157508408Y-112480562D01*
X157571993Y-112463525D01*
X157686007Y-112397699D01*
X157779099Y-112304607D01*
X157844925Y-112190593D01*
X157861962Y-112127008D01*
X158494270Y-112759317D01*
X158494270Y-112759316D01*
X158533622Y-112705154D01*
X158630095Y-112515817D01*
X158695757Y-112313730D01*
X158695757Y-112313727D01*
X158729000Y-112103846D01*
X158729000Y-111891353D01*
X158695757Y-111681472D01*
X158695757Y-111681469D01*
X158630095Y-111479382D01*
X158533624Y-111290049D01*
X158494270Y-111235882D01*
X158494269Y-111235882D01*
X157861962Y-111868190D01*
X157844925Y-111804607D01*
X157779099Y-111690593D01*
X157686007Y-111597501D01*
X157571993Y-111531675D01*
X157508409Y-111514637D01*
X158140716Y-110882328D01*
X158086550Y-110842975D01*
X157897217Y-110746504D01*
X157798287Y-110714360D01*
X157778660Y-110700939D01*
X157756884Y-110691405D01*
X157750351Y-110681583D01*
X157740611Y-110674923D01*
X157731354Y-110653019D01*
X157718191Y-110633227D01*
X157718005Y-110621431D01*
X157713413Y-110610564D01*
X157717467Y-110587137D01*
X157717094Y-110563366D01*
X157723316Y-110553341D01*
X157725328Y-110541718D01*
X157741400Y-110524205D01*
X157753941Y-110504002D01*
X157766651Y-110496692D01*
X157772572Y-110490242D01*
X157783329Y-110484457D01*
X157790604Y-110480995D01*
X157801445Y-110477473D01*
X157955788Y-110398832D01*
X158095928Y-110297014D01*
X158218414Y-110174528D01*
X158320232Y-110034388D01*
X158398873Y-109880045D01*
X158452402Y-109715301D01*
X158479500Y-109544211D01*
X158479500Y-109389753D01*
X164823000Y-109389753D01*
X164823000Y-109602246D01*
X164856242Y-109812127D01*
X164856242Y-109812130D01*
X164921904Y-110014217D01*
X165018375Y-110203550D01*
X165057728Y-110257716D01*
X165690037Y-109625408D01*
X165707075Y-109688993D01*
X165772901Y-109803007D01*
X165865993Y-109896099D01*
X165980007Y-109961925D01*
X166043590Y-109978962D01*
X165411282Y-110611269D01*
X165411282Y-110611270D01*
X165465452Y-110650626D01*
X165475048Y-110655516D01*
X165525844Y-110703491D01*
X165542638Y-110771312D01*
X165520100Y-110837447D01*
X165475051Y-110876483D01*
X165465440Y-110881380D01*
X165411282Y-110920727D01*
X165411282Y-110920728D01*
X166043591Y-111553037D01*
X165980007Y-111570075D01*
X165865993Y-111635901D01*
X165772901Y-111728993D01*
X165707075Y-111843007D01*
X165690037Y-111906591D01*
X165057728Y-111274282D01*
X165057727Y-111274282D01*
X165018380Y-111328439D01*
X164921904Y-111517782D01*
X164856242Y-111719869D01*
X164856242Y-111719872D01*
X164823000Y-111929753D01*
X164823000Y-112142246D01*
X164856242Y-112352127D01*
X164856242Y-112352130D01*
X164921904Y-112554217D01*
X165018375Y-112743550D01*
X165057728Y-112797716D01*
X165690037Y-112165408D01*
X165707075Y-112228993D01*
X165772901Y-112343007D01*
X165865993Y-112436099D01*
X165980007Y-112501925D01*
X166043590Y-112518962D01*
X165411282Y-113151269D01*
X165411282Y-113151270D01*
X165465449Y-113190624D01*
X165654782Y-113287095D01*
X165856870Y-113352757D01*
X166066754Y-113386000D01*
X166279246Y-113386000D01*
X166489127Y-113352757D01*
X166489130Y-113352757D01*
X166691217Y-113287095D01*
X166880554Y-113190622D01*
X166934716Y-113151270D01*
X166934717Y-113151270D01*
X166302408Y-112518962D01*
X166365993Y-112501925D01*
X166480007Y-112436099D01*
X166573099Y-112343007D01*
X166638925Y-112228993D01*
X166655962Y-112165408D01*
X167288270Y-112797717D01*
X167288270Y-112797716D01*
X167327622Y-112743554D01*
X167332514Y-112733954D01*
X167380488Y-112683157D01*
X167448308Y-112666361D01*
X167514444Y-112688897D01*
X167553486Y-112733954D01*
X167558375Y-112743550D01*
X167597728Y-112797716D01*
X168230036Y-112165407D01*
X168247075Y-112228993D01*
X168312901Y-112343007D01*
X168405993Y-112436099D01*
X168520007Y-112501925D01*
X168583590Y-112518962D01*
X167951282Y-113151269D01*
X167951282Y-113151270D01*
X168005449Y-113190624D01*
X168194782Y-113287095D01*
X168396870Y-113352757D01*
X168606754Y-113386000D01*
X168819246Y-113386000D01*
X169029127Y-113352757D01*
X169029130Y-113352757D01*
X169231217Y-113287095D01*
X169420554Y-113190622D01*
X169474716Y-113151270D01*
X169474717Y-113151270D01*
X168842408Y-112518962D01*
X168905993Y-112501925D01*
X169020007Y-112436099D01*
X169113099Y-112343007D01*
X169178925Y-112228993D01*
X169195962Y-112165408D01*
X169828270Y-112797717D01*
X169828270Y-112797716D01*
X169867622Y-112743554D01*
X169964095Y-112554217D01*
X170029757Y-112352130D01*
X170029757Y-112352127D01*
X170063000Y-112142246D01*
X170063000Y-111929753D01*
X170029757Y-111719872D01*
X170029757Y-111719869D01*
X169964095Y-111517782D01*
X169867624Y-111328449D01*
X169828270Y-111274282D01*
X169828269Y-111274282D01*
X169195962Y-111906590D01*
X169178925Y-111843007D01*
X169113099Y-111728993D01*
X169020007Y-111635901D01*
X168905993Y-111570075D01*
X168842409Y-111553037D01*
X169474716Y-110920728D01*
X169420550Y-110881375D01*
X169410954Y-110876486D01*
X169360157Y-110828512D01*
X169343361Y-110760692D01*
X169365897Y-110694556D01*
X169410954Y-110655514D01*
X169420554Y-110650622D01*
X169474716Y-110611270D01*
X169474717Y-110611270D01*
X168842408Y-109978962D01*
X168905993Y-109961925D01*
X169020007Y-109896099D01*
X169113099Y-109803007D01*
X169178925Y-109688993D01*
X169195962Y-109625408D01*
X169828270Y-110257717D01*
X169828270Y-110257716D01*
X169867622Y-110203554D01*
X169964095Y-110014217D01*
X170029757Y-109812130D01*
X170029757Y-109812127D01*
X170063000Y-109602246D01*
X170063000Y-109389753D01*
X170029757Y-109179872D01*
X170029757Y-109179869D01*
X169964095Y-108977782D01*
X169867624Y-108788449D01*
X169828270Y-108734282D01*
X169828269Y-108734282D01*
X169195962Y-109366590D01*
X169178925Y-109303007D01*
X169113099Y-109188993D01*
X169020007Y-109095901D01*
X168905993Y-109030075D01*
X168842409Y-109013037D01*
X169474716Y-108380728D01*
X169420550Y-108341375D01*
X169231217Y-108244904D01*
X169132287Y-108212760D01*
X169074611Y-108173323D01*
X169047413Y-108108964D01*
X169059328Y-108040118D01*
X169106572Y-107988642D01*
X169132290Y-107976897D01*
X169135445Y-107975873D01*
X169289788Y-107897232D01*
X169429928Y-107795414D01*
X169552414Y-107672928D01*
X169654232Y-107532788D01*
X169732873Y-107378445D01*
X169786402Y-107213701D01*
X169813500Y-107042611D01*
X169813500Y-106869389D01*
X169786402Y-106698299D01*
X169732873Y-106533555D01*
X169654232Y-106379212D01*
X169552414Y-106239072D01*
X169429928Y-106116586D01*
X169289788Y-106014768D01*
X169180952Y-105959314D01*
X169135447Y-105936128D01*
X169135446Y-105936127D01*
X169135445Y-105936127D01*
X168970701Y-105882598D01*
X168970699Y-105882597D01*
X168970698Y-105882597D01*
X168839271Y-105861781D01*
X168799611Y-105855500D01*
X168626389Y-105855500D01*
X168586728Y-105861781D01*
X168455302Y-105882597D01*
X168290552Y-105936128D01*
X168136211Y-106014768D01*
X168084208Y-106052551D01*
X167996072Y-106116586D01*
X167996070Y-106116588D01*
X167996069Y-106116588D01*
X167873588Y-106239069D01*
X167873588Y-106239070D01*
X167873586Y-106239072D01*
X167831568Y-106296905D01*
X167771768Y-106379211D01*
X167693128Y-106533552D01*
X167639597Y-106698302D01*
X167618582Y-106830989D01*
X167612500Y-106869389D01*
X167612500Y-107042611D01*
X167639598Y-107213701D01*
X167693127Y-107378445D01*
X167771768Y-107532788D01*
X167873586Y-107672928D01*
X167996072Y-107795414D01*
X168136212Y-107897232D01*
X168290555Y-107975873D01*
X168293708Y-107976897D01*
X168294752Y-107977611D01*
X168295048Y-107977734D01*
X168295022Y-107977795D01*
X168351383Y-108016330D01*
X168378585Y-108080688D01*
X168366674Y-108149535D01*
X168319433Y-108201013D01*
X168293712Y-108212760D01*
X168194783Y-108244904D01*
X168005439Y-108341380D01*
X167951282Y-108380727D01*
X167951282Y-108380728D01*
X168583591Y-109013037D01*
X168520007Y-109030075D01*
X168405993Y-109095901D01*
X168312901Y-109188993D01*
X168247075Y-109303007D01*
X168230037Y-109366591D01*
X167597728Y-108734282D01*
X167597727Y-108734282D01*
X167558380Y-108788440D01*
X167553483Y-108798051D01*
X167505506Y-108848845D01*
X167437684Y-108865638D01*
X167371550Y-108843098D01*
X167332516Y-108798048D01*
X167327626Y-108788452D01*
X167288270Y-108734282D01*
X167288269Y-108734282D01*
X166655962Y-109366590D01*
X166638925Y-109303007D01*
X166573099Y-109188993D01*
X166480007Y-109095901D01*
X166365993Y-109030075D01*
X166302409Y-109013037D01*
X166934716Y-108380728D01*
X166880550Y-108341375D01*
X166691217Y-108244904D01*
X166592287Y-108212760D01*
X166534611Y-108173323D01*
X166507413Y-108108964D01*
X166519328Y-108040118D01*
X166566572Y-107988642D01*
X166592290Y-107976897D01*
X166595445Y-107975873D01*
X166749788Y-107897232D01*
X166889928Y-107795414D01*
X167012414Y-107672928D01*
X167114232Y-107532788D01*
X167192873Y-107378445D01*
X167246402Y-107213701D01*
X167273500Y-107042611D01*
X167273500Y-106869389D01*
X167246402Y-106698299D01*
X167192873Y-106533555D01*
X167114232Y-106379212D01*
X167012414Y-106239072D01*
X166889928Y-106116586D01*
X166749788Y-106014768D01*
X166640952Y-105959314D01*
X166595447Y-105936128D01*
X166595446Y-105936127D01*
X166595445Y-105936127D01*
X166430701Y-105882598D01*
X166430699Y-105882597D01*
X166430698Y-105882597D01*
X166299271Y-105861781D01*
X166259611Y-105855500D01*
X166086389Y-105855500D01*
X166046728Y-105861781D01*
X165915302Y-105882597D01*
X165750552Y-105936128D01*
X165596211Y-106014768D01*
X165544208Y-106052551D01*
X165456072Y-106116586D01*
X165456070Y-106116588D01*
X165456069Y-106116588D01*
X165333588Y-106239069D01*
X165333588Y-106239070D01*
X165333586Y-106239072D01*
X165291568Y-106296905D01*
X165231768Y-106379211D01*
X165153128Y-106533552D01*
X165099597Y-106698302D01*
X165078582Y-106830989D01*
X165072500Y-106869389D01*
X165072500Y-107042611D01*
X165099598Y-107213701D01*
X165153127Y-107378445D01*
X165231768Y-107532788D01*
X165333586Y-107672928D01*
X165456072Y-107795414D01*
X165596212Y-107897232D01*
X165750555Y-107975873D01*
X165753708Y-107976897D01*
X165754752Y-107977611D01*
X165755048Y-107977734D01*
X165755022Y-107977795D01*
X165811383Y-108016330D01*
X165838585Y-108080688D01*
X165826674Y-108149535D01*
X165779433Y-108201013D01*
X165753712Y-108212760D01*
X165654783Y-108244904D01*
X165465439Y-108341380D01*
X165411282Y-108380727D01*
X165411282Y-108380728D01*
X166043591Y-109013037D01*
X165980007Y-109030075D01*
X165865993Y-109095901D01*
X165772901Y-109188993D01*
X165707075Y-109303007D01*
X165690037Y-109366591D01*
X165057728Y-108734282D01*
X165057727Y-108734282D01*
X165018380Y-108788439D01*
X164921904Y-108977782D01*
X164856242Y-109179869D01*
X164856242Y-109179872D01*
X164823000Y-109389753D01*
X158479500Y-109389753D01*
X158479500Y-109370989D01*
X158452402Y-109199899D01*
X158398873Y-109035155D01*
X158320232Y-108880812D01*
X158218414Y-108740672D01*
X158095928Y-108618186D01*
X157955788Y-108516368D01*
X157801445Y-108437727D01*
X157636701Y-108384198D01*
X157636699Y-108384197D01*
X157636698Y-108384197D01*
X157505271Y-108363381D01*
X157465611Y-108357100D01*
X157292389Y-108357100D01*
X157260192Y-108362199D01*
X157121301Y-108384197D01*
X157121297Y-108384198D01*
X156962560Y-108435774D01*
X156892719Y-108437769D01*
X156836562Y-108405524D01*
X155262027Y-106830989D01*
X156278500Y-106830989D01*
X156278500Y-107004211D01*
X156305598Y-107175301D01*
X156359127Y-107340045D01*
X156437768Y-107494388D01*
X156539586Y-107634528D01*
X156662072Y-107757014D01*
X156802212Y-107858832D01*
X156956555Y-107937473D01*
X157121299Y-107991002D01*
X157292389Y-108018100D01*
X157292390Y-108018100D01*
X157465610Y-108018100D01*
X157465611Y-108018100D01*
X157636701Y-107991002D01*
X157801445Y-107937473D01*
X157955788Y-107858832D01*
X158095928Y-107757014D01*
X158218414Y-107634528D01*
X158320232Y-107494388D01*
X158398873Y-107340045D01*
X158452402Y-107175301D01*
X158479500Y-107004211D01*
X158479500Y-106830989D01*
X158452402Y-106659899D01*
X158398873Y-106495155D01*
X158320232Y-106340812D01*
X158218414Y-106200672D01*
X158095928Y-106078186D01*
X157955788Y-105976368D01*
X157801445Y-105897727D01*
X157636701Y-105844198D01*
X157636699Y-105844197D01*
X157636698Y-105844197D01*
X157496056Y-105821922D01*
X157465611Y-105817100D01*
X157292389Y-105817100D01*
X157261944Y-105821922D01*
X157121302Y-105844197D01*
X156956552Y-105897728D01*
X156802211Y-105976368D01*
X156749359Y-106014768D01*
X156662072Y-106078186D01*
X156662070Y-106078188D01*
X156662069Y-106078188D01*
X156539588Y-106200669D01*
X156539588Y-106200670D01*
X156539586Y-106200672D01*
X156519125Y-106228834D01*
X156437768Y-106340811D01*
X156359128Y-106495152D01*
X156305597Y-106659902D01*
X156278500Y-106830989D01*
X155262027Y-106830989D01*
X153211819Y-104780781D01*
X153178334Y-104719458D01*
X153175500Y-104693100D01*
X153175500Y-101004499D01*
X153195185Y-100937460D01*
X153247989Y-100891705D01*
X153317147Y-100881761D01*
X153380703Y-100910786D01*
X153387181Y-100916818D01*
X156321677Y-103851314D01*
X156355162Y-103912637D01*
X156351927Y-103977313D01*
X156305597Y-104119901D01*
X156280804Y-104276443D01*
X156278500Y-104290989D01*
X156278500Y-104464211D01*
X156305598Y-104635301D01*
X156359127Y-104800045D01*
X156437768Y-104954388D01*
X156539586Y-105094528D01*
X156662072Y-105217014D01*
X156802212Y-105318832D01*
X156956555Y-105397473D01*
X157121299Y-105451002D01*
X157292389Y-105478100D01*
X157292390Y-105478100D01*
X157465610Y-105478100D01*
X157465611Y-105478100D01*
X157636701Y-105451002D01*
X157801445Y-105397473D01*
X157955788Y-105318832D01*
X158095928Y-105217014D01*
X158218414Y-105094528D01*
X158320232Y-104954388D01*
X158398873Y-104800045D01*
X158452402Y-104635301D01*
X158479500Y-104464211D01*
X158479500Y-104329389D01*
X165072500Y-104329389D01*
X165072500Y-104502611D01*
X165099598Y-104673701D01*
X165153127Y-104838445D01*
X165231768Y-104992788D01*
X165333586Y-105132928D01*
X165456072Y-105255414D01*
X165596212Y-105357232D01*
X165750555Y-105435873D01*
X165915299Y-105489402D01*
X166086389Y-105516500D01*
X166086390Y-105516500D01*
X166259610Y-105516500D01*
X166259611Y-105516500D01*
X166430701Y-105489402D01*
X166595445Y-105435873D01*
X166749788Y-105357232D01*
X166889928Y-105255414D01*
X167012414Y-105132928D01*
X167114232Y-104992788D01*
X167192873Y-104838445D01*
X167246402Y-104673701D01*
X167273500Y-104502611D01*
X167273500Y-104329389D01*
X167612500Y-104329389D01*
X167612500Y-104502611D01*
X167639598Y-104673701D01*
X167693127Y-104838445D01*
X167771768Y-104992788D01*
X167873586Y-105132928D01*
X167996072Y-105255414D01*
X168136212Y-105357232D01*
X168290555Y-105435873D01*
X168455299Y-105489402D01*
X168626389Y-105516500D01*
X168626390Y-105516500D01*
X168799610Y-105516500D01*
X168799611Y-105516500D01*
X168970701Y-105489402D01*
X169135445Y-105435873D01*
X169289788Y-105357232D01*
X169429928Y-105255414D01*
X169552414Y-105132928D01*
X169654232Y-104992788D01*
X169732873Y-104838445D01*
X169786402Y-104673701D01*
X169813500Y-104502611D01*
X169813500Y-104329389D01*
X169786402Y-104158299D01*
X169732873Y-103993555D01*
X169654232Y-103839212D01*
X169552414Y-103699072D01*
X169429928Y-103576586D01*
X169289788Y-103474768D01*
X169135445Y-103396127D01*
X168970701Y-103342598D01*
X168970699Y-103342597D01*
X168970698Y-103342597D01*
X168829772Y-103320277D01*
X168799611Y-103315500D01*
X168626389Y-103315500D01*
X168596228Y-103320277D01*
X168455302Y-103342597D01*
X168290552Y-103396128D01*
X168136211Y-103474768D01*
X168067075Y-103524999D01*
X167996072Y-103576586D01*
X167996070Y-103576588D01*
X167996069Y-103576588D01*
X167873588Y-103699069D01*
X167873588Y-103699070D01*
X167873586Y-103699072D01*
X167829859Y-103759256D01*
X167771768Y-103839211D01*
X167693128Y-103993552D01*
X167639597Y-104158302D01*
X167620886Y-104276443D01*
X167612500Y-104329389D01*
X167273500Y-104329389D01*
X167246402Y-104158299D01*
X167192873Y-103993555D01*
X167114232Y-103839212D01*
X167012414Y-103699072D01*
X166889928Y-103576586D01*
X166749788Y-103474768D01*
X166595445Y-103396127D01*
X166430701Y-103342598D01*
X166430699Y-103342597D01*
X166430698Y-103342597D01*
X166289772Y-103320277D01*
X166259611Y-103315500D01*
X166086389Y-103315500D01*
X166056228Y-103320277D01*
X165915302Y-103342597D01*
X165750552Y-103396128D01*
X165596211Y-103474768D01*
X165527075Y-103524999D01*
X165456072Y-103576586D01*
X165456070Y-103576588D01*
X165456069Y-103576588D01*
X165333588Y-103699069D01*
X165333588Y-103699070D01*
X165333586Y-103699072D01*
X165289859Y-103759256D01*
X165231768Y-103839211D01*
X165153128Y-103993552D01*
X165099597Y-104158302D01*
X165080886Y-104276443D01*
X165072500Y-104329389D01*
X158479500Y-104329389D01*
X158479500Y-104290989D01*
X158452402Y-104119899D01*
X158398873Y-103955155D01*
X158320232Y-103800812D01*
X158218414Y-103660672D01*
X158095928Y-103538186D01*
X157955788Y-103436368D01*
X157801445Y-103357727D01*
X157636701Y-103304198D01*
X157636699Y-103304197D01*
X157636698Y-103304197D01*
X157505271Y-103283381D01*
X157465611Y-103277100D01*
X157292389Y-103277100D01*
X157260192Y-103282199D01*
X157121301Y-103304197D01*
X156978713Y-103350527D01*
X156908872Y-103352522D01*
X156852714Y-103320277D01*
X152743426Y-99210989D01*
X156278500Y-99210989D01*
X156278500Y-99384211D01*
X156305598Y-99555301D01*
X156359127Y-99720045D01*
X156437768Y-99874388D01*
X156539586Y-100014528D01*
X156662072Y-100137014D01*
X156802212Y-100238832D01*
X156956555Y-100317473D01*
X157121299Y-100371002D01*
X157292389Y-100398100D01*
X157292390Y-100398100D01*
X157465610Y-100398100D01*
X157465611Y-100398100D01*
X157636701Y-100371002D01*
X157801445Y-100317473D01*
X157955788Y-100238832D01*
X158095928Y-100137014D01*
X158218414Y-100014528D01*
X158320232Y-99874388D01*
X158398873Y-99720045D01*
X158452402Y-99555301D01*
X158479500Y-99384211D01*
X158479500Y-99210989D01*
X158452402Y-99039899D01*
X158406071Y-98897310D01*
X158404077Y-98827471D01*
X158436320Y-98771315D01*
X163100475Y-94107163D01*
X163149911Y-94021537D01*
X163175500Y-93926036D01*
X163175500Y-93827164D01*
X163175500Y-84164799D01*
X163195185Y-84097760D01*
X163211819Y-84077118D01*
X164087218Y-83201719D01*
X164148541Y-83168234D01*
X164174899Y-83165400D01*
X165204200Y-83165400D01*
X165271239Y-83185085D01*
X165316994Y-83237889D01*
X165326938Y-83307047D01*
X165297913Y-83370603D01*
X165291881Y-83377081D01*
X163569438Y-85099525D01*
X163499526Y-85169436D01*
X163450091Y-85255059D01*
X163450091Y-85255060D01*
X163450090Y-85255062D01*
X163424500Y-85350565D01*
X163424500Y-85350567D01*
X163424500Y-95193100D01*
X163404815Y-95260139D01*
X163388181Y-95280781D01*
X157892755Y-100776206D01*
X157831432Y-100809691D01*
X157766756Y-100806456D01*
X157636701Y-100764198D01*
X157636699Y-100764197D01*
X157636698Y-100764197D01*
X157505271Y-100743381D01*
X157465611Y-100737100D01*
X157292389Y-100737100D01*
X157252728Y-100743381D01*
X157121302Y-100764197D01*
X156956552Y-100817728D01*
X156802211Y-100896368D01*
X156749359Y-100934768D01*
X156662072Y-100998186D01*
X156662070Y-100998188D01*
X156662069Y-100998188D01*
X156539588Y-101120669D01*
X156539588Y-101120670D01*
X156539586Y-101120672D01*
X156529176Y-101135000D01*
X156437768Y-101260811D01*
X156359128Y-101415152D01*
X156305597Y-101579902D01*
X156279273Y-101746111D01*
X156278500Y-101750989D01*
X156278500Y-101924211D01*
X156305598Y-102095301D01*
X156359127Y-102260045D01*
X156437768Y-102414388D01*
X156539586Y-102554528D01*
X156662072Y-102677014D01*
X156802212Y-102778832D01*
X156956555Y-102857473D01*
X157121299Y-102911002D01*
X157292389Y-102938100D01*
X157292390Y-102938100D01*
X157465610Y-102938100D01*
X157465611Y-102938100D01*
X157636701Y-102911002D01*
X157801445Y-102857473D01*
X157955788Y-102778832D01*
X158095928Y-102677014D01*
X158218414Y-102554528D01*
X158320232Y-102414388D01*
X158398873Y-102260045D01*
X158452402Y-102095301D01*
X158479500Y-101924211D01*
X158479500Y-101789389D01*
X165072500Y-101789389D01*
X165072500Y-101962611D01*
X165099598Y-102133701D01*
X165153127Y-102298445D01*
X165231768Y-102452788D01*
X165333586Y-102592928D01*
X165456072Y-102715414D01*
X165596212Y-102817232D01*
X165750555Y-102895873D01*
X165915299Y-102949402D01*
X166086389Y-102976500D01*
X166086390Y-102976500D01*
X166259610Y-102976500D01*
X166259611Y-102976500D01*
X166430701Y-102949402D01*
X166595445Y-102895873D01*
X166749788Y-102817232D01*
X166889928Y-102715414D01*
X167012414Y-102592928D01*
X167114232Y-102452788D01*
X167192873Y-102298445D01*
X167246402Y-102133701D01*
X167273500Y-101962611D01*
X167273500Y-101789389D01*
X167612500Y-101789389D01*
X167612500Y-101962611D01*
X167639598Y-102133701D01*
X167693127Y-102298445D01*
X167771768Y-102452788D01*
X167873586Y-102592928D01*
X167996072Y-102715414D01*
X168136212Y-102817232D01*
X168290555Y-102895873D01*
X168455299Y-102949402D01*
X168626389Y-102976500D01*
X168626390Y-102976500D01*
X168799610Y-102976500D01*
X168799611Y-102976500D01*
X168970701Y-102949402D01*
X169135445Y-102895873D01*
X169289788Y-102817232D01*
X169429928Y-102715414D01*
X169552414Y-102592928D01*
X169654232Y-102452788D01*
X169732873Y-102298445D01*
X169786402Y-102133701D01*
X169813500Y-101962611D01*
X169813500Y-101789389D01*
X169786402Y-101618299D01*
X169732873Y-101453555D01*
X169654232Y-101299212D01*
X169552414Y-101159072D01*
X169429928Y-101036586D01*
X169289788Y-100934768D01*
X169135445Y-100856127D01*
X168970701Y-100802598D01*
X168970699Y-100802597D01*
X168970698Y-100802597D01*
X168839271Y-100781781D01*
X168799611Y-100775500D01*
X168626389Y-100775500D01*
X168586728Y-100781781D01*
X168455302Y-100802597D01*
X168290552Y-100856128D01*
X168136211Y-100934768D01*
X168056256Y-100992859D01*
X167996072Y-101036586D01*
X167996070Y-101036588D01*
X167996069Y-101036588D01*
X167873588Y-101159069D01*
X167873588Y-101159070D01*
X167873586Y-101159072D01*
X167829859Y-101219256D01*
X167771768Y-101299211D01*
X167693128Y-101453552D01*
X167639597Y-101618302D01*
X167618582Y-101750989D01*
X167612500Y-101789389D01*
X167273500Y-101789389D01*
X167246402Y-101618299D01*
X167192873Y-101453555D01*
X167114232Y-101299212D01*
X167012414Y-101159072D01*
X166889928Y-101036586D01*
X166749788Y-100934768D01*
X166595445Y-100856127D01*
X166430701Y-100802598D01*
X166430699Y-100802597D01*
X166430698Y-100802597D01*
X166299271Y-100781781D01*
X166259611Y-100775500D01*
X166086389Y-100775500D01*
X166046728Y-100781781D01*
X165915302Y-100802597D01*
X165750552Y-100856128D01*
X165596211Y-100934768D01*
X165516256Y-100992859D01*
X165456072Y-101036586D01*
X165456070Y-101036588D01*
X165456069Y-101036588D01*
X165333588Y-101159069D01*
X165333588Y-101159070D01*
X165333586Y-101159072D01*
X165289859Y-101219256D01*
X165231768Y-101299211D01*
X165153128Y-101453552D01*
X165099597Y-101618302D01*
X165078582Y-101750989D01*
X165072500Y-101789389D01*
X158479500Y-101789389D01*
X158479500Y-101750989D01*
X158452402Y-101579899D01*
X158402000Y-101424781D01*
X158400006Y-101354942D01*
X158432249Y-101298786D01*
X160481647Y-99249389D01*
X165072500Y-99249389D01*
X165072500Y-99422611D01*
X165099598Y-99593701D01*
X165153127Y-99758445D01*
X165231768Y-99912788D01*
X165333586Y-100052928D01*
X165456072Y-100175414D01*
X165596212Y-100277232D01*
X165750555Y-100355873D01*
X165915299Y-100409402D01*
X166086389Y-100436500D01*
X166086390Y-100436500D01*
X166259610Y-100436500D01*
X166259611Y-100436500D01*
X166430701Y-100409402D01*
X166595445Y-100355873D01*
X166749788Y-100277232D01*
X166889928Y-100175414D01*
X167012414Y-100052928D01*
X167114232Y-99912788D01*
X167192873Y-99758445D01*
X167246402Y-99593701D01*
X167273500Y-99422611D01*
X167273500Y-99249389D01*
X167612500Y-99249389D01*
X167612500Y-99422611D01*
X167639598Y-99593701D01*
X167693127Y-99758445D01*
X167771768Y-99912788D01*
X167873586Y-100052928D01*
X167996072Y-100175414D01*
X168136212Y-100277232D01*
X168290555Y-100355873D01*
X168455299Y-100409402D01*
X168626389Y-100436500D01*
X168626390Y-100436500D01*
X168799610Y-100436500D01*
X168799611Y-100436500D01*
X168970701Y-100409402D01*
X169135445Y-100355873D01*
X169289788Y-100277232D01*
X169429928Y-100175414D01*
X169552414Y-100052928D01*
X169654232Y-99912788D01*
X169732873Y-99758445D01*
X169786402Y-99593701D01*
X169813500Y-99422611D01*
X169813500Y-99249389D01*
X169786402Y-99078299D01*
X169732873Y-98913555D01*
X169654232Y-98759212D01*
X169552414Y-98619072D01*
X169429928Y-98496586D01*
X169289788Y-98394768D01*
X169135445Y-98316127D01*
X168970701Y-98262598D01*
X168970699Y-98262597D01*
X168970698Y-98262597D01*
X168829772Y-98240277D01*
X168799611Y-98235500D01*
X168626389Y-98235500D01*
X168596228Y-98240277D01*
X168455302Y-98262597D01*
X168290552Y-98316128D01*
X168136211Y-98394768D01*
X168060846Y-98449525D01*
X167996072Y-98496586D01*
X167996070Y-98496588D01*
X167996069Y-98496588D01*
X167873588Y-98619069D01*
X167873588Y-98619070D01*
X167873586Y-98619072D01*
X167829859Y-98679256D01*
X167771768Y-98759211D01*
X167693128Y-98913552D01*
X167639597Y-99078302D01*
X167620985Y-99195818D01*
X167612500Y-99249389D01*
X167273500Y-99249389D01*
X167246402Y-99078299D01*
X167192873Y-98913555D01*
X167114232Y-98759212D01*
X167012414Y-98619072D01*
X166889928Y-98496586D01*
X166749788Y-98394768D01*
X166595445Y-98316127D01*
X166430701Y-98262598D01*
X166430699Y-98262597D01*
X166430698Y-98262597D01*
X166289772Y-98240277D01*
X166259611Y-98235500D01*
X166086389Y-98235500D01*
X166056228Y-98240277D01*
X165915302Y-98262597D01*
X165750552Y-98316128D01*
X165596211Y-98394768D01*
X165520846Y-98449525D01*
X165456072Y-98496586D01*
X165456070Y-98496588D01*
X165456069Y-98496588D01*
X165333588Y-98619069D01*
X165333588Y-98619070D01*
X165333586Y-98619072D01*
X165289859Y-98679256D01*
X165231768Y-98759211D01*
X165153128Y-98913552D01*
X165099597Y-99078302D01*
X165080985Y-99195818D01*
X165072500Y-99249389D01*
X160481647Y-99249389D01*
X163021648Y-96709389D01*
X165072500Y-96709389D01*
X165072500Y-96882611D01*
X165099598Y-97053701D01*
X165153127Y-97218445D01*
X165231768Y-97372788D01*
X165333586Y-97512928D01*
X165456072Y-97635414D01*
X165596212Y-97737232D01*
X165750555Y-97815873D01*
X165915299Y-97869402D01*
X166086389Y-97896500D01*
X166086390Y-97896500D01*
X166259610Y-97896500D01*
X166259611Y-97896500D01*
X166430701Y-97869402D01*
X166595445Y-97815873D01*
X166749788Y-97737232D01*
X166889928Y-97635414D01*
X167012414Y-97512928D01*
X167114232Y-97372788D01*
X167192873Y-97218445D01*
X167246402Y-97053701D01*
X167273500Y-96882611D01*
X167273500Y-96709389D01*
X167612500Y-96709389D01*
X167612500Y-96882611D01*
X167639598Y-97053701D01*
X167693127Y-97218445D01*
X167771768Y-97372788D01*
X167873586Y-97512928D01*
X167996072Y-97635414D01*
X168136212Y-97737232D01*
X168290555Y-97815873D01*
X168455299Y-97869402D01*
X168626389Y-97896500D01*
X168626390Y-97896500D01*
X168799610Y-97896500D01*
X168799611Y-97896500D01*
X168970701Y-97869402D01*
X169135445Y-97815873D01*
X169289788Y-97737232D01*
X169429928Y-97635414D01*
X169552414Y-97512928D01*
X169654232Y-97372788D01*
X169732873Y-97218445D01*
X169786402Y-97053701D01*
X169813500Y-96882611D01*
X169813500Y-96709389D01*
X169786402Y-96538299D01*
X169732873Y-96373555D01*
X169654232Y-96219212D01*
X169552414Y-96079072D01*
X169429928Y-95956586D01*
X169289788Y-95854768D01*
X169135445Y-95776127D01*
X168970701Y-95722598D01*
X168970699Y-95722597D01*
X168970698Y-95722597D01*
X168839271Y-95701781D01*
X168799611Y-95695500D01*
X168626389Y-95695500D01*
X168586728Y-95701781D01*
X168455302Y-95722597D01*
X168290552Y-95776128D01*
X168136211Y-95854768D01*
X168056256Y-95912859D01*
X167996072Y-95956586D01*
X167996070Y-95956588D01*
X167996069Y-95956588D01*
X167873588Y-96079069D01*
X167873588Y-96079070D01*
X167873586Y-96079072D01*
X167829859Y-96139256D01*
X167771768Y-96219211D01*
X167693128Y-96373552D01*
X167639597Y-96538302D01*
X167627159Y-96616836D01*
X167612500Y-96709389D01*
X167273500Y-96709389D01*
X167246402Y-96538299D01*
X167192873Y-96373555D01*
X167114232Y-96219212D01*
X167012414Y-96079072D01*
X166889928Y-95956586D01*
X166749788Y-95854768D01*
X166595445Y-95776127D01*
X166430701Y-95722598D01*
X166430699Y-95722597D01*
X166430698Y-95722597D01*
X166299271Y-95701781D01*
X166259611Y-95695500D01*
X166086389Y-95695500D01*
X166046728Y-95701781D01*
X165915302Y-95722597D01*
X165750552Y-95776128D01*
X165596211Y-95854768D01*
X165516256Y-95912859D01*
X165456072Y-95956586D01*
X165456070Y-95956588D01*
X165456069Y-95956588D01*
X165333588Y-96079069D01*
X165333588Y-96079070D01*
X165333586Y-96079072D01*
X165289859Y-96139256D01*
X165231768Y-96219211D01*
X165153128Y-96373552D01*
X165099597Y-96538302D01*
X165087159Y-96616836D01*
X165072500Y-96709389D01*
X163021648Y-96709389D01*
X164100474Y-95630563D01*
X164100475Y-95630562D01*
X164149910Y-95544938D01*
X164175500Y-95449435D01*
X164175500Y-94169389D01*
X165072500Y-94169389D01*
X165072500Y-94342611D01*
X165099598Y-94513701D01*
X165153127Y-94678445D01*
X165231768Y-94832788D01*
X165333586Y-94972928D01*
X165456072Y-95095414D01*
X165596212Y-95197232D01*
X165750555Y-95275873D01*
X165915299Y-95329402D01*
X166086389Y-95356500D01*
X166086390Y-95356500D01*
X166259610Y-95356500D01*
X166259611Y-95356500D01*
X166430701Y-95329402D01*
X166595445Y-95275873D01*
X166749788Y-95197232D01*
X166889928Y-95095414D01*
X167012414Y-94972928D01*
X167114232Y-94832788D01*
X167192873Y-94678445D01*
X167246402Y-94513701D01*
X167273500Y-94342611D01*
X167273500Y-94169389D01*
X167612500Y-94169389D01*
X167612500Y-94342611D01*
X167639598Y-94513701D01*
X167693127Y-94678445D01*
X167771768Y-94832788D01*
X167873586Y-94972928D01*
X167996072Y-95095414D01*
X168136212Y-95197232D01*
X168290555Y-95275873D01*
X168455299Y-95329402D01*
X168626389Y-95356500D01*
X168626390Y-95356500D01*
X168799610Y-95356500D01*
X168799611Y-95356500D01*
X168970701Y-95329402D01*
X169135445Y-95275873D01*
X169289788Y-95197232D01*
X169429928Y-95095414D01*
X169552414Y-94972928D01*
X169654232Y-94832788D01*
X169732873Y-94678445D01*
X169786402Y-94513701D01*
X169813500Y-94342611D01*
X169813500Y-94169389D01*
X169786402Y-93998299D01*
X169732873Y-93833555D01*
X169654232Y-93679212D01*
X169552414Y-93539072D01*
X169429928Y-93416586D01*
X169289788Y-93314768D01*
X169135445Y-93236127D01*
X168970701Y-93182598D01*
X168970699Y-93182597D01*
X168970698Y-93182597D01*
X168839271Y-93161781D01*
X168799611Y-93155500D01*
X168626389Y-93155500D01*
X168586728Y-93161781D01*
X168455302Y-93182597D01*
X168290552Y-93236128D01*
X168136211Y-93314768D01*
X168056256Y-93372859D01*
X167996072Y-93416586D01*
X167996070Y-93416588D01*
X167996069Y-93416588D01*
X167873588Y-93539069D01*
X167873588Y-93539070D01*
X167873586Y-93539072D01*
X167829859Y-93599256D01*
X167771768Y-93679211D01*
X167693128Y-93833552D01*
X167639597Y-93998302D01*
X167622355Y-94107164D01*
X167612500Y-94169389D01*
X167273500Y-94169389D01*
X167246402Y-93998299D01*
X167192873Y-93833555D01*
X167114232Y-93679212D01*
X167012414Y-93539072D01*
X166889928Y-93416586D01*
X166749788Y-93314768D01*
X166595445Y-93236127D01*
X166430701Y-93182598D01*
X166430699Y-93182597D01*
X166430698Y-93182597D01*
X166299271Y-93161781D01*
X166259611Y-93155500D01*
X166086389Y-93155500D01*
X166046728Y-93161781D01*
X165915302Y-93182597D01*
X165750552Y-93236128D01*
X165596211Y-93314768D01*
X165516256Y-93372859D01*
X165456072Y-93416586D01*
X165456070Y-93416588D01*
X165456069Y-93416588D01*
X165333588Y-93539069D01*
X165333588Y-93539070D01*
X165333586Y-93539072D01*
X165289859Y-93599256D01*
X165231768Y-93679211D01*
X165153128Y-93833552D01*
X165099597Y-93998302D01*
X165082355Y-94107164D01*
X165072500Y-94169389D01*
X164175500Y-94169389D01*
X164175500Y-91629389D01*
X165072500Y-91629389D01*
X165072500Y-91802611D01*
X165099598Y-91973701D01*
X165153127Y-92138445D01*
X165231768Y-92292788D01*
X165333586Y-92432928D01*
X165456072Y-92555414D01*
X165596212Y-92657232D01*
X165750555Y-92735873D01*
X165915299Y-92789402D01*
X166086389Y-92816500D01*
X166086390Y-92816500D01*
X166259610Y-92816500D01*
X166259611Y-92816500D01*
X166430701Y-92789402D01*
X166595445Y-92735873D01*
X166749788Y-92657232D01*
X166889928Y-92555414D01*
X167012414Y-92432928D01*
X167114232Y-92292788D01*
X167192873Y-92138445D01*
X167246402Y-91973701D01*
X167273500Y-91802611D01*
X167273500Y-91629389D01*
X167612500Y-91629389D01*
X167612500Y-91802611D01*
X167639598Y-91973701D01*
X167693127Y-92138445D01*
X167771768Y-92292788D01*
X167873586Y-92432928D01*
X167996072Y-92555414D01*
X168136212Y-92657232D01*
X168290555Y-92735873D01*
X168455299Y-92789402D01*
X168626389Y-92816500D01*
X168626390Y-92816500D01*
X168799610Y-92816500D01*
X168799611Y-92816500D01*
X168970701Y-92789402D01*
X169135445Y-92735873D01*
X169289788Y-92657232D01*
X169429928Y-92555414D01*
X169552414Y-92432928D01*
X169654232Y-92292788D01*
X169732873Y-92138445D01*
X169786402Y-91973701D01*
X169813500Y-91802611D01*
X169813500Y-91629389D01*
X169786402Y-91458299D01*
X169732873Y-91293555D01*
X169654232Y-91139212D01*
X169552414Y-90999072D01*
X169429928Y-90876586D01*
X169289788Y-90774768D01*
X169135445Y-90696127D01*
X168970701Y-90642598D01*
X168970699Y-90642597D01*
X168970698Y-90642597D01*
X168839271Y-90621781D01*
X168799611Y-90615500D01*
X168626389Y-90615500D01*
X168586728Y-90621781D01*
X168455302Y-90642597D01*
X168290552Y-90696128D01*
X168136211Y-90774768D01*
X168056256Y-90832859D01*
X167996072Y-90876586D01*
X167996070Y-90876588D01*
X167996069Y-90876588D01*
X167873588Y-90999069D01*
X167873588Y-90999070D01*
X167873586Y-90999072D01*
X167829859Y-91059256D01*
X167771768Y-91139211D01*
X167693128Y-91293552D01*
X167639597Y-91458302D01*
X167618582Y-91590989D01*
X167612500Y-91629389D01*
X167273500Y-91629389D01*
X167246402Y-91458299D01*
X167192873Y-91293555D01*
X167114232Y-91139212D01*
X167012414Y-90999072D01*
X166889928Y-90876586D01*
X166749788Y-90774768D01*
X166595445Y-90696127D01*
X166430701Y-90642598D01*
X166430699Y-90642597D01*
X166430698Y-90642597D01*
X166299271Y-90621781D01*
X166259611Y-90615500D01*
X166086389Y-90615500D01*
X166046728Y-90621781D01*
X165915302Y-90642597D01*
X165750552Y-90696128D01*
X165596211Y-90774768D01*
X165516256Y-90832859D01*
X165456072Y-90876586D01*
X165456070Y-90876588D01*
X165456069Y-90876588D01*
X165333588Y-90999069D01*
X165333588Y-90999070D01*
X165333586Y-90999072D01*
X165289859Y-91059256D01*
X165231768Y-91139211D01*
X165153128Y-91293552D01*
X165099597Y-91458302D01*
X165078582Y-91590989D01*
X165072500Y-91629389D01*
X164175500Y-91629389D01*
X164175500Y-88301321D01*
X165072500Y-88301321D01*
X165072500Y-90050678D01*
X165087032Y-90123735D01*
X165087033Y-90123739D01*
X165087034Y-90123740D01*
X165142399Y-90206601D01*
X165225260Y-90261966D01*
X165225264Y-90261967D01*
X165298321Y-90276499D01*
X165298324Y-90276500D01*
X165298326Y-90276500D01*
X167047676Y-90276500D01*
X167047677Y-90276499D01*
X167120740Y-90261966D01*
X167203601Y-90206601D01*
X167258966Y-90123740D01*
X167273500Y-90050674D01*
X167273500Y-89089389D01*
X167612500Y-89089389D01*
X167612500Y-89262610D01*
X167638882Y-89429185D01*
X167639598Y-89433701D01*
X167693127Y-89598445D01*
X167771768Y-89752788D01*
X167873586Y-89892928D01*
X167996072Y-90015414D01*
X168136212Y-90117232D01*
X168290555Y-90195873D01*
X168455299Y-90249402D01*
X168626389Y-90276500D01*
X168626390Y-90276500D01*
X168799610Y-90276500D01*
X168799611Y-90276500D01*
X168970701Y-90249402D01*
X169135445Y-90195873D01*
X169289788Y-90117232D01*
X169429928Y-90015414D01*
X169552414Y-89892928D01*
X169654232Y-89752788D01*
X169732873Y-89598445D01*
X169786402Y-89433701D01*
X169813500Y-89262611D01*
X169813500Y-89089389D01*
X169786402Y-88918299D01*
X169732873Y-88753555D01*
X169654232Y-88599212D01*
X169552414Y-88459072D01*
X169429928Y-88336586D01*
X169289788Y-88234768D01*
X169135445Y-88156127D01*
X168970701Y-88102598D01*
X168970699Y-88102597D01*
X168970698Y-88102597D01*
X168839271Y-88081781D01*
X168799611Y-88075500D01*
X168626389Y-88075500D01*
X168586728Y-88081781D01*
X168455302Y-88102597D01*
X168455299Y-88102598D01*
X168347920Y-88137488D01*
X168290552Y-88156128D01*
X168136211Y-88234768D01*
X168056256Y-88292859D01*
X167996072Y-88336586D01*
X167996070Y-88336588D01*
X167996069Y-88336588D01*
X167873588Y-88459069D01*
X167873588Y-88459070D01*
X167873586Y-88459072D01*
X167841779Y-88502850D01*
X167771768Y-88599211D01*
X167693128Y-88753552D01*
X167639597Y-88918302D01*
X167612500Y-89089389D01*
X167273500Y-89089389D01*
X167273500Y-88301326D01*
X167273500Y-88301323D01*
X167273499Y-88301321D01*
X167258967Y-88228264D01*
X167258966Y-88228260D01*
X167252123Y-88218018D01*
X167203601Y-88145399D01*
X167139542Y-88102597D01*
X167120739Y-88090033D01*
X167120735Y-88090032D01*
X167047677Y-88075500D01*
X167047674Y-88075500D01*
X165298326Y-88075500D01*
X165298323Y-88075500D01*
X165225264Y-88090032D01*
X165225260Y-88090033D01*
X165142399Y-88145399D01*
X165087033Y-88228260D01*
X165087032Y-88228264D01*
X165072500Y-88301321D01*
X164175500Y-88301321D01*
X164175500Y-85606899D01*
X164195185Y-85539860D01*
X164211819Y-85519218D01*
X165415740Y-84315297D01*
X166638016Y-83093020D01*
X166699337Y-83059537D01*
X166769029Y-83064521D01*
X166781991Y-83070219D01*
X166810550Y-83084771D01*
X166810552Y-83084771D01*
X166810555Y-83084773D01*
X166975299Y-83138302D01*
X167146389Y-83165400D01*
X167146390Y-83165400D01*
X167319610Y-83165400D01*
X167319611Y-83165400D01*
X167490701Y-83138302D01*
X167655445Y-83084773D01*
X167809788Y-83006132D01*
X167949928Y-82904314D01*
X168072414Y-82781828D01*
X168174232Y-82641688D01*
X168252873Y-82487345D01*
X168253896Y-82484194D01*
X168254610Y-82483150D01*
X168254734Y-82482852D01*
X168254796Y-82482877D01*
X168293327Y-82426518D01*
X168357683Y-82399315D01*
X168426530Y-82411223D01*
X168478011Y-82458462D01*
X168489760Y-82484187D01*
X168521904Y-82583117D01*
X168618375Y-82772450D01*
X168657728Y-82826616D01*
X169290037Y-82194308D01*
X169307075Y-82257893D01*
X169372901Y-82371907D01*
X169465993Y-82464999D01*
X169580007Y-82530825D01*
X169643590Y-82547862D01*
X169011282Y-83180169D01*
X169011282Y-83180170D01*
X169065449Y-83219524D01*
X169254782Y-83315995D01*
X169456870Y-83381657D01*
X169666754Y-83414900D01*
X169879246Y-83414900D01*
X170089127Y-83381657D01*
X170089130Y-83381657D01*
X170291217Y-83315995D01*
X170480554Y-83219522D01*
X170534716Y-83180170D01*
X170534717Y-83180170D01*
X169902408Y-82547862D01*
X169965993Y-82530825D01*
X170080007Y-82464999D01*
X170173099Y-82371907D01*
X170238925Y-82257893D01*
X170255962Y-82194308D01*
X170888270Y-82826617D01*
X170888270Y-82826616D01*
X170927622Y-82772454D01*
X171024095Y-82583117D01*
X171089757Y-82381030D01*
X171089757Y-82381027D01*
X171123000Y-82171146D01*
X171123000Y-81958653D01*
X171089757Y-81748772D01*
X171089757Y-81748769D01*
X171024095Y-81546682D01*
X170927624Y-81357349D01*
X170888270Y-81303182D01*
X170888269Y-81303182D01*
X170255962Y-81935490D01*
X170238925Y-81871907D01*
X170173099Y-81757893D01*
X170080007Y-81664801D01*
X169965993Y-81598975D01*
X169902409Y-81581937D01*
X170534716Y-80949628D01*
X170480550Y-80910275D01*
X170291217Y-80813804D01*
X170089129Y-80748142D01*
X169879246Y-80714900D01*
X169666754Y-80714900D01*
X169456872Y-80748142D01*
X169456869Y-80748142D01*
X169254782Y-80813804D01*
X169065439Y-80910280D01*
X169011282Y-80949627D01*
X169011282Y-80949628D01*
X169643591Y-81581937D01*
X169580007Y-81598975D01*
X169465993Y-81664801D01*
X169372901Y-81757893D01*
X169307075Y-81871907D01*
X169290037Y-81935491D01*
X168657728Y-81303182D01*
X168657727Y-81303182D01*
X168618380Y-81357339D01*
X168521904Y-81546683D01*
X168489760Y-81645612D01*
X168450322Y-81703288D01*
X168385964Y-81730486D01*
X168317117Y-81718571D01*
X168265642Y-81671327D01*
X168253898Y-81645612D01*
X168252873Y-81642455D01*
X168174232Y-81488112D01*
X168072414Y-81347972D01*
X167949928Y-81225486D01*
X167809788Y-81123668D01*
X167705898Y-81070734D01*
X167655447Y-81045028D01*
X167655446Y-81045027D01*
X167655445Y-81045027D01*
X167490701Y-80991498D01*
X167490699Y-80991497D01*
X167490698Y-80991497D01*
X167359271Y-80970681D01*
X167319611Y-80964400D01*
X167146389Y-80964400D01*
X167106728Y-80970681D01*
X166975302Y-80991497D01*
X166810552Y-81045028D01*
X166656211Y-81123668D01*
X166619969Y-81150000D01*
X166516072Y-81225486D01*
X166516070Y-81225488D01*
X166516069Y-81225488D01*
X166393588Y-81347969D01*
X166393588Y-81347970D01*
X166393586Y-81347972D01*
X166349859Y-81408156D01*
X166291768Y-81488111D01*
X166213128Y-81642452D01*
X166159597Y-81807202D01*
X166132500Y-81978289D01*
X166132500Y-82151510D01*
X166159598Y-82322602D01*
X166159598Y-82322605D01*
X166181917Y-82391294D01*
X166183912Y-82461135D01*
X166151667Y-82517293D01*
X166005180Y-82663780D01*
X165943859Y-82697265D01*
X165874167Y-82692281D01*
X165818233Y-82650410D01*
X165793816Y-82584945D01*
X165793500Y-82576099D01*
X165793500Y-81190223D01*
X165793499Y-81190221D01*
X165778967Y-81117164D01*
X165778966Y-81117160D01*
X165764259Y-81095149D01*
X165723601Y-81034299D01*
X165640740Y-80978934D01*
X165640739Y-80978933D01*
X165640735Y-80978932D01*
X165567677Y-80964400D01*
X165567674Y-80964400D01*
X163818326Y-80964400D01*
X163818323Y-80964400D01*
X163745264Y-80978932D01*
X163745260Y-80978933D01*
X163662399Y-81034299D01*
X163607033Y-81117160D01*
X163607032Y-81117164D01*
X163592500Y-81190221D01*
X163592500Y-82583001D01*
X163572815Y-82650040D01*
X163556181Y-82670682D01*
X162499526Y-83727336D01*
X162450091Y-83812959D01*
X162450091Y-83812960D01*
X162450090Y-83812962D01*
X162424500Y-83908465D01*
X162424500Y-83908467D01*
X162424500Y-93669700D01*
X162404815Y-93736739D01*
X162388181Y-93757381D01*
X157905284Y-98240277D01*
X157843961Y-98273762D01*
X157779286Y-98270527D01*
X157636701Y-98224198D01*
X157636699Y-98224197D01*
X157636698Y-98224197D01*
X157505271Y-98203381D01*
X157465611Y-98197100D01*
X157292389Y-98197100D01*
X157252728Y-98203381D01*
X157121302Y-98224197D01*
X156956552Y-98277728D01*
X156802211Y-98356368D01*
X156722256Y-98414459D01*
X156662072Y-98458186D01*
X156662070Y-98458188D01*
X156662069Y-98458188D01*
X156539588Y-98580669D01*
X156539588Y-98580670D01*
X156539586Y-98580672D01*
X156511689Y-98619069D01*
X156437768Y-98720811D01*
X156359128Y-98875152D01*
X156305597Y-99039902D01*
X156292040Y-99125500D01*
X156278500Y-99210989D01*
X152743426Y-99210989D01*
X151031963Y-97499526D01*
X151031962Y-97499525D01*
X150946338Y-97450090D01*
X150898586Y-97437295D01*
X150898584Y-97437294D01*
X150898582Y-97437293D01*
X150850836Y-97424500D01*
X150850835Y-97424500D01*
X148155900Y-97424500D01*
X148134654Y-97418261D01*
X148112566Y-97416682D01*
X148101782Y-97408609D01*
X148088861Y-97404815D01*
X148074361Y-97388081D01*
X148056633Y-97374810D01*
X148051925Y-97362189D01*
X148043106Y-97352011D01*
X148039954Y-97330093D01*
X148032216Y-97309346D01*
X148035078Y-97296185D01*
X148033162Y-97282853D01*
X148042361Y-97262709D01*
X148047068Y-97241073D01*
X148060336Y-97223347D01*
X148062187Y-97219297D01*
X148068219Y-97212819D01*
X148111619Y-97169419D01*
X148172942Y-97135934D01*
X148199300Y-97133100D01*
X156259220Y-97133100D01*
X156326259Y-97152785D01*
X156369705Y-97200806D01*
X156437766Y-97334386D01*
X156465667Y-97372788D01*
X156539586Y-97474528D01*
X156662072Y-97597014D01*
X156802212Y-97698832D01*
X156956555Y-97777473D01*
X157121299Y-97831002D01*
X157292389Y-97858100D01*
X157292390Y-97858100D01*
X157465610Y-97858100D01*
X157465611Y-97858100D01*
X157636701Y-97831002D01*
X157801445Y-97777473D01*
X157955788Y-97698832D01*
X158095928Y-97597014D01*
X158218414Y-97474528D01*
X158320232Y-97334388D01*
X158398873Y-97180045D01*
X158452402Y-97015301D01*
X158479500Y-96844211D01*
X158479500Y-96670989D01*
X158452402Y-96499899D01*
X158398873Y-96335155D01*
X158320232Y-96180812D01*
X158218414Y-96040672D01*
X158095928Y-95918186D01*
X157955788Y-95816368D01*
X157801445Y-95737727D01*
X157636701Y-95684198D01*
X157636699Y-95684197D01*
X157636698Y-95684197D01*
X157505271Y-95663381D01*
X157465611Y-95657100D01*
X157292389Y-95657100D01*
X157252728Y-95663381D01*
X157121302Y-95684197D01*
X156956552Y-95737728D01*
X156802211Y-95816368D01*
X156749359Y-95854768D01*
X156662072Y-95918186D01*
X156662070Y-95918188D01*
X156662069Y-95918188D01*
X156539588Y-96040669D01*
X156539588Y-96040670D01*
X156539586Y-96040672D01*
X156511689Y-96079069D01*
X156437766Y-96180813D01*
X156369705Y-96314394D01*
X156321731Y-96365191D01*
X156259220Y-96382100D01*
X148448300Y-96382100D01*
X148381261Y-96362415D01*
X148335506Y-96309611D01*
X148325562Y-96240453D01*
X148354587Y-96176897D01*
X148360619Y-96170419D01*
X149901619Y-94629419D01*
X149962942Y-94595934D01*
X149989300Y-94593100D01*
X156259220Y-94593100D01*
X156326259Y-94612785D01*
X156369705Y-94660806D01*
X156437766Y-94794386D01*
X156440612Y-94798303D01*
X156539586Y-94934528D01*
X156662072Y-95057014D01*
X156802212Y-95158832D01*
X156956555Y-95237473D01*
X157121299Y-95291002D01*
X157292389Y-95318100D01*
X157292390Y-95318100D01*
X157465610Y-95318100D01*
X157465611Y-95318100D01*
X157636701Y-95291002D01*
X157801445Y-95237473D01*
X157955788Y-95158832D01*
X158095928Y-95057014D01*
X158218414Y-94934528D01*
X158320232Y-94794388D01*
X158398873Y-94640045D01*
X158452402Y-94475301D01*
X158479500Y-94304211D01*
X158479500Y-94130989D01*
X158452402Y-93959899D01*
X158398873Y-93795155D01*
X158320232Y-93640812D01*
X158218414Y-93500672D01*
X158095928Y-93378186D01*
X157955788Y-93276368D01*
X157801445Y-93197727D01*
X157636701Y-93144198D01*
X157636699Y-93144197D01*
X157636698Y-93144197D01*
X157505271Y-93123381D01*
X157465611Y-93117100D01*
X157292389Y-93117100D01*
X157252728Y-93123381D01*
X157121302Y-93144197D01*
X156956552Y-93197728D01*
X156802211Y-93276368D01*
X156749359Y-93314768D01*
X156662072Y-93378186D01*
X156662070Y-93378188D01*
X156662069Y-93378188D01*
X156539588Y-93500669D01*
X156539588Y-93500670D01*
X156539586Y-93500672D01*
X156511689Y-93539069D01*
X156437766Y-93640813D01*
X156369705Y-93774394D01*
X156321731Y-93825191D01*
X156259220Y-93842100D01*
X150088300Y-93842100D01*
X150021261Y-93822415D01*
X149975506Y-93769611D01*
X149965562Y-93700453D01*
X149994587Y-93636897D01*
X150000619Y-93630419D01*
X151541619Y-92089419D01*
X151602942Y-92055934D01*
X151629300Y-92053100D01*
X156259220Y-92053100D01*
X156326259Y-92072785D01*
X156369705Y-92120806D01*
X156437766Y-92254386D01*
X156440612Y-92258303D01*
X156539586Y-92394528D01*
X156662072Y-92517014D01*
X156802212Y-92618832D01*
X156956555Y-92697473D01*
X157121299Y-92751002D01*
X157292389Y-92778100D01*
X157292390Y-92778100D01*
X157465610Y-92778100D01*
X157465611Y-92778100D01*
X157636701Y-92751002D01*
X157801445Y-92697473D01*
X157955788Y-92618832D01*
X158095928Y-92517014D01*
X158218414Y-92394528D01*
X158320232Y-92254388D01*
X158398873Y-92100045D01*
X158452402Y-91935301D01*
X158479500Y-91764211D01*
X158479500Y-91590989D01*
X158452402Y-91419899D01*
X158398873Y-91255155D01*
X158320232Y-91100812D01*
X158218414Y-90960672D01*
X158095928Y-90838186D01*
X157955788Y-90736368D01*
X157801445Y-90657727D01*
X157636701Y-90604198D01*
X157636699Y-90604197D01*
X157636698Y-90604197D01*
X157505271Y-90583381D01*
X157465611Y-90577100D01*
X157292389Y-90577100D01*
X157252728Y-90583381D01*
X157121302Y-90604197D01*
X156956552Y-90657728D01*
X156802211Y-90736368D01*
X156749359Y-90774768D01*
X156662072Y-90838186D01*
X156662070Y-90838188D01*
X156662069Y-90838188D01*
X156539588Y-90960669D01*
X156539588Y-90960670D01*
X156539586Y-90960672D01*
X156511689Y-90999069D01*
X156437766Y-91100813D01*
X156369705Y-91234394D01*
X156321731Y-91285191D01*
X156259220Y-91302100D01*
X151778299Y-91302100D01*
X151711260Y-91282415D01*
X151665505Y-91229611D01*
X151655561Y-91160453D01*
X151684586Y-91096897D01*
X151690618Y-91090419D01*
X153231618Y-89549419D01*
X153292941Y-89515934D01*
X153319299Y-89513100D01*
X156259220Y-89513100D01*
X156326259Y-89532785D01*
X156369705Y-89580806D01*
X156437766Y-89714386D01*
X156465200Y-89752145D01*
X156539586Y-89854528D01*
X156662072Y-89977014D01*
X156802212Y-90078832D01*
X156956555Y-90157473D01*
X157121299Y-90211002D01*
X157292389Y-90238100D01*
X157292390Y-90238100D01*
X157465610Y-90238100D01*
X157465611Y-90238100D01*
X157636701Y-90211002D01*
X157801445Y-90157473D01*
X157955788Y-90078832D01*
X158095928Y-89977014D01*
X158218414Y-89854528D01*
X158320232Y-89714388D01*
X158398873Y-89560045D01*
X158452402Y-89395301D01*
X158479500Y-89224211D01*
X158479500Y-89050989D01*
X158452402Y-88879899D01*
X158398873Y-88715155D01*
X158320232Y-88560812D01*
X158218414Y-88420672D01*
X158095928Y-88298186D01*
X157955788Y-88196368D01*
X157851639Y-88143302D01*
X157801447Y-88117728D01*
X157801446Y-88117727D01*
X157801445Y-88117727D01*
X157636701Y-88064198D01*
X157636699Y-88064197D01*
X157636698Y-88064197D01*
X157505271Y-88043381D01*
X157465611Y-88037100D01*
X157292389Y-88037100D01*
X157252728Y-88043381D01*
X157121302Y-88064197D01*
X156956552Y-88117728D01*
X156802211Y-88196368D01*
X156758311Y-88228264D01*
X156662072Y-88298186D01*
X156662070Y-88298188D01*
X156662069Y-88298188D01*
X156539588Y-88420669D01*
X156539588Y-88420670D01*
X156539586Y-88420672D01*
X156538471Y-88422207D01*
X156437766Y-88560813D01*
X156369705Y-88694394D01*
X156321731Y-88745191D01*
X156259220Y-88762100D01*
X153062964Y-88762100D01*
X152967461Y-88787689D01*
X152881838Y-88837125D01*
X152881835Y-88837127D01*
X142799631Y-98919331D01*
X142738308Y-98952816D01*
X142668616Y-98947832D01*
X142612683Y-98905960D01*
X142604569Y-98893659D01*
X142577075Y-98846038D01*
X142507162Y-98776125D01*
X142180563Y-98449526D01*
X142180562Y-98449525D01*
X142094938Y-98400090D01*
X142047186Y-98387295D01*
X142047184Y-98387294D01*
X142047182Y-98387293D01*
X141999436Y-98374500D01*
X141999435Y-98374500D01*
X140484323Y-98374500D01*
X140417284Y-98354815D01*
X140371529Y-98302011D01*
X140361585Y-98232853D01*
X140390610Y-98169297D01*
X140396642Y-98162819D01*
X144216851Y-94342610D01*
X148081874Y-90477587D01*
X148107451Y-90433287D01*
X148131310Y-90391962D01*
X148131312Y-90391953D01*
X148134419Y-90384455D01*
X148136414Y-90385281D01*
X148166847Y-90335329D01*
X148220034Y-90309477D01*
X148231400Y-90299510D01*
X148631400Y-90299510D01*
X148631401Y-90299511D01*
X148688027Y-90292057D01*
X148688033Y-90292055D01*
X148833985Y-90231600D01*
X148959324Y-90135424D01*
X149055500Y-90010086D01*
X149115954Y-89864134D01*
X149115955Y-89864130D01*
X149131399Y-89746830D01*
X149131400Y-89746816D01*
X149131400Y-89270000D01*
X148631400Y-89270000D01*
X148631400Y-90299510D01*
X148231400Y-90299510D01*
X148231400Y-89752145D01*
X148231725Y-89743179D01*
X148231900Y-89740765D01*
X148231900Y-88870000D01*
X148631400Y-88870000D01*
X149131399Y-88870000D01*
X149131399Y-88393175D01*
X149115957Y-88275871D01*
X149115955Y-88275866D01*
X149055500Y-88129914D01*
X148959324Y-88004575D01*
X148833986Y-87908399D01*
X148688031Y-87847944D01*
X148631400Y-87840487D01*
X148631400Y-88870000D01*
X148231900Y-88870000D01*
X148231900Y-88399237D01*
X148231725Y-88396824D01*
X148231400Y-88387857D01*
X148231400Y-87840487D01*
X148174768Y-87847944D01*
X148028813Y-87908399D01*
X147903475Y-88004575D01*
X147881291Y-88033487D01*
X147824863Y-88074689D01*
X147782915Y-88082000D01*
X147648139Y-88082000D01*
X147580007Y-88091926D01*
X147580006Y-88091926D01*
X147510859Y-88125730D01*
X147441986Y-88137488D01*
X147401941Y-88125730D01*
X147332793Y-88091926D01*
X147264661Y-88082000D01*
X147264660Y-88082000D01*
X146998140Y-88082000D01*
X146998139Y-88082000D01*
X146930007Y-88091926D01*
X146930006Y-88091926D01*
X146860859Y-88125730D01*
X146791986Y-88137488D01*
X146751941Y-88125730D01*
X146682793Y-88091926D01*
X146614661Y-88082000D01*
X146614660Y-88082000D01*
X146348140Y-88082000D01*
X146348139Y-88082000D01*
X146280007Y-88091926D01*
X146280006Y-88091926D01*
X146210859Y-88125730D01*
X146141986Y-88137488D01*
X146101941Y-88125730D01*
X146032793Y-88091926D01*
X145964661Y-88082000D01*
X145964660Y-88082000D01*
X145698140Y-88082000D01*
X145698139Y-88082000D01*
X145630007Y-88091926D01*
X145630006Y-88091926D01*
X145560859Y-88125730D01*
X145491986Y-88137488D01*
X145451941Y-88125730D01*
X145382793Y-88091926D01*
X145314661Y-88082000D01*
X145314660Y-88082000D01*
X145048140Y-88082000D01*
X145048139Y-88082000D01*
X144980007Y-88091926D01*
X144980006Y-88091926D01*
X144910859Y-88125730D01*
X144841986Y-88137488D01*
X144801941Y-88125730D01*
X144732793Y-88091926D01*
X144664661Y-88082000D01*
X144664660Y-88082000D01*
X144398140Y-88082000D01*
X144398139Y-88082000D01*
X144330007Y-88091926D01*
X144330006Y-88091926D01*
X144260859Y-88125730D01*
X144191986Y-88137488D01*
X144151941Y-88125730D01*
X144082793Y-88091926D01*
X144014661Y-88082000D01*
X144014660Y-88082000D01*
X143748140Y-88082000D01*
X143748139Y-88082000D01*
X143680007Y-88091926D01*
X143680006Y-88091926D01*
X143610859Y-88125730D01*
X143541986Y-88137488D01*
X143501941Y-88125730D01*
X143432793Y-88091926D01*
X143364661Y-88082000D01*
X143364660Y-88082000D01*
X143098140Y-88082000D01*
X143098139Y-88082000D01*
X143030007Y-88091926D01*
X143030006Y-88091926D01*
X142960859Y-88125730D01*
X142891986Y-88137488D01*
X142851941Y-88125730D01*
X142782793Y-88091926D01*
X142714661Y-88082000D01*
X142714660Y-88082000D01*
X142448140Y-88082000D01*
X142448139Y-88082000D01*
X142380008Y-88091926D01*
X142274914Y-88143303D01*
X142192203Y-88226014D01*
X142140826Y-88331108D01*
X142130900Y-88399239D01*
X142130900Y-88584500D01*
X142128349Y-88593185D01*
X142129638Y-88602147D01*
X142118659Y-88626187D01*
X142111215Y-88651539D01*
X142104374Y-88657466D01*
X142100613Y-88665703D01*
X142078378Y-88679992D01*
X142058411Y-88697294D01*
X142047896Y-88699581D01*
X142041835Y-88703477D01*
X142006900Y-88708500D01*
X141911101Y-88708500D01*
X141844062Y-88688815D01*
X141798307Y-88636011D01*
X141794059Y-88625452D01*
X141789394Y-88612121D01*
X141789393Y-88612118D01*
X141751528Y-88560813D01*
X141708750Y-88502850D01*
X141624595Y-88440741D01*
X141582345Y-88385093D01*
X141576886Y-88315437D01*
X141609954Y-88253888D01*
X141661342Y-88222585D01*
X141675996Y-88218018D01*
X141821477Y-88130072D01*
X141941672Y-88009877D01*
X142029619Y-87864395D01*
X142080190Y-87702106D01*
X142086600Y-87631572D01*
X142086600Y-87625000D01*
X140136601Y-87625000D01*
X140136601Y-87631582D01*
X140143008Y-87702102D01*
X140143009Y-87702107D01*
X140193581Y-87864396D01*
X140281527Y-88009877D01*
X140401722Y-88130072D01*
X140547202Y-88218018D01*
X140561858Y-88222585D01*
X140620007Y-88261322D01*
X140647982Y-88325347D01*
X140636901Y-88394332D01*
X140598604Y-88440741D01*
X140514450Y-88502850D01*
X140433807Y-88612117D01*
X140433806Y-88612119D01*
X140388953Y-88740298D01*
X140388953Y-88740300D01*
X140386100Y-88770730D01*
X140386100Y-89279269D01*
X140388953Y-89309699D01*
X140388953Y-89309701D01*
X140433806Y-89437880D01*
X140433807Y-89437882D01*
X140514450Y-89547150D01*
X140623718Y-89627793D01*
X140666445Y-89642744D01*
X140751899Y-89672646D01*
X140782330Y-89675500D01*
X140782334Y-89675500D01*
X141440870Y-89675500D01*
X141471299Y-89672646D01*
X141471301Y-89672646D01*
X141535390Y-89650219D01*
X141599482Y-89627793D01*
X141708750Y-89547150D01*
X141756841Y-89481989D01*
X141773169Y-89459866D01*
X141777149Y-89456843D01*
X141779226Y-89452297D01*
X141804699Y-89435926D01*
X141828817Y-89417615D01*
X141834947Y-89416487D01*
X141838004Y-89414523D01*
X141872939Y-89409500D01*
X142006900Y-89409500D01*
X142073939Y-89429185D01*
X142119694Y-89481989D01*
X142130900Y-89533500D01*
X142130900Y-89740760D01*
X142140826Y-89808891D01*
X142158987Y-89846040D01*
X142170745Y-89914913D01*
X142143402Y-89979210D01*
X142085638Y-90018517D01*
X142047586Y-90024500D01*
X135988300Y-90024500D01*
X135921261Y-90004815D01*
X135900619Y-89988181D01*
X134511649Y-88599211D01*
X133036321Y-87123884D01*
X133033341Y-87118427D01*
X140136600Y-87118427D01*
X140136600Y-87125000D01*
X140861600Y-87125000D01*
X141361600Y-87125000D01*
X142086599Y-87125000D01*
X142086599Y-87118417D01*
X142080191Y-87047897D01*
X142080190Y-87047892D01*
X142029618Y-86885603D01*
X141941672Y-86740122D01*
X141821478Y-86619928D01*
X141821474Y-86619925D01*
X141808752Y-86612234D01*
X141808751Y-86612234D01*
X141675995Y-86531980D01*
X141675996Y-86531980D01*
X141608632Y-86510989D01*
X156278500Y-86510989D01*
X156278500Y-86684211D01*
X156305598Y-86855301D01*
X156359127Y-87020045D01*
X156437768Y-87174388D01*
X156539586Y-87314528D01*
X156662072Y-87437014D01*
X156802212Y-87538832D01*
X156956555Y-87617473D01*
X157121299Y-87671002D01*
X157292389Y-87698100D01*
X157292390Y-87698100D01*
X157465610Y-87698100D01*
X157465611Y-87698100D01*
X157636701Y-87671002D01*
X157801445Y-87617473D01*
X157955788Y-87538832D01*
X158095928Y-87437014D01*
X158218414Y-87314528D01*
X158320232Y-87174388D01*
X158398873Y-87020045D01*
X158452402Y-86855301D01*
X158479500Y-86684211D01*
X158479500Y-86510989D01*
X158452402Y-86339899D01*
X158398873Y-86175155D01*
X158320232Y-86020812D01*
X158218414Y-85880672D01*
X158095928Y-85758186D01*
X157955788Y-85656368D01*
X157801445Y-85577727D01*
X157636701Y-85524198D01*
X157636699Y-85524197D01*
X157636698Y-85524197D01*
X157505271Y-85503381D01*
X157465611Y-85497100D01*
X157292389Y-85497100D01*
X157252728Y-85503381D01*
X157121302Y-85524197D01*
X156956552Y-85577728D01*
X156802211Y-85656368D01*
X156722256Y-85714459D01*
X156662072Y-85758186D01*
X156662070Y-85758188D01*
X156662069Y-85758188D01*
X156539588Y-85880669D01*
X156539588Y-85880670D01*
X156539586Y-85880672D01*
X156495859Y-85940856D01*
X156437768Y-86020811D01*
X156359128Y-86175152D01*
X156305597Y-86339902D01*
X156284200Y-86474999D01*
X156278500Y-86510989D01*
X141608632Y-86510989D01*
X141513705Y-86481409D01*
X141513706Y-86481409D01*
X141443172Y-86475000D01*
X141361600Y-86475000D01*
X141361600Y-87125000D01*
X140861600Y-87125000D01*
X140861600Y-86475000D01*
X140861599Y-86474999D01*
X140780017Y-86475000D01*
X140709497Y-86481408D01*
X140709492Y-86481409D01*
X140547203Y-86531981D01*
X140401722Y-86619927D01*
X140281527Y-86740122D01*
X140193580Y-86885604D01*
X140143009Y-87047893D01*
X140136600Y-87118427D01*
X133033341Y-87118427D01*
X133002837Y-87062562D01*
X133006071Y-86997889D01*
X133052402Y-86855301D01*
X133079500Y-86684211D01*
X133079500Y-86510989D01*
X133052402Y-86339899D01*
X132998873Y-86175155D01*
X132920232Y-86020812D01*
X132818414Y-85880672D01*
X132695928Y-85758186D01*
X132555788Y-85656368D01*
X132401445Y-85577727D01*
X132236701Y-85524198D01*
X132236699Y-85524197D01*
X132236698Y-85524197D01*
X132105271Y-85503381D01*
X132065611Y-85497100D01*
X131892389Y-85497100D01*
X131852728Y-85503381D01*
X131721302Y-85524197D01*
X131556552Y-85577728D01*
X131402211Y-85656368D01*
X131322256Y-85714459D01*
X131262072Y-85758186D01*
X131262070Y-85758188D01*
X131262069Y-85758188D01*
X131139588Y-85880669D01*
X131139588Y-85880670D01*
X131139586Y-85880672D01*
X131095859Y-85940856D01*
X131037768Y-86020811D01*
X130959128Y-86175152D01*
X130905597Y-86339902D01*
X130884200Y-86474999D01*
X130878500Y-86510989D01*
X130878500Y-86684211D01*
X130905598Y-86855301D01*
X130959127Y-87020045D01*
X131037768Y-87174388D01*
X131139586Y-87314528D01*
X131262072Y-87437014D01*
X131402212Y-87538832D01*
X131556555Y-87617473D01*
X131721299Y-87671002D01*
X131892389Y-87698100D01*
X131892390Y-87698100D01*
X132065610Y-87698100D01*
X132065611Y-87698100D01*
X132236701Y-87671002D01*
X132379289Y-87624671D01*
X132449126Y-87622677D01*
X132505285Y-87654922D01*
X135263181Y-90412819D01*
X135296666Y-90474142D01*
X135291682Y-90543834D01*
X135249810Y-90599767D01*
X135184346Y-90624184D01*
X135175500Y-90624500D01*
X134756899Y-90624500D01*
X134689860Y-90604815D01*
X134669218Y-90588181D01*
X133098104Y-89017067D01*
X133064619Y-88955744D01*
X133063312Y-88948783D01*
X133052403Y-88879903D01*
X133052402Y-88879902D01*
X133052402Y-88879899D01*
X132998873Y-88715155D01*
X132920232Y-88560812D01*
X132818414Y-88420672D01*
X132695928Y-88298186D01*
X132555788Y-88196368D01*
X132451639Y-88143302D01*
X132401447Y-88117728D01*
X132401446Y-88117727D01*
X132401445Y-88117727D01*
X132236701Y-88064198D01*
X132236699Y-88064197D01*
X132236698Y-88064197D01*
X132105271Y-88043381D01*
X132065611Y-88037100D01*
X131892389Y-88037100D01*
X131852728Y-88043381D01*
X131721302Y-88064197D01*
X131556552Y-88117728D01*
X131402211Y-88196368D01*
X131358311Y-88228264D01*
X131262072Y-88298186D01*
X131262070Y-88298188D01*
X131262069Y-88298188D01*
X131139588Y-88420669D01*
X131139588Y-88420670D01*
X131139586Y-88420672D01*
X131138471Y-88422207D01*
X131037768Y-88560811D01*
X130959128Y-88715152D01*
X130905597Y-88879902D01*
X130894688Y-88948783D01*
X130878500Y-89050989D01*
X130878500Y-89224211D01*
X130905598Y-89395301D01*
X130959127Y-89560045D01*
X131037768Y-89714388D01*
X131139586Y-89854528D01*
X131262072Y-89977014D01*
X131402212Y-90078832D01*
X131556555Y-90157473D01*
X131721299Y-90211002D01*
X131892389Y-90238100D01*
X131892390Y-90238100D01*
X132065610Y-90238100D01*
X132065611Y-90238100D01*
X132236701Y-90211002D01*
X132401445Y-90157473D01*
X132555788Y-90078832D01*
X132695928Y-89977014D01*
X132758274Y-89914667D01*
X132819593Y-89881185D01*
X132889285Y-89886169D01*
X132933633Y-89914670D01*
X134109382Y-91090419D01*
X134142867Y-91151742D01*
X134137883Y-91221434D01*
X134096011Y-91277367D01*
X134030547Y-91301784D01*
X134021701Y-91302100D01*
X133098780Y-91302100D01*
X133031741Y-91282415D01*
X132988295Y-91234394D01*
X132920233Y-91100813D01*
X132904937Y-91079760D01*
X132818414Y-90960672D01*
X132695928Y-90838186D01*
X132555788Y-90736368D01*
X132401445Y-90657727D01*
X132236701Y-90604198D01*
X132236699Y-90604197D01*
X132236698Y-90604197D01*
X132105271Y-90583381D01*
X132065611Y-90577100D01*
X131892389Y-90577100D01*
X131852728Y-90583381D01*
X131721302Y-90604197D01*
X131556552Y-90657728D01*
X131402211Y-90736368D01*
X131349359Y-90774768D01*
X131262072Y-90838186D01*
X131262070Y-90838188D01*
X131262069Y-90838188D01*
X131139588Y-90960669D01*
X131139588Y-90960670D01*
X131139586Y-90960672D01*
X131111689Y-90999069D01*
X131037768Y-91100811D01*
X130959128Y-91255152D01*
X130905597Y-91419902D01*
X130878500Y-91590989D01*
X130878500Y-91764211D01*
X130905598Y-91935301D01*
X130959127Y-92100045D01*
X131037768Y-92254388D01*
X131139586Y-92394528D01*
X131262072Y-92517014D01*
X131402212Y-92618832D01*
X131556555Y-92697473D01*
X131721299Y-92751002D01*
X131892389Y-92778100D01*
X131892390Y-92778100D01*
X132065610Y-92778100D01*
X132065611Y-92778100D01*
X132236701Y-92751002D01*
X132401445Y-92697473D01*
X132555788Y-92618832D01*
X132695928Y-92517014D01*
X132818414Y-92394528D01*
X132920232Y-92254388D01*
X132950620Y-92194747D01*
X132988295Y-92120806D01*
X133036269Y-92070009D01*
X133098780Y-92053100D01*
X142316501Y-92053100D01*
X142383540Y-92072785D01*
X142429295Y-92125589D01*
X142439239Y-92194747D01*
X142410214Y-92258303D01*
X142404182Y-92264781D01*
X140863182Y-93805781D01*
X140801859Y-93839266D01*
X140775501Y-93842100D01*
X133098780Y-93842100D01*
X133031741Y-93822415D01*
X132988295Y-93774394D01*
X132920233Y-93640813D01*
X132904937Y-93619760D01*
X132818414Y-93500672D01*
X132695928Y-93378186D01*
X132555788Y-93276368D01*
X132401445Y-93197727D01*
X132236701Y-93144198D01*
X132236699Y-93144197D01*
X132236698Y-93144197D01*
X132105271Y-93123381D01*
X132065611Y-93117100D01*
X131892389Y-93117100D01*
X131852728Y-93123381D01*
X131721302Y-93144197D01*
X131556552Y-93197728D01*
X131402211Y-93276368D01*
X131349359Y-93314768D01*
X131262072Y-93378186D01*
X131262070Y-93378188D01*
X131262069Y-93378188D01*
X131139588Y-93500669D01*
X131139588Y-93500670D01*
X131139586Y-93500672D01*
X131111689Y-93539069D01*
X131037768Y-93640811D01*
X130959128Y-93795152D01*
X130905597Y-93959902D01*
X130878500Y-94130989D01*
X130878500Y-94304211D01*
X130905598Y-94475301D01*
X130959127Y-94640045D01*
X131037768Y-94794388D01*
X131139586Y-94934528D01*
X131262072Y-95057014D01*
X131402212Y-95158832D01*
X131556555Y-95237473D01*
X131721299Y-95291002D01*
X131892389Y-95318100D01*
X131892390Y-95318100D01*
X132065610Y-95318100D01*
X132065611Y-95318100D01*
X132236701Y-95291002D01*
X132401445Y-95237473D01*
X132555788Y-95158832D01*
X132695928Y-95057014D01*
X132818414Y-94934528D01*
X132920232Y-94794388D01*
X132950620Y-94734747D01*
X132988295Y-94660806D01*
X133036269Y-94610009D01*
X133098780Y-94593100D01*
X140483607Y-94593100D01*
X140550646Y-94612785D01*
X140596401Y-94665589D01*
X140606345Y-94734747D01*
X140577320Y-94798303D01*
X140571288Y-94804781D01*
X139030288Y-96345781D01*
X138968965Y-96379266D01*
X138942607Y-96382100D01*
X133098780Y-96382100D01*
X133031741Y-96362415D01*
X132988295Y-96314394D01*
X132920233Y-96180813D01*
X132904937Y-96159760D01*
X132818414Y-96040672D01*
X132695928Y-95918186D01*
X132555788Y-95816368D01*
X132401445Y-95737727D01*
X132236701Y-95684198D01*
X132236699Y-95684197D01*
X132236698Y-95684197D01*
X132105271Y-95663381D01*
X132065611Y-95657100D01*
X131892389Y-95657100D01*
X131852728Y-95663381D01*
X131721302Y-95684197D01*
X131556552Y-95737728D01*
X131402211Y-95816368D01*
X131349359Y-95854768D01*
X131262072Y-95918186D01*
X131262070Y-95918188D01*
X131262069Y-95918188D01*
X131139588Y-96040669D01*
X131139588Y-96040670D01*
X131139586Y-96040672D01*
X131111689Y-96079069D01*
X131037768Y-96180811D01*
X130959128Y-96335152D01*
X130905597Y-96499902D01*
X130887077Y-96616836D01*
X130878500Y-96670989D01*
X130878500Y-96844211D01*
X130905598Y-97015301D01*
X130959127Y-97180045D01*
X131037768Y-97334388D01*
X131139586Y-97474528D01*
X131262072Y-97597014D01*
X131402212Y-97698832D01*
X131556555Y-97777473D01*
X131721299Y-97831002D01*
X131892389Y-97858100D01*
X131892390Y-97858100D01*
X132065610Y-97858100D01*
X132065611Y-97858100D01*
X132236701Y-97831002D01*
X132401445Y-97777473D01*
X132555788Y-97698832D01*
X132695928Y-97597014D01*
X132818414Y-97474528D01*
X132920232Y-97334388D01*
X132978873Y-97219297D01*
X132988295Y-97200806D01*
X133036269Y-97150009D01*
X133098780Y-97133100D01*
X138650713Y-97133100D01*
X138717752Y-97152785D01*
X138763507Y-97205589D01*
X138773451Y-97274747D01*
X138744426Y-97338303D01*
X138738394Y-97344781D01*
X137197394Y-98885781D01*
X137136071Y-98919266D01*
X137109713Y-98922100D01*
X133098780Y-98922100D01*
X133031741Y-98902415D01*
X132988295Y-98854394D01*
X132920233Y-98720813D01*
X132904937Y-98699760D01*
X132818414Y-98580672D01*
X132695928Y-98458186D01*
X132555788Y-98356368D01*
X132401445Y-98277727D01*
X132236701Y-98224198D01*
X132236699Y-98224197D01*
X132236698Y-98224197D01*
X132105271Y-98203381D01*
X132065611Y-98197100D01*
X131892389Y-98197100D01*
X131852728Y-98203381D01*
X131721302Y-98224197D01*
X131556552Y-98277728D01*
X131402211Y-98356368D01*
X131322256Y-98414459D01*
X131262072Y-98458186D01*
X131262070Y-98458188D01*
X131262069Y-98458188D01*
X131139588Y-98580669D01*
X131139588Y-98580670D01*
X131139586Y-98580672D01*
X131111689Y-98619069D01*
X131037768Y-98720811D01*
X130959128Y-98875152D01*
X130905597Y-99039902D01*
X130892040Y-99125500D01*
X130878500Y-99210989D01*
X130878500Y-99384211D01*
X130905598Y-99555301D01*
X130959127Y-99720045D01*
X131037768Y-99874388D01*
X131139586Y-100014528D01*
X131262072Y-100137014D01*
X131402212Y-100238832D01*
X131556555Y-100317473D01*
X131721299Y-100371002D01*
X131892389Y-100398100D01*
X131892390Y-100398100D01*
X132065610Y-100398100D01*
X132065611Y-100398100D01*
X132236701Y-100371002D01*
X132401445Y-100317473D01*
X132555788Y-100238832D01*
X132695928Y-100137014D01*
X132818414Y-100014528D01*
X132920232Y-99874388D01*
X132971688Y-99773399D01*
X132988295Y-99740806D01*
X133036269Y-99690009D01*
X133098780Y-99673100D01*
X136817819Y-99673100D01*
X136884858Y-99692785D01*
X136930613Y-99745589D01*
X136940557Y-99814747D01*
X136911532Y-99878303D01*
X136905500Y-99884781D01*
X135364500Y-101425781D01*
X135303177Y-101459266D01*
X135276819Y-101462100D01*
X133098780Y-101462100D01*
X133031741Y-101442415D01*
X132988295Y-101394394D01*
X132920233Y-101260813D01*
X132904937Y-101239760D01*
X132818414Y-101120672D01*
X132695928Y-100998186D01*
X132555788Y-100896368D01*
X132401445Y-100817727D01*
X132236701Y-100764198D01*
X132236699Y-100764197D01*
X132236698Y-100764197D01*
X132105271Y-100743381D01*
X132065611Y-100737100D01*
X131892389Y-100737100D01*
X131852728Y-100743381D01*
X131721302Y-100764197D01*
X131556552Y-100817728D01*
X131402211Y-100896368D01*
X131349359Y-100934768D01*
X131262072Y-100998186D01*
X131262070Y-100998188D01*
X131262069Y-100998188D01*
X131139588Y-101120669D01*
X131139588Y-101120670D01*
X131139586Y-101120672D01*
X131129176Y-101135000D01*
X131037768Y-101260811D01*
X130959128Y-101415152D01*
X130905597Y-101579902D01*
X130879273Y-101746111D01*
X130878500Y-101750989D01*
X130878500Y-101924211D01*
X130905598Y-102095301D01*
X130959127Y-102260045D01*
X131037768Y-102414388D01*
X131139586Y-102554528D01*
X131262072Y-102677014D01*
X131402212Y-102778832D01*
X131556555Y-102857473D01*
X131721299Y-102911002D01*
X131892389Y-102938100D01*
X131892390Y-102938100D01*
X132065610Y-102938100D01*
X132065611Y-102938100D01*
X132236701Y-102911002D01*
X132401445Y-102857473D01*
X132555788Y-102778832D01*
X132695928Y-102677014D01*
X132818414Y-102554528D01*
X132920232Y-102414388D01*
X132943655Y-102368417D01*
X132988295Y-102280806D01*
X133036269Y-102230009D01*
X133098780Y-102213100D01*
X134984925Y-102213100D01*
X135051964Y-102232785D01*
X135097719Y-102285589D01*
X135107663Y-102354747D01*
X135078638Y-102418303D01*
X135072606Y-102424781D01*
X133531606Y-103965781D01*
X133470283Y-103999266D01*
X133443925Y-104002100D01*
X133098780Y-104002100D01*
X133031741Y-103982415D01*
X132988295Y-103934394D01*
X132920233Y-103800813D01*
X132904937Y-103779760D01*
X132818414Y-103660672D01*
X132695928Y-103538186D01*
X132555788Y-103436368D01*
X132401445Y-103357727D01*
X132236701Y-103304198D01*
X132236699Y-103304197D01*
X132236698Y-103304197D01*
X132105271Y-103283381D01*
X132065611Y-103277100D01*
X131892389Y-103277100D01*
X131852728Y-103283381D01*
X131721302Y-103304197D01*
X131556552Y-103357728D01*
X131402211Y-103436368D01*
X131358648Y-103468019D01*
X131262072Y-103538186D01*
X131262070Y-103538188D01*
X131262069Y-103538188D01*
X131139588Y-103660669D01*
X131139588Y-103660670D01*
X131139586Y-103660672D01*
X131111689Y-103699069D01*
X131037768Y-103800811D01*
X130959128Y-103955152D01*
X130905597Y-104119902D01*
X130894895Y-104187476D01*
X130878500Y-104290989D01*
X130878500Y-104464211D01*
X130905598Y-104635301D01*
X130959127Y-104800045D01*
X131037768Y-104954388D01*
X131139586Y-105094528D01*
X131262072Y-105217014D01*
X131402212Y-105318832D01*
X131556555Y-105397473D01*
X131721299Y-105451002D01*
X131892389Y-105478100D01*
X131892390Y-105478100D01*
X132065610Y-105478100D01*
X132065611Y-105478100D01*
X132236701Y-105451002D01*
X132401445Y-105397473D01*
X132555788Y-105318832D01*
X132695928Y-105217014D01*
X132818414Y-105094528D01*
X132920232Y-104954388D01*
X132973133Y-104850564D01*
X132988295Y-104820806D01*
X133036269Y-104770009D01*
X133098780Y-104753100D01*
X133313101Y-104753100D01*
X133380140Y-104772785D01*
X133425895Y-104825589D01*
X133435839Y-104894747D01*
X133406814Y-104958303D01*
X133400782Y-104964781D01*
X132505284Y-105860277D01*
X132443961Y-105893762D01*
X132379286Y-105890527D01*
X132236701Y-105844198D01*
X132236699Y-105844197D01*
X132236698Y-105844197D01*
X132096056Y-105821922D01*
X132065611Y-105817100D01*
X131892389Y-105817100D01*
X131861944Y-105821922D01*
X131721302Y-105844197D01*
X131556552Y-105897728D01*
X131402211Y-105976368D01*
X131349359Y-106014768D01*
X131262072Y-106078186D01*
X131262070Y-106078188D01*
X131262069Y-106078188D01*
X131139588Y-106200669D01*
X131139588Y-106200670D01*
X131139586Y-106200672D01*
X131119125Y-106228834D01*
X131037768Y-106340811D01*
X130959128Y-106495152D01*
X130905597Y-106659902D01*
X130878500Y-106830989D01*
X130878500Y-107004211D01*
X130905598Y-107175301D01*
X130959127Y-107340045D01*
X131037768Y-107494388D01*
X131139586Y-107634528D01*
X131262072Y-107757014D01*
X131402212Y-107858832D01*
X131556555Y-107937473D01*
X131721299Y-107991002D01*
X131892389Y-108018100D01*
X131892390Y-108018100D01*
X132065610Y-108018100D01*
X132065611Y-108018100D01*
X132236701Y-107991002D01*
X132401445Y-107937473D01*
X132555788Y-107858832D01*
X132695928Y-107757014D01*
X132818414Y-107634528D01*
X132920232Y-107494388D01*
X132998873Y-107340045D01*
X133052402Y-107175301D01*
X133079500Y-107004211D01*
X133079500Y-106830989D01*
X133052402Y-106659899D01*
X133006071Y-106517310D01*
X133004077Y-106447471D01*
X133036320Y-106391315D01*
X137514564Y-101913073D01*
X137815813Y-101611824D01*
X140276601Y-101611824D01*
X140292042Y-101729128D01*
X140292044Y-101729133D01*
X140352499Y-101875085D01*
X140448675Y-102000424D01*
X140574014Y-102096600D01*
X140719966Y-102157055D01*
X140719972Y-102157057D01*
X140776598Y-102164511D01*
X140776600Y-102164510D01*
X140776600Y-101135000D01*
X140276601Y-101135000D01*
X140276601Y-101611824D01*
X137815813Y-101611824D01*
X138431681Y-100995957D01*
X139169469Y-100258169D01*
X140276600Y-100258169D01*
X140276600Y-100735000D01*
X140776600Y-100735000D01*
X140776600Y-99705487D01*
X140719968Y-99712944D01*
X140574013Y-99773399D01*
X140448675Y-99869575D01*
X140352499Y-99994913D01*
X140292045Y-100140865D01*
X140292044Y-100140869D01*
X140276600Y-100258169D01*
X139169469Y-100258169D01*
X140265819Y-99161819D01*
X140327142Y-99128334D01*
X140353500Y-99125500D01*
X141743101Y-99125500D01*
X141772541Y-99134144D01*
X141802528Y-99140668D01*
X141807543Y-99144422D01*
X141810140Y-99145185D01*
X141830782Y-99161819D01*
X141864781Y-99195818D01*
X141898266Y-99257141D01*
X141901100Y-99283499D01*
X141901100Y-99824202D01*
X141881415Y-99891241D01*
X141828611Y-99936996D01*
X141764410Y-99946227D01*
X141764331Y-99947324D01*
X141759862Y-99947000D01*
X141759860Y-99947000D01*
X141625085Y-99947000D01*
X141558046Y-99927315D01*
X141526709Y-99898487D01*
X141504524Y-99869575D01*
X141379186Y-99773399D01*
X141233231Y-99712944D01*
X141176600Y-99705487D01*
X141176600Y-100252857D01*
X141176275Y-100261824D01*
X141176100Y-100264237D01*
X141176100Y-101605765D01*
X141176275Y-101608179D01*
X141176600Y-101617145D01*
X141176600Y-102164510D01*
X141208859Y-102192801D01*
X141227369Y-102221983D01*
X141246077Y-102251094D01*
X141246148Y-102251590D01*
X141246283Y-102251803D01*
X141251100Y-102286029D01*
X141251100Y-102316501D01*
X141231415Y-102383540D01*
X141214781Y-102404182D01*
X135580782Y-108038181D01*
X135519459Y-108071666D01*
X135493101Y-108074500D01*
X132937164Y-108074500D01*
X132841661Y-108100089D01*
X132756038Y-108149524D01*
X132505284Y-108400278D01*
X132443961Y-108433762D01*
X132379286Y-108430527D01*
X132236701Y-108384198D01*
X132236699Y-108384197D01*
X132236698Y-108384197D01*
X132105271Y-108363381D01*
X132065611Y-108357100D01*
X131892389Y-108357100D01*
X131852728Y-108363381D01*
X131721302Y-108384197D01*
X131556552Y-108437728D01*
X131402211Y-108516368D01*
X131322256Y-108574459D01*
X131262072Y-108618186D01*
X131262070Y-108618188D01*
X131262069Y-108618188D01*
X131139588Y-108740669D01*
X131139588Y-108740670D01*
X131139586Y-108740672D01*
X131104874Y-108788449D01*
X131037768Y-108880811D01*
X130959128Y-109035152D01*
X130905597Y-109199902D01*
X130905597Y-109199904D01*
X130878500Y-109370989D01*
X130878500Y-109544211D01*
X130905598Y-109715301D01*
X130959127Y-109880045D01*
X131037768Y-110034388D01*
X131139586Y-110174528D01*
X131262072Y-110297014D01*
X131402212Y-110398832D01*
X131556555Y-110477473D01*
X131559708Y-110478497D01*
X131560752Y-110479211D01*
X131561048Y-110479334D01*
X131561022Y-110479395D01*
X131617383Y-110517930D01*
X131644585Y-110582288D01*
X131632674Y-110651135D01*
X131585433Y-110702613D01*
X131559712Y-110714360D01*
X131460783Y-110746504D01*
X131271439Y-110842980D01*
X131217282Y-110882327D01*
X131217282Y-110882328D01*
X131849591Y-111514637D01*
X131786007Y-111531675D01*
X131671993Y-111597501D01*
X131578901Y-111690593D01*
X131513075Y-111804607D01*
X131496037Y-111868191D01*
X130863728Y-111235882D01*
X130863727Y-111235882D01*
X130824380Y-111290039D01*
X130727904Y-111479382D01*
X130662242Y-111681469D01*
X130662242Y-111681472D01*
X130629000Y-111891353D01*
X128529500Y-111891353D01*
X128529500Y-85248322D01*
X140126601Y-85248322D01*
X140136744Y-85347607D01*
X140190052Y-85508481D01*
X140190057Y-85508492D01*
X140279024Y-85652728D01*
X140279027Y-85652732D01*
X140398867Y-85772572D01*
X140398871Y-85772575D01*
X140543107Y-85861542D01*
X140543118Y-85861547D01*
X140703993Y-85914855D01*
X140803283Y-85924999D01*
X141351600Y-85924999D01*
X141399908Y-85924999D01*
X141399922Y-85924998D01*
X141499207Y-85914855D01*
X141660081Y-85861547D01*
X141660092Y-85861542D01*
X141804328Y-85772575D01*
X141804332Y-85772572D01*
X141924172Y-85652732D01*
X141924175Y-85652728D01*
X142013142Y-85508492D01*
X142013147Y-85508481D01*
X142066455Y-85347606D01*
X142076599Y-85248322D01*
X142076600Y-85248309D01*
X142076600Y-85225000D01*
X141351600Y-85225000D01*
X141351600Y-85924999D01*
X140803283Y-85924999D01*
X140851599Y-85924998D01*
X140851600Y-85924998D01*
X140851600Y-85225000D01*
X140126601Y-85225000D01*
X140126601Y-85248322D01*
X128529500Y-85248322D01*
X128529500Y-83970989D01*
X130878500Y-83970989D01*
X130878500Y-84144210D01*
X130902741Y-84297267D01*
X130905598Y-84315301D01*
X130959127Y-84480045D01*
X131037768Y-84634388D01*
X131139586Y-84774528D01*
X131262072Y-84897014D01*
X131402212Y-84998832D01*
X131556555Y-85077473D01*
X131721299Y-85131002D01*
X131892389Y-85158100D01*
X131892390Y-85158100D01*
X132065610Y-85158100D01*
X132065611Y-85158100D01*
X132236701Y-85131002D01*
X132401445Y-85077473D01*
X132555788Y-84998832D01*
X132695928Y-84897014D01*
X132818414Y-84774528D01*
X132920232Y-84634388D01*
X132998873Y-84480045D01*
X133052402Y-84315301D01*
X133079500Y-84144211D01*
X133079500Y-83970989D01*
X133052402Y-83799899D01*
X132998873Y-83635155D01*
X132920232Y-83480812D01*
X132827026Y-83352525D01*
X137949500Y-83352525D01*
X137949500Y-83497475D01*
X137986391Y-83635152D01*
X137987017Y-83637488D01*
X138059488Y-83763011D01*
X138059490Y-83763013D01*
X138059491Y-83763015D01*
X138161985Y-83865509D01*
X138161986Y-83865510D01*
X138161988Y-83865511D01*
X138287511Y-83937982D01*
X138287512Y-83937982D01*
X138287515Y-83937984D01*
X138427525Y-83975500D01*
X138427528Y-83975500D01*
X138572472Y-83975500D01*
X138572475Y-83975500D01*
X138712485Y-83937984D01*
X138838015Y-83865509D01*
X138866705Y-83836819D01*
X138928028Y-83803334D01*
X138954386Y-83800500D01*
X140314141Y-83800500D01*
X140381180Y-83820185D01*
X140415939Y-83853696D01*
X140424861Y-83866523D01*
X140429972Y-83880226D01*
X140492333Y-83963532D01*
X140493569Y-83965308D01*
X140503972Y-83996481D01*
X140515455Y-84027266D01*
X140514978Y-84029457D01*
X140515688Y-84031584D01*
X140507587Y-84063431D01*
X140500603Y-84095539D01*
X140498987Y-84097241D01*
X140498465Y-84099298D01*
X140486109Y-84110820D01*
X140456870Y-84141649D01*
X140398870Y-84177424D01*
X140279027Y-84297267D01*
X140279024Y-84297271D01*
X140190057Y-84441507D01*
X140190052Y-84441518D01*
X140136744Y-84602393D01*
X140126600Y-84701677D01*
X140126600Y-84725000D01*
X142076599Y-84725000D01*
X142076599Y-84701692D01*
X142076598Y-84701677D01*
X142066455Y-84602392D01*
X142013147Y-84441518D01*
X142013142Y-84441507D01*
X141924175Y-84297271D01*
X141924172Y-84297267D01*
X141804332Y-84177427D01*
X141804328Y-84177424D01*
X141746330Y-84141650D01*
X141699605Y-84089702D01*
X141688384Y-84020739D01*
X141702611Y-83976656D01*
X141706851Y-83968895D01*
X141773228Y-83880226D01*
X141811790Y-83776838D01*
X141816049Y-83769044D01*
X141834726Y-83750376D01*
X141850555Y-83729233D01*
X141859053Y-83726063D01*
X141865468Y-83719652D01*
X141891274Y-83714045D01*
X141916019Y-83704816D01*
X141924865Y-83704500D01*
X142006900Y-83704500D01*
X142073939Y-83724185D01*
X142119694Y-83776989D01*
X142130900Y-83828500D01*
X142130900Y-84015760D01*
X142140826Y-84083891D01*
X142192203Y-84188985D01*
X142274914Y-84271696D01*
X142274915Y-84271696D01*
X142274917Y-84271698D01*
X142380007Y-84323073D01*
X142414073Y-84328036D01*
X142448139Y-84333000D01*
X142448140Y-84333000D01*
X142714661Y-84333000D01*
X142737371Y-84329691D01*
X142782793Y-84323073D01*
X142851941Y-84289268D01*
X142920813Y-84277510D01*
X142960858Y-84289268D01*
X143030007Y-84323073D01*
X143064073Y-84328036D01*
X143098139Y-84333000D01*
X143098140Y-84333000D01*
X143364661Y-84333000D01*
X143387371Y-84329691D01*
X143432793Y-84323073D01*
X143501941Y-84289268D01*
X143570813Y-84277510D01*
X143610858Y-84289268D01*
X143680007Y-84323073D01*
X143714073Y-84328036D01*
X143748139Y-84333000D01*
X143748140Y-84333000D01*
X144014661Y-84333000D01*
X144037371Y-84329691D01*
X144082793Y-84323073D01*
X144151941Y-84289268D01*
X144220813Y-84277510D01*
X144260858Y-84289268D01*
X144330007Y-84323073D01*
X144364073Y-84328036D01*
X144398139Y-84333000D01*
X144398140Y-84333000D01*
X144664661Y-84333000D01*
X144687371Y-84329691D01*
X144732793Y-84323073D01*
X144801941Y-84289268D01*
X144870813Y-84277510D01*
X144910858Y-84289268D01*
X144980007Y-84323073D01*
X145014073Y-84328036D01*
X145048139Y-84333000D01*
X145048140Y-84333000D01*
X145314661Y-84333000D01*
X145337371Y-84329691D01*
X145382793Y-84323073D01*
X145451941Y-84289268D01*
X145520813Y-84277510D01*
X145560858Y-84289268D01*
X145630007Y-84323073D01*
X145664073Y-84328036D01*
X145698139Y-84333000D01*
X145698140Y-84333000D01*
X145964661Y-84333000D01*
X145987371Y-84329691D01*
X146032793Y-84323073D01*
X146101941Y-84289268D01*
X146170813Y-84277510D01*
X146210858Y-84289268D01*
X146280007Y-84323073D01*
X146314073Y-84328036D01*
X146348139Y-84333000D01*
X146348140Y-84333000D01*
X146614661Y-84333000D01*
X146637371Y-84329691D01*
X146682793Y-84323073D01*
X146751941Y-84289268D01*
X146820813Y-84277510D01*
X146860858Y-84289268D01*
X146930007Y-84323073D01*
X146964073Y-84328036D01*
X146998139Y-84333000D01*
X146998140Y-84333000D01*
X147264661Y-84333000D01*
X147287371Y-84329691D01*
X147332793Y-84323073D01*
X147401941Y-84289268D01*
X147470813Y-84277510D01*
X147510858Y-84289268D01*
X147580007Y-84323073D01*
X147614073Y-84328036D01*
X147648139Y-84333000D01*
X147648140Y-84333000D01*
X147914661Y-84333000D01*
X147937371Y-84329691D01*
X147982793Y-84323073D01*
X148051941Y-84289268D01*
X148120813Y-84277510D01*
X148160858Y-84289268D01*
X148230007Y-84323073D01*
X148264073Y-84328036D01*
X148298139Y-84333000D01*
X148298140Y-84333000D01*
X148564661Y-84333000D01*
X148587371Y-84329691D01*
X148632793Y-84323073D01*
X148737883Y-84271698D01*
X148820598Y-84188983D01*
X148871973Y-84083893D01*
X148881900Y-84015760D01*
X148881900Y-83970989D01*
X156278500Y-83970989D01*
X156278500Y-84144210D01*
X156302741Y-84297267D01*
X156305598Y-84315301D01*
X156359127Y-84480045D01*
X156437768Y-84634388D01*
X156539586Y-84774528D01*
X156662072Y-84897014D01*
X156802212Y-84998832D01*
X156956555Y-85077473D01*
X157121299Y-85131002D01*
X157292389Y-85158100D01*
X157292390Y-85158100D01*
X157465610Y-85158100D01*
X157465611Y-85158100D01*
X157636701Y-85131002D01*
X157801445Y-85077473D01*
X157955788Y-84998832D01*
X158095928Y-84897014D01*
X158218414Y-84774528D01*
X158320232Y-84634388D01*
X158398873Y-84480045D01*
X158452402Y-84315301D01*
X158479500Y-84144211D01*
X158479500Y-83970989D01*
X158452402Y-83799899D01*
X158398873Y-83635155D01*
X158320232Y-83480812D01*
X158218414Y-83340672D01*
X158095928Y-83218186D01*
X157955788Y-83116368D01*
X157801447Y-83037728D01*
X157801446Y-83037727D01*
X157801445Y-83037727D01*
X157636701Y-82984198D01*
X157636699Y-82984197D01*
X157636698Y-82984197D01*
X157488359Y-82960703D01*
X157465611Y-82957100D01*
X157292389Y-82957100D01*
X157269641Y-82960703D01*
X157121302Y-82984197D01*
X156956552Y-83037728D01*
X156802211Y-83116368D01*
X156734725Y-83165400D01*
X156662072Y-83218186D01*
X156662070Y-83218188D01*
X156662069Y-83218188D01*
X156539588Y-83340669D01*
X156539588Y-83340670D01*
X156539586Y-83340672D01*
X156530973Y-83352527D01*
X156437768Y-83480811D01*
X156359128Y-83635152D01*
X156305597Y-83799902D01*
X156278500Y-83970989D01*
X148881900Y-83970989D01*
X148881900Y-82674240D01*
X148871973Y-82606107D01*
X148820598Y-82501017D01*
X148820597Y-82501016D01*
X148819499Y-82498769D01*
X148806900Y-82444309D01*
X148806900Y-79775499D01*
X148826585Y-79708460D01*
X148843219Y-79687818D01*
X150428116Y-78102921D01*
X156278500Y-78102921D01*
X156278500Y-79852278D01*
X156293032Y-79925335D01*
X156293033Y-79925339D01*
X156293034Y-79925340D01*
X156348399Y-80008201D01*
X156431260Y-80063566D01*
X156431264Y-80063567D01*
X156504321Y-80078099D01*
X156504324Y-80078100D01*
X156504326Y-80078100D01*
X156904500Y-80078100D01*
X156913185Y-80080650D01*
X156922147Y-80079362D01*
X156946187Y-80090340D01*
X156971539Y-80097785D01*
X156977466Y-80104625D01*
X156985703Y-80108387D01*
X156999992Y-80130621D01*
X157017294Y-80150589D01*
X157019581Y-80161103D01*
X157023477Y-80167165D01*
X157028500Y-80202100D01*
X157028500Y-80385081D01*
X157008815Y-80452120D01*
X156960795Y-80495566D01*
X156802211Y-80576368D01*
X156722256Y-80634459D01*
X156662072Y-80678186D01*
X156662070Y-80678188D01*
X156662069Y-80678188D01*
X156539588Y-80800669D01*
X156539588Y-80800670D01*
X156539586Y-80800672D01*
X156503560Y-80850258D01*
X156437768Y-80940811D01*
X156359128Y-81095152D01*
X156359127Y-81095154D01*
X156359127Y-81095155D01*
X156341307Y-81150000D01*
X156305597Y-81259902D01*
X156290165Y-81357339D01*
X156278500Y-81430989D01*
X156278500Y-81604211D01*
X156284557Y-81642452D01*
X156301395Y-81748769D01*
X156305598Y-81775301D01*
X156359127Y-81940045D01*
X156437768Y-82094388D01*
X156539586Y-82234528D01*
X156662072Y-82357014D01*
X156802212Y-82458832D01*
X156956555Y-82537473D01*
X157121299Y-82591002D01*
X157292389Y-82618100D01*
X157292390Y-82618100D01*
X157465610Y-82618100D01*
X157465611Y-82618100D01*
X157636701Y-82591002D01*
X157801445Y-82537473D01*
X157955788Y-82458832D01*
X158095928Y-82357014D01*
X158218414Y-82234528D01*
X158320232Y-82094388D01*
X158398873Y-81940045D01*
X158452402Y-81775301D01*
X158479500Y-81604211D01*
X158479500Y-81430989D01*
X158452402Y-81259899D01*
X158398873Y-81095155D01*
X158320232Y-80940812D01*
X158218414Y-80800672D01*
X158095928Y-80678186D01*
X157955788Y-80576368D01*
X157943147Y-80569927D01*
X157797205Y-80495566D01*
X157786140Y-80485116D01*
X157772297Y-80478794D01*
X157761255Y-80461613D01*
X157746409Y-80447591D01*
X157742167Y-80431911D01*
X157734523Y-80420016D01*
X157729500Y-80385081D01*
X157729500Y-80202100D01*
X157749185Y-80135061D01*
X157801989Y-80089306D01*
X157853500Y-80078100D01*
X158253676Y-80078100D01*
X158253677Y-80078099D01*
X158326740Y-80063566D01*
X158409601Y-80008201D01*
X158464966Y-79925340D01*
X158479500Y-79852274D01*
X158479500Y-78102926D01*
X158479500Y-78102923D01*
X158479499Y-78102921D01*
X158464967Y-78029864D01*
X158464966Y-78029860D01*
X158409601Y-77946999D01*
X158326740Y-77891634D01*
X158326739Y-77891633D01*
X158326735Y-77891632D01*
X158253677Y-77877100D01*
X158253674Y-77877100D01*
X156504326Y-77877100D01*
X156504323Y-77877100D01*
X156431264Y-77891632D01*
X156431260Y-77891633D01*
X156348399Y-77946999D01*
X156293033Y-78029860D01*
X156293032Y-78029864D01*
X156278500Y-78102921D01*
X150428116Y-78102921D01*
X152244218Y-76286819D01*
X152305541Y-76253334D01*
X152331899Y-76250500D01*
X159745614Y-76250500D01*
X159812653Y-76270185D01*
X159833295Y-76286819D01*
X159861985Y-76315509D01*
X159861986Y-76315510D01*
X159861988Y-76315511D01*
X159987511Y-76387982D01*
X159987512Y-76387982D01*
X159987515Y-76387984D01*
X160127525Y-76425500D01*
X160127528Y-76425500D01*
X160272472Y-76425500D01*
X160272475Y-76425500D01*
X160412485Y-76387984D01*
X160538015Y-76315509D01*
X160640509Y-76213015D01*
X160712984Y-76087485D01*
X160750500Y-75947475D01*
X160750500Y-75802525D01*
X160731493Y-75731590D01*
X160733156Y-75661744D01*
X160772318Y-75603882D01*
X160836546Y-75576377D01*
X160851268Y-75575500D01*
X173945614Y-75575500D01*
X174012653Y-75595185D01*
X174033295Y-75611819D01*
X174061985Y-75640509D01*
X174061986Y-75640510D01*
X174061988Y-75640511D01*
X174187511Y-75712982D01*
X174187512Y-75712982D01*
X174187515Y-75712984D01*
X174327525Y-75750500D01*
X174327528Y-75750500D01*
X174472472Y-75750500D01*
X174472475Y-75750500D01*
X174612485Y-75712984D01*
X174738015Y-75640509D01*
X174840509Y-75538015D01*
X174912984Y-75412485D01*
X174950500Y-75272475D01*
X174950500Y-75127525D01*
X174912984Y-74987515D01*
X174840509Y-74861985D01*
X174738015Y-74759491D01*
X174738013Y-74759490D01*
X174738011Y-74759488D01*
X174612488Y-74687017D01*
X174612489Y-74687017D01*
X174596949Y-74682853D01*
X174472475Y-74649500D01*
X174327525Y-74649500D01*
X174203051Y-74682853D01*
X174187511Y-74687017D01*
X174061988Y-74759488D01*
X174061982Y-74759493D01*
X174033295Y-74788181D01*
X173971972Y-74821666D01*
X173945614Y-74824500D01*
X161637871Y-74824500D01*
X161570832Y-74804815D01*
X161525077Y-74752011D01*
X161515133Y-74682853D01*
X161518096Y-74668406D01*
X161523162Y-74649500D01*
X161550500Y-74547475D01*
X161550500Y-74402525D01*
X161531493Y-74331590D01*
X161533156Y-74261744D01*
X161572318Y-74203882D01*
X161636546Y-74176377D01*
X161651268Y-74175500D01*
X173145614Y-74175500D01*
X173212653Y-74195185D01*
X173233295Y-74211819D01*
X173261985Y-74240509D01*
X173261986Y-74240510D01*
X173261988Y-74240511D01*
X173387511Y-74312982D01*
X173387512Y-74312982D01*
X173387515Y-74312984D01*
X173527525Y-74350500D01*
X173527528Y-74350500D01*
X173672472Y-74350500D01*
X173672475Y-74350500D01*
X173812485Y-74312984D01*
X173938015Y-74240509D01*
X174040509Y-74138015D01*
X174112984Y-74012485D01*
X174150500Y-73872475D01*
X174150500Y-73727525D01*
X174112984Y-73587515D01*
X174040509Y-73461985D01*
X173938015Y-73359491D01*
X173938013Y-73359490D01*
X173938011Y-73359488D01*
X173812488Y-73287017D01*
X173812489Y-73287017D01*
X173796949Y-73282853D01*
X173672475Y-73249500D01*
X173527525Y-73249500D01*
X173403051Y-73282853D01*
X173387511Y-73287017D01*
X173261988Y-73359488D01*
X173261982Y-73359493D01*
X173233295Y-73388181D01*
X173171972Y-73421666D01*
X173145614Y-73424500D01*
X162437871Y-73424500D01*
X162370832Y-73404815D01*
X162325077Y-73352011D01*
X162315133Y-73282853D01*
X162318096Y-73268406D01*
X162323162Y-73249500D01*
X162350500Y-73147475D01*
X162350500Y-73002525D01*
X162331493Y-72931590D01*
X162333156Y-72861744D01*
X162372318Y-72803882D01*
X162436546Y-72776377D01*
X162451268Y-72775500D01*
X172335614Y-72775500D01*
X172402653Y-72795185D01*
X172423295Y-72811819D01*
X172456985Y-72845509D01*
X172456986Y-72845510D01*
X172456988Y-72845511D01*
X172582511Y-72917982D01*
X172582512Y-72917982D01*
X172582515Y-72917984D01*
X172722525Y-72955500D01*
X172722528Y-72955500D01*
X172867472Y-72955500D01*
X172867475Y-72955500D01*
X173007485Y-72917984D01*
X173133015Y-72845509D01*
X173235509Y-72743015D01*
X173307984Y-72617485D01*
X173345500Y-72477475D01*
X173345500Y-72332525D01*
X173307984Y-72192515D01*
X173235509Y-72066985D01*
X173133015Y-71964491D01*
X173133013Y-71964490D01*
X173133011Y-71964488D01*
X173007488Y-71892017D01*
X173007489Y-71892017D01*
X172996006Y-71888940D01*
X172867475Y-71854500D01*
X172722525Y-71854500D01*
X172593993Y-71888940D01*
X172582511Y-71892017D01*
X172456988Y-71964488D01*
X172456982Y-71964493D01*
X172433295Y-71988181D01*
X172371972Y-72021666D01*
X172345614Y-72024500D01*
X163219786Y-72024500D01*
X163152747Y-72004815D01*
X163106992Y-71952011D01*
X163097048Y-71882853D01*
X163110114Y-71845099D01*
X163109872Y-71844999D01*
X163111557Y-71840928D01*
X163112397Y-71838504D01*
X163112981Y-71837492D01*
X163112982Y-71837489D01*
X163112982Y-71837487D01*
X163112984Y-71837485D01*
X163150500Y-71697475D01*
X163150500Y-71552525D01*
X163131493Y-71481590D01*
X163133156Y-71411744D01*
X163172318Y-71353882D01*
X163236546Y-71326377D01*
X163251268Y-71325500D01*
X171495613Y-71325500D01*
X171562652Y-71345185D01*
X171583294Y-71361818D01*
X171661985Y-71440509D01*
X171661987Y-71440510D01*
X171661988Y-71440511D01*
X171787511Y-71512982D01*
X171787512Y-71512982D01*
X171787515Y-71512984D01*
X171927525Y-71550500D01*
X171927528Y-71550500D01*
X172072472Y-71550500D01*
X172072475Y-71550500D01*
X172212485Y-71512984D01*
X172338015Y-71440509D01*
X172440509Y-71338015D01*
X172512984Y-71212485D01*
X172550500Y-71072475D01*
X172550500Y-70927525D01*
X172512984Y-70787515D01*
X172470732Y-70714333D01*
X172440511Y-70661988D01*
X172440506Y-70661982D01*
X172338017Y-70559493D01*
X172338011Y-70559488D01*
X172212488Y-70487017D01*
X172212489Y-70487017D01*
X172201006Y-70483940D01*
X172072475Y-70449500D01*
X171927525Y-70449500D01*
X171798993Y-70483940D01*
X171787511Y-70487017D01*
X171664763Y-70557887D01*
X171602763Y-70574500D01*
X150350564Y-70574500D01*
X150255061Y-70600089D01*
X150169438Y-70649525D01*
X150169435Y-70649527D01*
X143580926Y-77238036D01*
X143531491Y-77323659D01*
X143531491Y-77323660D01*
X143531490Y-77323662D01*
X143505900Y-77419165D01*
X143505900Y-77419167D01*
X143505900Y-80905645D01*
X143486215Y-80972684D01*
X143433411Y-81018439D01*
X143364253Y-81028383D01*
X143300697Y-80999358D01*
X143264859Y-80946601D01*
X143258789Y-80929255D01*
X143252793Y-80912118D01*
X143172150Y-80802850D01*
X143062882Y-80722207D01*
X143062880Y-80722206D01*
X142934700Y-80677353D01*
X142904270Y-80674500D01*
X142904266Y-80674500D01*
X142395734Y-80674500D01*
X142395730Y-80674500D01*
X142365300Y-80677353D01*
X142365298Y-80677353D01*
X142237119Y-80722206D01*
X142237117Y-80722207D01*
X142127850Y-80802850D01*
X142065741Y-80887004D01*
X142010093Y-80929255D01*
X141940437Y-80934712D01*
X141878887Y-80901645D01*
X141847585Y-80850258D01*
X141843018Y-80835602D01*
X141755072Y-80690122D01*
X141634877Y-80569927D01*
X141489395Y-80481980D01*
X141489396Y-80481980D01*
X141327105Y-80431409D01*
X141327106Y-80431409D01*
X141256572Y-80425000D01*
X141250000Y-80425000D01*
X141250000Y-82374999D01*
X141256581Y-82374999D01*
X141327102Y-82368591D01*
X141327107Y-82368590D01*
X141489396Y-82318018D01*
X141634877Y-82230072D01*
X141755072Y-82109877D01*
X141843018Y-81964396D01*
X141847585Y-81949742D01*
X141886321Y-81891593D01*
X141950345Y-81863618D01*
X142019331Y-81874697D01*
X142065741Y-81912995D01*
X142127850Y-81997150D01*
X142237118Y-82077793D01*
X142269163Y-82089006D01*
X142365298Y-82122646D01*
X142372670Y-82124256D01*
X142372275Y-82126063D01*
X142428109Y-82148297D01*
X142468742Y-82205137D01*
X142472194Y-82274921D01*
X142437370Y-82335494D01*
X142388248Y-82364380D01*
X142380009Y-82366926D01*
X142274914Y-82418303D01*
X142192203Y-82501014D01*
X142140826Y-82606108D01*
X142130900Y-82674239D01*
X142130900Y-82879500D01*
X142128349Y-82888185D01*
X142129638Y-82897147D01*
X142118659Y-82921187D01*
X142111215Y-82946539D01*
X142104374Y-82952466D01*
X142100613Y-82960703D01*
X142078378Y-82974992D01*
X142058411Y-82992294D01*
X142047896Y-82994581D01*
X142041835Y-82998477D01*
X142006900Y-83003500D01*
X141860545Y-83003500D01*
X141793506Y-82983815D01*
X141761278Y-82953810D01*
X141691288Y-82860314D01*
X141581828Y-82778373D01*
X141581826Y-82778372D01*
X141453714Y-82730588D01*
X141453712Y-82730587D01*
X141453710Y-82730587D01*
X141397093Y-82724500D01*
X140806118Y-82724500D01*
X140806109Y-82724501D01*
X140749485Y-82730587D01*
X140621373Y-82778372D01*
X140511913Y-82860313D01*
X140429972Y-82969773D01*
X140425723Y-82977556D01*
X140424353Y-82976808D01*
X140388450Y-83024768D01*
X140322985Y-83049184D01*
X140314141Y-83049500D01*
X138954386Y-83049500D01*
X138887347Y-83029815D01*
X138866705Y-83013181D01*
X138838017Y-82984493D01*
X138838011Y-82984488D01*
X138712488Y-82912017D01*
X138712489Y-82912017D01*
X138683741Y-82904314D01*
X138572475Y-82874500D01*
X138427525Y-82874500D01*
X138316259Y-82904314D01*
X138287511Y-82912017D01*
X138161988Y-82984488D01*
X138161982Y-82984493D01*
X138059493Y-83086982D01*
X138059488Y-83086988D01*
X137987017Y-83212511D01*
X137987016Y-83212515D01*
X137949500Y-83352525D01*
X132827026Y-83352525D01*
X132818414Y-83340672D01*
X132695928Y-83218186D01*
X132555788Y-83116368D01*
X132401447Y-83037728D01*
X132401446Y-83037727D01*
X132401445Y-83037727D01*
X132236701Y-82984198D01*
X132236699Y-82984197D01*
X132236698Y-82984197D01*
X132088359Y-82960703D01*
X132065611Y-82957100D01*
X131892389Y-82957100D01*
X131869641Y-82960703D01*
X131721302Y-82984197D01*
X131556552Y-83037728D01*
X131402211Y-83116368D01*
X131334725Y-83165400D01*
X131262072Y-83218186D01*
X131262070Y-83218188D01*
X131262069Y-83218188D01*
X131139588Y-83340669D01*
X131139588Y-83340670D01*
X131139586Y-83340672D01*
X131130973Y-83352527D01*
X131037768Y-83480811D01*
X130959128Y-83635152D01*
X130905597Y-83799902D01*
X130878500Y-83970989D01*
X128529500Y-83970989D01*
X128529500Y-81430989D01*
X130878500Y-81430989D01*
X130878500Y-81604211D01*
X130884557Y-81642452D01*
X130901395Y-81748769D01*
X130905598Y-81775301D01*
X130959127Y-81940045D01*
X131037768Y-82094388D01*
X131139586Y-82234528D01*
X131262072Y-82357014D01*
X131402212Y-82458832D01*
X131556555Y-82537473D01*
X131721299Y-82591002D01*
X131892389Y-82618100D01*
X131892390Y-82618100D01*
X132065610Y-82618100D01*
X132065611Y-82618100D01*
X132236701Y-82591002D01*
X132401445Y-82537473D01*
X132555788Y-82458832D01*
X132695928Y-82357014D01*
X132818414Y-82234528D01*
X132920232Y-82094388D01*
X132998873Y-81940045D01*
X133052402Y-81775301D01*
X133059326Y-81731582D01*
X140100001Y-81731582D01*
X140106408Y-81802102D01*
X140106409Y-81802107D01*
X140156981Y-81964396D01*
X140244927Y-82109877D01*
X140365122Y-82230072D01*
X140510604Y-82318019D01*
X140510603Y-82318019D01*
X140672894Y-82368590D01*
X140672893Y-82368590D01*
X140743408Y-82374998D01*
X140743426Y-82374999D01*
X140749999Y-82374998D01*
X140750000Y-82374998D01*
X140750000Y-81650000D01*
X140100001Y-81650000D01*
X140100001Y-81731582D01*
X133059326Y-81731582D01*
X133079500Y-81604211D01*
X133079500Y-81430989D01*
X133052402Y-81259899D01*
X132998873Y-81095155D01*
X132985255Y-81068427D01*
X140100000Y-81068427D01*
X140100000Y-81150000D01*
X140750000Y-81150000D01*
X140750000Y-80425000D01*
X140749999Y-80424999D01*
X140743436Y-80425000D01*
X140743417Y-80425001D01*
X140672897Y-80431408D01*
X140672892Y-80431409D01*
X140510603Y-80481981D01*
X140365122Y-80569927D01*
X140244927Y-80690122D01*
X140156980Y-80835604D01*
X140106409Y-80997893D01*
X140100000Y-81068427D01*
X132985255Y-81068427D01*
X132920232Y-80940812D01*
X132818414Y-80800672D01*
X132695928Y-80678186D01*
X132555788Y-80576368D01*
X132401445Y-80497727D01*
X132236701Y-80444198D01*
X132236699Y-80444197D01*
X132236698Y-80444197D01*
X132105271Y-80423381D01*
X132065611Y-80417100D01*
X131892389Y-80417100D01*
X131852728Y-80423381D01*
X131721302Y-80444197D01*
X131556552Y-80497728D01*
X131402211Y-80576368D01*
X131322256Y-80634459D01*
X131262072Y-80678186D01*
X131262070Y-80678188D01*
X131262069Y-80678188D01*
X131139588Y-80800669D01*
X131139588Y-80800670D01*
X131139586Y-80800672D01*
X131103560Y-80850258D01*
X131037768Y-80940811D01*
X130959128Y-81095152D01*
X130959127Y-81095154D01*
X130959127Y-81095155D01*
X130941307Y-81150000D01*
X130905597Y-81259902D01*
X130890165Y-81357339D01*
X130878500Y-81430989D01*
X128529500Y-81430989D01*
X128529500Y-78102921D01*
X130878500Y-78102921D01*
X130878500Y-79852278D01*
X130893032Y-79925335D01*
X130893033Y-79925339D01*
X130893034Y-79925340D01*
X130948399Y-80008201D01*
X131031260Y-80063566D01*
X131031264Y-80063567D01*
X131104321Y-80078099D01*
X131104324Y-80078100D01*
X131104326Y-80078100D01*
X132853676Y-80078100D01*
X132853677Y-80078099D01*
X132926740Y-80063566D01*
X133009601Y-80008201D01*
X133064966Y-79925340D01*
X133079500Y-79852274D01*
X133079500Y-78102926D01*
X133079500Y-78102923D01*
X133079499Y-78102921D01*
X133064967Y-78029864D01*
X133064966Y-78029860D01*
X133009601Y-77946999D01*
X132926740Y-77891634D01*
X132926739Y-77891633D01*
X132926735Y-77891632D01*
X132853677Y-77877100D01*
X132853674Y-77877100D01*
X131104326Y-77877100D01*
X131104323Y-77877100D01*
X131031264Y-77891632D01*
X131031260Y-77891633D01*
X130948399Y-77946999D01*
X130893033Y-78029860D01*
X130893032Y-78029864D01*
X130878500Y-78102921D01*
X128529500Y-78102921D01*
X128529500Y-72519870D01*
X128529726Y-72512383D01*
X128547271Y-72222325D01*
X128549076Y-72207460D01*
X128586213Y-72004815D01*
X128600780Y-71925318D01*
X128604364Y-71910784D01*
X128610212Y-71892017D01*
X128689699Y-71636932D01*
X128694997Y-71622962D01*
X128812727Y-71361378D01*
X128819680Y-71348132D01*
X128901681Y-71212485D01*
X128968075Y-71102654D01*
X128976567Y-71090350D01*
X129153481Y-70864537D01*
X129163396Y-70853346D01*
X129366226Y-70650516D01*
X129377417Y-70640601D01*
X129603230Y-70463687D01*
X129615534Y-70455195D01*
X129861012Y-70306800D01*
X129874258Y-70299847D01*
X130135842Y-70182117D01*
X130149812Y-70176819D01*
X130423668Y-70091482D01*
X130438198Y-70087900D01*
X130720344Y-70036195D01*
X130735201Y-70034391D01*
X131025264Y-70016846D01*
X131032751Y-70016620D01*
X131094892Y-70016620D01*
X172963108Y-70016620D01*
X173025249Y-70016620D01*
X173032736Y-70016846D01*
G37*
%TD.AperFunction*%
%TD*%
M02*
