%TF.GenerationSoftware,KiCad,Pcbnew,9.0.9-9.0.9~ubuntu24.04.1*%
%TF.CreationDate,2026-07-10T16:52:31-05:00*%
%TF.ProjectId,ESP32_LogicAnalyzer,45535033-325f-44c6-9f67-6963416e616c,rev?*%
%TF.SameCoordinates,Original*%
%TF.FileFunction,Soldermask,Top*%
%TF.FilePolarity,Negative*%
%FSLAX46Y46*%
G04 Gerber Fmt 4.6, Leading zero omitted, Abs format (unit mm)*
G04 Created by KiCad (PCBNEW 9.0.9-9.0.9~ubuntu24.04.1) date 2026-07-10 16:52:31*
%MOMM*%
%LPD*%
G01*
G04 APERTURE LIST*
G04 Aperture macros list*
%AMRoundRect*
0 Rectangle with rounded corners*
0 $1 Rounding radius*
0 $2 $3 $4 $5 $6 $7 $8 $9 X,Y pos of 4 corners*
0 Add a 4 corners polygon primitive as box body*
4,1,4,$2,$3,$4,$5,$6,$7,$8,$9,$2,$3,0*
0 Add four circle primitives for the rounded corners*
1,1,$1+$1,$2,$3*
1,1,$1+$1,$4,$5*
1,1,$1+$1,$6,$7*
1,1,$1+$1,$8,$9*
0 Add four rect primitives between the rounded corners*
20,1,$1+$1,$2,$3,$4,$5,0*
20,1,$1+$1,$4,$5,$6,$7,0*
20,1,$1+$1,$6,$7,$8,$9,0*
20,1,$1+$1,$8,$9,$2,$3,0*%
G04 Aperture macros list end*
%ADD10RoundRect,0.200000X-0.200000X-0.275000X0.200000X-0.275000X0.200000X0.275000X-0.200000X0.275000X0*%
%ADD11R,1.700000X1.700000*%
%ADD12C,1.700000*%
%ADD13RoundRect,0.200000X0.275000X-0.200000X0.275000X0.200000X-0.275000X0.200000X-0.275000X-0.200000X0*%
%ADD14RoundRect,0.100000X-0.100000X0.637500X-0.100000X-0.637500X0.100000X-0.637500X0.100000X0.637500X0*%
%ADD15RoundRect,0.225000X-0.250000X0.225000X-0.250000X-0.225000X0.250000X-0.225000X0.250000X0.225000X0*%
%ADD16RoundRect,0.100000X0.100000X-0.637500X0.100000X0.637500X-0.100000X0.637500X-0.100000X-0.637500X0*%
%ADD17RoundRect,0.225000X0.250000X-0.225000X0.250000X0.225000X-0.250000X0.225000X-0.250000X-0.225000X0*%
G04 APERTURE END LIST*
D10*
%TO.C,R4*%
X146700000Y-108600000D03*
X148350000Y-108600000D03*
%TD*%
D11*
%TO.C,J4*%
X164693000Y-82064900D03*
D12*
X167233000Y-82064900D03*
X169773000Y-82064900D03*
%TD*%
D13*
%TO.C,R3*%
X148236400Y-102625000D03*
X148236400Y-100975000D03*
%TD*%
D14*
%TO.C,U2*%
X146826600Y-100935000D03*
X146176600Y-100935000D03*
X145526600Y-100935000D03*
X144876600Y-100935000D03*
X144226600Y-100935000D03*
X143576600Y-100935000D03*
X142926600Y-100935000D03*
X142276600Y-100935000D03*
X141626600Y-100935000D03*
X140976600Y-100935000D03*
X140976600Y-106660000D03*
X141626600Y-106660000D03*
X142276600Y-106660000D03*
X142926600Y-106660000D03*
X143576600Y-106660000D03*
X144226600Y-106660000D03*
X144876600Y-106660000D03*
X145526600Y-106660000D03*
X146176600Y-106660000D03*
X146826600Y-106660000D03*
%TD*%
D11*
%TO.C,J1*%
X131979000Y-78977600D03*
D12*
X131979000Y-81517600D03*
X131979000Y-84057600D03*
X131979000Y-86597600D03*
X131979000Y-89137600D03*
X131979000Y-91677600D03*
X131979000Y-94217600D03*
X131979000Y-96757600D03*
X131979000Y-99297600D03*
X131979000Y-101837600D03*
X131979000Y-104377600D03*
X131979000Y-106917600D03*
X131979000Y-109457600D03*
X131979000Y-111997600D03*
X131979000Y-114537600D03*
%TD*%
D15*
%TO.C,C1*%
X148228989Y-105074019D03*
X148228989Y-106624019D03*
%TD*%
D13*
%TO.C,R2*%
X141111600Y-89025000D03*
X141111600Y-87375000D03*
%TD*%
D16*
%TO.C,U1*%
X142581400Y-89070000D03*
X143231400Y-89070000D03*
X143881400Y-89070000D03*
X144531400Y-89070000D03*
X145181400Y-89070000D03*
X145831400Y-89070000D03*
X146481400Y-89070000D03*
X147131400Y-89070000D03*
X147781400Y-89070000D03*
X148431400Y-89070000D03*
X148431400Y-83345000D03*
X147781400Y-83345000D03*
X147131400Y-83345000D03*
X146481400Y-83345000D03*
X145831400Y-83345000D03*
X145181400Y-83345000D03*
X144531400Y-83345000D03*
X143881400Y-83345000D03*
X143231400Y-83345000D03*
X142581400Y-83345000D03*
%TD*%
D10*
%TO.C,R1*%
X141000000Y-81400000D03*
X142650000Y-81400000D03*
%TD*%
D11*
%TO.C,J3*%
X166173000Y-89176000D03*
D12*
X168713000Y-89176000D03*
X166173000Y-91716000D03*
X168713000Y-91716000D03*
X166173000Y-94256000D03*
X168713000Y-94256000D03*
X166173000Y-96796000D03*
X168713000Y-96796000D03*
X166173000Y-99336000D03*
X168713000Y-99336000D03*
X166173000Y-101876000D03*
X168713000Y-101876000D03*
X166173000Y-104416000D03*
X168713000Y-104416000D03*
X166173000Y-106956000D03*
X168713000Y-106956000D03*
X166173000Y-109496000D03*
X168713000Y-109496000D03*
X166173000Y-112036000D03*
X168713000Y-112036000D03*
%TD*%
D11*
%TO.C,J2*%
X157379000Y-78977600D03*
D12*
X157379000Y-81517600D03*
X157379000Y-84057600D03*
X157379000Y-86597600D03*
X157379000Y-89137600D03*
X157379000Y-91677600D03*
X157379000Y-94217600D03*
X157379000Y-96757600D03*
X157379000Y-99297600D03*
X157379000Y-101837600D03*
X157379000Y-104377600D03*
X157379000Y-106917600D03*
X157379000Y-109457600D03*
X157379000Y-111997600D03*
X157379000Y-114537600D03*
%TD*%
D17*
%TO.C,C2*%
X141101600Y-84975000D03*
X141101600Y-83425000D03*
%TD*%
M02*
