M48
; DRILL file {KiCad 9.0.9-9.0.9~ubuntu24.04.1} date 2026-07-10T16:52:17-0500
; FORMAT={-:-/ absolute / metric / decimal}
; #@! TF.CreationDate,2026-07-10T16:52:17-05:00
; #@! TF.GenerationSoftware,Kicad,Pcbnew,9.0.9-9.0.9~ubuntu24.04.1
; #@! TF.FileFunction,Plated,1,2,PTH
FMAT,2
METRIC
; #@! TA.AperFunction,Plated,PTH,ViaDrill
T1C0.300
; #@! TA.AperFunction,Plated,PTH,ComponentDrill
T2C1.000
%
G90
G05
T1
X138.5Y-83.425
X160.2Y-75.875
X160.2Y-121.325
X161.0Y-74.475
X161.0Y-117.275
X161.8Y-73.075
X161.8Y-118.625
X162.6Y-71.625
X162.675Y-119.975
X171.8Y-119.4
X172.0Y-71.0
X172.6Y-118.0
X172.795Y-72.405
X173.4Y-116.6
X173.6Y-73.8
X174.2Y-120.6
X174.4Y-75.2
T2
X131.979Y-78.978
X131.979Y-81.518
X131.979Y-84.058
X131.979Y-86.598
X131.979Y-89.138
X131.979Y-91.678
X131.979Y-94.218
X131.979Y-96.758
X131.979Y-99.298
X131.979Y-101.838
X131.979Y-104.378
X131.979Y-106.918
X131.979Y-109.458
X131.979Y-111.998
X131.979Y-114.538
X157.379Y-78.978
X157.379Y-81.518
X157.379Y-84.058
X157.379Y-86.598
X157.379Y-89.138
X157.379Y-91.678
X157.379Y-94.218
X157.379Y-96.758
X157.379Y-99.298
X157.379Y-101.838
X157.379Y-104.378
X157.379Y-106.918
X157.379Y-109.458
X157.379Y-111.998
X157.379Y-114.538
X164.693Y-82.065
X166.173Y-89.176
X166.173Y-91.716
X166.173Y-94.256
X166.173Y-96.796
X166.173Y-99.336
X166.173Y-101.876
X166.173Y-104.416
X166.173Y-106.956
X166.173Y-109.496
X166.173Y-112.036
X167.233Y-82.065
X168.713Y-89.176
X168.713Y-91.716
X168.713Y-94.256
X168.713Y-96.796
X168.713Y-99.336
X168.713Y-101.876
X168.713Y-104.416
X168.713Y-106.956
X168.713Y-109.496
X168.713Y-112.036
X169.773Y-82.065
M30
