%TF.GenerationSoftware,KiCad,Pcbnew,9.0.9-9.0.9~ubuntu24.04.1*%
%TF.CreationDate,2026-07-10T16:52:31-05:00*%
%TF.ProjectId,ESP32_LogicAnalyzer,45535033-325f-44c6-9f67-6963416e616c,rev?*%
%TF.SameCoordinates,Original*%
%TF.FileFunction,Soldermask,Bot*%
%TF.FilePolarity,Negative*%
%FSLAX46Y46*%
G04 Gerber Fmt 4.6, Leading zero omitted, Abs format (unit mm)*
G04 Created by KiCad (PCBNEW 9.0.9-9.0.9~ubuntu24.04.1) date 2026-07-10 16:52:31*
%MOMM*%
%LPD*%
G01*
G04 APERTURE LIST*
%ADD10R,1.700000X1.700000*%
%ADD11C,1.700000*%
G04 APERTURE END LIST*
D10*
%TO.C,J4*%
X164693000Y-82064900D03*
D11*
X167233000Y-82064900D03*
X169773000Y-82064900D03*
%TD*%
D10*
%TO.C,J1*%
X131979000Y-78977600D03*
D11*
X131979000Y-81517600D03*
X131979000Y-84057600D03*
X131979000Y-86597600D03*
X131979000Y-89137600D03*
X131979000Y-91677600D03*
X131979000Y-94217600D03*
X131979000Y-96757600D03*
X131979000Y-99297600D03*
X131979000Y-101837600D03*
X131979000Y-104377600D03*
X131979000Y-106917600D03*
X131979000Y-109457600D03*
X131979000Y-111997600D03*
X131979000Y-114537600D03*
%TD*%
D10*
%TO.C,J3*%
X166173000Y-89176000D03*
D11*
X168713000Y-89176000D03*
X166173000Y-91716000D03*
X168713000Y-91716000D03*
X166173000Y-94256000D03*
X168713000Y-94256000D03*
X166173000Y-96796000D03*
X168713000Y-96796000D03*
X166173000Y-99336000D03*
X168713000Y-99336000D03*
X166173000Y-101876000D03*
X168713000Y-101876000D03*
X166173000Y-104416000D03*
X168713000Y-104416000D03*
X166173000Y-106956000D03*
X168713000Y-106956000D03*
X166173000Y-109496000D03*
X168713000Y-109496000D03*
X166173000Y-112036000D03*
X168713000Y-112036000D03*
%TD*%
D10*
%TO.C,J2*%
X157379000Y-78977600D03*
D11*
X157379000Y-81517600D03*
X157379000Y-84057600D03*
X157379000Y-86597600D03*
X157379000Y-89137600D03*
X157379000Y-91677600D03*
X157379000Y-94217600D03*
X157379000Y-96757600D03*
X157379000Y-99297600D03*
X157379000Y-101837600D03*
X157379000Y-104377600D03*
X157379000Y-106917600D03*
X157379000Y-109457600D03*
X157379000Y-111997600D03*
X157379000Y-114537600D03*
%TD*%
M02*
